<?xml version="1.0" encoding="UTF-8" standalone="yes"?><svg xmlns="http://www.w3.org/2000/svg" xmlns:xlink="http://www.w3.org/1999/xlink" height="103px" style="width:235px;height:103px;" version="1.1" viewBox="0 0 235 103" width="235px"><defs><filter height="300%" id="f1" width="300%" x="-1" y="-1"><feGaussianBlur result="blurOut" stdDeviation="2.0"/><feColorMatrix in="blurOut" result="blurOut2" type="matrix" values="0 0 0 0 0 0 0 0 0 0 0 0 0 0 0 0 0 0 .4 0"/><feOffset dx="4.0" dy="4.0" in="blurOut2" result="blurOut3"/><feBlend in="SourceGraphic" in2="blurOut3" mode="normal"/></filter></defs><g><rect fill="#FEFECE" filter="url(#f1)" height="86.8652" style="stroke: #A80036; stroke-width: 1.5;" width="84" x="142.5" y="8"/><ellipse cx="165.15" cy="24" fill="#ADD1B2" rx="11" ry="11" style="stroke: #A80036; stroke-width: 1.0;"/><path d="M168.1231,29.6431 Q167.5421,29.9419 166.9029,30.0913 Q166.2638,30.2407 165.5582,30.2407 Q163.0514,30.2407 161.7315,28.5889 Q160.4117,26.937 160.4117,23.8159 Q160.4117,20.6865 161.7315,19.0347 Q163.0514,17.3828 165.5582,17.3828 Q166.2638,17.3828 166.9112,17.5322 Q167.5587,17.6816 168.1231,17.9805 L168.1231,20.7031 Q167.4923,20.1221 166.8988,19.8523 Q166.3053,19.5825 165.6744,19.5825 Q164.3297,19.5825 163.6449,20.6492 Q162.9601,21.7158 162.9601,23.8159 Q162.9601,25.9077 163.6449,26.9744 Q164.3297,28.041 165.6744,28.041 Q166.3053,28.041 166.8988,27.7712 Q167.4923,27.5015 168.1231,26.9204 Z "/><text fill="#000000" font-family="sans-serif" font-size="12" lengthAdjust="spacingAndGlyphs" textLength="35" x="180.85" y="28.5352">Player</text><line style="stroke: #A80036; stroke-width: 1.5;" x1="143.5" x2="225.5" y1="40" y2="40"/><ellipse cx="153.5" cy="51.9775" fill="none" rx="3" ry="3" style="stroke: #038048; stroke-width: 1.0;"/><text fill="#000000" font-family="sans-serif" font-size="11" lengthAdjust="spacingAndGlyphs" textLength="58" x="162.5" y="54.6348">id: PlayerId</text><ellipse cx="153.5" cy="64.9326" fill="none" rx="3" ry="3" style="stroke: #038048; stroke-width: 1.0;"/><text fill="#000000" font-family="sans-serif" font-size="11" lengthAdjust="spacingAndGlyphs" textLength="34" x="162.5" y="67.5898">xp: Int</text><ellipse cx="153.5" cy="77.8877" fill="none" rx="3" ry="3" style="stroke: #038048; stroke-width: 1.0;"/><text fill="#000000" font-family="sans-serif" font-size="11" lengthAdjust="spacingAndGlyphs" textLength="57" x="162.5" y="80.5449">credits: Int</text><line style="stroke: #A80036; stroke-width: 1.5;" x1="143.5" x2="225.5" y1="86.8652" y2="86.8652"/><rect fill="#FEFECE" filter="url(#f1)" height="67.2207" style="stroke: #A80036; stroke-width: 1.5;" width="101" x="6" y="18"/><ellipse cx="21" cy="37.1328" fill="#ADD1B2" rx="11" ry="11" style="stroke: #A80036; stroke-width: 1.0;"/><path d="M23.9731,42.7759 Q23.3921,43.0747 22.7529,43.2241 Q22.1138,43.3735 21.4082,43.3735 Q18.9014,43.3735 17.5815,41.7217 Q16.2617,40.0698 16.2617,36.9487 Q16.2617,33.8193 17.5815,32.1675 Q18.9014,30.5156 21.4082,30.5156 Q22.1138,30.5156 22.7612,30.665 Q23.4087,30.8145 23.9731,31.1133 L23.9731,33.8359 Q23.3423,33.2549 22.7488,32.9851 Q22.1553,32.7153 21.5244,32.7153 Q20.1797,32.7153 19.4949,33.782 Q18.8101,34.8486 18.8101,36.9487 Q18.8101,39.0405 19.4949,40.1072 Q20.1797,41.1738 21.5244,41.1738 Q22.1553,41.1738 22.7488,40.9041 Q23.3423,40.6343 23.9731,40.0532 Z "/><text fill="#000000" font-family="sans-serif" font-size="12" font-style="italic" lengthAdjust="spacingAndGlyphs" textLength="73" x="33" y="34.6016">«Immutable»</text><text fill="#000000" font-family="sans-serif" font-size="12" lengthAdjust="spacingAndGlyphs" textLength="46" x="46.5" y="48.7344">PlayerId</text><line style="stroke: #A80036; stroke-width: 1.5;" x1="7" x2="106" y1="56.2656" y2="56.2656"/><ellipse cx="17" cy="68.2432" fill="none" rx="3" ry="3" style="stroke: #038048; stroke-width: 1.0;"/><text fill="#000000" font-family="sans-serif" font-size="11" lengthAdjust="spacingAndGlyphs" textLength="66" x="26" y="70.9004">value: String</text><line style="stroke: #A80036; stroke-width: 1.5;" x1="7" x2="106" y1="77.2207" y2="77.2207"/><path d="M107.5,51.5 C119.13,51.5 130.76,51.5 142.391,51.5 " fill="none" style="stroke: #A80036; stroke-width: 1.0;"/></g></svg>