<?xml version="1.0" encoding="us-ascii" standalone="no"?><svg xmlns="http://www.w3.org/2000/svg" xmlns:xlink="http://www.w3.org/1999/xlink" contentStyleType="text/css" height="575px" preserveAspectRatio="none" style="width:549px;height:575px;" version="1.1" viewBox="0 0 549 575" width="549px" zoomAndPan="magnify"><defs/><g><ellipse cx="242.5" cy="16" fill="#222222" rx="10" ry="10" style="stroke:#222222;stroke-width:1.0;"/><path d="M198,86 L287,86 A3.5,3.5 0 0 1 290.5,89.5 L290.5,112.2969 L194.5,112.2969 L194.5,89.5 A3.5,3.5 0 0 1 198,86 " fill="#F1F1F1" style="stroke:#F1F1F1;stroke-width:1.0;"/><rect fill="none" height="153.2969" rx="3.5" ry="3.5" style="stroke:#181818;stroke-width:0.5;" width="96" x="194.5" y="86"/><line style="stroke:#181818;stroke-width:0.5;" x1="194.5" x2="290.5" y1="112.2969" y2="112.2969"/><text fill="#000000" font-family="sans-serif" font-size="14" lengthAdjust="spacing" textLength="30" x="227.5" y="103.9951">New</text><ellipse cx="244" cy="133.2969" fill="#222222" rx="10" ry="10" style="stroke:#222222;stroke-width:1.0;"/><g id="New.Created"><rect fill="#F1F1F1" height="50" rx="3.5" ry="3.5" style="stroke:#181818;stroke-width:0.5;" width="75" x="206.5" y="179.2969"/><line style="stroke:#181818;stroke-width:0.5;" x1="206.5" x2="281.5" y1="205.5937" y2="205.5937"/><text fill="#000000" font-family="sans-serif" font-size="14" lengthAdjust="spacing" textLength="55" x="216.5" y="197.292">Created</text></g><!--link *start*New to Created--><g id="link_*start*New_Created"><path d="M244,143.7769 C244,153.0269 244,160.9069 244,173.0369 " fill="none" id="*start*New-to-Created" style="stroke:#454645;stroke-width:1.0;"/><polygon fill="#454645" points="244,179.0369,248,170.0369,244,174.0369,240,170.0369,244,179.0369" style="stroke:#454645;stroke-width:1.0;"/></g><g id="Ready"><rect fill="#F1F1F1" height="50" rx="3.5" ry="3.5" style="stroke:#181818;stroke-width:0.5;" width="63" x="211" y="299.3"/><line style="stroke:#181818;stroke-width:0.5;" x1="211" x2="274" y1="325.5969" y2="325.5969"/><text fill="#000000" font-family="sans-serif" font-size="14" lengthAdjust="spacing" textLength="43" x="221" y="317.2951">Ready</text></g><g id="Running"><rect fill="#F1F1F1" height="50" rx="3.5" ry="3.5" style="stroke:#181818;stroke-width:0.5;" width="78" x="203.5" y="409.3"/><line style="stroke:#181818;stroke-width:0.5;" x1="203.5" x2="281.5" y1="435.5969" y2="435.5969"/><text fill="#000000" font-family="sans-serif" font-size="14" lengthAdjust="spacing" textLength="58" x="213.5" y="427.2951">Running</text></g><g id="Waiting"><rect fill="#F1F1F1" height="50" rx="3.5" ry="3.5" style="stroke:#181818;stroke-width:0.5;" width="70" x="299.5" y="519.3"/><line style="stroke:#181818;stroke-width:0.5;" x1="299.5" x2="369.5" y1="545.5969" y2="545.5969"/><text fill="#000000" font-family="sans-serif" font-size="14" lengthAdjust="spacing" textLength="50" x="309.5" y="537.2951">Waiting</text></g><g id="Terminated"><rect fill="#F1F1F1" height="50" rx="3.5" ry="3.5" style="stroke:#181818;stroke-width:0.5;" width="99" x="166" y="519.3"/><line style="stroke:#181818;stroke-width:0.5;" x1="166" x2="265" y1="545.5969" y2="545.5969"/><text fill="#000000" font-family="sans-serif" font-size="14" lengthAdjust="spacing" textLength="79" x="176" y="537.2951">Terminated</text></g><g id="elem_GMN18"><path d="M61,153.59 L61,171.7228 A3.5,3.5 0 0 0 64.5,175.2228 L156.5,175.2228 A3.5,3.5 0 0 0 160,171.7228 L160,168.09 L194.27,163.3 L160,160.09 L160,160.09 L150,150.09 L64.5,150.09 A3.5,3.5 0 0 0 61,153.59 " fill="#90EE90" style="stroke:#454645;stroke-width:1.0;"/><path d="M150,150.09 L150,158.34 A1.75,1.75 0 0 0 151.75,160.09 L160,160.09 L150,150.09 " fill="#90EE90" style="stroke:#454645;stroke-width:1.0;"/><text fill="#454645" font-family="sans-serif" font-size="13" lengthAdjust="spacing" textLength="78" x="67" y="167.1569">&#36827;&#31243;&#21018;&#34987;&#21019;&#24314;</text></g><g id="elem_GMN21"><path d="M309.5,315.23 L309.5,321.3 L274.29,325.3 L309.5,329.3 L309.5,333.3628 A3.5,3.5 0 0 0 313,336.8628 L414,336.8628 A3.5,3.5 0 0 0 417.5,333.3628 L417.5,321.73 L407.5,311.73 L313,311.73 A3.5,3.5 0 0 0 309.5,315.23 " fill="#90EE90" style="stroke:#454645;stroke-width:1.0;"/><path d="M407.5,311.73 L407.5,319.98 A1.75,1.75 0 0 0 409.25,321.73 L417.5,321.73 L407.5,311.73 " fill="#90EE90" style="stroke:#454645;stroke-width:1.0;"/><text fill="#454645" font-family="sans-serif" font-size="13" lengthAdjust="spacing" textLength="87" x="315.5" y="328.7969">&#31561;&#24453; CPU &#35843;&#24230;</text></g><g id="elem_GMN24"><path d="M96,425.23 L96,443.3628 A3.5,3.5 0 0 0 99.5,446.8628 L165.5,446.8628 A3.5,3.5 0 0 0 169,443.3628 L169,439.73 L203.21,435.3 L169,431.73 L169,431.73 L159,421.73 L99.5,421.73 A3.5,3.5 0 0 0 96,425.23 " fill="#90EE90" style="stroke:#454645;stroke-width:1.0;"/><path d="M159,421.73 L159,429.98 A1.75,1.75 0 0 0 160.75,431.73 L169,431.73 L159,421.73 " fill="#90EE90" style="stroke:#454645;stroke-width:1.0;"/><text fill="#454645" font-family="sans-serif" font-size="13" lengthAdjust="spacing" textLength="52" x="102" y="438.7969">&#27491;&#22312;&#25191;&#34892;</text></g><g id="elem_GMN27"><path d="M405,535.23 L405,541.3 L369.94,545.3 L405,549.3 L405,553.3628 A3.5,3.5 0 0 0 408.5,556.8628 L538.5,556.8628 A3.5,3.5 0 0 0 542,553.3628 L542,541.73 L532,531.73 L408.5,531.73 A3.5,3.5 0 0 0 405,535.23 " fill="#90EE90" style="stroke:#454645;stroke-width:1.0;"/><path d="M532,531.73 L532,539.98 A1.75,1.75 0 0 0 533.75,541.73 L542,541.73 L532,531.73 " fill="#90EE90" style="stroke:#454645;stroke-width:1.0;"/><text fill="#454645" font-family="sans-serif" font-size="13" lengthAdjust="spacing" textLength="116" x="411" y="548.7969">&#31561;&#24453; I/O &#25110;&#20107;&#20214;&#23436;&#25104;</text></g><g id="elem_GMN30"><path d="M6,535.23 L6,553.3628 A3.5,3.5 0 0 0 9.5,556.8628 L127.5,556.8628 A3.5,3.5 0 0 0 131,553.3628 L131,549.73 L165.83,545.3 L131,541.73 L131,541.73 L121,531.73 L9.5,531.73 A3.5,3.5 0 0 0 6,535.23 " fill="#90EE90" style="stroke:#454645;stroke-width:1.0;"/><path d="M121,531.73 L121,539.98 A1.75,1.75 0 0 0 122.75,541.73 L131,541.73 L121,531.73 " fill="#90EE90" style="stroke:#454645;stroke-width:1.0;"/><text fill="#454645" font-family="sans-serif" font-size="13" lengthAdjust="spacing" textLength="104" x="12" y="548.7969">&#25191;&#34892;&#23436;&#27605;&#25110;&#34987;&#32456;&#27490;</text></g><!--link *start* to New--><g id="link_*start*_New"><path d="M242.5,26.08 C242.5,38.83 242.5,55.99 242.5,79.66 " fill="none" id="*start*-to-New" style="stroke:#454645;stroke-width:1.0;"/><polygon fill="#454645" points="242.5,85.66,246.5,76.66,242.5,80.66,238.5,76.66,242.5,85.66" style="stroke:#454645;stroke-width:1.0;"/></g><!--link New to Ready--><g id="link_New_Ready"><path d="M242.5,239.69 C242.5,261.16 242.5,276.98 242.5,293.09 " fill="none" id="New-to-Ready" style="stroke:#454645;stroke-width:1.0;"/><polygon fill="#454645" points="242.5,299.09,246.5,290.09,242.5,294.09,238.5,290.09,242.5,299.09" style="stroke:#454645;stroke-width:1.0;"/><text fill="#000000" font-family="sans-serif" font-size="13" lengthAdjust="spacing" textLength="47" x="194.5" y="265.4569">admit()</text></g><!--link Ready to Running--><g id="link_Ready_Running"><path d="M232,349.54 C232,367.3 232,384.98 232,402.8 " fill="none" id="Ready-to-Running" style="stroke:#454645;stroke-width:1.0;"/><polygon fill="#454645" points="232,408.8,236,399.8,232,403.8,228,399.8,232,408.8" style="stroke:#454645;stroke-width:1.0;"/><text fill="#000000" font-family="sans-serif" font-size="13" lengthAdjust="spacing" textLength="67" x="164" y="375.2369">schedule()</text></g><!--link Running to Ready--><g id="link_Running_Ready"><path d="M253,409.06 C253,391.3 253,373.62 253,355.8 " fill="none" id="Running-to-Ready" style="stroke:#454645;stroke-width:1.0;"/><polygon fill="#454645" points="253,349.8,249,358.8,253,354.8,257,358.8,253,349.8" style="stroke:#454645;stroke-width:1.0;"/><text fill="#000000" font-family="sans-serif" font-size="13" lengthAdjust="spacing" textLength="65" x="187" y="392.4969">interrupt()</text></g><!--link Running to Waiting--><g id="link_Running_Waiting"><path d="M281.73,435.3 C293.26,435.3 302.83,435.3 302.83,435.3 C302.83,435.3 302.83,480.82 302.83,513.02 " fill="none" id="Running-to-Waiting" style="stroke:#454645;stroke-width:1.0;"/><polygon fill="#454645" points="302.83,519.02,306.83,510.02,302.83,514.02,298.83,510.02,302.83,519.02" style="stroke:#454645;stroke-width:1.0;"/><text fill="#000000" font-family="sans-serif" font-size="13" lengthAdjust="spacing" textLength="48" x="253.83" y="479.6769">ioWait()</text></g><!--link Running to Terminated--><g id="link_Running_Terminated"><path d="M234.25,459.54 C234.25,477.3 234.25,494.98 234.25,512.8 " fill="none" id="Running-to-Terminated" style="stroke:#454645;stroke-width:1.0;"/><polygon fill="#454645" points="234.25,518.8,238.25,509.8,234.25,513.8,230.25,509.8,234.25,518.8" style="stroke:#454645;stroke-width:1.0;"/><text fill="#000000" font-family="sans-serif" font-size="13" lengthAdjust="spacing" textLength="33" x="200.25" y="485.2369">exit()</text></g><!--link Waiting to Ready--><g id="link_Waiting_Ready"><path d="M306.17,518.84 C306.17,464.76 306.17,343.3 306.17,343.3 C306.17,343.3 296.25,343.3 280.33,343.3 " fill="none" id="Waiting-to-Ready" style="stroke:#454645;stroke-width:1.0;"/><polygon fill="#454645" points="274.33,343.3,283.33,347.3,279.33,343.3,283.33,339.3,274.33,343.3" style="stroke:#454645;stroke-width:1.0;"/><text fill="#000000" font-family="sans-serif" font-size="13" lengthAdjust="spacing" textLength="108" x="307.17" y="411.2169">eventComplete()</text></g><!--SRC=[TP2nJiCm48PtFyMn0LB5pi2IYGKG0Z4W1jDS6ul4ZXm7Y10JGahL3YmmK1QA19LGWOcXbU1bwZIFWPscQbJHpRxl_l-_knNbOO2WH4AYCyP3Aca0fxH-rfGYvguZV251ISeZWv2hIfVFEAeaH0Y5dzZFVqn8vGb2ZjTFe5RRWXsy82HILA5zmXK1c257eYcxv9eGYsnf7wcRm2PGDs1gTOsGQQ50CUUCDmsCwXwwiOy5BwjLCUCAfOn3Qr3bHvIfgGCJzhs03r06ZDk9J0TUJlDdcge_dfkpE288VLJ545oOxNniA12DOc60_BSxwRTr-fZttdNQrQCXGUw2xIpx9MjwXQ2mDPB9eAL_Ri7PEuJywqOFNnSLiuHoQ2F91Y_wgP-rtlBdpbB_SeLvmlR6BcJfmtZO7e- -zKSdI- -MHSrlOjEA72lul3Twizbab6Q3tbpy1m00]--></g></svg>