<svg xmlns="http://www.w3.org/2000/svg" xmlns:xlink="http://www.w3.org/1999/xlink" contentStyleType="text/css" data-diagram-type="CLASS" height="254px" preserveAspectRatio="none" style="width:679px;height:254px;" version="1.1" viewBox="0 0 679 254" width="679px" zoomAndPan="magnify"><defs/><g><!--class Subject--><g class="entity" data-entity="Subject" data-source-line="5" data-uid="ent0002" id="entity_Subject"><rect fill="#F1F1F1" height="88.8906" rx="2.5" ry="2.5" style="stroke:#181818;stroke-width:0.5;" width="188.6816" x="7" y="11.95"/><ellipse cx="70.9229" cy="27.95" fill="#B4A7E5" rx="11" ry="11" style="stroke:#181818;stroke-width:1;"/><path d="M66.8447,23.7156 L66.8447,21.5594 L74.2354,21.5594 L74.2354,23.7156 L71.7666,23.7156 L71.7666,31.7937 L74.2354,31.7937 L74.2354,33.95 L66.8447,33.95 L66.8447,31.7937 L69.3135,31.7937 L69.3135,23.7156 L66.8447,23.7156 Z " fill="#000000"/><text fill="#000000" font-family="sans-serif" font-size="14" font-style="italic" lengthAdjust="spacing" textLength="52.3359" x="91.4229" y="32.7967">Subject</text><line style="stroke:#181818;stroke-width:0.5;" x1="8" x2="194.6816" y1="43.95" y2="43.95"/><ellipse cx="18" cy="57.5984" fill="#84BE84" rx="3" ry="3" style="stroke:#038048;stroke-width:1;"/><text fill="#000000" font-family="sans-serif" font-size="14" lengthAdjust="spacing" textLength="159.25" x="27" y="60.9451">attach(in o : Observer)</text><ellipse cx="18" cy="73.8953" fill="#84BE84" rx="3" ry="3" style="stroke:#038048;stroke-width:1;"/><text fill="#000000" font-family="sans-serif" font-size="14" lengthAdjust="spacing" textLength="162.6816" x="27" y="77.242">detach(in o : Observer)</text><ellipse cx="18" cy="90.1922" fill="#84BE84" rx="3" ry="3" style="stroke:#038048;stroke-width:1;"/><text fill="#000000" font-family="sans-serif" font-size="14" lengthAdjust="spacing" textLength="50.9551" x="27" y="93.5389">notify()</text></g><!--class ConcreteSubject--><g class="entity" data-entity="ConcreteSubject" data-source-line="11" data-uid="ent0003" id="entity_ConcreteSubject"><rect fill="#F1F1F1" height="56.2969" rx="2.5" ry="2.5" style="stroke:#181818;stroke-width:0.5;" width="147.7188" x="21.48" y="178.94"/><ellipse cx="36.48" cy="194.94" fill="#ADD1B2" rx="11" ry="11" style="stroke:#181818;stroke-width:1;"/><path d="M39.4488,200.5806 Q38.8706,200.8775 38.23,201.0181 Q37.5894,201.1744 36.8863,201.1744 Q34.3863,201.1744 33.0581,199.5338 Q31.7456,197.8775 31.7456,194.7525 Q31.7456,191.6275 33.0581,189.9713 Q34.3863,188.315 36.8863,188.315 Q37.5894,188.315 38.23,188.4713 Q38.8863,188.6275 39.4488,188.9244 L39.4488,191.6431 Q38.8238,191.065 38.23,190.7994 Q37.6363,190.5181 37.0113,190.5181 Q35.6675,190.5181 34.98,191.5963 Q34.2925,192.6588 34.2925,194.7525 Q34.2925,196.8463 34.98,197.9244 Q35.6675,198.9869 37.0113,198.9869 Q37.6363,198.9869 38.23,198.7213 Q38.8238,198.44 39.4488,197.8619 L39.4488,200.5806 Z " fill="#000000"/><text fill="#000000" font-family="sans-serif" font-size="14" lengthAdjust="spacing" textLength="115.7188" x="50.48" y="199.7867">ConcreteSubject</text><line style="stroke:#181818;stroke-width:0.5;" x1="22.48" x2="168.1988" y1="210.94" y2="210.94"/><rect fill="none" height="6" style="stroke:#C82930;stroke-width:1;" width="6" x="29.48" y="221.5884"/><text fill="#000000" font-family="sans-serif" font-size="14" lengthAdjust="spacing" textLength="87.8008" x="41.48" y="227.9351">subjectState</text></g><!--class Observer--><g class="entity" data-entity="Observer" data-source-line="15" data-uid="ent0004" id="entity_Observer"><rect fill="#F1F1F1" height="56.2969" rx="2.5" ry="2.5" style="stroke:#181818;stroke-width:0.5;" width="96.2236" x="233.23" y="28.25"/><ellipse cx="248.23" cy="44.25" fill="#B4A7E5" rx="11" ry="11" style="stroke:#181818;stroke-width:1;"/><path d="M244.1519,40.0156 L244.1519,37.8594 L251.5425,37.8594 L251.5425,40.0156 L249.0738,40.0156 L249.0738,48.0938 L251.5425,48.0938 L251.5425,50.25 L244.1519,50.25 L244.1519,48.0938 L246.6206,48.0938 L246.6206,40.0156 L244.1519,40.0156 Z " fill="#000000"/><text fill="#000000" font-family="sans-serif" font-size="14" font-style="italic" lengthAdjust="spacing" textLength="64.2236" x="262.23" y="49.0967">Observer</text><line style="stroke:#181818;stroke-width:0.5;" x1="234.23" x2="328.4536" y1="60.25" y2="60.25"/><ellipse cx="244.23" cy="73.8984" fill="#84BE84" rx="3" ry="3" style="stroke:#038048;stroke-width:1;"/><text fill="#000000" font-family="sans-serif" font-size="14" lengthAdjust="spacing" textLength="60.252" x="253.23" y="77.2451">update()</text></g><!--class ConcreteObserver--><g class="entity" data-entity="ConcreteObserver" data-source-line="19" data-uid="ent0005" id="entity_ConcreteObserver"><rect fill="#F1F1F1" height="80.5938" rx="2.5" ry="2.5" style="stroke:#181818;stroke-width:0.5;" width="159.6064" x="204.54" y="166.8"/><ellipse cx="219.54" cy="182.8" fill="#ADD1B2" rx="11" ry="11" style="stroke:#181818;stroke-width:1;"/><path d="M222.5088,188.4406 Q221.9306,188.7375 221.29,188.8781 Q220.6494,189.0344 219.9463,189.0344 Q217.4463,189.0344 216.1181,187.3937 Q214.8056,185.7375 214.8056,182.6125 Q214.8056,179.4875 216.1181,177.8312 Q217.4463,176.175 219.9463,176.175 Q220.6494,176.175 221.29,176.3312 Q221.9463,176.4875 222.5088,176.7844 L222.5088,179.5031 Q221.8838,178.925 221.29,178.6594 Q220.6963,178.3781 220.0713,178.3781 Q218.7275,178.3781 218.04,179.4562 Q217.3525,180.5187 217.3525,182.6125 Q217.3525,184.7062 218.04,185.7844 Q218.7275,186.8469 220.0713,186.8469 Q220.6963,186.8469 221.29,186.5812 Q221.8838,186.3 222.5088,185.7219 L222.5088,188.4406 Z " fill="#000000"/><text fill="#000000" font-family="sans-serif" font-size="14" lengthAdjust="spacing" textLength="127.6064" x="233.54" y="187.6467">ConcreteObserver</text><line style="stroke:#181818;stroke-width:0.5;" x1="205.54" x2="363.1464" y1="198.8" y2="198.8"/><rect fill="none" height="6" style="stroke:#C82930;stroke-width:1;" width="6" x="212.54" y="209.4484"/><text fill="#000000" font-family="sans-serif" font-size="14" lengthAdjust="spacing" textLength="98.8271" x="224.54" y="215.7951">observerState</text><line style="stroke:#181818;stroke-width:0.5;" x1="205.54" x2="363.1464" y1="223.0969" y2="223.0969"/><ellipse cx="215.54" cy="236.7453" fill="#84BE84" rx="3" ry="3" style="stroke:#038048;stroke-width:1;"/><text fill="#000000" font-family="sans-serif" font-size="14" lengthAdjust="spacing" textLength="60.252" x="224.54" y="240.092">update()</text></g><g class="entity" data-entity="N1" data-source-line="32" data-uid="ent0010" id="entity_N1"><path d="M364.64,6 L364.64,106.7969 L672.0399,106.7969 L672.0399,16 L662.0399,6 L364.64,6" fill="#FEFFDD" style="stroke:#181818;stroke-width:0.5;"/><path d="M662.0399,6 L662.0399,16 L672.0399,16 L662.0399,6" fill="#FEFFDD" style="stroke:#181818;stroke-width:1;"/><text fill="#4169E1" font-family="sans-serif" font-size="13" font-weight="bold" lengthAdjust="spacing" textLength="67.0249" x="370.64" y="23.0669">Observer</text><text fill="#000000" font-family="sans-serif" font-size="13" font-weight="bold" lengthAdjust="spacing" textLength="40.6631" x="370.64" y="38.1997">Type:</text><text fill="#000000" font-family="sans-serif" font-size="13" lengthAdjust="spacing" textLength="69.3037" x="415.4354" y="38.1997">Behavioral</text><text fill="#000000" font-family="sans-serif" font-size="13" lengthAdjust="spacing" textLength="286.3999" x="370.64" y="53.3325">Define a one-to-many dependency between</text><text fill="#000000" font-family="sans-serif" font-size="13" lengthAdjust="spacing" textLength="266.7285" x="370.64" y="68.4653">objects so that when one object changes</text><text fill="#000000" font-family="sans-serif" font-size="13" lengthAdjust="spacing" textLength="264.7354" x="370.64" y="83.5981">state, all its dependents are notified and</text><text fill="#000000" font-family="sans-serif" font-size="13" lengthAdjust="spacing" textLength="150.9473" x="370.64" y="98.731">updated automatically.</text></g><!--link Subject to Observer--><g class="link" data-entity-1="Subject" data-entity-2="Observer" data-source-line="26" data-uid="lnk6" id="link_Subject_Observer"><path codeLine="26" d="M196.08,57.39 C208.79,57.39 215.37,57.39 226.8,57.39" fill="none" id="Subject-to-Observer" style="stroke:#181818;stroke-width:1;"/><polygon fill="#181818" points="232.8,57.39,223.8,53.39,227.8,57.39,223.8,61.39,232.8,57.39" style="stroke:#181818;stroke-width:1;"/><text fill="#000000" font-family="sans-serif" font-size="13" lengthAdjust="spacing" textLength="47.8613" x="190.94" y="70.4569">notifies</text></g><!--reverse link Subject to ConcreteSubject--><g class="link" data-entity-1="Subject" data-entity-2="ConcreteSubject" data-source-line="27" data-uid="lnk7" id="link_Subject_ConcreteSubject"><path codeLine="27" d="M95.34,119.2 C95.34,144.36 95.34,156.99 95.34,178.82" fill="none" id="Subject-backto-ConcreteSubject" style="stroke:#181818;stroke-width:1;"/><polygon fill="none" points="95.34,101.2,89.34,119.2,101.34,119.2,95.34,101.2" style="stroke:#181818;stroke-width:1;"/></g><!--reverse link Observer to ConcreteObserver--><g class="link" data-entity-1="Observer" data-entity-2="ConcreteObserver" data-source-line="28" data-uid="lnk8" id="link_Observer_ConcreteObserver"><path codeLine="28" d="M281.34,102.74 C281.34,125.76 281.34,140.53 281.34,166.36" fill="none" id="Observer-backto-ConcreteObserver" style="stroke:#181818;stroke-width:1;"/><polygon fill="none" points="281.34,84.74,275.34,102.74,287.34,102.74,281.34,84.74" style="stroke:#181818;stroke-width:1;"/></g><!--reverse link ConcreteSubject to ConcreteObserver--><g class="link" data-entity-1="ConcreteSubject" data-entity-2="ConcreteObserver" data-source-line="29" data-uid="lnk9" id="link_ConcreteSubject_ConcreteObserver"><path codeLine="29" d="M175.5,207.39 C186.87,207.39 192.66,207.39 204.16,207.39" fill="none" id="ConcreteSubject-backto-ConcreteObserver" style="stroke:#181818;stroke-width:1;"/><polygon fill="#181818" points="169.5,207.39,178.5,211.39,174.5,207.39,178.5,203.39,169.5,207.39" style="stroke:#181818;stroke-width:1;"/><text fill="#000000" font-family="sans-serif" font-size="13" lengthAdjust="spacing" textLength="58.7856" x="157.83" y="220.4569">observes</text></g><!--SRC=[VL9DJyCm3BtdL_Yu2Sh4TQfw0Cvm67_0JRqrBBMhnDrK0V-Tj5itxKFa5FkzPp_7YLl7BGPie4IxtGJfk7eLBm4q8CS44Qk99vPtJDgt1AtuVWZkOHAq5cCSAuKrMe9LLtwHLVWsaCu3e2hQUkOO19RmKKOAEmhp8rhHVoYBkdK_cvjVOwp76E5Ls0PIkkoIGJp4AqMbWNtsCzKy6UhQAf7k5RsYPY37nA7ihRns5G4rhVRGK5DIYCPCphBYt7fvcCHHFC7vJvPTJsDEWWjqofhhuVDRJcfrD9sifAO46E7zUVIUbqLkXtqlW_JeNtn7nQJB5oDIv8kocCYVQR_B8G4lLEFEIK0_Oc-qJki7167ALB86kK-RR8ahOjj3IReduf4hezK8KK1hLDZNn8Fk282jaJV9xC2DmpC_0deFBaccYkcQlkRqX1KWLoFzi8aKToeDghD9s3-Pf1cuz0S0]--></g></svg>