<?xml version="1.0" encoding="us-ascii" standalone="no"?><svg xmlns="http://www.w3.org/2000/svg" xmlns:xlink="http://www.w3.org/1999/xlink" contentStyleType="text/css" height="221px" preserveAspectRatio="none" style="width:662px;height:221px;background:#DDDDDD;" version="1.1" viewBox="0 0 662 221" width="662px" zoomAndPan="magnify"><defs/><g><rect fill="#DDDDDD" height="221" style="stroke:none;stroke-width:1.0;" width="662" x="0" y="0"/><!--class Mediator--><g id="elem_Mediator"><rect codeLine="4" fill="#F1F1F1" height="32" id="Mediator" rx="3.5" ry="3.5" style="stroke:#181818;stroke-width:0.5;" width="92" x="50" y="47.97"/><ellipse cx="65" cy="63.97" fill="#ADD1B2" rx="11" ry="11" style="stroke:#181818;stroke-width:1.0;"/><path d="M67.9688,69.6106 Q67.3906,69.9075 66.75,70.0481 Q66.1094,70.2044 65.4063,70.2044 Q62.9063,70.2044 61.5781,68.5638 Q60.2656,66.9075 60.2656,63.7825 Q60.2656,60.6575 61.5781,59.0013 Q62.9063,57.345 65.4063,57.345 Q66.1094,57.345 66.75,57.5013 Q67.4063,57.6575 67.9688,57.9544 L67.9688,60.6731 Q67.3438,60.095 66.75,59.8294 Q66.1563,59.5481 65.5313,59.5481 Q64.1875,59.5481 63.5,60.6263 Q62.8125,61.6888 62.8125,63.7825 Q62.8125,65.8763 63.5,66.9544 Q64.1875,68.0169 65.5313,68.0169 Q66.1563,68.0169 66.75,67.7513 Q67.3438,67.47 67.9688,66.8919 L67.9688,69.6106 Z " fill="#000000"/><text fill="#000000" font-family="sans-serif" font-size="14" lengthAdjust="spacing" textLength="60" x="79" y="68.8167">Mediator</text></g><!--class ConcreteMediator--><g id="elem_ConcreteMediator"><rect codeLine="6" fill="#F1F1F1" height="32" id="ConcreteMediator" rx="3.5" ry="3.5" style="stroke:#181818;stroke-width:0.5;" width="156" x="7" y="182.93"/><ellipse cx="22" cy="198.93" fill="#ADD1B2" rx="11" ry="11" style="stroke:#181818;stroke-width:1.0;"/><path d="M24.9688,204.5706 Q24.3906,204.8675 23.75,205.0081 Q23.1094,205.1644 22.4063,205.1644 Q19.9063,205.1644 18.5781,203.5238 Q17.2656,201.8675 17.2656,198.7425 Q17.2656,195.6175 18.5781,193.9613 Q19.9063,192.305 22.4063,192.305 Q23.1094,192.305 23.75,192.4613 Q24.4063,192.6175 24.9688,192.9144 L24.9688,195.6331 Q24.3438,195.055 23.75,194.7894 Q23.1563,194.5081 22.5313,194.5081 Q21.1875,194.5081 20.5,195.5863 Q19.8125,196.6488 19.8125,198.7425 Q19.8125,200.8363 20.5,201.9144 Q21.1875,202.9769 22.5313,202.9769 Q23.1563,202.9769 23.75,202.7113 Q24.3438,202.43 24.9688,201.8519 L24.9688,204.5706 Z " fill="#000000"/><text fill="#000000" font-family="sans-serif" font-size="14" lengthAdjust="spacing" textLength="124" x="36" y="203.7767">ConcreteMediator</text></g><!--class Colleague--><g id="elem_Colleague"><rect codeLine="8" fill="#F1F1F1" height="32" id="Colleague" rx="3.5" ry="3.5" style="stroke:#181818;stroke-width:0.5;" width="101" x="228.5" y="47.97"/><ellipse cx="243.5" cy="63.97" fill="#B4A7E5" rx="11" ry="11" style="stroke:#181818;stroke-width:1.0;"/><path d="M239.4219,59.7356 L239.4219,57.5794 L246.8125,57.5794 L246.8125,59.7356 L244.3438,59.7356 L244.3438,67.8138 L246.8125,67.8138 L246.8125,69.97 L239.4219,69.97 L239.4219,67.8138 L241.8906,67.8138 L241.8906,59.7356 L239.4219,59.7356 Z " fill="#000000"/><text fill="#000000" font-family="sans-serif" font-size="14" font-style="italic" lengthAdjust="spacing" textLength="69" x="257.5" y="68.8167">Colleague</text></g><!--class ConcreteColleague--><g id="elem_ConcreteColleague"><rect codeLine="10" fill="#F1F1F1" height="32" id="ConcreteColleague" rx="3.5" ry="3.5" style="stroke:#181818;stroke-width:0.5;" width="165" x="198.5" y="182.93"/><ellipse cx="213.5" cy="198.93" fill="#ADD1B2" rx="11" ry="11" style="stroke:#181818;stroke-width:1.0;"/><path d="M216.4688,204.5706 Q215.8906,204.8675 215.25,205.0081 Q214.6094,205.1644 213.9063,205.1644 Q211.4063,205.1644 210.0781,203.5238 Q208.7656,201.8675 208.7656,198.7425 Q208.7656,195.6175 210.0781,193.9613 Q211.4063,192.305 213.9063,192.305 Q214.6094,192.305 215.25,192.4613 Q215.9063,192.6175 216.4688,192.9144 L216.4688,195.6331 Q215.8438,195.055 215.25,194.7894 Q214.6563,194.5081 214.0313,194.5081 Q212.6875,194.5081 212,195.5863 Q211.3125,196.6488 211.3125,198.7425 Q211.3125,200.8363 212,201.9144 Q212.6875,202.9769 214.0313,202.9769 Q214.6563,202.9769 215.25,202.7113 Q215.8438,202.43 216.4688,201.8519 L216.4688,204.5706 Z " fill="#000000"/><text fill="#000000" font-family="sans-serif" font-size="14" lengthAdjust="spacing" textLength="133" x="227.5" y="203.7767">ConcreteColleague</text></g><g id="elem_N1"><path d="M365,9.5 L365,118.4297 A3.5,3.5 0 0 0 368.5,121.9297 L651.5,121.9297 A3.5,3.5 0 0 0 655,118.4297 L655,16 L645,6 L368.5,6 A3.5,3.5 0 0 0 365,9.5 " fill="#90EE90" style="stroke:#454645;stroke-width:1.0;"/><path d="M645,6 L645,14.25 A1.75,1.75 0 0 0 646.75,16 L655,16 L645,6 " fill="#90EE90" style="stroke:#454645;stroke-width:1.0;"/><text fill="#4169E1" font-family="sans-serif" font-size="13" font-weight="bold" lengthAdjust="spacing" textLength="66" x="371" y="23.0669">Mediator</text><text fill="#454645" font-family="sans-serif" font-size="13" font-weight="bold" lengthAdjust="spacing" textLength="40" x="371" y="38.1997">Type:</text><text fill="#454645" font-family="sans-serif" font-size="13" lengthAdjust="spacing" textLength="67" x="415" y="38.1997">Behavioral</text><text fill="#454645" font-family="sans-serif" font-size="13" lengthAdjust="spacing" textLength="264" x="371" y="53.3325">Define an object that encapsulates how a</text><text fill="#454645" font-family="sans-serif" font-size="13" lengthAdjust="spacing" textLength="247" x="371" y="68.4653">set of objects interact. Promotes loose</text><text fill="#454645" font-family="sans-serif" font-size="13" lengthAdjust="spacing" textLength="268" x="371" y="83.5981">coupling by keeping objects from referring</text><text fill="#454645" font-family="sans-serif" font-size="13" lengthAdjust="spacing" textLength="269" x="371" y="98.731">to each other explicitly and it lets you vary</text><text fill="#454645" font-family="sans-serif" font-size="13" lengthAdjust="spacing" textLength="206" x="371" y="113.8638">their interactions independently.</text></g><!--reverse link Mediator to Colleague--><g id="link_Mediator_Colleague"><path codeLine="14" d="M148.18,63.97 C174.33,63.97 201.09,63.97 228,63.97 " fill="none" id="Mediator-backto-Colleague" style="stroke:#454645;stroke-width:1.0;"/><polygon fill="#454645" points="142.18,63.97,151.18,67.97,147.18,63.97,151.18,59.97,142.18,63.97" style="stroke:#454645;stroke-width:1.0;"/><text fill="#000000" font-family="sans-serif" font-size="13" lengthAdjust="spacing" textLength="48" x="161.25" y="57.0369">informs</text></g><!--reverse link Mediator to ConcreteMediator--><g id="link_Mediator_ConcreteMediator"><path codeLine="15" d="M93.2562,98.1587 C91.1462,123.6687 88.4,156.78 86.28,182.45 " fill="none" id="Mediator-backto-ConcreteMediator" style="stroke:#454645;stroke-width:1.0;"/><polygon fill="none" points="94.74,80.22,87.2767,97.6642,99.2358,98.6533,94.74,80.22" style="stroke:#454645;stroke-width:1.0;"/></g><!--link ConcreteMediator to ConcreteColleague--><g id="link_ConcreteMediator_ConcreteColleague"><path codeLine="16" d="M163.48,198.93 C175.11,198.93 180.74,198.93 192.37,198.93 " fill="none" id="ConcreteMediator-to-ConcreteColleague" style="stroke:#454645;stroke-width:1.0;"/><polygon fill="#454645" points="198.37,198.93,189.37,194.93,193.37,198.93,189.37,202.93,198.37,198.93" style="stroke:#454645;stroke-width:1.0;"/></g><!--reverse link Colleague to ConcreteColleague--><g id="link_Colleague_ConcreteColleague"><path codeLine="17" d="M279.4981,98.218 C279.8781,123.728 280.38,156.78 280.77,182.45 " fill="none" id="Colleague-backto-ConcreteColleague" style="stroke:#454645;stroke-width:1.0;"/><polygon fill="none" points="279.23,80.22,273.4988,98.3074,285.4974,98.1286,279.23,80.22" style="stroke:#454645;stroke-width:1.0;"/></g><!--SRC=[RL5BJiCm4Dtx5CC1qefj5MLHs89OS869-z8O74zaJmgME3nE8BGKlB36ypxpDBxH7WD89HjZhEUKw047nofnVTz9i16ASzy5HUpOec3UWuyJhiaNGEyE80oZPXemj8Z9cDMBwkhiGJjoePCuf0lyewh-9hXkKDNyC_bi_Clb8beG1N6Ynrj3vTHjKrln4dTHClkzdz2i8-hjWZJrjcrMydCUiPiRj4VF9oUH_OBTetEXE0UIzWLMINjMGh0yficp8b4lRyGBEK59kczcecMvR7L3Jr46cRbU967XMfb6xyAHsaolm3YNgx0hT8he46DfBtGL0jkUfFno9BmNhNNgSqbs8AVaKNHP9Zfnp5-A7Yx-P70Iva07Z2XNACgDAHNDUpEV]--></g></svg>