<svg xmlns="http://www.w3.org/2000/svg" xmlns:xlink="http://www.w3.org/1999/xlink" contentStyleType="text/css" data-diagram-type="CLASS" height="331px" preserveAspectRatio="none" style="width:544px;height:331px;" version="1.1" viewBox="0 0 544 331" width="544px" zoomAndPan="magnify"><defs/><g><!--class Context--><g class="entity" data-entity="Context" data-source-line="5" data-uid="ent0002" id="entity_Context"><rect fill="#F1F1F1" height="56.2969" rx="2.5" ry="2.5" style="stroke:#181818;stroke-width:0.5;" width="90.4492" x="120.45" y="20.69"/><ellipse cx="136.9613" cy="36.69" fill="#ADD1B2" rx="11" ry="11" style="stroke:#181818;stroke-width:1;"/><path d="M139.93,42.3306 Q139.3519,42.6275 138.7113,42.7681 Q138.0707,42.9244 137.3675,42.9244 Q134.8675,42.9244 133.5394,41.2838 Q132.2269,39.6275 132.2269,36.5025 Q132.2269,33.3775 133.5394,31.7212 Q134.8675,30.065 137.3675,30.065 Q138.0707,30.065 138.7113,30.2212 Q139.3675,30.3775 139.93,30.6744 L139.93,33.3931 Q139.305,32.815 138.7113,32.5494 Q138.1175,32.2681 137.4925,32.2681 Q136.1488,32.2681 135.4613,33.3463 Q134.7738,34.4088 134.7738,36.5025 Q134.7738,38.5963 135.4613,39.6744 Q136.1488,40.7369 137.4925,40.7369 Q138.1175,40.7369 138.7113,40.4713 Q139.305,40.19 139.93,39.6119 L139.93,42.3306 Z " fill="#000000"/><text fill="#000000" font-family="sans-serif" font-size="14" lengthAdjust="spacing" textLength="55.0908" x="151.2971" y="41.5367">Context</text><line style="stroke:#181818;stroke-width:0.5;" x1="121.45" x2="209.8992" y1="52.69" y2="52.69"/><ellipse cx="131.45" cy="66.3384" fill="#84BE84" rx="3" ry="3" style="stroke:#038048;stroke-width:1;"/><text fill="#000000" font-family="sans-serif" font-size="14" lengthAdjust="spacing" textLength="64.4492" x="140.45" y="69.6851">request()</text></g><!--class State--><g class="entity" data-entity="State" data-source-line="9" data-uid="ent0003" id="entity_State"><rect fill="#F1F1F1" height="56.2969" rx="2.5" ry="2.5" style="stroke:#181818;stroke-width:0.5;" width="84.6387" x="123.35" y="151.67"/><ellipse cx="145.3615" cy="167.67" fill="#B4A7E5" rx="11" ry="11" style="stroke:#181818;stroke-width:1;"/><path d="M141.2833,163.4356 L141.2833,161.2794 L148.674,161.2794 L148.674,163.4356 L146.2052,163.4356 L146.2052,171.5138 L148.674,171.5138 L148.674,173.67 L141.2833,173.67 L141.2833,171.5138 L143.7521,171.5138 L143.7521,163.4356 L141.2833,163.4356 Z " fill="#000000"/><text fill="#000000" font-family="sans-serif" font-size="14" font-style="italic" lengthAdjust="spacing" textLength="37.0576" x="160.9196" y="172.5167">State</text><line style="stroke:#181818;stroke-width:0.5;" x1="124.35" x2="206.9887" y1="183.67" y2="183.67"/><ellipse cx="134.35" cy="197.3184" fill="#84BE84" rx="3" ry="3" style="stroke:#038048;stroke-width:1;"/><text fill="#000000" font-family="sans-serif" font-size="14" lengthAdjust="spacing" textLength="58.6387" x="143.35" y="200.6651">handle()</text></g><!--class ConcreteState1--><g class="entity" data-entity="ConcreteState1" data-source-line="13" data-uid="ent0004" id="entity_ConcreteState1"><rect fill="#F1F1F1" height="56.2969" rx="2.5" ry="2.5" style="stroke:#181818;stroke-width:0.5;" width="141.3477" x="7" y="267.96"/><ellipse cx="22" cy="283.96" fill="#ADD1B2" rx="11" ry="11" style="stroke:#181818;stroke-width:1;"/><path d="M24.9688,289.6006 Q24.3906,289.8975 23.75,290.0381 Q23.1094,290.1944 22.4063,290.1944 Q19.9063,290.1944 18.5781,288.5538 Q17.2656,286.8975 17.2656,283.7725 Q17.2656,280.6475 18.5781,278.9913 Q19.9063,277.335 22.4063,277.335 Q23.1094,277.335 23.75,277.4913 Q24.4063,277.6475 24.9688,277.9444 L24.9688,280.6631 Q24.3438,280.085 23.75,279.8194 Q23.1563,279.5381 22.5313,279.5381 Q21.1875,279.5381 20.5,280.6163 Q19.8125,281.6788 19.8125,283.7725 Q19.8125,285.8663 20.5,286.9444 Q21.1875,288.0069 22.5313,288.0069 Q23.1563,288.0069 23.75,287.7413 Q24.3438,287.46 24.9688,286.8819 L24.9688,289.6006 Z " fill="#000000"/><text fill="#000000" font-family="sans-serif" font-size="14" lengthAdjust="spacing" textLength="109.3477" x="36" y="288.8067">ConcreteState1</text><line style="stroke:#181818;stroke-width:0.5;" x1="8" x2="147.3477" y1="299.96" y2="299.96"/><ellipse cx="18" cy="313.6084" fill="#84BE84" rx="3" ry="3" style="stroke:#038048;stroke-width:1;"/><text fill="#000000" font-family="sans-serif" font-size="14" lengthAdjust="spacing" textLength="58.6387" x="27" y="316.9551">handle()</text></g><!--class ConcreteState2--><g class="entity" data-entity="ConcreteState2" data-source-line="17" data-uid="ent0005" id="entity_ConcreteState2"><rect fill="#F1F1F1" height="56.2969" rx="2.5" ry="2.5" style="stroke:#181818;stroke-width:0.5;" width="141.3477" x="183" y="267.96"/><ellipse cx="198" cy="283.96" fill="#ADD1B2" rx="11" ry="11" style="stroke:#181818;stroke-width:1;"/><path d="M200.9688,289.6006 Q200.3906,289.8975 199.75,290.0381 Q199.1094,290.1944 198.4063,290.1944 Q195.9063,290.1944 194.5781,288.5538 Q193.2656,286.8975 193.2656,283.7725 Q193.2656,280.6475 194.5781,278.9913 Q195.9063,277.335 198.4063,277.335 Q199.1094,277.335 199.75,277.4913 Q200.4063,277.6475 200.9688,277.9444 L200.9688,280.6631 Q200.3438,280.085 199.75,279.8194 Q199.1563,279.5381 198.5313,279.5381 Q197.1875,279.5381 196.5,280.6163 Q195.8125,281.6788 195.8125,283.7725 Q195.8125,285.8663 196.5,286.9444 Q197.1875,288.0069 198.5313,288.0069 Q199.1563,288.0069 199.75,287.7413 Q200.3438,287.46 200.9688,286.8819 L200.9688,289.6006 Z " fill="#000000"/><text fill="#000000" font-family="sans-serif" font-size="14" lengthAdjust="spacing" textLength="109.3477" x="212" y="288.8067">ConcreteState2</text><line style="stroke:#181818;stroke-width:0.5;" x1="184" x2="323.3477" y1="299.96" y2="299.96"/><ellipse cx="194" cy="313.6084" fill="#84BE84" rx="3" ry="3" style="stroke:#038048;stroke-width:1;"/><text fill="#000000" font-family="sans-serif" font-size="14" lengthAdjust="spacing" textLength="58.6387" x="203" y="316.9551">handle()</text></g><g class="entity" data-entity="N1" data-source-line="28" data-uid="ent0009" id="entity_N1"><path d="M245.87,6 L245.87,91.6641 L537.4833,91.6641 L537.4833,16 L527.4833,6 L245.87,6" fill="#FEFFDD" style="stroke:#181818;stroke-width:0.5;"/><path d="M527.4833,6 L527.4833,16 L537.4833,16 L527.4833,6" fill="#FEFFDD" style="stroke:#181818;stroke-width:1;"/><text fill="#4169E1" font-family="sans-serif" font-size="13" font-weight="bold" lengthAdjust="spacing" textLength="39.3809" x="251.87" y="23.0669">State</text><text fill="#000000" font-family="sans-serif" font-size="13" font-weight="bold" lengthAdjust="spacing" textLength="40.6631" x="251.87" y="38.1997">Type:</text><text fill="#000000" font-family="sans-serif" font-size="13" lengthAdjust="spacing" textLength="69.3037" x="296.6654" y="38.1997">Behavioral</text><text fill="#000000" font-family="sans-serif" font-size="13" lengthAdjust="spacing" textLength="270.6133" x="251.87" y="53.3325">Allow an object to alter its behavior when</text><text fill="#000000" font-family="sans-serif" font-size="13" lengthAdjust="spacing" textLength="267.7695" x="251.87" y="68.4653">its internal state changes. The object will</text><text fill="#000000" font-family="sans-serif" font-size="13" lengthAdjust="spacing" textLength="175.0874" x="251.87" y="83.5981">appear to change its class.</text></g><!--reverse link Context to State--><g class="link" data-entity-1="Context" data-entity-2="State" data-source-line="23" data-uid="lnk6" id="link_Context_State"><path codeLine="23" d="M165.67,89.26 C165.67,111.22 165.67,129.49 165.67,151.45" fill="none" id="Context-backto-State" style="stroke:#181818;stroke-width:1;"/><polygon fill="#181818" points="165.67,77.26,161.67,83.26,165.67,89.26,169.67,83.26,165.67,77.26" style="stroke:#181818;stroke-width:1;"/></g><!--reverse link State to ConcreteState1--><g class="link" data-entity-1="State" data-entity-2="ConcreteState1" data-source-line="24" data-uid="lnk7" id="link_State_ConcreteState1"><path codeLine="24" d="M135.85,226.26 C135.85,244.29 135.85,249.51 135.85,267.55" fill="none" id="State-backto-ConcreteState1" style="stroke:#181818;stroke-width:1;"/><polygon fill="none" points="135.85,208.26,129.85,226.26,141.85,226.26,135.85,208.26" style="stroke:#181818;stroke-width:1;"/></g><!--reverse link State to ConcreteState2--><g class="link" data-entity-1="State" data-entity-2="ConcreteState2" data-source-line="25" data-uid="lnk8" id="link_State_ConcreteState2"><path codeLine="25" d="M195.5,226.26 C195.5,244.29 195.5,249.51 195.5,267.55" fill="none" id="State-backto-ConcreteState2" style="stroke:#181818;stroke-width:1;"/><polygon fill="none" points="195.5,208.26,189.5,226.26,201.5,226.26,195.5,208.26" style="stroke:#181818;stroke-width:1;"/></g><!--SRC=[ZP3DJiCm48Jl-nHxv4TjrHwhA1BjdGjzWOspDAQEDzXRIWIyEuv38Y4L2T-yysbsTkB9-eu2jLYHEHs3d7sz5oS1DP2FIMAl46VAMS_QTuoTk7xuNDCaQ2C0nb6Ck1Ul_Axu0PZUFGP-FNFKcrlu0h192yza69-Kb6Ue8Lyx7fdPnWHMpjpwl-3cAjZOcf7RJdjikQquH80fvjrYCMQ1CL7ncGQ_b_-fR02y98KYFgxptg8g2pFKkGtIazkvCvSPBLPvN1Qhgfp8G-fkEmnmnmszMGdailRWd5oGF4hrmaPH1Scbuj1gnEg7nKl3FkF3D1VhoM7CMKqw_yXnYOU69vUBTQCzTHrJ65n7B1laCfV0liRXfcy0]--></g></svg>