<svg xmlns="http://www.w3.org/2000/svg" xmlns:xlink="http://www.w3.org/1999/xlink" contentStyleType="text/css" data-diagram-type="CLASS" height="222px" preserveAspectRatio="none" style="width:888px;height:222px;" version="1.1" viewBox="0 0 888 222" width="888px" zoomAndPan="magnify"><defs/><g><!--class Factory--><g class="entity" data-entity="Factory" data-source-line="5" data-uid="ent0002" id="entity_Factory"><rect fill="#F1F1F1" height="64.2969" rx="2.5" ry="2.5" style="stroke:#181818;stroke-width:0.5;" width="135.3818" x="351.97" y="16.68"/><ellipse cx="389.9007" cy="32.68" fill="#B4A7E5" rx="11" ry="11" style="stroke:#181818;stroke-width:1;"/><path d="M385.8225,28.4456 L385.8225,26.2894 L393.2132,26.2894 L393.2132,28.4456 L390.7444,28.4456 L390.7444,36.5238 L393.2132,36.5238 L393.2132,38.68 L385.8225,38.68 L385.8225,36.5238 L388.2913,36.5238 L388.2913,28.4456 L385.8225,28.4456 Z " fill="#000000"/><text fill="#000000" font-family="sans-serif" font-size="14" font-style="italic" lengthAdjust="spacing" textLength="52.4248" x="408.9964" y="37.5267">Factory</text><line style="stroke:#181818;stroke-width:0.5;" x1="352.97" x2="486.3518" y1="48.68" y2="48.68"/><line style="stroke:#181818;stroke-width:0.5;" x1="352.97" x2="486.3518" y1="56.68" y2="56.68"/><ellipse cx="362.97" cy="70.3284" fill="#84BE84" rx="3" ry="3" style="stroke:#038048;stroke-width:1;"/><text fill="#000000" font-family="sans-serif" font-size="14" lengthAdjust="spacing" textLength="109.3818" x="371.97" y="73.6751">createProduct()</text></g><!--class FactoryA--><g class="entity" data-entity="FactoryA" data-source-line="9" data-uid="ent0003" id="entity_FactoryA"><rect fill="#F1F1F1" height="64.2969" rx="2.5" ry="2.5" style="stroke:#181818;stroke-width:0.5;" width="135.3818" x="266.97" y="151.66"/><ellipse cx="300.5909" cy="167.66" fill="#ADD1B2" rx="11" ry="11" style="stroke:#181818;stroke-width:1;"/><path d="M303.5597,173.3006 Q302.9816,173.5975 302.3409,173.7381 Q301.7003,173.8944 300.9972,173.8944 Q298.4972,173.8944 297.1691,172.2538 Q295.8566,170.5975 295.8566,167.4725 Q295.8566,164.3475 297.1691,162.6913 Q298.4972,161.035 300.9972,161.035 Q301.7003,161.035 302.3409,161.1913 Q302.9972,161.3475 303.5597,161.6444 L303.5597,164.3631 Q302.9347,163.785 302.3409,163.5194 Q301.7472,163.2381 301.1222,163.2381 Q299.7784,163.2381 299.0909,164.3163 Q298.4034,165.3788 298.4034,167.4725 Q298.4034,169.5663 299.0909,170.6444 Q299.7784,171.7069 301.1222,171.7069 Q301.7472,171.7069 302.3409,171.4413 Q302.9347,171.16 303.5597,170.5819 L303.5597,173.3006 Z " fill="#000000"/><text fill="#000000" font-family="sans-serif" font-size="14" lengthAdjust="spacing" textLength="62.002" x="318.7289" y="172.5067">FactoryA</text><line style="stroke:#181818;stroke-width:0.5;" x1="267.97" x2="401.3518" y1="183.66" y2="183.66"/><line style="stroke:#181818;stroke-width:0.5;" x1="267.97" x2="401.3518" y1="191.66" y2="191.66"/><ellipse cx="277.97" cy="205.3084" fill="#84BE84" rx="3" ry="3" style="stroke:#038048;stroke-width:1;"/><text fill="#000000" font-family="sans-serif" font-size="14" lengthAdjust="spacing" textLength="109.3818" x="286.97" y="208.6551">createProduct()</text></g><!--class FactoryB--><g class="entity" data-entity="FactoryB" data-source-line="13" data-uid="ent0004" id="entity_FactoryB"><rect fill="#F1F1F1" height="64.2969" rx="2.5" ry="2.5" style="stroke:#181818;stroke-width:0.5;" width="135.3818" x="436.97" y="151.66"/><ellipse cx="470.5786" cy="167.66" fill="#ADD1B2" rx="11" ry="11" style="stroke:#181818;stroke-width:1;"/><path d="M473.5474,173.3006 Q472.9693,173.5975 472.3286,173.7381 Q471.688,173.8944 470.9849,173.8944 Q468.4849,173.8944 467.1568,172.2538 Q465.8443,170.5975 465.8443,167.4725 Q465.8443,164.3475 467.1568,162.6913 Q468.4849,161.035 470.9849,161.035 Q471.688,161.035 472.3286,161.1913 Q472.9849,161.3475 473.5474,161.6444 L473.5474,164.3631 Q472.9224,163.785 472.3286,163.5194 Q471.7349,163.2381 471.1099,163.2381 Q469.7661,163.2381 469.0786,164.3163 Q468.3911,165.3788 468.3911,167.4725 Q468.3911,169.5663 469.0786,170.6444 Q469.7661,171.7069 471.1099,171.7069 Q471.7349,171.7069 472.3286,171.4413 Q472.9224,171.16 473.5474,170.5819 L473.5474,173.3006 Z " fill="#000000"/><text fill="#000000" font-family="sans-serif" font-size="14" lengthAdjust="spacing" textLength="62.0293" x="488.7139" y="172.5067">FactoryB</text><line style="stroke:#181818;stroke-width:0.5;" x1="437.97" x2="571.3518" y1="183.66" y2="183.66"/><line style="stroke:#181818;stroke-width:0.5;" x1="437.97" x2="571.3518" y1="191.66" y2="191.66"/><ellipse cx="447.97" cy="205.3084" fill="#84BE84" rx="3" ry="3" style="stroke:#038048;stroke-width:1;"/><text fill="#000000" font-family="sans-serif" font-size="14" lengthAdjust="spacing" textLength="109.3818" x="456.97" y="208.6551">createProduct()</text></g><!--class Product--><g class="entity" data-entity="Product" data-source-line="17" data-uid="ent0005" id="entity_Product"><rect fill="#F1F1F1" height="48" rx="2.5" ry="2.5" style="stroke:#181818;stroke-width:0.5;" width="85.71" x="76.8" y="24.83"/><ellipse cx="91.8" cy="40.83" fill="#B4A7E5" rx="11" ry="11" style="stroke:#181818;stroke-width:1;"/><path d="M87.7219,36.5956 L87.7219,34.4394 L95.1125,34.4394 L95.1125,36.5956 L92.6438,36.5956 L92.6438,44.6738 L95.1125,44.6738 L95.1125,46.83 L87.7219,46.83 L87.7219,44.6738 L90.1906,44.6738 L90.1906,36.5956 L87.7219,36.5956 Z " fill="#000000"/><text fill="#000000" font-family="sans-serif" font-size="14" font-style="italic" lengthAdjust="spacing" textLength="53.71" x="105.8" y="45.6767">Product</text><line style="stroke:#181818;stroke-width:0.5;" x1="77.8" x2="161.51" y1="56.83" y2="56.83"/><line style="stroke:#181818;stroke-width:0.5;" x1="77.8" x2="161.51" y1="64.83" y2="64.83"/></g><!--class ProductA--><g class="entity" data-entity="ProductA" data-source-line="19" data-uid="ent0006" id="entity_ProductA"><rect fill="#F1F1F1" height="48" rx="2.5" ry="2.5" style="stroke:#181818;stroke-width:0.5;" width="95.2871" x="137.01" y="159.81"/><ellipse cx="152.01" cy="175.81" fill="#ADD1B2" rx="11" ry="11" style="stroke:#181818;stroke-width:1;"/><path d="M154.9788,181.4506 Q154.4006,181.7475 153.76,181.8881 Q153.1194,182.0444 152.4163,182.0444 Q149.9163,182.0444 148.5881,180.4038 Q147.2756,178.7475 147.2756,175.6225 Q147.2756,172.4975 148.5881,170.8413 Q149.9163,169.185 152.4163,169.185 Q153.1194,169.185 153.76,169.3413 Q154.4163,169.4975 154.9788,169.7944 L154.9788,172.5131 Q154.3538,171.935 153.76,171.6694 Q153.1663,171.3881 152.5413,171.3881 Q151.1975,171.3881 150.51,172.4663 Q149.8225,173.5288 149.8225,175.6225 Q149.8225,177.7163 150.51,178.7944 Q151.1975,179.8569 152.5413,179.8569 Q153.1663,179.8569 153.76,179.5913 Q154.3538,179.31 154.9788,178.7319 L154.9788,181.4506 Z " fill="#000000"/><text fill="#000000" font-family="sans-serif" font-size="14" lengthAdjust="spacing" textLength="63.2871" x="166.01" y="180.6567">ProductA</text><line style="stroke:#181818;stroke-width:0.5;" x1="138.01" x2="231.2971" y1="191.81" y2="191.81"/><line style="stroke:#181818;stroke-width:0.5;" x1="138.01" x2="231.2971" y1="199.81" y2="199.81"/></g><!--class ProductB--><g class="entity" data-entity="ProductB" data-source-line="20" data-uid="ent0007" id="entity_ProductB"><rect fill="#F1F1F1" height="48" rx="2.5" ry="2.5" style="stroke:#181818;stroke-width:0.5;" width="95.3145" x="7" y="159.81"/><ellipse cx="22" cy="175.81" fill="#ADD1B2" rx="11" ry="11" style="stroke:#181818;stroke-width:1;"/><path d="M24.9688,181.4506 Q24.3906,181.7475 23.75,181.8881 Q23.1094,182.0444 22.4063,182.0444 Q19.9063,182.0444 18.5781,180.4038 Q17.2656,178.7475 17.2656,175.6225 Q17.2656,172.4975 18.5781,170.8413 Q19.9063,169.185 22.4063,169.185 Q23.1094,169.185 23.75,169.3413 Q24.4063,169.4975 24.9688,169.7944 L24.9688,172.5131 Q24.3438,171.935 23.75,171.6694 Q23.1563,171.3881 22.5313,171.3881 Q21.1875,171.3881 20.5,172.4663 Q19.8125,173.5288 19.8125,175.6225 Q19.8125,177.7163 20.5,178.7944 Q21.1875,179.8569 22.5313,179.8569 Q23.1563,179.8569 23.75,179.5913 Q24.3438,179.31 24.9688,178.7319 L24.9688,181.4506 Z " fill="#000000"/><text fill="#000000" font-family="sans-serif" font-size="14" lengthAdjust="spacing" textLength="63.3145" x="36" y="180.6567">ProductB</text><line style="stroke:#181818;stroke-width:0.5;" x1="8" x2="101.3145" y1="191.81" y2="191.81"/><line style="stroke:#181818;stroke-width:0.5;" x1="8" x2="101.3145" y1="199.81" y2="199.81"/></g><g class="entity" data-entity="N1" data-source-line="30" data-uid="ent0014" id="entity_N1"><path d="M522.25,6 L522.25,91.6641 L881.0596,91.6641 L881.0596,16 L871.0596,6 L522.25,6" fill="#FEFFDD" style="stroke:#181818;stroke-width:0.5;"/><path d="M871.0596,6 L871.0596,16 L881.0596,16 L871.0596,6" fill="#FEFFDD" style="stroke:#181818;stroke-width:1;"/><text fill="#4169E1" font-family="sans-serif" font-size="13" font-weight="bold" lengthAdjust="spacing" textLength="115.375" x="528.25" y="23.0669">Factory Method</text><text fill="#000000" font-family="sans-serif" font-size="13" font-weight="bold" lengthAdjust="spacing" textLength="40.6631" x="528.25" y="38.1997">Type:</text><text fill="#000000" font-family="sans-serif" font-size="13" lengthAdjust="spacing" textLength="66.8662" x="573.0454" y="38.1997">Creational</text><text fill="#000000" font-family="sans-serif" font-size="13" lengthAdjust="spacing" textLength="273.3428" x="528.25" y="53.3325">Define an interface for creating an object,</text><text fill="#000000" font-family="sans-serif" font-size="13" lengthAdjust="spacing" textLength="337.8096" x="528.25" y="68.4653">but let subclasses decide which class to instantiate.</text><text fill="#000000" font-family="sans-serif" font-size="13" lengthAdjust="spacing" textLength="295.3057" x="528.25" y="83.5981">Lets a class defer instantiation to subclasses.</text></g><!--reverse link Product to ProductA--><g class="link" data-entity-1="Product" data-entity-2="ProductA" data-source-line="22" data-uid="lnk8" id="link_Product_ProductA"><path codeLine="22" d="M149.76,91.28 C149.76,115.74 149.76,135.15 149.76,159.55" fill="none" id="Product-backto-ProductA" style="stroke:#181818;stroke-width:1;"/><polygon fill="none" points="149.76,73.28,143.76,91.28,155.76,91.28,149.76,73.28" style="stroke:#181818;stroke-width:1;"/></g><!--reverse link Product to ProductB--><g class="link" data-entity-1="Product" data-entity-2="ProductB" data-source-line="23" data-uid="lnk9" id="link_Product_ProductB"><path codeLine="23" d="M85.31,91.28 C85.31,115.74 85.31,135.15 85.31,159.55" fill="none" id="Product-backto-ProductB" style="stroke:#181818;stroke-width:1;"/><polygon fill="none" points="85.31,73.28,79.31,91.28,91.31,91.28,85.31,73.28" style="stroke:#181818;stroke-width:1;"/></g><!--reverse link Factory to FactoryA--><g class="link" data-entity-1="Factory" data-entity-2="FactoryA" data-source-line="24" data-uid="lnk10" id="link_Factory_FactoryA"><path codeLine="24" d="M377.16,99.16 C377.16,120.38 377.16,130.02 377.16,151.28" fill="none" id="Factory-backto-FactoryA" style="stroke:#181818;stroke-width:1;"/><polygon fill="none" points="377.16,81.16,371.16,99.16,383.16,99.16,377.16,81.16" style="stroke:#181818;stroke-width:1;"/></g><!--reverse link Factory to FactoryB--><g class="link" data-entity-1="Factory" data-entity-2="FactoryB" data-source-line="25" data-uid="lnk11" id="link_Factory_FactoryB"><path codeLine="25" d="M470.55,99.16 C470.55,120.38 470.55,130.02 470.55,151.28" fill="none" id="Factory-backto-FactoryB" style="stroke:#181818;stroke-width:1;"/><polygon fill="none" points="470.55,81.16,464.55,99.16,476.55,99.16,470.55,81.16" style="stroke:#181818;stroke-width:1;"/></g><!--reverse link ProductA to FactoryA--><g class="link" data-entity-1="ProductA" data-entity-2="FactoryA" data-source-line="26" data-uid="lnk12" id="link_ProductA_FactoryA"><path codeLine="26" d="M238.53,183.96 C249.42,183.96 255.19,183.96 266.73,183.96" fill="none" id="ProductA-backto-FactoryA" style="stroke:#181818;stroke-width:1;stroke-dasharray:7.0,7.0;"/><polygon fill="#181818" points="232.53,183.96,241.53,187.96,237.53,183.96,241.53,179.96,232.53,183.96" style="stroke:#181818;stroke-width:1;"/></g><!--reverse link ProductB to FactoryB--><g class="link" data-entity-1="ProductB" data-entity-2="FactoryB" data-source-line="27" data-uid="lnk13" id="link_ProductB_FactoryB"><path codeLine="27" d="M93.81,153.37 C93.81,136.08 93.81,121.96 93.81,121.96 C93.81,121.96 453.76,121.96 453.76,121.96 C453.76,121.96 453.76,136.47 453.76,151.44" fill="none" id="ProductB-backto-FactoryB" style="stroke:#181818;stroke-width:1;stroke-dasharray:7.0,7.0;"/><polygon fill="#181818" points="93.81,159.37,97.81,150.37,93.81,154.37,89.81,150.37,93.81,159.37" style="stroke:#181818;stroke-width:1;"/></g><!--SRC=[ZL71JiCm3BtdAtm4mJPndQfAxH0dG1pu0JTnjx2GJ8ahL07_JX8QEgGAqLFzthDZlnUEsfxGuojqA8zxxmQhTiuu3-pHXaYHPH5-L4PRul54S79cJCKIvpmVd13QClaU9S4TIdP-X7S1yRi2wGcPdhnJW-IBI_4fX3GOGX4s_rQsVodd1IQuD4zbyxjiXPZ-eFfOhMRL4jgASbH6o-ABQ5icD52jPscPT0R65QnZ0WpmU9CFgxgwaYcGhNSZcjOCL9St7YZwhAfDvkjgqzMbvJd6i4q0x98jsbaqcRkbFgO4Q64sfuzfP_UqtIV6TIya-Jhhku7144COkkmL1L0ajI9uEsXvW6y3sSLnWT6oZXciS-SzSG2S18fwycUQk51gcgUk1La5wVOl]--></g></svg>