<svg xmlns="http://www.w3.org/2000/svg" xmlns:xlink="http://www.w3.org/1999/xlink" contentStyleType="text/css" data-diagram-type="CLASS" height="347px" preserveAspectRatio="none" style="width:571px;height:347px;" version="1.1" viewBox="0 0 571 347" width="571px" zoomAndPan="magnify"><defs/><g><!--class Abstraction--><g class="entity" data-entity="Abstraction" data-source-line="5" data-uid="ent0002" id="entity_Abstraction"><rect fill="#F1F1F1" height="64.2969" rx="2.5" ry="2.5" style="stroke:#181818;stroke-width:0.5;" width="112.0967" x="163.48" y="16.69"/><ellipse cx="178.48" cy="32.69" fill="#ADD1B2" rx="11" ry="11" style="stroke:#181818;stroke-width:1;"/><path d="M181.4488,38.3306 Q180.8706,38.6275 180.23,38.7681 Q179.5894,38.9244 178.8863,38.9244 Q176.3863,38.9244 175.0581,37.2838 Q173.7456,35.6275 173.7456,32.5025 Q173.7456,29.3775 175.0581,27.7212 Q176.3863,26.065 178.8863,26.065 Q179.5894,26.065 180.23,26.2212 Q180.8863,26.3775 181.4488,26.6744 L181.4488,29.3931 Q180.8238,28.815 180.23,28.5494 Q179.6363,28.2681 179.0113,28.2681 Q177.6675,28.2681 176.98,29.3462 Q176.2925,30.4087 176.2925,32.5025 Q176.2925,34.5963 176.98,35.6744 Q177.6675,36.7369 179.0113,36.7369 Q179.6363,36.7369 180.23,36.4713 Q180.8238,36.19 181.4488,35.6119 L181.4488,38.3306 Z " fill="#000000"/><text fill="#000000" font-family="sans-serif" font-size="14" lengthAdjust="spacing" textLength="80.0967" x="192.48" y="37.5367">Abstraction</text><line style="stroke:#181818;stroke-width:0.5;" x1="164.48" x2="274.5767" y1="48.69" y2="48.69"/><line style="stroke:#181818;stroke-width:0.5;" x1="164.48" x2="274.5767" y1="56.69" y2="56.69"/><ellipse cx="174.48" cy="70.3384" fill="#84BE84" rx="3" ry="3" style="stroke:#038048;stroke-width:1;"/><text fill="#000000" font-family="sans-serif" font-size="14" lengthAdjust="spacing" textLength="78.1416" x="183.48" y="73.6851">operation()</text></g><!--class Implementor--><g class="entity" data-entity="Implementor" data-source-line="9" data-uid="ent0003" id="entity_Implementor"><rect fill="#F1F1F1" height="64.2969" rx="2.5" ry="2.5" style="stroke:#181818;stroke-width:0.5;" width="134.6846" x="152.18" y="151.67"/><ellipse cx="172.8472" cy="167.67" fill="#B4A7E5" rx="11" ry="11" style="stroke:#181818;stroke-width:1;"/><path d="M168.7691,163.4356 L168.7691,161.2794 L176.1597,161.2794 L176.1597,163.4356 L173.6909,163.4356 L173.6909,171.5138 L176.1597,171.5138 L176.1597,173.67 L168.7691,173.67 L168.7691,171.5138 L171.2378,171.5138 L171.2378,163.4356 L168.7691,163.4356 Z " fill="#000000"/><text fill="#000000" font-family="sans-serif" font-size="14" font-style="italic" lengthAdjust="spacing" textLength="90.0908" x="188.1066" y="172.5167">Implementor</text><line style="stroke:#181818;stroke-width:0.5;" x1="153.18" x2="285.8646" y1="183.67" y2="183.67"/><line style="stroke:#181818;stroke-width:0.5;" x1="153.18" x2="285.8646" y1="191.67" y2="191.67"/><ellipse cx="163.18" cy="205.3184" fill="#84BE84" rx="3" ry="3" style="stroke:#038048;stroke-width:1;"/><text fill="#000000" font-family="sans-serif" font-size="14" lengthAdjust="spacing" textLength="108.6846" x="172.18" y="208.6651">operationImpl()</text></g><!--class ConcreteImplementorA--><g class="entity" data-entity="ConcreteImplementorA" data-source-line="13" data-uid="ent0004" id="entity_ConcreteImplementorA"><rect fill="#F1F1F1" height="64.2969" rx="2.5" ry="2.5" style="stroke:#181818;stroke-width:0.5;" width="195.0508" x="7" y="275.96"/><ellipse cx="22" cy="291.96" fill="#ADD1B2" rx="11" ry="11" style="stroke:#181818;stroke-width:1;"/><path d="M24.9688,297.6006 Q24.3906,297.8975 23.75,298.0381 Q23.1094,298.1944 22.4063,298.1944 Q19.9063,298.1944 18.5781,296.5538 Q17.2656,294.8975 17.2656,291.7725 Q17.2656,288.6475 18.5781,286.9913 Q19.9063,285.335 22.4063,285.335 Q23.1094,285.335 23.75,285.4913 Q24.4063,285.6475 24.9688,285.9444 L24.9688,288.6631 Q24.3438,288.085 23.75,287.8194 Q23.1563,287.5381 22.5313,287.5381 Q21.1875,287.5381 20.5,288.6163 Q19.8125,289.6788 19.8125,291.7725 Q19.8125,293.8663 20.5,294.9444 Q21.1875,296.0069 22.5313,296.0069 Q23.1563,296.0069 23.75,295.7413 Q24.3438,295.46 24.9688,294.8819 L24.9688,297.6006 Z " fill="#000000"/><text fill="#000000" font-family="sans-serif" font-size="14" lengthAdjust="spacing" textLength="163.0508" x="36" y="296.8067">ConcreteImplementorA</text><line style="stroke:#181818;stroke-width:0.5;" x1="8" x2="201.0508" y1="307.96" y2="307.96"/><line style="stroke:#181818;stroke-width:0.5;" x1="8" x2="201.0508" y1="315.96" y2="315.96"/><ellipse cx="18" cy="329.6084" fill="#84BE84" rx="3" ry="3" style="stroke:#038048;stroke-width:1;"/><text fill="#000000" font-family="sans-serif" font-size="14" lengthAdjust="spacing" textLength="108.6846" x="27" y="332.9551">operationImpl()</text></g><!--class ConcreteImplementorB--><g class="entity" data-entity="ConcreteImplementorB" data-source-line="17" data-uid="ent0005" id="entity_ConcreteImplementorB"><rect fill="#F1F1F1" height="64.2969" rx="2.5" ry="2.5" style="stroke:#181818;stroke-width:0.5;" width="195.0781" x="236.99" y="275.96"/><ellipse cx="251.99" cy="291.96" fill="#ADD1B2" rx="11" ry="11" style="stroke:#181818;stroke-width:1;"/><path d="M254.9588,297.6006 Q254.3806,297.8975 253.74,298.0381 Q253.0994,298.1944 252.3963,298.1944 Q249.8963,298.1944 248.5681,296.5538 Q247.2556,294.8975 247.2556,291.7725 Q247.2556,288.6475 248.5681,286.9913 Q249.8963,285.335 252.3963,285.335 Q253.0994,285.335 253.74,285.4913 Q254.3963,285.6475 254.9588,285.9444 L254.9588,288.6631 Q254.3338,288.085 253.74,287.8194 Q253.1463,287.5381 252.5213,287.5381 Q251.1775,287.5381 250.49,288.6163 Q249.8025,289.6788 249.8025,291.7725 Q249.8025,293.8663 250.49,294.9444 Q251.1775,296.0069 252.5213,296.0069 Q253.1463,296.0069 253.74,295.7413 Q254.3338,295.46 254.9588,294.8819 L254.9588,297.6006 Z " fill="#000000"/><text fill="#000000" font-family="sans-serif" font-size="14" lengthAdjust="spacing" textLength="163.0781" x="265.99" y="296.8067">ConcreteImplementorB</text><line style="stroke:#181818;stroke-width:0.5;" x1="237.99" x2="431.0681" y1="307.96" y2="307.96"/><line style="stroke:#181818;stroke-width:0.5;" x1="237.99" x2="431.0681" y1="315.96" y2="315.96"/><ellipse cx="247.99" cy="329.6084" fill="#84BE84" rx="3" ry="3" style="stroke:#038048;stroke-width:1;"/><text fill="#000000" font-family="sans-serif" font-size="14" lengthAdjust="spacing" textLength="108.6846" x="256.99" y="332.9551">operationImpl()</text></g><g class="entity" data-entity="N1" data-source-line="26" data-uid="ent0009" id="entity_N1"><path d="M310.44,6 L310.44,91.6641 L564.6021,91.6641 L564.6021,16 L554.6021,6 L310.44,6" fill="#FEFFDD" style="stroke:#181818;stroke-width:0.5;"/><path d="M554.6021,6 L554.6021,16 L564.6021,16 L554.6021,6" fill="#FEFFDD" style="stroke:#181818;stroke-width:1;"/><text fill="#4169E1" font-family="sans-serif" font-size="13" font-weight="bold" lengthAdjust="spacing" textLength="48.2041" x="316.44" y="23.0669">Bridge</text><text fill="#000000" font-family="sans-serif" font-size="13" font-weight="bold" lengthAdjust="spacing" textLength="40.6631" x="316.44" y="38.1997">Type:</text><text fill="#000000" font-family="sans-serif" font-size="13" lengthAdjust="spacing" textLength="64.3398" x="361.2354" y="38.1997">Structural</text><text fill="#000000" font-family="sans-serif" font-size="13" lengthAdjust="spacing" textLength="205.1626" x="316.44" y="53.3325">Decouple an astraction from its</text><text fill="#000000" font-family="sans-serif" font-size="13" lengthAdjust="spacing" textLength="233.1621" x="316.44" y="68.4653">implementation so that the two can</text><text fill="#000000" font-family="sans-serif" font-size="13" lengthAdjust="spacing" textLength="130.4443" x="316.44" y="83.5981">vary independently.</text></g><!--reverse link Abstraction to Implementor--><g class="link" data-entity-1="Abstraction" data-entity-2="Implementor" data-source-line="21" data-uid="lnk6" id="link_Abstraction_Implementor"><path codeLine="21" d="M219.53,93.17 C219.53,114.38 219.53,130.02 219.53,151.28" fill="none" id="Abstraction-backto-Implementor" style="stroke:#181818;stroke-width:1;"/><polygon fill="#181818" points="219.53,81.17,215.53,87.17,219.53,93.17,223.53,87.17,219.53,81.17" style="stroke:#181818;stroke-width:1;"/></g><!--reverse link Implementor to ConcreteImplementorA--><g class="link" data-entity-1="Implementor" data-entity-2="ConcreteImplementorA" data-source-line="22" data-uid="lnk7" id="link_Implementor_ConcreteImplementorA"><path codeLine="22" d="M177.12,234.15 C177.12,252.42 177.12,257.19 177.12,275.51" fill="none" id="Implementor-backto-ConcreteImplementorA" style="stroke:#181818;stroke-width:1;"/><polygon fill="none" points="177.12,216.15,171.12,234.15,183.12,234.15,177.12,216.15" style="stroke:#181818;stroke-width:1;"/></g><!--reverse link Implementor to ConcreteImplementorB--><g class="link" data-entity-1="Implementor" data-entity-2="ConcreteImplementorB" data-source-line="23" data-uid="lnk8" id="link_Implementor_ConcreteImplementorB"><path codeLine="23" d="M261.93,234.15 C261.93,252.42 261.93,257.19 261.93,275.51" fill="none" id="Implementor-backto-ConcreteImplementorB" style="stroke:#181818;stroke-width:1;"/><polygon fill="none" points="261.93,216.15,255.93,234.15,267.93,234.15,261.93,216.15" style="stroke:#181818;stroke-width:1;"/></g><!--SRC=[dP7FQiCm3CRlVWeTzuUkx5f2e6alk-oolO3YgAsf8mLPsGZRtdrEIajWPOpv86nzdwIVxNGCtA5Y2pNwurwbvsOZKHHCaLEMYCsbYoi69XiwWaxYC1wkQQ9s4ETyn9HWNQVSobiGXWy7UTs3TAGuPcvktPTpWOrqXvxWgUqYjNba1lXX7iLJmQdpHjWh6SsArl-ggdwhclFVBHPpH3V7BJwpU0tfJwxAEHOZm0JFZnDCKPU57tzYfJ9Wh69FPQMXsLEndF9biQpBi_Krl_jgJC2BQU-jLuoJjYKlVHu3oBdvvIOxbHQ2fSaJpXpJrI49s04j1m9x5_38a-qDTO303NMK0riS7bpUmGZ-3G00]--></g></svg>