<svg xmlns="http://www.w3.org/2000/svg" xmlns:xlink="http://www.w3.org/1999/xlink" contentStyleType="text/css" data-diagram-type="CLASS" height="316px" preserveAspectRatio="none" style="width:738px;height:316px;" version="1.1" viewBox="0 0 738 316" width="738px" zoomAndPan="magnify"><defs/><g><!--class FlyweightFactory--><g class="entity" data-entity="FlyweightFactory" data-source-line="4" data-uid="ent0002" id="entity_FlyweightFactory"><rect fill="#F1F1F1" height="56.2969" rx="2.5" ry="2.5" style="stroke:#181818;stroke-width:0.5;" width="151.8545" x="7" y="13.12"/><ellipse cx="22" cy="29.12" fill="#ADD1B2" rx="11" ry="11" style="stroke:#181818;stroke-width:1;"/><path d="M24.9688,34.7606 Q24.3906,35.0575 23.75,35.1981 Q23.1094,35.3544 22.4063,35.3544 Q19.9063,35.3544 18.5781,33.7138 Q17.2656,32.0575 17.2656,28.9325 Q17.2656,25.8075 18.5781,24.1513 Q19.9063,22.495 22.4063,22.495 Q23.1094,22.495 23.75,22.6513 Q24.4063,22.8075 24.9688,23.1044 L24.9688,25.8231 Q24.3438,25.245 23.75,24.9794 Q23.1563,24.6981 22.5313,24.6981 Q21.1875,24.6981 20.5,25.7763 Q19.8125,26.8388 19.8125,28.9325 Q19.8125,31.0263 20.5,32.1044 Q21.1875,33.1669 22.5313,33.1669 Q23.1563,33.1669 23.75,32.9013 Q24.3438,32.62 24.9688,32.0419 L24.9688,34.7606 Z " fill="#000000"/><text fill="#000000" font-family="sans-serif" font-size="14" lengthAdjust="spacing" textLength="119.8545" x="36" y="33.9667">FlyweightFactory</text><line style="stroke:#181818;stroke-width:0.5;" x1="8" x2="157.8545" y1="45.12" y2="45.12"/><ellipse cx="18" cy="58.7684" fill="#84BE84" rx="3" ry="3" style="stroke:#038048;stroke-width:1;"/><text fill="#000000" font-family="sans-serif" font-size="14" lengthAdjust="spacing" textLength="101.3428" x="27" y="62.1151">getFlyweight()</text></g><!--class Flyweight--><g class="entity" data-entity="Flyweight" data-source-line="8" data-uid="ent0003" id="entity_Flyweight"><rect fill="#F1F1F1" height="56.2969" rx="2.5" ry="2.5" style="stroke:#181818;stroke-width:0.5;" width="218.1992" x="193.83" y="13.12"/><ellipse cx="264.9648" cy="29.12" fill="#B4A7E5" rx="11" ry="11" style="stroke:#181818;stroke-width:1;"/><path d="M260.8866,24.8856 L260.8866,22.7294 L268.2773,22.7294 L268.2773,24.8856 L265.8085,24.8856 L265.8085,32.9638 L268.2773,32.9638 L268.2773,35.12 L260.8866,35.12 L260.8866,32.9638 L263.3554,32.9638 L263.3554,24.8856 L260.8866,24.8856 Z " fill="#000000"/><text fill="#000000" font-family="sans-serif" font-size="14" font-style="italic" lengthAdjust="spacing" textLength="67.4297" x="285.4648" y="33.9667">Flyweight</text><line style="stroke:#181818;stroke-width:0.5;" x1="194.83" x2="411.0292" y1="45.12" y2="45.12"/><ellipse cx="204.83" cy="58.7684" fill="#84BE84" rx="3" ry="3" style="stroke:#038048;stroke-width:1;"/><text fill="#000000" font-family="sans-serif" font-size="14" lengthAdjust="spacing" textLength="192.1992" x="213.83" y="62.1151">operation(in extrinsicState)</text></g><!--class Client--><g class="entity" data-entity="Client" data-source-line="12" data-uid="ent0004" id="entity_Client"><rect fill="#F1F1F1" height="32" rx="2.5" ry="2.5" style="stroke:#181818;stroke-width:0.5;" width="72.5303" x="208.66" y="277.13"/><ellipse cx="223.66" cy="293.13" fill="#ADD1B2" rx="11" ry="11" style="stroke:#181818;stroke-width:1;"/><path d="M226.6288,298.7706 Q226.0506,299.0675 225.41,299.2081 Q224.7694,299.3644 224.0663,299.3644 Q221.5663,299.3644 220.2381,297.7238 Q218.9256,296.0675 218.9256,292.9425 Q218.9256,289.8175 220.2381,288.1613 Q221.5663,286.505 224.0663,286.505 Q224.7694,286.505 225.41,286.6613 Q226.0663,286.8175 226.6288,287.1144 L226.6288,289.8331 Q226.0038,289.255 225.41,288.9894 Q224.8163,288.7081 224.1913,288.7081 Q222.8475,288.7081 222.16,289.7863 Q221.4725,290.8488 221.4725,292.9425 Q221.4725,295.0363 222.16,296.1144 Q222.8475,297.1769 224.1913,297.1769 Q224.8163,297.1769 225.41,296.9113 Q226.0038,296.63 226.6288,296.0519 L226.6288,298.7706 Z " fill="#000000"/><text fill="#000000" font-family="sans-serif" font-size="14" lengthAdjust="spacing" textLength="40.5303" x="237.66" y="297.9767">Client</text></g><!--class ConcreteFlyweight--><g class="entity" data-entity="ConcreteFlyweight" data-source-line="14" data-uid="ent0005" id="entity_ConcreteFlyweight"><rect fill="#F1F1F1" height="80.5938" rx="2.5" ry="2.5" style="stroke:#181818;stroke-width:0.5;" width="218.1992" x="135.83" y="136.54"/><ellipse cx="175.754" cy="152.54" fill="#ADD1B2" rx="11" ry="11" style="stroke:#181818;stroke-width:1;"/><path d="M178.7228,158.1806 Q178.1446,158.4775 177.504,158.6181 Q176.8634,158.7744 176.1603,158.7744 Q173.6603,158.7744 172.3321,157.1338 Q171.0196,155.4775 171.0196,152.3525 Q171.0196,149.2275 172.3321,147.5713 Q173.6603,145.915 176.1603,145.915 Q176.8634,145.915 177.504,146.0713 Q178.1603,146.2275 178.7228,146.5244 L178.7228,149.2431 Q178.0978,148.665 177.504,148.3994 Q176.9103,148.1181 176.2853,148.1181 Q174.9415,148.1181 174.254,149.1963 Q173.5665,150.2588 173.5665,152.3525 Q173.5665,154.4463 174.254,155.5244 Q174.9415,156.5869 176.2853,156.5869 Q176.9103,156.5869 177.504,156.3213 Q178.0978,156.04 178.7228,155.4619 L178.7228,158.1806 Z " fill="#000000"/><text fill="#000000" font-family="sans-serif" font-size="14" lengthAdjust="spacing" textLength="130.8125" x="195.2927" y="157.3867">ConcreteFlyweight</text><line style="stroke:#181818;stroke-width:0.5;" x1="136.83" x2="353.0292" y1="168.54" y2="168.54"/><rect fill="none" height="6" style="stroke:#C82930;stroke-width:1;" width="6" x="143.83" y="179.1884"/><text fill="#000000" font-family="sans-serif" font-size="14" lengthAdjust="spacing" textLength="92.709" x="155.83" y="185.5351">intrinsicState</text><line style="stroke:#181818;stroke-width:0.5;" x1="136.83" x2="353.0292" y1="192.8369" y2="192.8369"/><ellipse cx="146.83" cy="206.4853" fill="#84BE84" rx="3" ry="3" style="stroke:#038048;stroke-width:1;"/><text fill="#000000" font-family="sans-serif" font-size="14" lengthAdjust="spacing" textLength="192.1992" x="155.83" y="209.832">operation(in extrinsicState)</text></g><!--class UnsharedConcreteFlyweight--><g class="entity" data-entity="UnsharedConcreteFlyweight" data-source-line="19" data-uid="ent0006" id="entity_UnsharedConcreteFlyweight"><rect fill="#F1F1F1" height="80.5938" rx="2.5" ry="2.5" style="stroke:#181818;stroke-width:0.5;" width="229.9346" x="388.96" y="136.54"/><ellipse cx="403.96" cy="152.54" fill="#ADD1B2" rx="11" ry="11" style="stroke:#181818;stroke-width:1;"/><path d="M406.9288,158.1806 Q406.3506,158.4775 405.71,158.6181 Q405.0694,158.7744 404.3663,158.7744 Q401.8663,158.7744 400.5381,157.1338 Q399.2256,155.4775 399.2256,152.3525 Q399.2256,149.2275 400.5381,147.5713 Q401.8663,145.915 404.3663,145.915 Q405.0694,145.915 405.71,146.0713 Q406.3663,146.2275 406.9288,146.5244 L406.9288,149.2431 Q406.3038,148.665 405.71,148.3994 Q405.1163,148.1181 404.4913,148.1181 Q403.1475,148.1181 402.46,149.1963 Q401.7725,150.2588 401.7725,152.3525 Q401.7725,154.4463 402.46,155.5244 Q403.1475,156.5869 404.4913,156.5869 Q405.1163,156.5869 405.71,156.3213 Q406.3038,156.04 406.9288,155.4619 L406.9288,158.1806 Z " fill="#000000"/><text fill="#000000" font-family="sans-serif" font-size="14" lengthAdjust="spacing" textLength="197.9346" x="417.96" y="157.3867">UnsharedConcreteFlyweight</text><line style="stroke:#181818;stroke-width:0.5;" x1="389.96" x2="617.8946" y1="168.54" y2="168.54"/><rect fill="none" height="6" style="stroke:#C82930;stroke-width:1;" width="6" x="396.96" y="179.1884"/><text fill="#000000" font-family="sans-serif" font-size="14" lengthAdjust="spacing" textLength="53.416" x="408.96" y="185.5351">allState</text><line style="stroke:#181818;stroke-width:0.5;" x1="389.96" x2="617.8946" y1="192.8369" y2="192.8369"/><ellipse cx="399.96" cy="206.4853" fill="#84BE84" rx="3" ry="3" style="stroke:#038048;stroke-width:1;"/><text fill="#000000" font-family="sans-serif" font-size="14" lengthAdjust="spacing" textLength="192.1992" x="408.96" y="209.832">operation(in extrinsicState)</text></g><g class="entity" data-entity="N1" data-source-line="34" data-uid="ent0013" id="entity_N1"><path d="M446.59,6 L446.59,76.5313 L731.2716,76.5313 L731.2716,16 L721.2716,6 L446.59,6" fill="#FEFFDD" style="stroke:#181818;stroke-width:0.5;"/><path d="M721.2716,6 L721.2716,16 L731.2716,16 L721.2716,6" fill="#FEFFDD" style="stroke:#181818;stroke-width:1;"/><text fill="#4169E1" font-family="sans-serif" font-size="13" font-weight="bold" lengthAdjust="spacing" textLength="71.8682" x="452.59" y="23.0669">Flyweight</text><text fill="#000000" font-family="sans-serif" font-size="13" font-weight="bold" lengthAdjust="spacing" textLength="40.6631" x="452.59" y="38.1997">Type:</text><text fill="#000000" font-family="sans-serif" font-size="13" lengthAdjust="spacing" textLength="64.3398" x="497.3854" y="38.1997">Structural</text><text fill="#000000" font-family="sans-serif" font-size="13" lengthAdjust="spacing" textLength="263.6816" x="452.59" y="53.3325">Use sharing to support large numbers of</text><text fill="#000000" font-family="sans-serif" font-size="13" lengthAdjust="spacing" textLength="201.6143" x="452.59" y="68.4653">fine grained objects efficiently.</text></g><!--reverse link FlyweightFactory to Flyweight--><g class="link" data-entity-1="FlyweightFactory" data-entity-2="Flyweight" data-source-line="26" data-uid="lnk7" id="link_FlyweightFactory_Flyweight"><path codeLine="26" d="M171.26,42.13 C182.3,42.13 181.85,42.13 193.39,42.13" fill="none" id="FlyweightFactory-backto-Flyweight" style="stroke:#181818;stroke-width:1;"/><polygon fill="#181818" points="159.26,42.13,165.26,46.13,171.26,42.13,165.26,38.13,159.26,42.13" style="stroke:#181818;stroke-width:1;"/></g><!--reverse link Flyweight to ConcreteFlyweight--><g class="link" data-entity-1="Flyweight" data-entity-2="ConcreteFlyweight" data-source-line="27" data-uid="lnk8" id="link_Flyweight_ConcreteFlyweight"><path codeLine="27" d="M273.93,87.69 C273.93,106.94 273.93,114.68 273.93,136.11" fill="none" id="Flyweight-backto-ConcreteFlyweight" style="stroke:#181818;stroke-width:1;"/><polygon fill="none" points="273.93,69.69,267.93,87.69,279.93,87.69,273.93,69.69" style="stroke:#181818;stroke-width:1;"/></g><!--reverse link Flyweight to UnsharedConcreteFlyweight--><g class="link" data-entity-1="Flyweight" data-entity-2="UnsharedConcreteFlyweight" data-source-line="28" data-uid="lnk9" id="link_Flyweight_UnsharedConcreteFlyweight"><path codeLine="28" d="M400.49,87.69 C400.49,106.94 400.49,114.68 400.49,136.11" fill="none" id="Flyweight-backto-UnsharedConcreteFlyweight" style="stroke:#181818;stroke-width:1;"/><polygon fill="none" points="400.49,69.69,394.49,87.69,406.49,87.69,400.49,69.69" style="stroke:#181818;stroke-width:1;"/></g><!--reverse link FlyweightFactory to Client--><g class="link" data-entity-1="FlyweightFactory" data-entity-2="Client" data-source-line="29" data-uid="lnk10" id="link_FlyweightFactory_Client"><path codeLine="29" d="M71.41,75.79 C71.41,141.91 71.41,294.13 71.41,294.13 C71.41,294.13 157.67,294.13 208.55,294.13" fill="none" id="FlyweightFactory-backto-Client" style="stroke:#181818;stroke-width:1;"/><polygon fill="#181818" points="71.41,69.79,67.41,78.79,71.41,74.79,75.41,78.79,71.41,69.79" style="stroke:#181818;stroke-width:1;"/></g><!--reverse link ConcreteFlyweight to Client--><g class="link" data-entity-1="ConcreteFlyweight" data-entity-2="Client" data-source-line="30" data-uid="lnk11" id="link_ConcreteFlyweight_Client"><path codeLine="30" d="M244.93,223.51 C244.93,243.94 244.93,261.56 244.93,276.88" fill="none" id="ConcreteFlyweight-backto-Client" style="stroke:#181818;stroke-width:1;"/><polygon fill="#181818" points="244.93,217.51,240.93,226.51,244.93,222.51,248.93,226.51,244.93,217.51" style="stroke:#181818;stroke-width:1;"/></g><!--reverse link UnsharedConcreteFlyweight to Client--><g class="link" data-entity-1="UnsharedConcreteFlyweight" data-entity-2="Client" data-source-line="31" data-uid="lnk12" id="link_UnsharedConcreteFlyweight_Client"><path codeLine="31" d="M503.93,223.53 C503.93,257.41 503.93,294.13 503.93,294.13 C503.93,294.13 352.88,294.13 281.49,294.13" fill="none" id="UnsharedConcreteFlyweight-backto-Client" style="stroke:#181818;stroke-width:1;"/><polygon fill="#181818" points="503.93,217.53,499.93,226.53,503.93,222.53,507.93,226.53,503.93,217.53" style="stroke:#181818;stroke-width:1;"/></g><!--SRC=[bL8nRiCm3Dpr2evfYpJe6XWU6Y1ZbpGFe6NQLYDB1aMZDTh-lPA3E47S3D4YI7Sy7WyC1-CwP6oXG7sesVUkt7Zh6OJHXGYH4nKcbZMEPEW8Ec-7zFWFyooDLzfY2B2rmoUPkf4jQl4ymBU2U9wW9fcmnOFwLSeu8QvGqxbeOlkE6CLujp0Ew4lOk63qJb1eh3qssrYJx9vUtcaceMkr9SHE5m9tjTYxqCHGojlYQEqzieqf2QZjP82Mse8uA3KBxN5vpkICGlQpNCx7l2RSj3plaoMzOuZp0I_0sobSa9JpGe01tbx6BB8YptJQhJNx0UshxIcV2hFL2ENPgiXFxFUuJElq0JlXNalFQ4Ti7mYI0UDg40-XxxguSs2HQmBNZoc2hqPk5RSIQiPubU2B3z8IWAhAw6JI3i-AN0d9wXy0]--></g></svg>