<svg xmlns="http://www.w3.org/2000/svg" xmlns:xlink="http://www.w3.org/1999/xlink" contentStyleType="text/css" data-diagram-type="CLASS" height="270px" preserveAspectRatio="none" style="width:620px;height:270px;" version="1.1" viewBox="0 0 620 270" width="620px" zoomAndPan="magnify"><defs/><g><!--class Component--><g class="entity" data-entity="Component" data-source-line="5" data-uid="ent0002" id="entity_Component"><rect fill="#F1F1F1" height="64.2969" rx="2.5" ry="2.5" style="stroke:#181818;stroke-width:0.5;" width="113.2793" x="186.43" y="24.25"/><ellipse cx="201.43" cy="40.25" fill="#B4A7E5" rx="11" ry="11" style="stroke:#181818;stroke-width:1;"/><path d="M197.3519,36.0156 L197.3519,33.8594 L204.7425,33.8594 L204.7425,36.0156 L202.2738,36.0156 L202.2738,44.0938 L204.7425,44.0938 L204.7425,46.25 L197.3519,46.25 L197.3519,44.0938 L199.8206,44.0938 L199.8206,36.0156 L197.3519,36.0156 Z " fill="#000000"/><text fill="#000000" font-family="sans-serif" font-size="14" font-style="italic" lengthAdjust="spacing" textLength="81.2793" x="215.43" y="45.0967">Component</text><line style="stroke:#181818;stroke-width:0.5;" x1="187.43" x2="298.7093" y1="56.25" y2="56.25"/><line style="stroke:#181818;stroke-width:0.5;" x1="187.43" x2="298.7093" y1="64.25" y2="64.25"/><ellipse cx="197.43" cy="77.8984" fill="#84BE84" rx="3" ry="3" style="stroke:#038048;stroke-width:1;"/><text fill="#000000" font-family="sans-serif" font-size="14" lengthAdjust="spacing" textLength="78.1416" x="206.43" y="81.2451">operation()</text></g><!--class Leaf--><g class="entity" data-entity="Leaf" data-source-line="9" data-uid="ent0003" id="entity_Leaf"><rect fill="#F1F1F1" height="64.2969" rx="2.5" ry="2.5" style="stroke:#181818;stroke-width:0.5;" width="104.1416" x="7" y="183.1"/><ellipse cx="40.9993" cy="199.1" fill="#ADD1B2" rx="11" ry="11" style="stroke:#181818;stroke-width:1;"/><path d="M43.9681,204.7406 Q43.3899,205.0375 42.7493,205.1781 Q42.1087,205.3344 41.4056,205.3344 Q38.9056,205.3344 37.5774,203.6938 Q36.2649,202.0375 36.2649,198.9125 Q36.2649,195.7875 37.5774,194.1313 Q38.9056,192.475 41.4056,192.475 Q42.1087,192.475 42.7493,192.6313 Q43.4056,192.7875 43.9681,193.0844 L43.9681,195.8031 Q43.3431,195.225 42.7493,194.9594 Q42.1556,194.6781 41.5306,194.6781 Q40.1868,194.6781 39.4993,195.7563 Q38.8118,196.8188 38.8118,198.9125 Q38.8118,201.0063 39.4993,202.0844 Q40.1868,203.1469 41.5306,203.1469 Q42.1556,203.1469 42.7493,202.8813 Q43.3431,202.6 43.9681,202.0219 L43.9681,204.7406 Z " fill="#000000"/><text fill="#000000" font-family="sans-serif" font-size="14" lengthAdjust="spacing" textLength="29.9209" x="59.2214" y="203.9467">Leaf</text><line style="stroke:#181818;stroke-width:0.5;" x1="8" x2="110.1416" y1="215.1" y2="215.1"/><line style="stroke:#181818;stroke-width:0.5;" x1="8" x2="110.1416" y1="223.1" y2="223.1"/><ellipse cx="18" cy="236.7484" fill="#84BE84" rx="3" ry="3" style="stroke:#038048;stroke-width:1;"/><text fill="#000000" font-family="sans-serif" font-size="14" lengthAdjust="spacing" textLength="78.1416" x="27" y="240.0951">operation()</text></g><!--class Composite--><g class="entity" data-entity="Composite" data-source-line="13" data-uid="ent0004" id="entity_Composite"><rect fill="#F1F1F1" height="96.8906" rx="2.5" ry="2.5" style="stroke:#181818;stroke-width:0.5;" width="192.9883" x="146.58" y="166.8"/><ellipse cx="201.4657" cy="182.8" fill="#ADD1B2" rx="11" ry="11" style="stroke:#181818;stroke-width:1;"/><path d="M204.4345,188.4406 Q203.8564,188.7375 203.2157,188.8781 Q202.5751,189.0344 201.872,189.0344 Q199.372,189.0344 198.0439,187.3938 Q196.7314,185.7375 196.7314,182.6125 Q196.7314,179.4875 198.0439,177.8313 Q199.372,176.175 201.872,176.175 Q202.5751,176.175 203.2157,176.3313 Q203.872,176.4875 204.4345,176.7844 L204.4345,179.5031 Q203.8095,178.925 203.2157,178.6594 Q202.622,178.3781 201.997,178.3781 Q200.6532,178.3781 199.9657,179.4563 Q199.2782,180.5188 199.2782,182.6125 Q199.2782,184.7063 199.9657,185.7844 Q200.6532,186.8469 201.997,186.8469 Q202.622,186.8469 203.2157,186.5813 Q203.8095,186.3 204.4345,185.7219 L204.4345,188.4406 Z " fill="#000000"/><text fill="#000000" font-family="sans-serif" font-size="14" lengthAdjust="spacing" textLength="74.7168" x="221.9657" y="187.6467">Composite</text><line style="stroke:#181818;stroke-width:0.5;" x1="147.58" x2="338.5683" y1="198.8" y2="198.8"/><line style="stroke:#181818;stroke-width:0.5;" x1="147.58" x2="338.5683" y1="206.8" y2="206.8"/><ellipse cx="157.58" cy="220.4484" fill="#84BE84" rx="3" ry="3" style="stroke:#038048;stroke-width:1;"/><text fill="#000000" font-family="sans-serif" font-size="14" lengthAdjust="spacing" textLength="78.1416" x="166.58" y="223.7951">operation()</text><ellipse cx="157.58" cy="236.7453" fill="#84BE84" rx="3" ry="3" style="stroke:#038048;stroke-width:1;"/><text fill="#000000" font-family="sans-serif" font-size="14" lengthAdjust="spacing" textLength="139.8701" x="166.58" y="240.092">add(c : Component)</text><ellipse cx="157.58" cy="253.0422" fill="#84BE84" rx="3" ry="3" style="stroke:#038048;stroke-width:1;"/><text fill="#000000" font-family="sans-serif" font-size="14" lengthAdjust="spacing" textLength="166.9883" x="166.58" y="256.3889">remove(c : Component)</text></g><g class="entity" data-entity="N1" data-source-line="24" data-uid="ent0008" id="entity_N1"><path d="M334.27,6 L334.27,106.7969 L613.8799,106.7969 L613.8799,16 L603.8799,6 L334.27,6" fill="#FEFFDD" style="stroke:#181818;stroke-width:0.5;"/><path d="M603.8799,6 L603.8799,16 L613.8799,16 L603.8799,6" fill="#FEFFDD" style="stroke:#181818;stroke-width:1;"/><text fill="#4169E1" font-family="sans-serif" font-size="13" font-weight="bold" lengthAdjust="spacing" textLength="77.4795" x="340.27" y="23.0669">Composite</text><text fill="#000000" font-family="sans-serif" font-size="13" font-weight="bold" lengthAdjust="spacing" textLength="40.6631" x="340.27" y="38.1997">Type:</text><text fill="#000000" font-family="sans-serif" font-size="13" lengthAdjust="spacing" textLength="64.3398" x="385.0654" y="38.1997">Structural</text><text fill="#000000" font-family="sans-serif" font-size="13" lengthAdjust="spacing" textLength="258.6099" x="340.27" y="53.3325">Compose objects into tree structures to</text><text fill="#000000" font-family="sans-serif" font-size="13" lengthAdjust="spacing" textLength="248.7456" x="340.27" y="68.4653">represent part-whole hierarchies. Lets</text><text fill="#000000" font-family="sans-serif" font-size="13" lengthAdjust="spacing" textLength="224.8911" x="340.27" y="83.5981">clients treat individual objects and</text><text fill="#000000" font-family="sans-serif" font-size="13" lengthAdjust="spacing" textLength="223.8564" x="340.27" y="98.731">compositions of objects uniformly.</text></g><!--reverse link Component to Leaf--><g class="link" data-entity-1="Component" data-entity-2="Leaf" data-source-line="19" data-uid="lnk5" id="link_Component_Leaf"><path codeLine="19" d="M168.11,56.69 C114.07,56.69 59.07,56.69 59.07,56.69 C59.07,56.69 59.07,136.39 59.07,182.78" fill="none" id="Component-backto-Leaf" style="stroke:#181818;stroke-width:1;"/><polygon fill="none" points="186.11,56.69,168.11,50.69,168.11,62.69,186.11,56.69" style="stroke:#181818;stroke-width:1;"/></g><!--reverse link Component to Composite--><g class="link" data-entity-1="Component" data-entity-2="Composite" data-source-line="20" data-uid="lnk6" id="link_Component_Composite"><path codeLine="20" d="M224.19,106.93 C224.19,129.26 224.19,141.29 224.19,166.47" fill="none" id="Component-backto-Composite" style="stroke:#181818;stroke-width:1;"/><polygon fill="none" points="224.19,88.93,218.19,106.93,230.19,106.93,224.19,88.93" style="stroke:#181818;stroke-width:1;"/></g><!--link Component to Composite--><g class="link" data-entity-1="Component" data-entity-2="Composite" data-source-line="21" data-uid="lnk7" id="link_Component_Composite"><path codeLine="21" d="M261.95,88.93 C261.95,111.26 261.95,129.29 261.95,154.47" fill="none" id="Component-to-Composite" style="stroke:#181818;stroke-width:1;"/><polygon fill="#181818" points="261.95,166.47,265.95,160.47,261.95,154.47,257.95,160.47,261.95,166.47" style="stroke:#181818;stroke-width:1;"/></g><!--SRC=[VP71JiCm38RlUGeV1wYRk4vL3-mwSO4NS1ENXQLnvQH35V3kkDtMJTD4Bb7yV_dj_4bx7piKRA56k_yGxgFRS621B1YJIXIpIJCLVAGyT0GTXs4ytDDOyewDyJ6JD6W9Djns7DK9lWteUWBkI31xZei7yskC3PWIR0cR_ud9AFbCTx5Z1PrRM5XVcfu5ePOFTAkfzsMyygSefZ5kQtFZAw4e7g_g9hAEXGbUdwT-PLsLTanoBJnWU0azLJDThYQfAbTrTQRVDRhrM82tBBtDlM2OjECjZRN-99iJQAwitqC4wGHIWimJAzJfQPnE_oGNNpiE13kl6OdLBItrTJbDg0rUkJGwOLPJvm_UzHZcFXZT4JnDhI4du6RM- -WRbZOCIqFHmVZ-Fm00]--></g></svg>