<svg xmlns="http://www.w3.org/2000/svg" xmlns:xlink="http://www.w3.org/1999/xlink" contentStyleType="text/css" data-diagram-type="CLASS" height="349px" preserveAspectRatio="none" style="width:939px;height:349px;" version="1.1" viewBox="0 0 939 349" width="939px" zoomAndPan="magnify"><defs/><g><!--class Amplifier--><g class="entity" data-entity="Amplifier" data-source-line="4" data-uid="ent0002" id="entity_Amplifier"><rect fill="#F1F1F1" height="113.1875" rx="2.5" ry="2.5" style="stroke:#181818;stroke-width:0.5;" width="181.7568" x="370.69" y="220.93"/><ellipse cx="425.7842" cy="236.93" fill="#ADD1B2" rx="11" ry="11" style="stroke:#181818;stroke-width:1;"/><path d="M428.753,242.5706 Q428.1749,242.8675 427.5342,243.0081 Q426.8936,243.1644 426.1905,243.1644 Q423.6905,243.1644 422.3624,241.5237 Q421.0499,239.8675 421.0499,236.7425 Q421.0499,233.6175 422.3624,231.9612 Q423.6905,230.305 426.1905,230.305 Q426.8936,230.305 427.5342,230.4612 Q428.1905,230.6175 428.753,230.9144 L428.753,233.6331 Q428.128,233.055 427.5342,232.7894 Q426.9405,232.5081 426.3155,232.5081 Q424.9717,232.5081 424.2842,233.5862 Q423.5967,234.6487 423.5967,236.7425 Q423.5967,238.8362 424.2842,239.9144 Q424.9717,240.9769 426.3155,240.9769 Q426.9405,240.9769 427.5342,240.7112 Q428.128,240.43 428.753,239.8519 L428.753,242.5706 Z " fill="#000000"/><text fill="#000000" font-family="sans-serif" font-size="14" lengthAdjust="spacing" textLength="63.0684" x="446.2842" y="241.7767">Amplifier</text><line style="stroke:#181818;stroke-width:0.5;" x1="371.69" x2="551.4468" y1="252.93" y2="252.93"/><line style="stroke:#181818;stroke-width:0.5;" x1="371.69" x2="551.4468" y1="260.93" y2="260.93"/><ellipse cx="381.69" cy="274.5784" fill="#84BE84" rx="3" ry="3" style="stroke:#038048;stroke-width:1;"/><text fill="#000000" font-family="sans-serif" font-size="14" lengthAdjust="spacing" textLength="142.5225" x="390.69" y="277.9251">setVolume(int): void</text><ellipse cx="381.69" cy="290.8753" fill="#84BE84" rx="3" ry="3" style="stroke:#038048;stroke-width:1;"/><text fill="#000000" font-family="sans-serif" font-size="14" lengthAdjust="spacing" textLength="155.7568" x="390.69" y="294.222">setInput(Source): void</text><ellipse cx="381.69" cy="307.1722" fill="#84BE84" rx="3" ry="3" style="stroke:#038048;stroke-width:1;"/><text fill="#000000" font-family="sans-serif" font-size="14" lengthAdjust="spacing" textLength="68.1406" x="390.69" y="310.5189">off(): void</text><ellipse cx="381.69" cy="323.4691" fill="#84BE84" rx="3" ry="3" style="stroke:#038048;stroke-width:1;"/><text fill="#000000" font-family="sans-serif" font-size="14" lengthAdjust="spacing" textLength="67.1563" x="390.69" y="326.8157">on(): void</text></g><!--class Projector--><g class="entity" data-entity="Projector" data-source-line="10" data-uid="ent0003" id="entity_Projector"><rect fill="#F1F1F1" height="96.8906" rx="2.5" ry="2.5" style="stroke:#181818;stroke-width:0.5;" width="181.7568" x="587.69" y="229.08"/><ellipse cx="642.9312" cy="245.08" fill="#ADD1B2" rx="11" ry="11" style="stroke:#181818;stroke-width:1;"/><path d="M645.9,250.7206 Q645.3218,251.0175 644.6812,251.1581 Q644.0406,251.3144 643.3375,251.3144 Q640.8375,251.3144 639.5093,249.6737 Q638.1968,248.0175 638.1968,244.8925 Q638.1968,241.7675 639.5093,240.1112 Q640.8375,238.455 643.3375,238.455 Q644.0406,238.455 644.6812,238.6112 Q645.3375,238.7675 645.9,239.0644 L645.9,241.7831 Q645.275,241.205 644.6812,240.9394 Q644.0875,240.6581 643.4625,240.6581 Q642.1187,240.6581 641.4312,241.7362 Q640.7437,242.7987 640.7437,244.8925 Q640.7437,246.9862 641.4312,248.0644 Q642.1187,249.1269 643.4625,249.1269 Q644.0875,249.1269 644.6812,248.8612 Q645.275,248.58 645.9,248.0019 L645.9,250.7206 Z " fill="#000000"/><text fill="#000000" font-family="sans-serif" font-size="14" lengthAdjust="spacing" textLength="62.7744" x="663.4312" y="249.9267">Projector</text><line style="stroke:#181818;stroke-width:0.5;" x1="588.69" x2="768.4468" y1="261.08" y2="261.08"/><line style="stroke:#181818;stroke-width:0.5;" x1="588.69" x2="768.4468" y1="269.08" y2="269.08"/><ellipse cx="598.69" cy="282.7284" fill="#84BE84" rx="3" ry="3" style="stroke:#038048;stroke-width:1;"/><text fill="#000000" font-family="sans-serif" font-size="14" lengthAdjust="spacing" textLength="68.1406" x="607.69" y="286.0751">off(): void</text><ellipse cx="598.69" cy="299.0253" fill="#84BE84" rx="3" ry="3" style="stroke:#038048;stroke-width:1;"/><text fill="#000000" font-family="sans-serif" font-size="14" lengthAdjust="spacing" textLength="155.7568" x="607.69" y="302.372">setInput(Source): void</text><ellipse cx="598.69" cy="315.3222" fill="#84BE84" rx="3" ry="3" style="stroke:#038048;stroke-width:1;"/><text fill="#000000" font-family="sans-serif" font-size="14" lengthAdjust="spacing" textLength="67.1563" x="607.69" y="318.6689">on(): void</text></g><!--class Player--><g class="entity" data-entity="Player" data-source-line="15" data-uid="ent0004" id="entity_Player"><rect fill="#F1F1F1" height="72.5625" rx="2.5" ry="2.5" style="stroke:#181818;stroke-width:0.5;" width="147.1396" x="141" y="43.61"/><ellipse cx="178.9214" cy="63.7428" fill="#B4A7E5" rx="11" ry="11" style="stroke:#181818;stroke-width:1;"/><path d="M174.8433,59.5084 L174.8433,57.3522 L182.2339,57.3522 L182.2339,59.5084 L179.7652,59.5084 L179.7652,67.5866 L182.2339,67.5866 L182.2339,69.7428 L174.8433,69.7428 L174.8433,67.5866 L177.3121,67.5866 L177.3121,59.5084 L174.8433,59.5084 Z " fill="#000000"/><text fill="#000000" font-family="sans-serif" font-size="12" font-style="italic" lengthAdjust="spacing" textLength="68.2031" x="196.0151" y="59.7487">&#171;interface&#187;</text><text fill="#000000" font-family="sans-serif" font-size="14" font-style="italic" lengthAdjust="spacing" textLength="43.5654" x="208.3339" y="75.5739">Player</text><line style="stroke:#181818;stroke-width:0.5;" x1="142" x2="287.1396" y1="83.8756" y2="83.8756"/><line style="stroke:#181818;stroke-width:0.5;" x1="142" x2="287.1396" y1="91.8756" y2="91.8756"/><ellipse cx="152" cy="105.5241" fill="#84BE84" rx="3" ry="3" style="stroke:#038048;stroke-width:1;"/><text fill="#000000" font-family="sans-serif" font-size="14" lengthAdjust="spacing" textLength="121.1396" x="161" y="108.8707">play(String): void</text></g><!--class TheaterLights--><g class="entity" data-entity="TheaterLights" data-source-line="18" data-uid="ent0005" id="entity_TheaterLights"><rect fill="#F1F1F1" height="96.8906" rx="2.5" ry="2.5" style="stroke:#181818;stroke-width:0.5;" width="128.708" x="804.22" y="229.08"/><ellipse cx="819.22" cy="245.08" fill="#ADD1B2" rx="11" ry="11" style="stroke:#181818;stroke-width:1;"/><path d="M822.1888,250.7206 Q821.6106,251.0175 820.97,251.1581 Q820.3294,251.3144 819.6263,251.3144 Q817.1263,251.3144 815.7981,249.6737 Q814.4856,248.0175 814.4856,244.8925 Q814.4856,241.7675 815.7981,240.1112 Q817.1263,238.455 819.6263,238.455 Q820.3294,238.455 820.97,238.6112 Q821.6263,238.7675 822.1888,239.0644 L822.1888,241.7831 Q821.5638,241.205 820.97,240.9394 Q820.3763,240.6581 819.7513,240.6581 Q818.4075,240.6581 817.72,241.7362 Q817.0325,242.7987 817.0325,244.8925 Q817.0325,246.9862 817.72,248.0644 Q818.4075,249.1269 819.7513,249.1269 Q820.3763,249.1269 820.97,248.8612 Q821.5638,248.58 822.1888,248.0019 L822.1888,250.7206 Z " fill="#000000"/><text fill="#000000" font-family="sans-serif" font-size="14" lengthAdjust="spacing" textLength="96.708" x="833.22" y="249.9267">TheaterLights</text><line style="stroke:#181818;stroke-width:0.5;" x1="805.22" x2="931.928" y1="261.08" y2="261.08"/><line style="stroke:#181818;stroke-width:0.5;" x1="805.22" x2="931.928" y1="269.08" y2="269.08"/><ellipse cx="815.22" cy="282.7284" fill="#84BE84" rx="3" ry="3" style="stroke:#038048;stroke-width:1;"/><text fill="#000000" font-family="sans-serif" font-size="14" lengthAdjust="spacing" textLength="67.1563" x="824.22" y="286.0751">on(): void</text><ellipse cx="815.22" cy="299.0253" fill="#84BE84" rx="3" ry="3" style="stroke:#038048;stroke-width:1;"/><text fill="#000000" font-family="sans-serif" font-size="14" lengthAdjust="spacing" textLength="94.3838" x="824.22" y="302.372">dim(int): void</text><ellipse cx="815.22" cy="315.3222" fill="#84BE84" rx="3" ry="3" style="stroke:#038048;stroke-width:1;"/><text fill="#000000" font-family="sans-serif" font-size="14" lengthAdjust="spacing" textLength="68.1406" x="824.22" y="318.6689">off(): void</text></g><!--class CdPlayer--><g class="entity" data-entity="CdPlayer" data-source-line="23" data-uid="ent0006" id="entity_CdPlayer"><rect fill="#F1F1F1" height="64.2969" rx="2.5" ry="2.5" style="stroke:#181818;stroke-width:0.5;" width="147.1396" x="7" y="245.38"/><ellipse cx="45.8104" cy="261.38" fill="#ADD1B2" rx="11" ry="11" style="stroke:#181818;stroke-width:1;"/><path d="M48.7792,267.0206 Q48.2011,267.3175 47.5604,267.4581 Q46.9198,267.6144 46.2167,267.6144 Q43.7167,267.6144 42.3886,265.9738 Q41.0761,264.3175 41.0761,261.1925 Q41.0761,258.0675 42.3886,256.4113 Q43.7167,254.755 46.2167,254.755 Q46.9198,254.755 47.5604,254.9113 Q48.2167,255.0675 48.7792,255.3644 L48.7792,258.0831 Q48.1542,257.505 47.5604,257.2394 Q46.9667,256.9581 46.3417,256.9581 Q44.9979,256.9581 44.3104,258.0363 Q43.6229,259.0988 43.6229,261.1925 Q43.6229,263.2863 44.3104,264.3644 Q44.9979,265.4269 46.3417,265.4269 Q46.9667,265.4269 47.5604,265.1613 Q48.1542,264.88 48.7792,264.3019 L48.7792,267.0206 Z " fill="#000000"/><text fill="#000000" font-family="sans-serif" font-size="14" lengthAdjust="spacing" textLength="62.2275" x="65.1017" y="266.2267">CdPlayer</text><line style="stroke:#181818;stroke-width:0.5;" x1="8" x2="153.1396" y1="277.38" y2="277.38"/><line style="stroke:#181818;stroke-width:0.5;" x1="8" x2="153.1396" y1="285.38" y2="285.38"/><ellipse cx="18" cy="299.0284" fill="#84BE84" rx="3" ry="3" style="stroke:#038048;stroke-width:1;"/><text fill="#000000" font-family="sans-serif" font-size="14" lengthAdjust="spacing" textLength="121.1396" x="27" y="302.3751">play(String): void</text></g><!--class DvdPlayer--><g class="entity" data-entity="DvdPlayer" data-source-line="26" data-uid="ent0007" id="entity_DvdPlayer"><rect fill="#F1F1F1" height="129.4844" rx="2.5" ry="2.5" style="stroke:#181818;stroke-width:0.5;" width="147.1396" x="189" y="212.79"/><ellipse cx="223.6299" cy="228.79" fill="#ADD1B2" rx="11" ry="11" style="stroke:#181818;stroke-width:1;"/><path d="M226.5987,234.4306 Q226.0206,234.7275 225.3799,234.8681 Q224.7393,235.0244 224.0362,235.0244 Q221.5362,235.0244 220.2081,233.3838 Q218.8956,231.7275 218.8956,228.6025 Q218.8956,225.4775 220.2081,223.8213 Q221.5362,222.165 224.0362,222.165 Q224.7393,222.165 225.3799,222.3213 Q226.0362,222.4775 226.5987,222.7744 L226.5987,225.4931 Q225.9737,224.915 225.3799,224.6494 Q224.7862,224.3681 224.1612,224.3681 Q222.8174,224.3681 222.1299,225.4463 Q221.4424,226.5088 221.4424,228.6025 Q221.4424,230.6963 222.1299,231.7744 Q222.8174,232.8369 224.1612,232.8369 Q224.7862,232.8369 225.3799,232.5713 Q225.9737,232.29 226.5987,231.7119 L226.5987,234.4306 Z " fill="#000000"/><text fill="#000000" font-family="sans-serif" font-size="14" lengthAdjust="spacing" textLength="71.5176" x="241.9921" y="233.6367">DvdPlayer</text><line style="stroke:#181818;stroke-width:0.5;" x1="190" x2="335.1396" y1="244.79" y2="244.79"/><line style="stroke:#181818;stroke-width:0.5;" x1="190" x2="335.1396" y1="252.79" y2="252.79"/><ellipse cx="200" cy="266.4384" fill="#84BE84" rx="3" ry="3" style="stroke:#038048;stroke-width:1;"/><text fill="#000000" font-family="sans-serif" font-size="14" lengthAdjust="spacing" textLength="121.1396" x="209" y="269.7851">play(String): void</text><ellipse cx="200" cy="282.7353" fill="#84BE84" rx="3" ry="3" style="stroke:#038048;stroke-width:1;"/><text fill="#000000" font-family="sans-serif" font-size="14" lengthAdjust="spacing" textLength="67.1563" x="209" y="286.082">on(): void</text><ellipse cx="200" cy="299.0322" fill="#84BE84" rx="3" ry="3" style="stroke:#038048;stroke-width:1;"/><text fill="#000000" font-family="sans-serif" font-size="14" lengthAdjust="spacing" textLength="91.9639" x="209" y="302.3789">pause(): void</text><ellipse cx="200" cy="315.3291" fill="#84BE84" rx="3" ry="3" style="stroke:#038048;stroke-width:1;"/><text fill="#000000" font-family="sans-serif" font-size="14" lengthAdjust="spacing" textLength="79.9531" x="209" y="318.6757">stop(): void</text><ellipse cx="200" cy="331.6259" fill="#84BE84" rx="3" ry="3" style="stroke:#038048;stroke-width:1;"/><text fill="#000000" font-family="sans-serif" font-size="14" lengthAdjust="spacing" textLength="68.1406" x="209" y="334.9726">off(): void</text></g><!--class HomeTheaterFacade--><g class="entity" data-entity="HomeTheaterFacade" data-source-line="33" data-uid="ent0008" id="entity_HomeTheaterFacade"><rect fill="#F1F1F1" height="145.7813" rx="2.5" ry="2.5" style="stroke:#181818;stroke-width:0.5;" width="201.0205" x="409.06" y="7"/><ellipse cx="434.3168" cy="23" fill="#ADD1B2" rx="11" ry="11" style="stroke:#181818;stroke-width:1;"/><path d="M437.2856,28.6406 Q436.7075,28.9375 436.0668,29.0781 Q435.4262,29.2344 434.7231,29.2344 Q432.2231,29.2344 430.895,27.5938 Q429.5825,25.9375 429.5825,22.8125 Q429.5825,19.6875 430.895,18.0313 Q432.2231,16.375 434.7231,16.375 Q435.4262,16.375 436.0668,16.5313 Q436.7231,16.6875 437.2856,16.9844 L437.2856,19.7031 Q436.6606,19.125 436.0668,18.8594 Q435.4731,18.5781 434.8481,18.5781 Q433.5043,18.5781 432.8168,19.6563 Q432.1293,20.7188 432.1293,22.8125 Q432.1293,24.9063 432.8168,25.9844 Q433.5043,27.0469 434.8481,27.0469 Q435.4731,27.0469 436.0668,26.7813 Q436.6606,26.5 437.2856,25.9219 L437.2856,28.6406 Z " fill="#000000"/><text fill="#000000" font-family="sans-serif" font-size="14" lengthAdjust="spacing" textLength="146.2275" x="450.5961" y="27.8467">HomeTheaterFacade</text><line style="stroke:#181818;stroke-width:0.5;" x1="410.06" x2="609.0805" y1="39" y2="39"/><rect fill="none" height="6" style="stroke:#C82930;stroke-width:1;" width="6" x="417.06" y="49.6484"/><text fill="#000000" font-family="sans-serif" font-size="14" lengthAdjust="spacing" textLength="135.1602" x="429.06" y="55.9951">projector: Projector</text><rect fill="none" height="6" style="stroke:#C82930;stroke-width:1;" width="6" x="417.06" y="65.9453"/><text fill="#000000" font-family="sans-serif" font-size="14" lengthAdjust="spacing" textLength="144.1973" x="429.06" y="72.292">lights: TheaterLights</text><rect fill="none" height="6" style="stroke:#C82930;stroke-width:1;" width="6" x="417.06" y="82.2422"/><text fill="#000000" font-family="sans-serif" font-size="14" lengthAdjust="spacing" textLength="96.7422" x="429.06" y="88.5889">player: Player</text><rect fill="none" height="6" style="stroke:#C82930;stroke-width:1;" width="6" x="417.06" y="98.5391"/><text fill="#000000" font-family="sans-serif" font-size="14" lengthAdjust="spacing" textLength="134.3057" x="429.06" y="104.8857">amplifier: Amplifier</text><line style="stroke:#181818;stroke-width:0.5;" x1="410.06" x2="609.0805" y1="112.1875" y2="112.1875"/><ellipse cx="420.06" cy="125.8359" fill="#84BE84" rx="3" ry="3" style="stroke:#038048;stroke-width:1;"/><text fill="#000000" font-family="sans-serif" font-size="14" lengthAdjust="spacing" textLength="117.5234" x="429.06" y="129.1826">endMovie(): void</text><ellipse cx="420.06" cy="142.1328" fill="#84BE84" rx="3" ry="3" style="stroke:#038048;stroke-width:1;"/><text fill="#000000" font-family="sans-serif" font-size="14" lengthAdjust="spacing" textLength="175.0205" x="429.06" y="145.4795">watchMovie(String): void</text></g><!--link HomeTheaterFacade to Amplifier--><g class="link" data-entity-1="HomeTheaterFacade" data-entity-2="Amplifier" data-source-line="42" data-uid="lnk9" id="link_HomeTheaterFacade_Amplifier"><path codeLine="42" d="M480.75,165.21 C480.75,187.51 480.75,193.67 480.75,214.71" fill="none" id="HomeTheaterFacade-Amplifier" style="stroke:#595959;stroke-width:1;"/><polygon fill="#595959" points="480.75,153.21,476.75,159.21,480.75,165.21,484.75,159.21,480.75,153.21" style="stroke:#595959;stroke-width:1;"/><polygon fill="#595959" points="480.75,220.71,484.75,211.71,480.75,215.71,476.75,211.71,480.75,220.71" style="stroke:#595959;stroke-width:1;"/><text fill="#000000" font-family="sans-serif" font-size="13" lengthAdjust="spacing" textLength="8.271" x="469.7369" y="172.7336">1</text><text fill="#000000" font-family="sans-serif" font-size="13" lengthAdjust="spacing" textLength="57.6367" x="422.7656" y="194.9368">amplifier</text><text fill="#000000" font-family="sans-serif" font-size="13" lengthAdjust="spacing" textLength="8.271" x="447.4485" y="210.0696">1</text></g><!--link HomeTheaterFacade to DvdPlayer--><g class="link" data-entity-1="HomeTheaterFacade" data-entity-2="DvdPlayer" data-source-line="43" data-uid="lnk10" id="link_HomeTheaterFacade_DvdPlayer"><path codeLine="43" d="M396.83,135.27 C348.16,135.27 312.14,135.27 312.14,135.27 C312.14,135.27 312.14,169.12 312.14,206.64" fill="none" id="HomeTheaterFacade-DvdPlayer" style="stroke:#595959;stroke-width:1;"/><polygon fill="#595959" points="408.83,135.27,402.83,131.27,396.83,135.27,402.83,139.27,408.83,135.27" style="stroke:#595959;stroke-width:1;"/><polygon fill="#595959" points="312.14,212.64,316.14,203.64,312.14,207.64,308.14,203.64,312.14,212.64" style="stroke:#595959;stroke-width:1;"/><text fill="#000000" font-family="sans-serif" font-size="13" lengthAdjust="spacing" textLength="8.271" x="392.8212" y="136.0077">1</text><text fill="#000000" font-family="sans-serif" font-size="13" lengthAdjust="spacing" textLength="64.6509" x="249.9855" y="186.4817">dvdPlayer</text><text fill="#000000" font-family="sans-serif" font-size="13" lengthAdjust="spacing" textLength="8.271" x="278.1754" y="201.6145">1</text></g><!--link HomeTheaterFacade to Projector--><g class="link" data-entity-1="HomeTheaterFacade" data-entity-2="Projector" data-source-line="44" data-uid="lnk11" id="link_HomeTheaterFacade_Projector"><path codeLine="44" d="M598.89,165.21 C598.89,190.36 598.89,199.88 598.89,222.63" fill="none" id="HomeTheaterFacade-Projector" style="stroke:#595959;stroke-width:1;"/><polygon fill="#595959" points="598.89,153.21,594.89,159.21,598.89,165.21,602.89,159.21,598.89,153.21" style="stroke:#595959;stroke-width:1;"/><polygon fill="#595959" points="598.89,228.63,602.89,219.63,598.89,223.63,594.89,219.63,598.89,228.63" style="stroke:#595959;stroke-width:1;"/><text fill="#000000" font-family="sans-serif" font-size="13" lengthAdjust="spacing" textLength="8.271" x="598.7679" y="172.7336">1</text><text fill="#000000" font-family="sans-serif" font-size="13" lengthAdjust="spacing" textLength="58.7031" x="592.7564" y="202.9258">projector</text><text fill="#000000" font-family="sans-serif" font-size="13" lengthAdjust="spacing" textLength="8.271" x="617.9725" y="218.0587">1</text></g><!--link HomeTheaterFacade to TheaterLights--><g class="link" data-entity-1="HomeTheaterFacade" data-entity-2="TheaterLights" data-source-line="45" data-uid="lnk12" id="link_HomeTheaterFacade_TheaterLights"><path codeLine="45" d="M622.53,80.27 C728.71,80.27 868.57,80.27 868.57,80.27 C868.57,80.27 868.57,164.35 868.57,222.77" fill="none" id="HomeTheaterFacade-TheaterLights" style="stroke:#595959;stroke-width:1;"/><polygon fill="#595959" points="610.53,80.27,616.53,84.27,622.53,80.27,616.53,76.27,610.53,80.27" style="stroke:#595959;stroke-width:1;"/><polygon fill="#595959" points="868.57,228.77,872.57,219.77,868.57,223.77,864.57,219.77,868.57,228.77" style="stroke:#595959;stroke-width:1;"/><text fill="#000000" font-family="sans-serif" font-size="13" lengthAdjust="spacing" textLength="8.271" x="617.9195" y="76.8409">1</text><text fill="#000000" font-family="sans-serif" font-size="13" lengthAdjust="spacing" textLength="35.585" x="831.3648" y="202.6853">lights</text><text fill="#000000" font-family="sans-serif" font-size="13" lengthAdjust="spacing" textLength="8.271" x="845.0218" y="217.8181">1</text></g><!--reverse link Player to CdPlayer--><g class="link" data-entity-1="Player" data-entity-2="CdPlayer" data-source-line="46" data-uid="lnk14" id="link_Player_CdPlayer"><path codeLine="46" d="M147.57,134.61 C147.57,171.44 147.57,209.64 147.57,244.95" fill="none" id="Player-backto-CdPlayer" style="stroke:#008200;stroke-width:1;stroke-dasharray:7.0,7.0;"/><polygon fill="none" points="147.57,116.61,141.57,134.61,153.57,134.61,147.57,116.61" style="stroke:#008200;stroke-width:1;"/></g><!--reverse link Player to DvdPlayer--><g class="link" data-entity-1="Player" data-entity-2="DvdPlayer" data-source-line="47" data-uid="lnk16" id="link_Player_DvdPlayer"><path codeLine="47" d="M238.57,134.61 C238.57,161.51 238.57,180.74 238.57,212.61" fill="none" id="Player-backto-DvdPlayer" style="stroke:#008200;stroke-width:1;stroke-dasharray:7.0,7.0;"/><polygon fill="none" points="238.57,116.61,232.57,134.61,244.57,134.61,238.57,116.61" style="stroke:#008200;stroke-width:1;"/></g><!--SRC=[dP9TIyCm58Rl-oiEsqtL5QeWQ1a3cOY2mc3YpPmGczCrhar2aaw6-D-jMTEkdMouzYhduptF-T1BnYLH98Tt4YyNIXISZaKc51X5k2vTo8sdwwYCSJHhYI2KIONdnHdH6cvocR64eO8l3-0CD9eNaHKv-eoRamXMWb7dUE2oCFvK52h6RPT84h_rvlNpkoepKU83OoDScMxAFlLjjH8ALK9YX4b6rYNrS0YDRJIgv6NfzAT6CRxeaZodIChuHxP8ZNOql0L3MTxjVflNAOrfnN2mvktgOEWV698K6jjJCaBwXx3kHOvLatSa9XHjqG2aMq7KRCCwCZkAg3sPJOg5ZgfPMnDnzn8rfsDHaDCdiM9ju4zYudHZxax6s-NidVVWD9ZrBwz__q5PdV5vC89UNVILbo7DoRhlFrhKxS9gDPivHgiUgTLgRlmOhSqMh53xHAtGk8jPxcBM3yEhYp0SKA9JfFD21cy0Et7WxJQvF_a7]--></g></svg>