<?xml version="1.0" encoding="us-ascii" standalone="no"?><svg xmlns="http://www.w3.org/2000/svg" xmlns:xlink="http://www.w3.org/1999/xlink" contentStyleType="text/css" height="608px" preserveAspectRatio="none" style="width:892px;height:608px;" version="1.1" viewBox="0 0 892 608" width="892px" zoomAndPan="magnify"><defs/><g><!--cluster equip--><g id="cluster_equip"><path d="M112.5,6 L155.5,6 A5.25,5.25 0 0 1 159,9.5 L166,28.2969 L796.5,28.2969 A3.5,3.5 0 0 1 800,31.7969 L800,85.5 A3.5,3.5 0 0 1 796.5,89 L112.5,89 A3.5,3.5 0 0 1 109,85.5 L109,9.5 A3.5,3.5 0 0 1 112.5,6 " fill="none" style="stroke:#454645;stroke-width:1.0;"/><line style="stroke:#454645;stroke-width:1.0;" x1="109" x2="166" y1="28.2969" y2="28.2969"/><text fill="#000000" font-family="sans-serif" font-size="14" font-weight="bold" lengthAdjust="spacing" textLength="44" x="113" y="20.9951">equip</text></g><!--cluster gem--><g id="cluster_gem"><path d="M9.5,518.12 L42.5,518.12 A5.25,5.25 0 0 1 46,521.62 L53,540.4169 L881.5,540.4169 A3.5,3.5 0 0 1 885,543.9169 L885,597.62 A3.5,3.5 0 0 1 881.5,601.12 L9.5,601.12 A3.5,3.5 0 0 1 6,597.62 L6,521.62 A3.5,3.5 0 0 1 9.5,518.12 " fill="none" style="stroke:#454645;stroke-width:1.0;"/><line style="stroke:#454645;stroke-width:1.0;" x1="6" x2="53" y1="540.4169" y2="540.4169"/><text fill="#000000" font-family="sans-serif" font-size="14" font-weight="bold" lengthAdjust="spacing" textLength="34" x="10" y="533.1151">gem</text></g><!--class Weapon--><g id="elem_Weapon"><rect codeLine="15" fill="#F1F1F1" height="32" id="Weapon" rx="3.5" ry="3.5" style="stroke:#181818;stroke-width:0.5;" width="100" x="684" y="41"/><ellipse cx="699" cy="57" fill="#ADD1B2" rx="11" ry="11" style="stroke:#181818;stroke-width:1.0;"/><path d="M701.9688,62.6406 Q701.3906,62.9375 700.75,63.0781 Q700.1094,63.2344 699.4063,63.2344 Q696.9063,63.2344 695.5781,61.5938 Q694.2656,59.9375 694.2656,56.8125 Q694.2656,53.6875 695.5781,52.0313 Q696.9063,50.375 699.4063,50.375 Q700.1094,50.375 700.75,50.5313 Q701.4063,50.6875 701.9688,50.9844 L701.9688,53.7031 Q701.3438,53.125 700.75,52.8594 Q700.1563,52.5781 699.5313,52.5781 Q698.1875,52.5781 697.5,53.6563 Q696.8125,54.7188 696.8125,56.8125 Q696.8125,58.9063 697.5,59.9844 Q698.1875,61.0469 699.5313,61.0469 Q700.1563,61.0469 700.75,60.7813 Q701.3438,60.5 701.9688,59.9219 L701.9688,62.6406 Z " fill="#000000"/><text fill="#000000" font-family="sans-serif" font-size="14" lengthAdjust="spacing" textLength="57" x="713" y="61.8467">Weapon</text><rect fill="none" height="15.9688" style="stroke:#181818;stroke-width:1.0;stroke-dasharray:2.0,2.0;" width="9" x="778" y="38"/><text fill="#000000" font-family="sans-serif" font-size="12" font-style="italic" lengthAdjust="spacing" textLength="7" x="779" y="50.1387">&#128481;</text></g><!--class Cap--><g id="elem_Cap"><rect codeLine="17" fill="#F1F1F1" height="32" id="Cap" rx="3.5" ry="3.5" style="stroke:#181818;stroke-width:0.5;" width="70" x="579" y="41"/><ellipse cx="594" cy="57" fill="#ADD1B2" rx="11" ry="11" style="stroke:#181818;stroke-width:1.0;"/><path d="M596.9688,62.6406 Q596.3906,62.9375 595.75,63.0781 Q595.1094,63.2344 594.4063,63.2344 Q591.9063,63.2344 590.5781,61.5938 Q589.2656,59.9375 589.2656,56.8125 Q589.2656,53.6875 590.5781,52.0313 Q591.9063,50.375 594.4063,50.375 Q595.1094,50.375 595.75,50.5313 Q596.4063,50.6875 596.9688,50.9844 L596.9688,53.7031 Q596.3438,53.125 595.75,52.8594 Q595.1563,52.5781 594.5313,52.5781 Q593.1875,52.5781 592.5,53.6563 Q591.8125,54.7188 591.8125,56.8125 Q591.8125,58.9063 592.5,59.9844 Q593.1875,61.0469 594.5313,61.0469 Q595.1563,61.0469 595.75,60.7813 Q596.3438,60.5 596.9688,59.9219 L596.9688,62.6406 Z " fill="#000000"/><text fill="#000000" font-family="sans-serif" font-size="14" lengthAdjust="spacing" textLength="27" x="608" y="61.8467">Cap</text><rect fill="none" height="15.9688" style="stroke:#181818;stroke-width:1.0;stroke-dasharray:2.0,2.0;" width="9" x="643" y="38"/><text fill="#000000" font-family="sans-serif" font-size="12" font-style="italic" lengthAdjust="spacing" textLength="7" x="644" y="50.1387">&#129506;</text></g><!--class Coat--><g id="elem_Coat"><rect codeLine="19" fill="#F1F1F1" height="32" id="Coat" rx="3.5" ry="3.5" style="stroke:#181818;stroke-width:0.5;" width="75" x="468.5" y="41"/><ellipse cx="483.5" cy="57" fill="#ADD1B2" rx="11" ry="11" style="stroke:#181818;stroke-width:1.0;"/><path d="M486.4688,62.6406 Q485.8906,62.9375 485.25,63.0781 Q484.6094,63.2344 483.9063,63.2344 Q481.4063,63.2344 480.0781,61.5938 Q478.7656,59.9375 478.7656,56.8125 Q478.7656,53.6875 480.0781,52.0313 Q481.4063,50.375 483.9063,50.375 Q484.6094,50.375 485.25,50.5313 Q485.9063,50.6875 486.4688,50.9844 L486.4688,53.7031 Q485.8438,53.125 485.25,52.8594 Q484.6563,52.5781 484.0313,52.5781 Q482.6875,52.5781 482,53.6563 Q481.3125,54.7188 481.3125,56.8125 Q481.3125,58.9063 482,59.9844 Q482.6875,61.0469 484.0313,61.0469 Q484.6563,61.0469 485.25,60.7813 Q485.8438,60.5 486.4688,59.9219 L486.4688,62.6406 Z " fill="#000000"/><text fill="#000000" font-family="sans-serif" font-size="14" lengthAdjust="spacing" textLength="32" x="497.5" y="61.8467">Coat</text><rect fill="none" height="15.9688" style="stroke:#181818;stroke-width:1.0;stroke-dasharray:2.0,2.0;" width="9" x="537.5" y="38"/><text fill="#000000" font-family="sans-serif" font-size="12" font-style="italic" lengthAdjust="spacing" textLength="7" x="538.5" y="50.1387">&#128084;</text></g><!--class Neck--><g id="elem_Neck"><rect codeLine="21" fill="#F1F1F1" height="32" id="Neck" rx="3.5" ry="3.5" style="stroke:#181818;stroke-width:0.5;" width="78" x="355" y="41"/><ellipse cx="370" cy="57" fill="#ADD1B2" rx="11" ry="11" style="stroke:#181818;stroke-width:1.0;"/><path d="M372.9688,62.6406 Q372.3906,62.9375 371.75,63.0781 Q371.1094,63.2344 370.4063,63.2344 Q367.9063,63.2344 366.5781,61.5938 Q365.2656,59.9375 365.2656,56.8125 Q365.2656,53.6875 366.5781,52.0313 Q367.9063,50.375 370.4063,50.375 Q371.1094,50.375 371.75,50.5313 Q372.4063,50.6875 372.9688,50.9844 L372.9688,53.7031 Q372.3438,53.125 371.75,52.8594 Q371.1563,52.5781 370.5313,52.5781 Q369.1875,52.5781 368.5,53.6563 Q367.8125,54.7188 367.8125,56.8125 Q367.8125,58.9063 368.5,59.9844 Q369.1875,61.0469 370.5313,61.0469 Q371.1563,61.0469 371.75,60.7813 Q372.3438,60.5 372.9688,59.9219 L372.9688,62.6406 Z " fill="#000000"/><text fill="#000000" font-family="sans-serif" font-size="14" lengthAdjust="spacing" textLength="35" x="384" y="61.8467">Neck</text><rect fill="none" height="15.9688" style="stroke:#181818;stroke-width:1.0;stroke-dasharray:2.0,2.0;" width="9" x="427" y="38"/><text fill="#000000" font-family="sans-serif" font-size="12" font-style="italic" lengthAdjust="spacing" textLength="7" x="428" y="50.1387">&#129509;</text></g><!--class Pants--><g id="elem_Pants"><rect codeLine="23" fill="#F1F1F1" height="32" id="Pants" rx="3.5" ry="3.5" style="stroke:#181818;stroke-width:0.5;" width="82" x="238" y="41"/><ellipse cx="253" cy="57" fill="#ADD1B2" rx="11" ry="11" style="stroke:#181818;stroke-width:1.0;"/><path d="M255.9688,62.6406 Q255.3906,62.9375 254.75,63.0781 Q254.1094,63.2344 253.4063,63.2344 Q250.9063,63.2344 249.5781,61.5938 Q248.2656,59.9375 248.2656,56.8125 Q248.2656,53.6875 249.5781,52.0313 Q250.9063,50.375 253.4063,50.375 Q254.1094,50.375 254.75,50.5313 Q255.4063,50.6875 255.9688,50.9844 L255.9688,53.7031 Q255.3438,53.125 254.75,52.8594 Q254.1563,52.5781 253.5313,52.5781 Q252.1875,52.5781 251.5,53.6563 Q250.8125,54.7188 250.8125,56.8125 Q250.8125,58.9063 251.5,59.9844 Q252.1875,61.0469 253.5313,61.0469 Q254.1563,61.0469 254.75,60.7813 Q255.3438,60.5 255.9688,59.9219 L255.9688,62.6406 Z " fill="#000000"/><text fill="#000000" font-family="sans-serif" font-size="14" lengthAdjust="spacing" textLength="39" x="267" y="61.8467">Pants</text><rect fill="none" height="15.9688" style="stroke:#181818;stroke-width:1.0;stroke-dasharray:2.0,2.0;" width="9" x="314" y="38"/><text fill="#000000" font-family="sans-serif" font-size="12" font-style="italic" lengthAdjust="spacing" textLength="7" x="315" y="50.1387">&#128086;</text></g><!--class Shoe--><g id="elem_Shoe"><rect codeLine="25" fill="#F1F1F1" height="32" id="Shoe" rx="3.5" ry="3.5" style="stroke:#181818;stroke-width:0.5;" width="79" x="124.5" y="41"/><ellipse cx="139.5" cy="57" fill="#ADD1B2" rx="11" ry="11" style="stroke:#181818;stroke-width:1.0;"/><path d="M142.4688,62.6406 Q141.8906,62.9375 141.25,63.0781 Q140.6094,63.2344 139.9063,63.2344 Q137.4063,63.2344 136.0781,61.5938 Q134.7656,59.9375 134.7656,56.8125 Q134.7656,53.6875 136.0781,52.0313 Q137.4063,50.375 139.9063,50.375 Q140.6094,50.375 141.25,50.5313 Q141.9063,50.6875 142.4688,50.9844 L142.4688,53.7031 Q141.8438,53.125 141.25,52.8594 Q140.6563,52.5781 140.0313,52.5781 Q138.6875,52.5781 138,53.6563 Q137.3125,54.7188 137.3125,56.8125 Q137.3125,58.9063 138,59.9844 Q138.6875,61.0469 140.0313,61.0469 Q140.6563,61.0469 141.25,60.7813 Q141.8438,60.5 142.4688,59.9219 L142.4688,62.6406 Z " fill="#000000"/><text fill="#000000" font-family="sans-serif" font-size="14" lengthAdjust="spacing" textLength="36" x="153.5" y="61.8467">Shoe</text><rect fill="none" height="15.9688" style="stroke:#181818;stroke-width:1.0;stroke-dasharray:2.0,2.0;" width="9" x="197.5" y="38"/><text fill="#000000" font-family="sans-serif" font-size="12" font-style="italic" lengthAdjust="spacing" textLength="7" x="198.5" y="50.1387">&#128098;</text></g><!--class RedGem--><g id="elem_RedGem"><rect codeLine="38" fill="#F1F1F1" height="32" id="RedGem" rx="3.5" ry="3.5" style="stroke:#181818;stroke-width:0.5;" width="137" x="731.5" y="553.12"/><ellipse cx="746.5" cy="569.12" fill="#ADD1B2" rx="11" ry="11" style="stroke:#181818;stroke-width:1.0;"/><path d="M749.4688,574.7606 Q748.8906,575.0575 748.25,575.1981 Q747.6094,575.3544 746.9063,575.3544 Q744.4063,575.3544 743.0781,573.7138 Q741.7656,572.0575 741.7656,568.9325 Q741.7656,565.8075 743.0781,564.1513 Q744.4063,562.495 746.9063,562.495 Q747.6094,562.495 748.25,562.6513 Q748.9063,562.8075 749.4688,563.1044 L749.4688,565.8231 Q748.8438,565.245 748.25,564.9794 Q747.6563,564.6981 747.0313,564.6981 Q745.6875,564.6981 745,565.7763 Q744.3125,566.8388 744.3125,568.9325 Q744.3125,571.0263 745,572.1044 Q745.6875,573.1669 747.0313,573.1669 Q747.6563,573.1669 748.25,572.9013 Q748.8438,572.62 749.4688,572.0419 L749.4688,574.7606 Z " fill="#000000"/><text fill="#000000" font-family="sans-serif" font-size="14" lengthAdjust="spacing" textLength="61" x="760.5" y="573.9667">RedGem</text><rect fill="none" height="15.9688" style="stroke:#181818;stroke-width:1.0;stroke-dasharray:2.0,2.0;" width="42" x="829.5" y="550.12"/><text fill="#000000" font-family="sans-serif" font-size="12" font-style="italic" lengthAdjust="spacing" textLength="40" x="830.5" y="562.2587">&#10084;&#65039;,hp+</text></g><!--class BlueGem--><g id="elem_BlueGem"><rect codeLine="40" fill="#F1F1F1" height="32" id="BlueGem" rx="3.5" ry="3.5" style="stroke:#181818;stroke-width:0.5;" width="137" x="559.5" y="553.12"/><ellipse cx="574.5" cy="569.12" fill="#ADD1B2" rx="11" ry="11" style="stroke:#181818;stroke-width:1.0;"/><path d="M577.4688,574.7606 Q576.8906,575.0575 576.25,575.1981 Q575.6094,575.3544 574.9063,575.3544 Q572.4063,575.3544 571.0781,573.7138 Q569.7656,572.0575 569.7656,568.9325 Q569.7656,565.8075 571.0781,564.1513 Q572.4063,562.495 574.9063,562.495 Q575.6094,562.495 576.25,562.6513 Q576.9063,562.8075 577.4688,563.1044 L577.4688,565.8231 Q576.8438,565.245 576.25,564.9794 Q575.6563,564.6981 575.0313,564.6981 Q573.6875,564.6981 573,565.7763 Q572.3125,566.8388 572.3125,568.9325 Q572.3125,571.0263 573,572.1044 Q573.6875,573.1669 575.0313,573.1669 Q575.6563,573.1669 576.25,572.9013 Q576.8438,572.62 577.4688,572.0419 L577.4688,574.7606 Z " fill="#000000"/><text fill="#000000" font-family="sans-serif" font-size="14" lengthAdjust="spacing" textLength="64" x="588.5" y="573.9667">BlueGem</text><rect fill="none" height="15.9688" style="stroke:#181818;stroke-width:1.0;stroke-dasharray:2.0,2.0;" width="39" x="660.5" y="550.12"/><text fill="#000000" font-family="sans-serif" font-size="12" font-style="italic" lengthAdjust="spacing" textLength="37" x="661.5" y="562.2587">&#128153;,hp+</text></g><!--class GreenGem--><g id="elem_GreenGem"><rect codeLine="42" fill="#F1F1F1" height="32" id="GreenGem" rx="3.5" ry="3.5" style="stroke:#181818;stroke-width:0.5;" width="148" x="376" y="553.12"/><ellipse cx="391" cy="569.12" fill="#ADD1B2" rx="11" ry="11" style="stroke:#181818;stroke-width:1.0;"/><path d="M393.9688,574.7606 Q393.3906,575.0575 392.75,575.1981 Q392.1094,575.3544 391.4063,575.3544 Q388.9063,575.3544 387.5781,573.7138 Q386.2656,572.0575 386.2656,568.9325 Q386.2656,565.8075 387.5781,564.1513 Q388.9063,562.495 391.4063,562.495 Q392.1094,562.495 392.75,562.6513 Q393.4063,562.8075 393.9688,563.1044 L393.9688,565.8231 Q393.3438,565.245 392.75,564.9794 Q392.1563,564.6981 391.5313,564.6981 Q390.1875,564.6981 389.5,565.7763 Q388.8125,566.8388 388.8125,568.9325 Q388.8125,571.0263 389.5,572.1044 Q390.1875,573.1669 391.5313,573.1669 Q392.1563,573.1669 392.75,572.9013 Q393.3438,572.62 393.9688,572.0419 L393.9688,574.7606 Z " fill="#000000"/><text fill="#000000" font-family="sans-serif" font-size="14" lengthAdjust="spacing" textLength="76" x="405" y="573.9667">GreenGem</text><rect fill="none" height="15.9688" style="stroke:#181818;stroke-width:1.0;stroke-dasharray:2.0,2.0;" width="38" x="489" y="550.12"/><text fill="#000000" font-family="sans-serif" font-size="12" font-style="italic" lengthAdjust="spacing" textLength="36" x="490" y="562.2587">&#128154;,sp+</text></g><!--class CyanGem--><g id="elem_CyanGem"><rect codeLine="44" fill="#F1F1F1" height="32" id="CyanGem" rx="3.5" ry="3.5" style="stroke:#181818;stroke-width:0.5;" width="136" x="205" y="553.12"/><ellipse cx="220" cy="569.12" fill="#ADD1B2" rx="11" ry="11" style="stroke:#181818;stroke-width:1.0;"/><path d="M222.9688,574.7606 Q222.3906,575.0575 221.75,575.1981 Q221.1094,575.3544 220.4063,575.3544 Q217.9063,575.3544 216.5781,573.7138 Q215.2656,572.0575 215.2656,568.9325 Q215.2656,565.8075 216.5781,564.1513 Q217.9063,562.495 220.4063,562.495 Q221.1094,562.495 221.75,562.6513 Q222.4063,562.8075 222.9688,563.1044 L222.9688,565.8231 Q222.3438,565.245 221.75,564.9794 Q221.1563,564.6981 220.5313,564.6981 Q219.1875,564.6981 218.5,565.7763 Q217.8125,566.8388 217.8125,568.9325 Q217.8125,571.0263 218.5,572.1044 Q219.1875,573.1669 220.5313,573.1669 Q221.1563,573.1669 221.75,572.9013 Q222.3438,572.62 222.9688,572.0419 L222.9688,574.7606 Z " fill="#000000"/><text fill="#000000" font-family="sans-serif" font-size="14" lengthAdjust="spacing" textLength="67" x="234" y="573.9667">CyanGem</text><rect fill="none" height="15.9688" style="stroke:#181818;stroke-width:1.0;stroke-dasharray:2.0,2.0;" width="35" x="309" y="550.12"/><text fill="#000000" font-family="sans-serif" font-size="12" font-style="italic" lengthAdjust="spacing" textLength="33" x="310" y="562.2587">&#128156;,df+</text></g><!--class YellowGem--><g id="elem_YellowGem"><rect codeLine="46" fill="#F1F1F1" height="32" id="YellowGem" rx="3.5" ry="3.5" style="stroke:#181818;stroke-width:0.5;" width="149" x="21.5" y="553.12"/><ellipse cx="36.5" cy="569.12" fill="#ADD1B2" rx="11" ry="11" style="stroke:#181818;stroke-width:1.0;"/><path d="M39.4688,574.7606 Q38.8906,575.0575 38.25,575.1981 Q37.6094,575.3544 36.9063,575.3544 Q34.4063,575.3544 33.0781,573.7138 Q31.7656,572.0575 31.7656,568.9325 Q31.7656,565.8075 33.0781,564.1513 Q34.4063,562.495 36.9063,562.495 Q37.6094,562.495 38.25,562.6513 Q38.9063,562.8075 39.4688,563.1044 L39.4688,565.8231 Q38.8438,565.245 38.25,564.9794 Q37.6563,564.6981 37.0313,564.6981 Q35.6875,564.6981 35,565.7763 Q34.3125,566.8388 34.3125,568.9325 Q34.3125,571.0263 35,572.1044 Q35.6875,573.1669 37.0313,573.1669 Q37.6563,573.1669 38.25,572.9013 Q38.8438,572.62 39.4688,572.0419 L39.4688,574.7606 Z " fill="#000000"/><text fill="#000000" font-family="sans-serif" font-size="14" lengthAdjust="spacing" textLength="77" x="50.5" y="573.9667">YellowGem</text><rect fill="none" height="15.9688" style="stroke:#181818;stroke-width:1.0;stroke-dasharray:2.0,2.0;" width="38" x="135.5" y="550.12"/><text fill="#000000" font-family="sans-serif" font-size="12" font-style="italic" lengthAdjust="spacing" textLength="36" x="136.5" y="562.2587">&#128155;,ak+</text></g><!--class Equip--><g id="elem_Equip"><rect codeLine="6" fill="#F1F1F1" height="146.0469" id="Equip" rx="3.5" ry="3.5" style="stroke:#181818;stroke-width:0.5;" width="162" x="369" y="133"/><ellipse cx="412.8" cy="153.1328" fill="#B4A7E5" rx="11" ry="11" style="stroke:#181818;stroke-width:1.0;"/><path d="M408.7219,148.8984 L408.7219,146.7422 L416.1125,146.7422 L416.1125,148.8984 L413.6438,148.8984 L413.6438,156.9766 L416.1125,156.9766 L416.1125,159.1328 L408.7219,159.1328 L408.7219,156.9766 L411.1906,156.9766 L411.1906,148.8984 L408.7219,148.8984 Z " fill="#000000"/><text fill="#000000" font-family="sans-serif" font-size="12" font-style="italic" lengthAdjust="spacing" textLength="70" x="431.2" y="149.1387">&#171;interface&#187;</text><text fill="#000000" font-family="sans-serif" font-size="14" font-style="italic" lengthAdjust="spacing" textLength="39" x="446.7" y="164.9639">Equip</text><line style="stroke:#181818;stroke-width:0.5;" x1="370" x2="530" y1="173.2656" y2="173.2656"/><ellipse cx="380" cy="186.9141" fill="#84BE84" rx="3" ry="3" style="stroke:#038048;stroke-width:1.0;"/><text fill="#000000" font-family="sans-serif" font-size="14" lengthAdjust="spacing" textLength="78" x="389" y="190.2607">attack(): int</text><ellipse cx="380" cy="203.2109" fill="#84BE84" rx="3" ry="3" style="stroke:#038048;stroke-width:1.0;"/><text fill="#000000" font-family="sans-serif" font-size="14" lengthAdjust="spacing" textLength="80" x="389" y="206.5576">speed(): int</text><ellipse cx="380" cy="219.5078" fill="#84BE84" rx="3" ry="3" style="stroke:#038048;stroke-width:1.0;"/><text fill="#000000" font-family="sans-serif" font-size="14" lengthAdjust="spacing" textLength="93" x="389" y="222.8545">defense(): int</text><ellipse cx="380" cy="235.8047" fill="#84BE84" rx="3" ry="3" style="stroke:#038048;stroke-width:1.0;"/><text fill="#000000" font-family="sans-serif" font-size="14" lengthAdjust="spacing" textLength="54" x="389" y="239.1514">hp(): int</text><ellipse cx="380" cy="252.1016" fill="#84BE84" rx="3" ry="3" style="stroke:#038048;stroke-width:1.0;"/><text fill="#000000" font-family="sans-serif" font-size="14" lengthAdjust="spacing" textLength="58" x="389" y="255.4482">mp(): int</text><ellipse cx="380" cy="268.3984" fill="#84BE84" rx="3" ry="3" style="stroke:#038048;stroke-width:1.0;"/><text fill="#000000" font-family="sans-serif" font-size="14" lengthAdjust="spacing" textLength="136" x="389" y="271.7451">description(): String</text></g><!--class EquipDecorator--><g id="elem_EquipDecorator"><rect codeLine="28" fill="#F1F1F1" height="154.0781" id="EquipDecorator" rx="3.5" ry="3.5" style="stroke:#181818;stroke-width:0.5;" width="188" x="356" y="339.04"/><ellipse cx="392.6" cy="355.04" fill="#ADD1B2" rx="11" ry="11" style="stroke:#181818;stroke-width:1.0;"/><path d="M395.5688,360.6806 Q394.9906,360.9775 394.35,361.1181 Q393.7094,361.2744 393.0063,361.2744 Q390.5063,361.2744 389.1781,359.6338 Q387.8656,357.9775 387.8656,354.8525 Q387.8656,351.7275 389.1781,350.0713 Q390.5063,348.415 393.0063,348.415 Q393.7094,348.415 394.35,348.5713 Q395.0063,348.7275 395.5688,349.0244 L395.5688,351.7431 Q394.9438,351.165 394.35,350.8994 Q393.7563,350.6181 393.1313,350.6181 Q391.7875,350.6181 391.1,351.6963 Q390.4125,352.7588 390.4125,354.8525 Q390.4125,356.9463 391.1,358.0244 Q391.7875,359.0869 393.1313,359.0869 Q393.7563,359.0869 394.35,358.8213 Q394.9438,358.54 395.5688,357.9619 L395.5688,360.6806 Z " fill="#000000"/><text fill="#000000" font-family="sans-serif" font-size="14" lengthAdjust="spacing" textLength="108" x="411.4" y="359.8867">EquipDecorator</text><line style="stroke:#181818;stroke-width:0.5;" x1="357" x2="543" y1="371.04" y2="371.04"/><polygon fill="#FFFF44" points="367,379.6884,371,383.6884,367,387.6884,363,383.6884" style="stroke:#B38D22;stroke-width:1.0;"/><text fill="#000000" font-family="sans-serif" font-size="14" lengthAdjust="spacing" textLength="162" x="376" y="388.0351">EquipDecorator(Equip):</text><ellipse cx="367" cy="400.9853" fill="#84BE84" rx="3" ry="3" style="stroke:#038048;stroke-width:1.0;"/><text fill="#000000" font-family="sans-serif" font-size="14" lengthAdjust="spacing" textLength="54" x="376" y="404.332">hp(): int</text><ellipse cx="367" cy="417.2822" fill="#84BE84" rx="3" ry="3" style="stroke:#038048;stroke-width:1.0;"/><text fill="#000000" font-family="sans-serif" font-size="14" lengthAdjust="spacing" textLength="136" x="376" y="420.6289">description(): String</text><ellipse cx="367" cy="433.5791" fill="#84BE84" rx="3" ry="3" style="stroke:#038048;stroke-width:1.0;"/><text fill="#000000" font-family="sans-serif" font-size="14" lengthAdjust="spacing" textLength="58" x="376" y="436.9257">mp(): int</text><ellipse cx="367" cy="449.8759" fill="#84BE84" rx="3" ry="3" style="stroke:#038048;stroke-width:1.0;"/><text fill="#000000" font-family="sans-serif" font-size="14" lengthAdjust="spacing" textLength="80" x="376" y="453.2226">speed(): int</text><ellipse cx="367" cy="466.1728" fill="#84BE84" rx="3" ry="3" style="stroke:#038048;stroke-width:1.0;"/><text fill="#000000" font-family="sans-serif" font-size="14" lengthAdjust="spacing" textLength="93" x="376" y="469.5195">defense(): int</text><ellipse cx="367" cy="482.4697" fill="#84BE84" rx="3" ry="3" style="stroke:#038048;stroke-width:1.0;"/><text fill="#000000" font-family="sans-serif" font-size="14" lengthAdjust="spacing" textLength="78" x="376" y="485.8164">attack(): int</text></g><!--link Cap to Equip--><g id="link_Cap_Equip"><path codeLine="53" d="M614,73.35 C614,107.27 614,182.12 614,182.12 C614,182.12 590.36,182.12 549.04,182.12 " fill="none" id="Cap-to-Equip" style="stroke:#008200;stroke-width:1.0;stroke-dasharray:7.0,7.0;"/><polygon fill="none" points="531.04,182.12,549.04,188.12,549.04,176.12,531.04,182.12" style="stroke:#008200;stroke-width:1.0;"/></g><!--link Coat to Equip--><g id="link_Coat_Equip"><path codeLine="54" d="M499.75,73.23 C499.75,87.79 499.75,92.24 499.75,114.56 " fill="none" id="Coat-to-Equip" style="stroke:#008200;stroke-width:1.0;stroke-dasharray:7.0,7.0;"/><polygon fill="none" points="499.75,132.56,505.75,114.56,493.75,114.56,499.75,132.56" style="stroke:#008200;stroke-width:1.0;"/></g><!--link Neck to Equip--><g id="link_Neck_Equip"><path codeLine="55" d="M401,73.23 C401,87.79 401,92.24 401,114.56 " fill="none" id="Neck-to-Equip" style="stroke:#008200;stroke-width:1.0;stroke-dasharray:7.0,7.0;"/><polygon fill="none" points="401,132.56,407,114.56,395,114.56,401,132.56" style="stroke:#008200;stroke-width:1.0;"/></g><!--link Pants to Equip--><g id="link_Pants_Equip"><path codeLine="56" d="M279,73.35 C279,107.27 279,182.12 279,182.12 C279,182.12 306.46,182.12 350.51,182.12 " fill="none" id="Pants-to-Equip" style="stroke:#008200;stroke-width:1.0;stroke-dasharray:7.0,7.0;"/><polygon fill="none" points="368.51,182.12,350.51,176.12,350.51,188.12,368.51,182.12" style="stroke:#008200;stroke-width:1.0;"/></g><!--link Shoe to Equip--><g id="link_Shoe_Equip"><path codeLine="57" d="M187,73.38 C187,116.72 187,231.12 187,231.12 C187,231.12 273.35,231.12 350.59,231.12 " fill="none" id="Shoe-to-Equip" style="stroke:#008200;stroke-width:1.0;stroke-dasharray:7.0,7.0;"/><polygon fill="none" points="368.59,231.12,350.59,225.12,350.59,237.12,368.59,231.12" style="stroke:#008200;stroke-width:1.0;"/></g><!--link Weapon to Equip--><g id="link_Weapon_Equip"><path codeLine="58" d="M690.25,73.38 C690.25,116.72 690.25,231.12 690.25,231.12 C690.25,231.12 619.04,231.12 549.34,231.12 " fill="none" id="Weapon-to-Equip" style="stroke:#008200;stroke-width:1.0;stroke-dasharray:7.0,7.0;"/><polygon fill="none" points="531.34,231.12,549.34,237.12,549.34,225.12,531.34,231.12" style="stroke:#008200;stroke-width:1.0;"/></g><!--reverse link Equip to EquipDecorator--><g id="link_Equip_EquipDecorator"><path codeLine="59" d="M450,297.49 C450,316.65 450,319.37 450,338.73 " fill="none" id="Equip-backto-EquipDecorator" style="stroke:#008200;stroke-width:1.0;stroke-dasharray:7.0,7.0;"/><polygon fill="none" points="450,279.49,444,297.49,456,297.49,450,279.49" style="stroke:#008200;stroke-width:1.0;"/></g><!--reverse link EquipDecorator to BlueGem--><g id="link_EquipDecorator_BlueGem"><path codeLine="60" d="M534,511.55 C534,549.91 534,570.12 534,570.12 C534,570.12 544.86,570.12 559.19,570.12 " fill="none" id="EquipDecorator-backto-BlueGem" style="stroke:#000082;stroke-width:1.0;"/><polygon fill="none" points="534,493.55,528,511.55,540,511.55,534,493.55" style="stroke:#000082;stroke-width:1.0;"/></g><!--reverse link EquipDecorator to CyanGem--><g id="link_EquipDecorator_CyanGem"><path codeLine="61" d="M366,511.55 C366,549.91 366,570.12 366,570.12 C366,570.12 355.26,570.12 341.08,570.12 " fill="none" id="EquipDecorator-backto-CyanGem" style="stroke:#000082;stroke-width:1.0;"/><polygon fill="none" points="366,493.55,360,511.55,372,511.55,366,493.55" style="stroke:#000082;stroke-width:1.0;"/></g><!--reverse link EquipDecorator to GreenGem--><g id="link_EquipDecorator_GreenGem"><path codeLine="62" d="M450,511.5 C450,533.89 450,538.17 450,552.69 " fill="none" id="EquipDecorator-backto-GreenGem" style="stroke:#000082;stroke-width:1.0;"/><polygon fill="none" points="450,493.5,444,511.5,456,511.5,450,493.5" style="stroke:#000082;stroke-width:1.0;"/></g><!--reverse link EquipDecorator to RedGem--><g id="link_EquipDecorator_RedGem"><path codeLine="63" d="M562.43,416.12 C652.89,416.12 757.75,416.12 757.75,416.12 C757.75,416.12 757.75,513.28 757.75,552.75 " fill="none" id="EquipDecorator-backto-RedGem" style="stroke:#000082;stroke-width:1.0;"/><polygon fill="none" points="544.43,416.12,562.43,422.12,562.43,410.12,544.43,416.12" style="stroke:#000082;stroke-width:1.0;"/></g><!--reverse link EquipDecorator to YellowGem--><g id="link_EquipDecorator_YellowGem"><path codeLine="64" d="M337.53,416.12 C248.77,416.12 147.5,416.12 147.5,416.12 C147.5,416.12 147.5,513.28 147.5,552.75 " fill="none" id="EquipDecorator-backto-YellowGem" style="stroke:#000082;stroke-width:1.0;"/><polygon fill="none" points="355.53,416.12,337.53,410.12,337.53,422.12,355.53,416.12" style="stroke:#000082;stroke-width:1.0;"/></g><!--SRC=[hLFTIXmn5BxFKvpYZML7M7fLokA5gtXNIhqefRHmd9pT2JkJn2JBieZF89RIqXyHHV4LV1vVe3v2at76pQnJ4NPob-yxV3ddotTUk8mA0gVcp4w4r6YmW7rC9sEZff8FLQuCE8FIUegaYwfo8SdDDO5M-JnSsZXbNAOO4zAH6M5Ai7Cm5He60rX0cvjmo01wWCxvbzTVlWbaYLXDn6E0quYafHZAT7mhTBFSfaPe9vGCy9upGexP4TF-7HmJKDdD8Kjpj1O-46eb1tTdFyv3IqSLF4JjiUkB1gRGUV3aMmo-fNGIAgzYy1rAPqFfznZTonG5i1AjuTATRKgLGUUD3xQiBO7hvTKFqp9y-xYFRNcEhStFM5WsfkB1iFV4TwaOt9vU_hqvJZBTYqVSogSKsBkphp-NkLr392loLsARv72EDVSduQC6zv7oNCqgzdU2arvjO2OuGK75FXdBRAPcLTGAyWdaCRJmj-QO_s9eFHkVrlhzrw_w_OIZpOX_vcecDxv09Vxui92CZgH2dZgIAbFOZLI8RaTTtIzS9r9BF_k4r5G_ALJ5zZyz1Qb4voXahDFoBgjIlB9ElIghwjplAgpSpyC6hgRp3m00]--></g></svg>