<svg xmlns="http://www.w3.org/2000/svg" xmlns:xlink="http://www.w3.org/1999/xlink" contentStyleType="text/css" data-diagram-type="CLASS" height="269px" preserveAspectRatio="none" style="width:553px;height:269px;" version="1.1" viewBox="0 0 553 269" width="553px" zoomAndPan="magnify"><defs/><g><!--class Adapter--><g class="entity" data-entity="Adapter" data-source-line="5" data-uid="ent0002" id="entity_Adapter"><rect fill="#F1F1F1" height="64.2969" rx="2.5" ry="2.5" style="stroke:#181818;stroke-width:0.5;" width="104.1416" x="30.51" y="31.81"/><ellipse cx="52.8691" cy="47.81" fill="#B4A7E5" rx="11" ry="11" style="stroke:#181818;stroke-width:1;"/><path d="M48.791,43.5756 L48.791,41.4194 L56.1816,41.4194 L56.1816,43.5756 L53.7128,43.5756 L53.7128,51.6537 L56.1816,51.6537 L56.1816,53.81 L48.791,53.81 L48.791,51.6537 L51.2597,51.6537 L51.2597,43.5756 L48.791,43.5756 Z " fill="#000000"/><text fill="#000000" font-family="sans-serif" font-size="14" font-style="italic" lengthAdjust="spacing" textLength="55.7881" x="68.5044" y="52.6567">Adapter</text><line style="stroke:#181818;stroke-width:0.5;" x1="31.51" x2="133.6516" y1="63.81" y2="63.81"/><line style="stroke:#181818;stroke-width:0.5;" x1="31.51" x2="133.6516" y1="71.81" y2="71.81"/><ellipse cx="41.51" cy="85.4584" fill="#84BE84" rx="3" ry="3" style="stroke:#038048;stroke-width:1;"/><text fill="#000000" font-family="sans-serif" font-size="14" lengthAdjust="spacing" textLength="78.1416" x="50.51" y="88.8051">operation()</text></g><!--class Target--><g class="entity" data-entity="Target" data-source-line="9" data-uid="ent0003" id="entity_Target"><rect fill="#F1F1F1" height="48" rx="2.5" ry="2.5" style="stroke:#181818;stroke-width:0.5;" width="77.876" x="169.65" y="39.96"/><ellipse cx="184.65" cy="55.96" fill="#ADD1B2" rx="11" ry="11" style="stroke:#181818;stroke-width:1;"/><path d="M187.6188,61.6006 Q187.0406,61.8975 186.4,62.0381 Q185.7594,62.1944 185.0563,62.1944 Q182.5563,62.1944 181.2281,60.5537 Q179.9156,58.8975 179.9156,55.7725 Q179.9156,52.6475 181.2281,50.9912 Q182.5563,49.335 185.0563,49.335 Q185.7594,49.335 186.4,49.4912 Q187.0563,49.6475 187.6188,49.9444 L187.6188,52.6631 Q186.9938,52.085 186.4,51.8194 Q185.8063,51.5381 185.1813,51.5381 Q183.8375,51.5381 183.15,52.6162 Q182.4625,53.6787 182.4625,55.7725 Q182.4625,57.8662 183.15,58.9444 Q183.8375,60.0069 185.1813,60.0069 Q185.8063,60.0069 186.4,59.7412 Q186.9938,59.46 187.6188,58.8819 L187.6188,61.6006 Z " fill="#000000"/><text fill="#000000" font-family="sans-serif" font-size="14" lengthAdjust="spacing" textLength="45.876" x="198.65" y="60.8067">Target</text><line style="stroke:#181818;stroke-width:0.5;" x1="170.65" x2="246.526" y1="71.96" y2="71.96"/><line style="stroke:#181818;stroke-width:0.5;" x1="170.65" x2="246.526" y1="79.96" y2="79.96"/></g><!--class ConcreteAdapter--><g class="entity" data-entity="ConcreteAdapter" data-source-line="11" data-uid="ent0004" id="entity_ConcreteAdapter"><rect fill="#F1F1F1" height="80.5938" rx="2.5" ry="2.5" style="stroke:#181818;stroke-width:0.5;" width="151.1709" x="7" y="181.93"/><ellipse cx="22" cy="197.93" fill="#ADD1B2" rx="11" ry="11" style="stroke:#181818;stroke-width:1;"/><path d="M24.9688,203.5706 Q24.3906,203.8675 23.75,204.0081 Q23.1094,204.1644 22.4063,204.1644 Q19.9063,204.1644 18.5781,202.5237 Q17.2656,200.8675 17.2656,197.7425 Q17.2656,194.6175 18.5781,192.9612 Q19.9063,191.305 22.4063,191.305 Q23.1094,191.305 23.75,191.4612 Q24.4063,191.6175 24.9688,191.9144 L24.9688,194.6331 Q24.3438,194.055 23.75,193.7894 Q23.1563,193.5081 22.5313,193.5081 Q21.1875,193.5081 20.5,194.5862 Q19.8125,195.6487 19.8125,197.7425 Q19.8125,199.8362 20.5,200.9144 Q21.1875,201.9769 22.5313,201.9769 Q23.1563,201.9769 23.75,201.7112 Q24.3438,201.43 24.9688,200.8519 L24.9688,203.5706 Z " fill="#000000"/><text fill="#000000" font-family="sans-serif" font-size="14" lengthAdjust="spacing" textLength="119.1709" x="36" y="202.7767">ConcreteAdapter</text><line style="stroke:#181818;stroke-width:0.5;" x1="8" x2="157.1709" y1="213.93" y2="213.93"/><rect fill="none" height="6" style="stroke:#C82930;stroke-width:1;" width="6" x="15" y="224.5784"/><text fill="#000000" font-family="sans-serif" font-size="14" lengthAdjust="spacing" textLength="57.6475" x="27" y="230.9251">adaptee</text><line style="stroke:#181818;stroke-width:0.5;" x1="8" x2="157.1709" y1="238.2269" y2="238.2269"/><ellipse cx="18" cy="251.8753" fill="#84BE84" rx="3" ry="3" style="stroke:#038048;stroke-width:1;"/><text fill="#000000" font-family="sans-serif" font-size="14" lengthAdjust="spacing" textLength="78.1416" x="27" y="255.222">operation()</text></g><!--class Adaptee--><g class="entity" data-entity="Adaptee" data-source-line="16" data-uid="ent0005" id="entity_Adaptee"><rect fill="#F1F1F1" height="64.2969" rx="2.5" ry="2.5" style="stroke:#181818;stroke-width:0.5;" width="164.5166" x="193.33" y="190.07"/><ellipse cx="242.0155" cy="206.07" fill="#ADD1B2" rx="11" ry="11" style="stroke:#181818;stroke-width:1;"/><path d="M244.9843,211.7106 Q244.4062,212.0075 243.7655,212.1481 Q243.1249,212.3044 242.4218,212.3044 Q239.9218,212.3044 238.5937,210.6638 Q237.2812,209.0075 237.2812,205.8825 Q237.2812,202.7575 238.5937,201.1013 Q239.9218,199.445 242.4218,199.445 Q243.1249,199.445 243.7655,199.6013 Q244.4218,199.7575 244.9843,200.0544 L244.9843,202.7731 Q244.3593,202.195 243.7655,201.9294 Q243.1718,201.6481 242.5468,201.6481 Q241.203,201.6481 240.5155,202.7263 Q239.828,203.7888 239.828,205.8825 Q239.828,207.9763 240.5155,209.0544 Q241.203,210.1169 242.5468,210.1169 Q243.1718,210.1169 243.7655,209.8513 Q244.3593,209.57 244.9843,208.9919 L244.9843,211.7106 Z " fill="#000000"/><text fill="#000000" font-family="sans-serif" font-size="14" lengthAdjust="spacing" textLength="58.6455" x="262.5155" y="210.9167">Adaptee</text><line style="stroke:#181818;stroke-width:0.5;" x1="194.33" x2="356.8466" y1="222.07" y2="222.07"/><line style="stroke:#181818;stroke-width:0.5;" x1="194.33" x2="356.8466" y1="230.07" y2="230.07"/><ellipse cx="204.33" cy="243.7184" fill="#84BE84" rx="3" ry="3" style="stroke:#038048;stroke-width:1;"/><text fill="#000000" font-family="sans-serif" font-size="14" lengthAdjust="spacing" textLength="138.5166" x="213.33" y="247.0651">adaptedOperation()</text></g><g class="entity" data-entity="N1" data-source-line="25" data-uid="ent0009" id="entity_N1"><path d="M282.46,6 L282.46,121.9297 L546.7149,121.9297 L546.7149,16 L536.7149,6 L282.46,6" fill="#FEFFDD" style="stroke:#181818;stroke-width:0.5;"/><path d="M536.7149,6 L536.7149,16 L546.7149,16 L536.7149,6" fill="#FEFFDD" style="stroke:#181818;stroke-width:1;"/><text fill="#4169E1" font-family="sans-serif" font-size="13" font-weight="bold" lengthAdjust="spacing" textLength="58.8872" x="288.46" y="23.0669">Adapter</text><text fill="#000000" font-family="sans-serif" font-size="13" font-weight="bold" lengthAdjust="spacing" textLength="40.6631" x="288.46" y="38.1997">Type:</text><text fill="#000000" font-family="sans-serif" font-size="13" lengthAdjust="spacing" textLength="64.3398" x="333.2554" y="38.1997">Structural</text><text fill="#000000" font-family="sans-serif" font-size="13" lengthAdjust="spacing" textLength="233.1812" x="288.46" y="53.3325">Convert the interface of a class into</text><text fill="#000000" font-family="sans-serif" font-size="13" lengthAdjust="spacing" textLength="243.2549" x="288.46" y="68.4653">another interface clients expect. Lets</text><text fill="#000000" font-family="sans-serif" font-size="13" lengthAdjust="spacing" textLength="229.5249" x="288.46" y="83.5981">classes work together that couldn't</text><text fill="#000000" font-family="sans-serif" font-size="13" lengthAdjust="spacing" textLength="227.354" x="288.46" y="98.731">otherwise because of incompatible</text><text fill="#000000" font-family="sans-serif" font-size="13" lengthAdjust="spacing" textLength="68.8848" x="288.46" y="113.8638">interfaces.</text></g><!--reverse link Adapter to Target--><g class="link" data-entity-1="Adapter" data-entity-2="Target" data-source-line="20" data-uid="lnk6" id="link_Adapter_Target"><path codeLine="20" d="M140.93,64.52 C152.42,64.52 158.4,64.52 169.28,64.52" fill="none" id="Adapter-backto-Target" style="stroke:#181818;stroke-width:1;"/><polygon fill="#181818" points="134.93,64.52,143.93,68.52,139.93,64.52,143.93,60.52,134.93,64.52" style="stroke:#181818;stroke-width:1;"/></g><!--reverse link Adapter to ConcreteAdapter--><g class="link" data-entity-1="Adapter" data-entity-2="ConcreteAdapter" data-source-line="21" data-uid="lnk7" id="link_Adapter_ConcreteAdapter"><path codeLine="21" d="M82.59,114.37 C82.59,139.06 82.59,155.2 82.59,181.69" fill="none" id="Adapter-backto-ConcreteAdapter" style="stroke:#181818;stroke-width:1;"/><polygon fill="none" points="82.59,96.37,76.59,114.37,88.59,114.37,82.59,96.37" style="stroke:#181818;stroke-width:1;"/></g><!--link ConcreteAdapter to Adaptee--><g class="link" data-entity-1="ConcreteAdapter" data-entity-2="Adaptee" data-source-line="22" data-uid="lnk8" id="link_ConcreteAdapter_Adaptee"><path codeLine="22" d="M158.59,222.52 C169.87,222.52 175.55,222.52 186.97,222.52" fill="none" id="ConcreteAdapter-to-Adaptee" style="stroke:#181818;stroke-width:1;"/><polygon fill="#181818" points="192.97,222.52,183.97,218.52,187.97,222.52,183.97,226.52,192.97,222.52" style="stroke:#181818;stroke-width:1;"/></g><!--SRC=[TL71JiCm3BtdAtm3XBg9wrHLWbqdEB0VS5DlZPR5bUCo9k3VILgwYWbkjj-pd_qS3ovqA7Y46krXBzo7PisU1LGmn0HHK1ClBEy2wRaZwDYVS_8Nng8j6-E2akpG4ZmssAKOFimzS4U2wZZStfalOwp7666BiYUTiZK7AwGqjnM0Gqp_3HYfD2YCrERbDsyQLXQJsgNoMHJNckPwXwAQD8m9h0GOuVd1b7LLskpNIlYC_idtLFsqbCi1gCfbNMNUDbcpoWcyglHMUq6VPTv85BGbcFtY7I2CXwKY6qoARLfYPbZlqcCYq7j7LXUm8OsZ5HJXn780vNHZRj8M5IptlWatQeP19nS9QhBOnq7C1Sl7BfbLUvhV5XU6GWFvscy0]--></g></svg>