<?xml version="1.0" encoding="us-ascii" standalone="no"?><svg xmlns="http://www.w3.org/2000/svg" xmlns:xlink="http://www.w3.org/1999/xlink" contentStyleType="text/css" height="245px" preserveAspectRatio="none" style="width:607px;height:245px;" version="1.1" viewBox="0 0 607 245" width="607px" zoomAndPan="magnify"><defs/><g><!--class Client--><g id="elem_Client"><rect codeLine="6" fill="#F1F1F1" height="32" id="Client" rx="3.5" ry="3.5" style="stroke:#181818;stroke-width:0.5;" width="71" x="7" y="47.97"/><ellipse cx="22" cy="63.97" fill="#ADD1B2" rx="11" ry="11" style="stroke:#181818;stroke-width:1.0;"/><path d="M24.9688,69.6106 Q24.3906,69.9075 23.75,70.0481 Q23.1094,70.2044 22.4063,70.2044 Q19.9063,70.2044 18.5781,68.5638 Q17.2656,66.9075 17.2656,63.7825 Q17.2656,60.6575 18.5781,59.0013 Q19.9063,57.345 22.4063,57.345 Q23.1094,57.345 23.75,57.5013 Q24.4063,57.6575 24.9688,57.9544 L24.9688,60.6731 Q24.3438,60.095 23.75,59.8294 Q23.1563,59.5481 22.5313,59.5481 Q21.1875,59.5481 20.5,60.6263 Q19.8125,61.6888 19.8125,63.7825 Q19.8125,65.8763 20.5,66.9544 Q21.1875,68.0169 22.5313,68.0169 Q23.1563,68.0169 23.75,67.7513 Q24.3438,67.47 24.9688,66.8919 L24.9688,69.6106 Z " fill="#000000"/><text fill="#000000" font-family="sans-serif" font-size="14" lengthAdjust="spacing" textLength="39" x="36" y="68.8167">Client</text></g><!--class Handler--><g id="elem_Handler"><rect codeLine="8" fill="#F1F1F1" height="56.2969" id="Handler" rx="3.5" ry="3.5" style="stroke:#181818;stroke-width:0.5;" width="142" x="112.5" y="35.82"/><ellipse cx="153.15" cy="51.82" fill="#B4A7E5" rx="11" ry="11" style="stroke:#181818;stroke-width:1.0;"/><path d="M149.0719,47.5856 L149.0719,45.4294 L156.4625,45.4294 L156.4625,47.5856 L153.9938,47.5856 L153.9938,55.6637 L156.4625,55.6637 L156.4625,57.82 L149.0719,57.82 L149.0719,55.6637 L151.5406,55.6637 L151.5406,47.5856 L149.0719,47.5856 Z " fill="#000000"/><text fill="#000000" font-family="sans-serif" font-size="14" font-style="italic" lengthAdjust="spacing" textLength="53" x="172.85" y="56.6667">Handler</text><line style="stroke:#181818;stroke-width:0.5;" x1="113.5" x2="253.5" y1="67.82" y2="67.82"/><ellipse cx="123.5" cy="81.4684" fill="#84BE84" rx="3" ry="3" style="stroke:#038048;stroke-width:1.0;"/><text fill="#000000" font-family="sans-serif" font-size="14" lengthAdjust="spacing" textLength="116" x="132.5" y="84.8151">handleRequest()</text></g><!--class ConcreteHandler1--><g id="elem_ConcreteHandler1"><rect codeLine="12" fill="#F1F1F1" height="56.2969" id="ConcreteHandler1" rx="3.5" ry="3.5" style="stroke:#181818;stroke-width:0.5;" width="158" x="7.5" y="181.93"/><ellipse cx="22.5" cy="197.93" fill="#ADD1B2" rx="11" ry="11" style="stroke:#181818;stroke-width:1.0;"/><path d="M25.4688,203.5706 Q24.8906,203.8675 24.25,204.0081 Q23.6094,204.1644 22.9063,204.1644 Q20.4063,204.1644 19.0781,202.5237 Q17.7656,200.8675 17.7656,197.7425 Q17.7656,194.6175 19.0781,192.9612 Q20.4063,191.305 22.9063,191.305 Q23.6094,191.305 24.25,191.4612 Q24.9063,191.6175 25.4688,191.9144 L25.4688,194.6331 Q24.8438,194.055 24.25,193.7894 Q23.6563,193.5081 23.0313,193.5081 Q21.6875,193.5081 21,194.5862 Q20.3125,195.6487 20.3125,197.7425 Q20.3125,199.8362 21,200.9144 Q21.6875,201.9769 23.0313,201.9769 Q23.6563,201.9769 24.25,201.7112 Q24.8438,201.43 25.4688,200.8519 L25.4688,203.5706 Z " fill="#000000"/><text fill="#000000" font-family="sans-serif" font-size="14" lengthAdjust="spacing" textLength="126" x="36.5" y="202.7767">ConcreteHandler1</text><line style="stroke:#181818;stroke-width:0.5;" x1="8.5" x2="164.5" y1="213.93" y2="213.93"/><ellipse cx="18.5" cy="227.5784" fill="#84BE84" rx="3" ry="3" style="stroke:#038048;stroke-width:1.0;"/><text fill="#000000" font-family="sans-serif" font-size="14" lengthAdjust="spacing" textLength="116" x="27.5" y="230.9251">handleRequest()</text></g><!--class ConcreteHandler2--><g id="elem_ConcreteHandler2"><rect codeLine="16" fill="#F1F1F1" height="56.2969" id="ConcreteHandler2" rx="3.5" ry="3.5" style="stroke:#181818;stroke-width:0.5;" width="158" x="200.5" y="181.93"/><ellipse cx="215.5" cy="197.93" fill="#ADD1B2" rx="11" ry="11" style="stroke:#181818;stroke-width:1.0;"/><path d="M218.4688,203.5706 Q217.8906,203.8675 217.25,204.0081 Q216.6094,204.1644 215.9063,204.1644 Q213.4063,204.1644 212.0781,202.5237 Q210.7656,200.8675 210.7656,197.7425 Q210.7656,194.6175 212.0781,192.9612 Q213.4063,191.305 215.9063,191.305 Q216.6094,191.305 217.25,191.4612 Q217.9063,191.6175 218.4688,191.9144 L218.4688,194.6331 Q217.8438,194.055 217.25,193.7894 Q216.6563,193.5081 216.0313,193.5081 Q214.6875,193.5081 214,194.5862 Q213.3125,195.6487 213.3125,197.7425 Q213.3125,199.8362 214,200.9144 Q214.6875,201.9769 216.0313,201.9769 Q216.6563,201.9769 217.25,201.7112 Q217.8438,201.43 218.4688,200.8519 L218.4688,203.5706 Z " fill="#000000"/><text fill="#000000" font-family="sans-serif" font-size="14" lengthAdjust="spacing" textLength="126" x="229.5" y="202.7767">ConcreteHandler2</text><line style="stroke:#181818;stroke-width:0.5;" x1="201.5" x2="357.5" y1="213.93" y2="213.93"/><ellipse cx="211.5" cy="227.5784" fill="#84BE84" rx="3" ry="3" style="stroke:#038048;stroke-width:1.0;"/><text fill="#000000" font-family="sans-serif" font-size="14" lengthAdjust="spacing" textLength="116" x="220.5" y="230.9251">handleRequest()</text></g><g id="elem_N1"><path d="M307,9.5 L307,118.4297 A3.5,3.5 0 0 0 310.5,121.9297 L596.5,121.9297 A3.5,3.5 0 0 0 600,118.4297 L600,16 L590,6 L310.5,6 A3.5,3.5 0 0 0 307,9.5 " fill="#90EE90" style="stroke:#454645;stroke-width:1.0;"/><path d="M590,6 L590,14.25 A1.75,1.75 0 0 0 591.75,16 L600,16 L590,6 " fill="#90EE90" style="stroke:#454645;stroke-width:1.0;"/><text fill="#4169E1" font-family="sans-serif" font-size="13" font-weight="bold" lengthAdjust="spacing" textLength="169" x="313" y="23.0669">Chain of Responsibility</text><text fill="#454645" font-family="sans-serif" font-size="13" font-weight="bold" lengthAdjust="spacing" textLength="40" x="313" y="38.1997">Type:</text><text fill="#454645" font-family="sans-serif" font-size="13" lengthAdjust="spacing" textLength="67" x="357" y="38.1997">Behavioral</text><text fill="#454645" font-family="sans-serif" font-size="13" lengthAdjust="spacing" textLength="263" x="313" y="53.3325">Avoid coupling the sender of a request to</text><text fill="#454645" font-family="sans-serif" font-size="13" lengthAdjust="spacing" textLength="272" x="313" y="68.4653">its receiver by giving more than one object</text><text fill="#454645" font-family="sans-serif" font-size="13" lengthAdjust="spacing" textLength="269" x="313" y="83.5981">a chance to handle the request. Chain the</text><text fill="#454645" font-family="sans-serif" font-size="13" lengthAdjust="spacing" textLength="247" x="313" y="98.731">receiving objects and pass the request</text><text fill="#454645" font-family="sans-serif" font-size="13" lengthAdjust="spacing" textLength="262" x="313" y="113.8638">along the chain until an object handles it.</text></g><!--link Client to Handler--><g id="link_Client_Handler"><path codeLine="22" d="M78.45,64.23 C88.81,64.23 94.49,64.23 106.21,64.23 " fill="none" id="Client-to-Handler" style="stroke:#454645;stroke-width:1.0;"/><polygon fill="#454645" points="112.21,64.23,103.21,60.23,107.21,64.23,103.21,68.23,112.21,64.23" style="stroke:#454645;stroke-width:1.0;"/></g><!--reverse link Handler to ConcreteHandler1--><g id="link_Handler_ConcreteHandler1"><path codeLine="23" d="M130.17,110.49 C130.17,136.23 130.17,155.91 130.17,181.63 " fill="none" id="Handler-backto-ConcreteHandler1" style="stroke:#454645;stroke-width:1.0;"/><polygon fill="none" points="130.17,92.49,124.17,110.49,136.17,110.49,130.17,92.49" style="stroke:#454645;stroke-width:1.0;"/></g><!--reverse link Handler to ConcreteHandler2--><g id="link_Handler_ConcreteHandler2"><path codeLine="24" d="M227.5,110.49 C227.5,136.23 227.5,155.91 227.5,181.63 " fill="none" id="Handler-backto-ConcreteHandler2" style="stroke:#454645;stroke-width:1.0;"/><polygon fill="none" points="227.5,92.49,221.5,110.49,233.5,110.49,227.5,92.49" style="stroke:#454645;stroke-width:1.0;"/></g><!--link Handler to Handler--><g id="link_Handler_Handler"><path codeLine="25" d="M183.5,35.7 C183.5,27.75 183.5,21.23 183.5,21.23 C183.5,21.23 95.25,21.23 95.25,21.23 C95.25,21.23 95.25,107.23 95.25,107.23 C95.25,107.23 147.83,107.23 147.83,107.23 C147.83,107.23 147.83,106.63 147.83,98.58 " fill="none" id="Handler-to-Handler" style="stroke:#454645;stroke-width:1.0;"/><polygon fill="#454645" points="147.83,92.58,143.83,101.58,147.83,97.58,151.83,101.58,147.83,92.58" style="stroke:#454645;stroke-width:1.0;"/><text fill="#000000" font-family="sans-serif" font-size="13" lengthAdjust="spacing" textLength="64" x="25.25" y="37.5569">successor</text></g><!--SRC=[bLB1JiCm3BtdAymDXBPfEqvL9ROB9muJFv2ctXgMnYLE9rN0l-EatPW4caHkiTzxUNdsNMomHOWqA3vQt-cWMwYqEHu2zRxUagC0CMZFqa8Vhr3EUen3Xz2H6zBbhnw5s91Incbcs3gR99Jr4SDU6uHdxMk70JuKo7c49jzt-DuZn_i7zNMXaZS18qw4vRyPgrkCnjO8s7PnW1RR2WChDPg5MNasgSvcYy_Px9UXcztLfViZ1slWtXXafg2KfuYW6LwMsMLHbOL9sQy33TfjN8_bjj7M0-rXXzoHPrjPP-DGB3AmB1PLUUQ-IlJhL80DDlfaAMYNUqydiZKOwZkPq05a-C3eQt4ZkXh268giGqRRo58oQ4y2g0Ous5DYjHHaOoH682yJhjxGn8pNOAHgqZfDAUSN9jKvZ3-GKaQFoabmb60G2dHfTbUiKTZHvDPaYTv7wo0PoCpfCHR3SoNVWPIc-WO0]--></g></svg>