<?xml version="1.0" encoding="us-ascii" standalone="no"?><svg xmlns="http://www.w3.org/2000/svg" xmlns:xlink="http://www.w3.org/1999/xlink" contentStyleType="text/css" height="220px" preserveAspectRatio="none" style="width:648px;height:220px;" version="1.1" viewBox="0 0 648 220" width="648px" zoomAndPan="magnify"><defs/><g><!--class Mediator--><g id="elem_Mediator"><rect codeLine="7" fill="#F1F1F1" height="32" id="Mediator" rx="3.5" ry="3.5" style="stroke:#181818;stroke-width:0.5;" width="92" x="71" y="47.97"/><ellipse cx="86" cy="63.97" fill="#ADD1B2" rx="11" ry="11" style="stroke:#181818;stroke-width:1.0;"/><path d="M88.9688,69.6106 Q88.3906,69.9075 87.75,70.0481 Q87.1094,70.2044 86.4063,70.2044 Q83.9063,70.2044 82.5781,68.5638 Q81.2656,66.9075 81.2656,63.7825 Q81.2656,60.6575 82.5781,59.0013 Q83.9063,57.345 86.4063,57.345 Q87.1094,57.345 87.75,57.5013 Q88.4063,57.6575 88.9688,57.9544 L88.9688,60.6731 Q88.3438,60.095 87.75,59.8294 Q87.1563,59.5481 86.5313,59.5481 Q85.1875,59.5481 84.5,60.6263 Q83.8125,61.6888 83.8125,63.7825 Q83.8125,65.8763 84.5,66.9544 Q85.1875,68.0169 86.5313,68.0169 Q87.1563,68.0169 87.75,67.7513 Q88.3438,67.47 88.9688,66.8919 L88.9688,69.6106 Z " fill="#000000"/><text fill="#000000" font-family="sans-serif" font-size="14" lengthAdjust="spacing" textLength="60" x="100" y="68.8167">Mediator</text></g><!--class ConcreteMediator--><g id="elem_ConcreteMediator"><rect codeLine="9" fill="#F1F1F1" height="32" id="ConcreteMediator" rx="3.5" ry="3.5" style="stroke:#181818;stroke-width:0.5;" width="156" x="7" y="181.93"/><ellipse cx="22" cy="197.93" fill="#ADD1B2" rx="11" ry="11" style="stroke:#181818;stroke-width:1.0;"/><path d="M24.9688,203.5706 Q24.3906,203.8675 23.75,204.0081 Q23.1094,204.1644 22.4063,204.1644 Q19.9063,204.1644 18.5781,202.5238 Q17.2656,200.8675 17.2656,197.7425 Q17.2656,194.6175 18.5781,192.9613 Q19.9063,191.305 22.4063,191.305 Q23.1094,191.305 23.75,191.4613 Q24.4063,191.6175 24.9688,191.9144 L24.9688,194.6331 Q24.3438,194.055 23.75,193.7894 Q23.1563,193.5081 22.5313,193.5081 Q21.1875,193.5081 20.5,194.5863 Q19.8125,195.6488 19.8125,197.7425 Q19.8125,199.8363 20.5,200.9144 Q21.1875,201.9769 22.5313,201.9769 Q23.1563,201.9769 23.75,201.7113 Q24.3438,201.43 24.9688,200.8519 L24.9688,203.5706 Z " fill="#000000"/><text fill="#000000" font-family="sans-serif" font-size="14" lengthAdjust="spacing" textLength="124" x="36" y="202.7767">ConcreteMediator</text></g><!--class Colleague--><g id="elem_Colleague"><rect codeLine="11" fill="#F1F1F1" height="32" id="Colleague" rx="3.5" ry="3.5" style="stroke:#181818;stroke-width:0.5;" width="101" x="214.5" y="47.97"/><ellipse cx="229.5" cy="63.97" fill="#B4A7E5" rx="11" ry="11" style="stroke:#181818;stroke-width:1.0;"/><path d="M225.4219,59.7356 L225.4219,57.5794 L232.8125,57.5794 L232.8125,59.7356 L230.3438,59.7356 L230.3438,67.8138 L232.8125,67.8138 L232.8125,69.97 L225.4219,69.97 L225.4219,67.8138 L227.8906,67.8138 L227.8906,59.7356 L225.4219,59.7356 Z " fill="#000000"/><text fill="#000000" font-family="sans-serif" font-size="14" font-style="italic" lengthAdjust="spacing" textLength="69" x="243.5" y="68.8167">Colleague</text></g><!--class ConcreteColleague--><g id="elem_ConcreteColleague"><rect codeLine="13" fill="#F1F1F1" height="32" id="ConcreteColleague" rx="3.5" ry="3.5" style="stroke:#181818;stroke-width:0.5;" width="165" x="198.5" y="181.93"/><ellipse cx="213.5" cy="197.93" fill="#ADD1B2" rx="11" ry="11" style="stroke:#181818;stroke-width:1.0;"/><path d="M216.4688,203.5706 Q215.8906,203.8675 215.25,204.0081 Q214.6094,204.1644 213.9063,204.1644 Q211.4063,204.1644 210.0781,202.5238 Q208.7656,200.8675 208.7656,197.7425 Q208.7656,194.6175 210.0781,192.9613 Q211.4063,191.305 213.9063,191.305 Q214.6094,191.305 215.25,191.4613 Q215.9063,191.6175 216.4688,191.9144 L216.4688,194.6331 Q215.8438,194.055 215.25,193.7894 Q214.6563,193.5081 214.0313,193.5081 Q212.6875,193.5081 212,194.5863 Q211.3125,195.6488 211.3125,197.7425 Q211.3125,199.8363 212,200.9144 Q212.6875,201.9769 214.0313,201.9769 Q214.6563,201.9769 215.25,201.7113 Q215.8438,201.43 216.4688,200.8519 L216.4688,203.5706 Z " fill="#000000"/><text fill="#000000" font-family="sans-serif" font-size="14" lengthAdjust="spacing" textLength="133" x="227.5" y="202.7767">ConcreteColleague</text></g><g id="elem_N1"><path d="M351,9.5 L351,118.4297 A3.5,3.5 0 0 0 354.5,121.9297 L637.5,121.9297 A3.5,3.5 0 0 0 641,118.4297 L641,16 L631,6 L354.5,6 A3.5,3.5 0 0 0 351,9.5 " fill="#90EE90" style="stroke:#454645;stroke-width:1.0;"/><path d="M631,6 L631,14.25 A1.75,1.75 0 0 0 632.75,16 L641,16 L631,6 " fill="#90EE90" style="stroke:#454645;stroke-width:1.0;"/><text fill="#4169E1" font-family="sans-serif" font-size="13" font-weight="bold" lengthAdjust="spacing" textLength="66" x="357" y="23.0669">Mediator</text><text fill="#454645" font-family="sans-serif" font-size="13" font-weight="bold" lengthAdjust="spacing" textLength="40" x="357" y="38.1997">Type:</text><text fill="#454645" font-family="sans-serif" font-size="13" lengthAdjust="spacing" textLength="67" x="401" y="38.1997">Behavioral</text><text fill="#454645" font-family="sans-serif" font-size="13" lengthAdjust="spacing" textLength="264" x="357" y="53.3325">Define an object that encapsulates how a</text><text fill="#454645" font-family="sans-serif" font-size="13" lengthAdjust="spacing" textLength="247" x="357" y="68.4653">set of objects interact. Promotes loose</text><text fill="#454645" font-family="sans-serif" font-size="13" lengthAdjust="spacing" textLength="268" x="357" y="83.5981">coupling by keeping objects from referring</text><text fill="#454645" font-family="sans-serif" font-size="13" lengthAdjust="spacing" textLength="269" x="357" y="98.731">to each other explicitly and it lets you vary</text><text fill="#454645" font-family="sans-serif" font-size="13" lengthAdjust="spacing" textLength="206" x="357" y="113.8638">their interactions independently.</text></g><!--reverse link Mediator to Colleague--><g id="link_Mediator_Colleague"><path codeLine="17" d="M169.42,64.93 C185.53,64.93 197.67,64.93 214.12,64.93 " fill="none" id="Mediator-backto-Colleague" style="stroke:#454645;stroke-width:1.0;"/><polygon fill="#454645" points="163.42,64.93,172.42,68.93,168.42,64.93,172.42,60.93,163.42,64.93" style="stroke:#454645;stroke-width:1.0;"/><text fill="#000000" font-family="sans-serif" font-size="13" lengthAdjust="spacing" textLength="48" x="164.77" y="77.9969">informs</text></g><!--reverse link Mediator to ConcreteMediator--><g id="link_Mediator_ConcreteMediator"><path codeLine="18" d="M117,98.39 C117,124.24 117,156.11 117,181.79 " fill="none" id="Mediator-backto-ConcreteMediator" style="stroke:#454645;stroke-width:1.0;"/><polygon fill="none" points="117,80.39,111,98.39,123,98.39,117,80.39" style="stroke:#454645;stroke-width:1.0;"/></g><!--link ConcreteMediator to ConcreteColleague--><g id="link_ConcreteMediator_ConcreteColleague"><path codeLine="19" d="M163.31,198.93 C174.83,198.93 180.72,198.93 192.32,198.93 " fill="none" id="ConcreteMediator-to-ConcreteColleague" style="stroke:#454645;stroke-width:1.0;"/><polygon fill="#454645" points="198.32,198.93,189.32,194.93,193.32,198.93,189.32,202.93,198.32,198.93" style="stroke:#454645;stroke-width:1.0;"/></g><!--reverse link Colleague to ConcreteColleague--><g id="link_Colleague_ConcreteColleague"><path codeLine="20" d="M265,98.39 C265,124.24 265,156.11 265,181.79 " fill="none" id="Colleague-backto-ConcreteColleague" style="stroke:#454645;stroke-width:1.0;"/><polygon fill="none" points="265,80.39,259,98.39,271,98.39,265,80.39" style="stroke:#454645;stroke-width:1.0;"/></g><!--SRC=[RLBBRjmm3BphAvWFs0IvBWmVabvRvD0VeENnMbrPD2WwZO1yV6KtpcuUEWWYPuOQZ7HZ8oQGIN7v7DBCoXDrxCydbINrZn95oPHJhX2INR5YIB0oWsQ9PIs-mqHj5EUSZvmp_KGVs4Jt-b6ILnWk_P0CEh17nM84dnPy9by1O-X1c6OhD67geDcvVHOrXyiCEb98W-YKh_3Nm-6hWyyDEhJVt7mP_67AbRKa1k9Cl-uTrTLqRUFNC8ygXUD3ND3kLpHt6z8sTrsxat_Ny8vhWnumydCGvRXXFp3KR8aJIVS7tiX6DaBoFESbiY7JA7-9DtA6aGnlp4nRkEpjbfvK9bcvKIHZutfPvlfi9-eAdO5vFUx2eT99CK2rjZUw2O7zI58_a19UgjO7YwKwwoaOHLHTaOMUMSj_nOYWxnw2fDLGZnbrIrLvw-g9rjpSFm00]--></g></svg>