<?xml version="1.0" encoding="us-ascii" standalone="no"?><svg xmlns="http://www.w3.org/2000/svg" xmlns:xlink="http://www.w3.org/1999/xlink" contentStyleType="text/css" height="270px" preserveAspectRatio="none" style="width:564px;height:270px;" version="1.1" viewBox="0 0 564 270" width="564px" zoomAndPan="magnify"><defs/><g><!--class Caretaker--><g id="elem_Caretaker"><rect codeLine="6" fill="#F1F1F1" height="32" id="Caretaker" rx="3.5" ry="3.5" style="stroke:#181818;stroke-width:0.5;" width="99" x="7" y="40.4"/><ellipse cx="22" cy="56.4" fill="#ADD1B2" rx="11" ry="11" style="stroke:#181818;stroke-width:1.0;"/><path d="M24.9688,62.0406 Q24.3906,62.3375 23.75,62.4781 Q23.1094,62.6344 22.4063,62.6344 Q19.9063,62.6344 18.5781,60.9938 Q17.2656,59.3375 17.2656,56.2125 Q17.2656,53.0875 18.5781,51.4313 Q19.9063,49.775 22.4063,49.775 Q23.1094,49.775 23.75,49.9313 Q24.4063,50.0875 24.9688,50.3844 L24.9688,53.1031 Q24.3438,52.525 23.75,52.2594 Q23.1563,51.9781 22.5313,51.9781 Q21.1875,51.9781 20.5,53.0563 Q19.8125,54.1188 19.8125,56.2125 Q19.8125,58.3063 20.5,59.3844 Q21.1875,60.4469 22.5313,60.4469 Q23.1563,60.4469 23.75,60.1813 Q24.3438,59.9 24.9688,59.3219 L24.9688,62.0406 Z " fill="#000000"/><text fill="#000000" font-family="sans-serif" font-size="14" lengthAdjust="spacing" textLength="67" x="36" y="61.2467">Caretaker</text></g><!--class Memento--><g id="elem_Memento"><rect codeLine="8" fill="#F1F1F1" height="56.2969" id="Memento" rx="3.5" ry="3.5" style="stroke:#181818;stroke-width:0.5;" width="98" x="140.5" y="28.25"/><ellipse cx="155.5" cy="44.25" fill="#ADD1B2" rx="11" ry="11" style="stroke:#181818;stroke-width:1.0;"/><path d="M158.4688,49.8906 Q157.8906,50.1875 157.25,50.3281 Q156.6094,50.4844 155.9063,50.4844 Q153.4063,50.4844 152.0781,48.8438 Q150.7656,47.1875 150.7656,44.0625 Q150.7656,40.9375 152.0781,39.2813 Q153.4063,37.625 155.9063,37.625 Q156.6094,37.625 157.25,37.7813 Q157.9063,37.9375 158.4688,38.2344 L158.4688,40.9531 Q157.8438,40.375 157.25,40.1094 Q156.6563,39.8281 156.0313,39.8281 Q154.6875,39.8281 154,40.9063 Q153.3125,41.9688 153.3125,44.0625 Q153.3125,46.1563 154,47.2344 Q154.6875,48.2969 156.0313,48.2969 Q156.6563,48.2969 157.25,48.0313 Q157.8438,47.75 158.4688,47.1719 L158.4688,49.8906 Z " fill="#000000"/><text fill="#000000" font-family="sans-serif" font-size="14" lengthAdjust="spacing" textLength="66" x="169.5" y="49.0967">Memento</text><line style="stroke:#181818;stroke-width:0.5;" x1="141.5" x2="237.5" y1="60.25" y2="60.25"/><rect fill="none" height="6" style="stroke:#C82930;stroke-width:1.0;" width="6" x="148.5" y="70.8984"/><text fill="#000000" font-family="sans-serif" font-size="14" lengthAdjust="spacing" textLength="35" x="160.5" y="77.2451">state</text></g><!--class Originator--><g id="elem_Originator"><rect codeLine="12" fill="#F1F1F1" height="96.8906" id="Originator" rx="3.5" ry="3.5" style="stroke:#181818;stroke-width:0.5;" width="232" x="73.5" y="166.8"/><ellipse cx="151.75" cy="182.8" fill="#ADD1B2" rx="11" ry="11" style="stroke:#181818;stroke-width:1.0;"/><path d="M154.7188,188.4406 Q154.1406,188.7375 153.5,188.8781 Q152.8594,189.0344 152.1563,189.0344 Q149.6563,189.0344 148.3281,187.3938 Q147.0156,185.7375 147.0156,182.6125 Q147.0156,179.4875 148.3281,177.8313 Q149.6563,176.175 152.1563,176.175 Q152.8594,176.175 153.5,176.3313 Q154.1563,176.4875 154.7188,176.7844 L154.7188,179.5031 Q154.0938,178.925 153.5,178.6594 Q152.9063,178.3781 152.2813,178.3781 Q150.9375,178.3781 150.25,179.4563 Q149.5625,180.5188 149.5625,182.6125 Q149.5625,184.7063 150.25,185.7844 Q150.9375,186.8469 152.2813,186.8469 Q152.9063,186.8469 153.5,186.5813 Q154.0938,186.3 154.7188,185.7219 L154.7188,188.4406 Z " fill="#000000"/><text fill="#000000" font-family="sans-serif" font-size="14" lengthAdjust="spacing" textLength="67" x="172.25" y="187.6467">Originator</text><line style="stroke:#181818;stroke-width:0.5;" x1="74.5" x2="304.5" y1="198.8" y2="198.8"/><rect fill="none" height="6" style="stroke:#C82930;stroke-width:1.0;" width="6" x="81.5" y="209.4484"/><text fill="#000000" font-family="sans-serif" font-size="14" lengthAdjust="spacing" textLength="35" x="93.5" y="215.7951">state</text><line style="stroke:#181818;stroke-width:0.5;" x1="74.5" x2="304.5" y1="223.0969" y2="223.0969"/><ellipse cx="84.5" cy="236.7453" fill="#84BE84" rx="3" ry="3" style="stroke:#038048;stroke-width:1.0;"/><text fill="#000000" font-family="sans-serif" font-size="14" lengthAdjust="spacing" textLength="206" x="93.5" y="240.092">setMemento(in m : Memento)</text><ellipse cx="84.5" cy="253.0422" fill="#84BE84" rx="3" ry="3" style="stroke:#038048;stroke-width:1.0;"/><text fill="#000000" font-family="sans-serif" font-size="14" lengthAdjust="spacing" textLength="120" x="93.5" y="256.3889">createMemento()</text></g><g id="elem_N1"><path d="M274,9.5 L274,103.2969 A3.5,3.5 0 0 0 277.5,106.7969 L553.5,106.7969 A3.5,3.5 0 0 0 557,103.2969 L557,16 L547,6 L277.5,6 A3.5,3.5 0 0 0 274,9.5 " fill="#90EE90" style="stroke:#454645;stroke-width:1.0;"/><path d="M547,6 L547,14.25 A1.75,1.75 0 0 0 548.75,16 L557,16 L547,6 " fill="#90EE90" style="stroke:#454645;stroke-width:1.0;"/><text fill="#4169E1" font-family="sans-serif" font-size="13" font-weight="bold" lengthAdjust="spacing" textLength="69" x="280" y="23.0669">Memento</text><text fill="#454645" font-family="sans-serif" font-size="13" font-weight="bold" lengthAdjust="spacing" textLength="40" x="280" y="38.1997">Type:</text><text fill="#454645" font-family="sans-serif" font-size="13" lengthAdjust="spacing" textLength="67" x="324" y="38.1997">Behavioral</text><text fill="#454645" font-family="sans-serif" font-size="13" lengthAdjust="spacing" textLength="255" x="280" y="53.3325">Without violating encapsulation, capture</text><text fill="#454645" font-family="sans-serif" font-size="13" lengthAdjust="spacing" textLength="260" x="280" y="68.4653">and externalize an object's internal state</text><text fill="#454645" font-family="sans-serif" font-size="13" lengthAdjust="spacing" textLength="262" x="280" y="83.5981">so that the object can be restored to this</text><text fill="#454645" font-family="sans-serif" font-size="13" lengthAdjust="spacing" textLength="70" x="280" y="98.731">state later.</text></g><!--reverse link Caretaker to Memento--><g id="link_Caretaker_Memento"><path codeLine="20" d="M118.4,56.69 C129.46,56.69 129.17,56.69 140.2,56.69 " fill="none" id="Caretaker-backto-Memento" style="stroke:#454645;stroke-width:1.0;"/><polygon fill="#454645" points="106.4,56.69,112.4,60.69,118.4,56.69,112.4,52.69,106.4,56.69" style="stroke:#454645;stroke-width:1.0;"/></g><!--reverse link Memento to Originator--><g id="link_Memento_Originator"><path codeLine="21" d="M189.5,90.8 C189.5,113.47 189.5,139.75 189.5,166.52 " fill="none" id="Memento-backto-Originator" style="stroke:#454645;stroke-width:1.0;"/><polygon fill="#454645" points="189.5,84.8,185.5,93.8,189.5,89.8,193.5,93.8,189.5,84.8" style="stroke:#454645;stroke-width:1.0;"/></g><!--SRC=[RL71JiCm3BtdAym91fI9wrJri9s12n9djxNMRAbJEIwY8FuTPslHaCWXYlsUdv-TA-se9z0ukNJqFA1W3pKsnxt4aTjT35501JaPHAmNhE2PT1e8XXYc7Fo7HT4kEjS4J0bs9g5u95aIJzQRDSAN0pi594Kbzxt0B-Btdb7Dmbz6Vjz18fq5RZn33vj5RpKJ6Y5ZBvnL5kvyIq3ze1FqrDSaoRbVMt1RB19kiLOMnOKFvpWg0IPuVZmrAUkgRFAIDX8d3DimKZMNbkiJK9NhkbguhxQJJKx0bZfyzr4mdB0tRtiQ5ImLK3tlWRZ18OqvYdmF5kWevz6HMw0F9M4C_jFiCCJwG8rU9_1ypbziAaNG3jKkcdccnb0J22KRYbhxVqDzEjDp8LXVaWT7rYgFx7u0]--></g></svg>