<svg xmlns="http://www.w3.org/2000/svg" xmlns:xlink="http://www.w3.org/1999/xlink" contentStyleType="text/css" data-diagram-type="CLASS" height="270px" preserveAspectRatio="none" style="width:571px;height:270px;" version="1.1" viewBox="0 0 571 270" width="571px" zoomAndPan="magnify"><defs/><g><!--class Caretaker--><g class="entity" data-entity="Caretaker" data-source-line="5" data-uid="ent0002" id="entity_Caretaker"><rect fill="#F1F1F1" height="32" rx="2.5" ry="2.5" style="stroke:#181818;stroke-width:0.5;" width="101.2686" x="7" y="40.4"/><ellipse cx="22" cy="56.4" fill="#ADD1B2" rx="11" ry="11" style="stroke:#181818;stroke-width:1;"/><path d="M24.9688,62.0406 Q24.3906,62.3375 23.75,62.4781 Q23.1094,62.6344 22.4063,62.6344 Q19.9063,62.6344 18.5781,60.9938 Q17.2656,59.3375 17.2656,56.2125 Q17.2656,53.0875 18.5781,51.4313 Q19.9063,49.775 22.4063,49.775 Q23.1094,49.775 23.75,49.9313 Q24.4063,50.0875 24.9688,50.3844 L24.9688,53.1031 Q24.3438,52.525 23.75,52.2594 Q23.1563,51.9781 22.5313,51.9781 Q21.1875,51.9781 20.5,53.0563 Q19.8125,54.1188 19.8125,56.2125 Q19.8125,58.3063 20.5,59.3844 Q21.1875,60.4469 22.5313,60.4469 Q23.1563,60.4469 23.75,60.1813 Q24.3438,59.9 24.9688,59.3219 L24.9688,62.0406 Z " fill="#000000"/><text fill="#000000" font-family="sans-serif" font-size="14" lengthAdjust="spacing" textLength="69.2686" x="36" y="61.2467">Caretaker</text></g><!--class Memento--><g class="entity" data-entity="Memento" data-source-line="7" data-uid="ent0003" id="entity_Memento"><rect fill="#F1F1F1" height="56.2969" rx="2.5" ry="2.5" style="stroke:#181818;stroke-width:0.5;" width="97.8711" x="143.7" y="28.25"/><ellipse cx="158.7" cy="44.25" fill="#ADD1B2" rx="11" ry="11" style="stroke:#181818;stroke-width:1;"/><path d="M161.6688,49.8906 Q161.0906,50.1875 160.45,50.3281 Q159.8094,50.4844 159.1063,50.4844 Q156.6063,50.4844 155.2781,48.8438 Q153.9656,47.1875 153.9656,44.0625 Q153.9656,40.9375 155.2781,39.2813 Q156.6063,37.625 159.1063,37.625 Q159.8094,37.625 160.45,37.7813 Q161.1063,37.9375 161.6688,38.2344 L161.6688,40.9531 Q161.0438,40.375 160.45,40.1094 Q159.8563,39.8281 159.2313,39.8281 Q157.8875,39.8281 157.2,40.9063 Q156.5125,41.9688 156.5125,44.0625 Q156.5125,46.1563 157.2,47.2344 Q157.8875,48.2969 159.2313,48.2969 Q159.8563,48.2969 160.45,48.0313 Q161.0438,47.75 161.6688,47.1719 L161.6688,49.8906 Z " fill="#000000"/><text fill="#000000" font-family="sans-serif" font-size="14" lengthAdjust="spacing" textLength="65.8711" x="172.7" y="49.0967">Memento</text><line style="stroke:#181818;stroke-width:0.5;" x1="144.7" x2="240.5711" y1="60.25" y2="60.25"/><rect fill="none" height="6" style="stroke:#C82930;stroke-width:1;" width="6" x="151.7" y="70.8984"/><text fill="#000000" font-family="sans-serif" font-size="14" lengthAdjust="spacing" textLength="35.4648" x="163.7" y="77.2451">state</text></g><!--class Originator--><g class="entity" data-entity="Originator" data-source-line="11" data-uid="ent0004" id="entity_Originator"><rect fill="#F1F1F1" height="96.8906" rx="2.5" ry="2.5" style="stroke:#181818;stroke-width:0.5;" width="234.5303" x="75.37" y="166.8"/><ellipse cx="153.0331" cy="182.8" fill="#ADD1B2" rx="11" ry="11" style="stroke:#181818;stroke-width:1;"/><path d="M156.0018,188.4406 Q155.4237,188.7375 154.7831,188.8781 Q154.1425,189.0344 153.4393,189.0344 Q150.9393,189.0344 149.6112,187.3938 Q148.2987,185.7375 148.2987,182.6125 Q148.2987,179.4875 149.6112,177.8313 Q150.9393,176.175 153.4393,176.175 Q154.1425,176.175 154.7831,176.3313 Q155.4393,176.4875 156.0018,176.7844 L156.0018,179.5031 Q155.3768,178.925 154.7831,178.6594 Q154.1893,178.3781 153.5643,178.3781 Q152.2206,178.3781 151.5331,179.4563 Q150.8456,180.5188 150.8456,182.6125 Q150.8456,184.7063 151.5331,185.7844 Q152.2206,186.8469 153.5643,186.8469 Q154.1893,186.8469 154.7831,186.5813 Q155.3768,186.3 156.0018,185.7219 L156.0018,188.4406 Z " fill="#000000"/><text fill="#000000" font-family="sans-serif" font-size="14" lengthAdjust="spacing" textLength="70.7041" x="173.5331" y="187.6467">Originator</text><line style="stroke:#181818;stroke-width:0.5;" x1="76.37" x2="308.9003" y1="198.8" y2="198.8"/><rect fill="none" height="6" style="stroke:#C82930;stroke-width:1;" width="6" x="83.37" y="209.4484"/><text fill="#000000" font-family="sans-serif" font-size="14" lengthAdjust="spacing" textLength="35.4648" x="95.37" y="215.7951">state</text><line style="stroke:#181818;stroke-width:0.5;" x1="76.37" x2="308.9003" y1="223.0969" y2="223.0969"/><ellipse cx="86.37" cy="236.7453" fill="#84BE84" rx="3" ry="3" style="stroke:#038048;stroke-width:1;"/><text fill="#000000" font-family="sans-serif" font-size="14" lengthAdjust="spacing" textLength="208.5303" x="95.37" y="240.092">setMemento(in m : Memento)</text><ellipse cx="86.37" cy="253.0422" fill="#84BE84" rx="3" ry="3" style="stroke:#038048;stroke-width:1;"/><text fill="#000000" font-family="sans-serif" font-size="14" lengthAdjust="spacing" textLength="121.543" x="95.37" y="256.3889">createMemento()</text></g><g class="entity" data-entity="N1" data-source-line="23" data-uid="ent0007" id="entity_N1"><path d="M276.56,6 L276.56,106.7969 L564.7138,106.7969 L564.7138,16 L554.7138,6 L276.56,6" fill="#FEFFDD" style="stroke:#181818;stroke-width:0.5;"/><path d="M554.7138,6 L554.7138,16 L564.7138,16 L554.7138,6" fill="#FEFFDD" style="stroke:#181818;stroke-width:1;"/><text fill="#4169E1" font-family="sans-serif" font-size="13" font-weight="bold" lengthAdjust="spacing" textLength="68.5166" x="282.56" y="23.0669">Memento</text><text fill="#000000" font-family="sans-serif" font-size="13" font-weight="bold" lengthAdjust="spacing" textLength="40.6631" x="282.56" y="38.1997">Type:</text><text fill="#000000" font-family="sans-serif" font-size="13" lengthAdjust="spacing" textLength="69.3037" x="327.3554" y="38.1997">Behavioral</text><text fill="#000000" font-family="sans-serif" font-size="13" lengthAdjust="spacing" textLength="264.7988" x="282.56" y="53.3325">Without violating encapsulation, capture</text><text fill="#000000" font-family="sans-serif" font-size="13" lengthAdjust="spacing" textLength="267.1538" x="282.56" y="68.4653">and externalize an object's internal state</text><text fill="#000000" font-family="sans-serif" font-size="13" lengthAdjust="spacing" textLength="266.7158" x="282.56" y="83.5981">so that the object can be restored to this</text><text fill="#000000" font-family="sans-serif" font-size="13" lengthAdjust="spacing" textLength="71.2144" x="282.56" y="98.731">state later.</text></g><!--reverse link Caretaker to Memento--><g class="link" data-entity-1="Caretaker" data-entity-2="Memento" data-source-line="19" data-uid="lnk5" id="link_Caretaker_Memento"><path codeLine="19" d="M120.67,56.69 C132.02,56.69 132.03,56.69 143.31,56.69" fill="none" id="Caretaker-backto-Memento" style="stroke:#181818;stroke-width:1;"/><polygon fill="#181818" points="108.67,56.69,114.67,60.69,120.67,56.69,114.67,52.69,108.67,56.69" style="stroke:#181818;stroke-width:1;"/></g><!--reverse link Memento to Originator--><g class="link" data-entity-1="Memento" data-entity-2="Originator" data-source-line="20" data-uid="lnk6" id="link_Memento_Originator"><path codeLine="20" d="M192.63,90.8 C192.63,113.47 192.63,139.75 192.63,166.52" fill="none" id="Memento-backto-Originator" style="stroke:#181818;stroke-width:1;"/><polygon fill="#181818" points="192.63,84.8,188.63,93.8,192.63,89.8,196.63,93.8,192.63,84.8" style="stroke:#181818;stroke-width:1;"/></g><!--SRC=[RL31JiCm3BtdAto3mSh4TQfwsCx01OcpsrfhMEfKZeieY7_7sTffIEGGnU-zF3yx7JqFADX3ZStn877aTXz35511JaOHgqiNLV1CEWq4GmnJBlxZecWNdMi2fWHxir0yaYp04_Nc6U7RWPq2agAI-rde5_47pwWMuQyYl-yXaSu6jvwXX-tYjve5ZP2f5yqg6tU-9Q1-q0bwwckIvDmb5jmLYuLRefL5SPN3EOvAW0cU7qzDohegcxoahSG9mowCLCrVoys9gCfDNItQLzl9DWEmemu_V1GC9-xDsvv61OC2gkS343Suf35NaTTWXOvo7Xsv1VfK4iRWlomEGwpVgT6R19xF-DMcKWJjKEsYMMTk33M1KBAXg0ND4f_EylmHh2_9WoDhbKV-1G00]--></g></svg>