<?xml version="1.0" encoding="us-ascii" standalone="no"?><svg xmlns="http://www.w3.org/2000/svg" xmlns:xlink="http://www.w3.org/1999/xlink" contentStyleType="text/css" height="627px" preserveAspectRatio="none" style="width:550px;height:627px;" version="1.1" viewBox="0 0 550 627" width="550px" zoomAndPan="magnify"><defs/><g><ellipse cx="227.5" cy="16" fill="#222222" rx="10" ry="10" style="stroke:#222222;stroke-width:1.0;"/><path d="M183,87 L272,87 A3.5,3.5 0 0 1 275.5,90.5 L275.5,113.2969 L179.5,113.2969 L179.5,90.5 A3.5,3.5 0 0 1 183,87 " fill="#F1F1F1" style="stroke:#F1F1F1;stroke-width:1.0;"/><rect fill="none" height="153.2969" rx="3.5" ry="3.5" style="stroke:#181818;stroke-width:0.5;" width="96" x="179.5" y="87"/><line style="stroke:#181818;stroke-width:0.5;" x1="179.5" x2="275.5" y1="113.2969" y2="113.2969"/><text fill="#000000" font-family="sans-serif" font-size="14" lengthAdjust="spacing" textLength="30" x="212.5" y="104.9951">New</text><ellipse cx="229" cy="134.2969" fill="#222222" rx="10" ry="10" style="stroke:#222222;stroke-width:1.0;"/><g id="New.Created"><rect fill="#F1F1F1" height="50" rx="3.5" ry="3.5" style="stroke:#181818;stroke-width:0.5;" width="75" x="191.5" y="180.2969"/><line style="stroke:#181818;stroke-width:0.5;" x1="191.5" x2="266.5" y1="206.5938" y2="206.5938"/><text fill="#000000" font-family="sans-serif" font-size="14" lengthAdjust="spacing" textLength="55" x="201.5" y="198.292">Created</text></g><!--link *start*New to Created--><g id="link_*start*New_Created"><path d="M229,144.6069 C229,153.6469 229,161.7869 229,174.0269 " fill="none" id="*start*New-to-Created" style="stroke:#454645;stroke-width:1.0;"/><polygon fill="#454645" points="229,180.0269,233,171.0269,229,175.0269,225,171.0269,229,180.0269" style="stroke:#454645;stroke-width:1.0;"/></g><g id="Ready"><rect fill="#F1F1F1" height="50" rx="3.5" ry="3.5" style="stroke:#181818;stroke-width:0.5;" width="63" x="196" y="317.3"/><line style="stroke:#181818;stroke-width:0.5;" x1="196" x2="259" y1="343.5969" y2="343.5969"/><text fill="#000000" font-family="sans-serif" font-size="14" lengthAdjust="spacing" textLength="43" x="206" y="335.2951">Ready</text></g><g id="Running"><rect fill="#F1F1F1" height="50" rx="3.5" ry="3.5" style="stroke:#181818;stroke-width:0.5;" width="78" x="79.5" y="444.3"/><line style="stroke:#181818;stroke-width:0.5;" x1="79.5" x2="157.5" y1="470.5969" y2="470.5969"/><text fill="#000000" font-family="sans-serif" font-size="14" lengthAdjust="spacing" textLength="58" x="89.5" y="462.2951">Running</text></g><g id="Waiting"><rect fill="#F1F1F1" height="50" rx="3.5" ry="3.5" style="stroke:#181818;stroke-width:0.5;" width="70" x="300.5" y="571.3"/><line style="stroke:#181818;stroke-width:0.5;" x1="300.5" x2="370.5" y1="597.5969" y2="597.5969"/><text fill="#000000" font-family="sans-serif" font-size="14" lengthAdjust="spacing" textLength="50" x="310.5" y="589.2951">Waiting</text></g><g id="Terminated"><rect fill="#F1F1F1" height="50" rx="3.5" ry="3.5" style="stroke:#181818;stroke-width:0.5;" width="99" x="7" y="571.3"/><line style="stroke:#181818;stroke-width:0.5;" x1="7" x2="106" y1="597.5969" y2="597.5969"/><text fill="#000000" font-family="sans-serif" font-size="14" lengthAdjust="spacing" textLength="79" x="17" y="589.2951">Terminated</text></g><g id="elem_GMN18"><path d="M310,154.59 L310,159.65 L275.97,163.65 L310,167.65 L310,172.7228 A3.5,3.5 0 0 0 313.5,176.2228 L405.5,176.2228 A3.5,3.5 0 0 0 409,172.7228 L409,161.09 L399,151.09 L313.5,151.09 A3.5,3.5 0 0 0 310,154.59 " fill="#90EE90" style="stroke:#454645;stroke-width:1.0;"/><path d="M399,151.09 L399,159.34 A1.75,1.75 0 0 0 400.75,161.09 L409,161.09 L399,151.09 " fill="#90EE90" style="stroke:#454645;stroke-width:1.0;"/><text fill="#454645" font-family="sans-serif" font-size="13" lengthAdjust="spacing" textLength="78" x="316" y="168.1569">&#36827;&#31243;&#21018;&#34987;&#21019;&#24314;</text></g><g id="elem_GMN21"><path d="M294.5,333.23 L294.5,338.3 L259.17,342.3 L294.5,346.3 L294.5,351.3628 A3.5,3.5 0 0 0 298,354.8628 L399,354.8628 A3.5,3.5 0 0 0 402.5,351.3628 L402.5,339.73 L392.5,329.73 L298,329.73 A3.5,3.5 0 0 0 294.5,333.23 " fill="#90EE90" style="stroke:#454645;stroke-width:1.0;"/><path d="M392.5,329.73 L392.5,337.98 A1.75,1.75 0 0 0 394.25,339.73 L402.5,339.73 L392.5,329.73 " fill="#90EE90" style="stroke:#454645;stroke-width:1.0;"/><text fill="#454645" font-family="sans-serif" font-size="13" lengthAdjust="spacing" textLength="87" x="300.5" y="346.7969">&#31561;&#24453; CPU &#35843;&#24230;</text></g><g id="elem_GMN24"><path d="M192,460.23 L192,465.3 L157.6,469.3 L192,473.3 L192,478.3628 A3.5,3.5 0 0 0 195.5,481.8628 L261.5,481.8628 A3.5,3.5 0 0 0 265,478.3628 L265,466.73 L255,456.73 L195.5,456.73 A3.5,3.5 0 0 0 192,460.23 " fill="#90EE90" style="stroke:#454645;stroke-width:1.0;"/><path d="M255,456.73 L255,464.98 A1.75,1.75 0 0 0 256.75,466.73 L265,466.73 L255,456.73 " fill="#90EE90" style="stroke:#454645;stroke-width:1.0;"/><text fill="#454645" font-family="sans-serif" font-size="13" lengthAdjust="spacing" textLength="52" x="198" y="473.7969">&#27491;&#22312;&#25191;&#34892;</text></g><g id="elem_GMN27"><path d="M406,587.23 L406,592.3 L370.79,596.3 L406,600.3 L406,605.3628 A3.5,3.5 0 0 0 409.5,608.8628 L539.5,608.8628 A3.5,3.5 0 0 0 543,605.3628 L543,593.73 L533,583.73 L409.5,583.73 A3.5,3.5 0 0 0 406,587.23 " fill="#90EE90" style="stroke:#454645;stroke-width:1.0;"/><path d="M533,583.73 L533,591.98 A1.75,1.75 0 0 0 534.75,593.73 L543,593.73 L533,583.73 " fill="#90EE90" style="stroke:#454645;stroke-width:1.0;"/><text fill="#454645" font-family="sans-serif" font-size="13" lengthAdjust="spacing" textLength="116" x="412" y="600.7969">&#31561;&#24453; I/O &#25110;&#20107;&#20214;&#23436;&#25104;</text></g><g id="elem_GMN30"><path d="M141,587.23 L141,592.3 L106.46,596.3 L141,600.3 L141,605.3628 A3.5,3.5 0 0 0 144.5,608.8628 L262.5,608.8628 A3.5,3.5 0 0 0 266,605.3628 L266,593.73 L256,583.73 L144.5,583.73 A3.5,3.5 0 0 0 141,587.23 " fill="#90EE90" style="stroke:#454645;stroke-width:1.0;"/><path d="M256,583.73 L256,591.98 A1.75,1.75 0 0 0 257.75,593.73 L266,593.73 L256,583.73 " fill="#90EE90" style="stroke:#454645;stroke-width:1.0;"/><text fill="#454645" font-family="sans-serif" font-size="13" lengthAdjust="spacing" textLength="104" x="147" y="600.7969">&#25191;&#34892;&#23436;&#27605;&#25110;&#34987;&#32456;&#27490;</text></g><!--link *start* to New--><g id="link_*start*_New"><path d="M227.5,26.11 C227.5,38.63 227.5,56.36 227.5,80.58 " fill="none" id="*start*-to-New" style="stroke:#454645;stroke-width:1.0;"/><polygon fill="#454645" points="227.5,86.58,231.5,77.58,227.5,81.58,223.5,77.58,227.5,86.58" style="stroke:#454645;stroke-width:1.0;"/></g><!--link New to Ready--><g id="link_New_Ready"><path d="M227.5,240.59 C227.5,268.08 227.5,291.21 227.5,311.03 " fill="none" id="New-to-Ready" style="stroke:#454645;stroke-width:1.0;"/><polygon fill="#454645" points="227.5,317.03,231.5,308.03,227.5,312.03,223.5,308.03,227.5,317.03" style="stroke:#454645;stroke-width:1.0;"/><text fill="#000000" font-family="sans-serif" font-size="13" lengthAdjust="spacing" textLength="47" x="228.5" y="283.3669">admit()</text></g><!--link Ready to Running--><g id="link_Ready_Running"><path d="M195.71,349.04 C169.16,355.69 132.95,369.51 115.5,397.3 C106.9,410.99 106.6769,423.3839 109.6869,437.9639 " fill="none" id="Ready-to-Running" style="stroke:#454645;stroke-width:1.0;"/><polygon fill="#454645" points="110.9,443.84,112.9977,434.2171,109.8891,438.9433,105.163,435.8346,110.9,443.84" style="stroke:#454645;stroke-width:1.0;"/><text fill="#000000" font-family="sans-serif" font-size="13" lengthAdjust="spacing" textLength="67" x="116.5" y="410.3669">schedule()</text></g><!--link Running to Ready--><g id="link_Running_Ready"><path d="M155.85,443.96 C167.19,435.45 179.12,425.26 188.5,414.3 C200.48,400.3 207.8502,387.4665 214.6902,372.9665 " fill="none" id="Running-to-Ready" style="stroke:#454645;stroke-width:1.0;"/><polygon fill="#454645" points="217.25,367.54,209.7926,373.9733,215.1168,372.0621,217.0279,377.3864,217.25,367.54" style="stroke:#454645;stroke-width:1.0;"/><text fill="#000000" font-family="sans-serif" font-size="13" lengthAdjust="spacing" textLength="65" x="201.5" y="410.3669">interrupt()</text></g><!--link Running to Waiting--><g id="link_Running_Waiting"><path d="M157.8,492.94 C198.35,516.29 255.8309,549.4051 294.8909,571.9051 " fill="none" id="Running-to-Waiting" style="stroke:#454645;stroke-width:1.0;"/><polygon fill="#454645" points="300.09,574.9,294.2879,566.9416,295.7574,572.4043,290.2948,573.8738,300.09,574.9" style="stroke:#454645;stroke-width:1.0;"/><text fill="#000000" font-family="sans-serif" font-size="13" lengthAdjust="spacing" textLength="48" x="241.5" y="537.3669">ioWait()</text></g><!--link Running to Terminated--><g id="link_Running_Terminated"><path d="M106.4,494.7 C95.47,516.72 82.1576,543.5856 71.2376,565.5856 " fill="none" id="Running-to-Terminated" style="stroke:#454645;stroke-width:1.0;"/><polygon fill="#454645" points="68.57,570.96,76.1544,564.6769,70.793,566.4814,68.9885,561.12,68.57,570.96" style="stroke:#454645;stroke-width:1.0;"/><text fill="#000000" font-family="sans-serif" font-size="13" lengthAdjust="spacing" textLength="33" x="92.5" y="537.3669">exit()</text></g><!--link Waiting to Ready--><g id="link_Waiting_Ready"><path d="M331.59,570.81 C324.66,532.02 307.79,454.97 275.5,397.3 C269.56,386.68 265.2874,380.771 257.2374,372.041 " fill="none" id="Waiting-to-Ready" style="stroke:#454645;stroke-width:1.0;"/><polygon fill="#454645" points="253.17,367.63,256.3304,376.958,256.5595,371.3058,262.2117,371.5348,253.17,367.63" style="stroke:#454645;stroke-width:1.0;"/><text fill="#000000" font-family="sans-serif" font-size="13" lengthAdjust="spacing" textLength="108" x="315.5" y="473.8669">eventComplete()</text></g><!--SRC=[TP2nIyD05CRt-okUcmh5tS4baukAA0xYS3RFz6XoLouNjOYJ22djuAA3TR625ahKoQ41_MTwQVuCxvAMbaAsu_lUxtllkpNLm011YJO9cuotgAG1dDDwqvCYuguZV251ISf3Oo5NX9nkda6jjWDxU4L8gAX2-uGR0Z2t78b6Tiaj8TQoqY5IjmtRGDs0gVKDGagXi2BE6VUC6TORw4O-5lvCNOOPLoXbrB81o_u9PQfCOCA-L-mZb07ZzY8pWTVb_Zcpd8-Nfg4ZWfQFgZY22zDECg-XG5mKZG7ol_vqsDNnSpuOwRYlqp51xe8TNGMAN8DCaux-lGVdu1ZoxpizVgycohCDaoLl-cMOTJxorrxb-Ap4OiNkrZvayTDat9saF_gpbyKFbV3YM-owOf4blXvDWEasJUCi6IpeVm00]--></g></svg>