<svg xmlns="http://www.w3.org/2000/svg" xmlns:xlink="http://www.w3.org/1999/xlink" contentStyleType="text/css" data-diagram-type="CLASS" height="245px" preserveAspectRatio="none" style="width:618px;height:245px;" version="1.1" viewBox="0 0 618 245" width="618px" zoomAndPan="magnify"><defs/><g><!--class Client--><g class="entity" data-entity="Client" data-source-line="5" data-uid="ent0002" id="entity_Client"><rect fill="#F1F1F1" height="32" rx="2.5" ry="2.5" style="stroke:#181818;stroke-width:0.5;" width="72.5303" x="7" y="47.97"/><ellipse cx="22" cy="63.97" fill="#ADD1B2" rx="11" ry="11" style="stroke:#181818;stroke-width:1;"/><path d="M24.9688,69.6106 Q24.3906,69.9075 23.75,70.0481 Q23.1094,70.2044 22.4063,70.2044 Q19.9063,70.2044 18.5781,68.5638 Q17.2656,66.9075 17.2656,63.7825 Q17.2656,60.6575 18.5781,59.0013 Q19.9063,57.345 22.4063,57.345 Q23.1094,57.345 23.75,57.5013 Q24.4063,57.6575 24.9688,57.9544 L24.9688,60.6731 Q24.3438,60.095 23.75,59.8294 Q23.1563,59.5481 22.5313,59.5481 Q21.1875,59.5481 20.5,60.6263 Q19.8125,61.6888 19.8125,63.7825 Q19.8125,65.8763 20.5,66.9544 Q21.1875,68.0169 22.5313,68.0169 Q23.1563,68.0169 23.75,67.7513 Q24.3438,67.47 24.9688,66.8919 L24.9688,69.6106 Z " fill="#000000"/><text fill="#000000" font-family="sans-serif" font-size="14" lengthAdjust="spacing" textLength="40.5303" x="36" y="68.8167">Client</text></g><!--class Handler--><g class="entity" data-entity="Handler" data-source-line="7" data-uid="ent0003" id="entity_Handler"><rect fill="#F1F1F1" height="56.2969" rx="2.5" ry="2.5" style="stroke:#181818;stroke-width:0.5;" width="142.1357" x="114.2" y="35.82"/><ellipse cx="153.9548" cy="51.82" fill="#B4A7E5" rx="11" ry="11" style="stroke:#181818;stroke-width:1;"/><path d="M149.8767,47.5856 L149.8767,45.4294 L157.2673,45.4294 L157.2673,47.5856 L154.7986,47.5856 L154.7986,55.6637 L157.2673,55.6637 L157.2673,57.82 L149.8767,57.82 L149.8767,55.6637 L152.3455,55.6637 L152.3455,47.5856 L149.8767,47.5856 Z " fill="#000000"/><text fill="#000000" font-family="sans-serif" font-size="14" font-style="italic" lengthAdjust="spacing" textLength="55.125" x="173.4559" y="56.6667">Handler</text><line style="stroke:#181818;stroke-width:0.5;" x1="115.2" x2="255.3357" y1="67.82" y2="67.82"/><ellipse cx="125.2" cy="81.4684" fill="#84BE84" rx="3" ry="3" style="stroke:#038048;stroke-width:1;"/><text fill="#000000" font-family="sans-serif" font-size="14" lengthAdjust="spacing" textLength="116.1357" x="134.2" y="84.8151">handleRequest()</text></g><!--class ConcreteHandler1--><g class="entity" data-entity="ConcreteHandler1" data-source-line="11" data-uid="ent0004" id="entity_ConcreteHandler1"><rect fill="#F1F1F1" height="56.2969" rx="2.5" ry="2.5" style="stroke:#181818;stroke-width:0.5;" width="159.415" x="8.56" y="181.93"/><ellipse cx="23.56" cy="197.93" fill="#ADD1B2" rx="11" ry="11" style="stroke:#181818;stroke-width:1;"/><path d="M26.5288,203.5706 Q25.9506,203.8675 25.31,204.0081 Q24.6694,204.1644 23.9663,204.1644 Q21.4663,204.1644 20.1381,202.5237 Q18.8256,200.8675 18.8256,197.7425 Q18.8256,194.6175 20.1381,192.9612 Q21.4663,191.305 23.9663,191.305 Q24.6694,191.305 25.31,191.4612 Q25.9663,191.6175 26.5288,191.9144 L26.5288,194.6331 Q25.9038,194.055 25.31,193.7894 Q24.7163,193.5081 24.0913,193.5081 Q22.7475,193.5081 22.06,194.5862 Q21.3725,195.6487 21.3725,197.7425 Q21.3725,199.8362 22.06,200.9144 Q22.7475,201.9769 24.0913,201.9769 Q24.7163,201.9769 25.31,201.7112 Q25.9038,201.43 26.5288,200.8519 L26.5288,203.5706 Z " fill="#000000"/><text fill="#000000" font-family="sans-serif" font-size="14" lengthAdjust="spacing" textLength="127.415" x="37.56" y="202.7767">ConcreteHandler1</text><line style="stroke:#181818;stroke-width:0.5;" x1="9.56" x2="166.975" y1="213.93" y2="213.93"/><ellipse cx="19.56" cy="227.5784" fill="#84BE84" rx="3" ry="3" style="stroke:#038048;stroke-width:1;"/><text fill="#000000" font-family="sans-serif" font-size="14" lengthAdjust="spacing" textLength="116.1357" x="28.56" y="230.9251">handleRequest()</text></g><!--class ConcreteHandler2--><g class="entity" data-entity="ConcreteHandler2" data-source-line="15" data-uid="ent0005" id="entity_ConcreteHandler2"><rect fill="#F1F1F1" height="56.2969" rx="2.5" ry="2.5" style="stroke:#181818;stroke-width:0.5;" width="159.415" x="202.56" y="181.93"/><ellipse cx="217.56" cy="197.93" fill="#ADD1B2" rx="11" ry="11" style="stroke:#181818;stroke-width:1;"/><path d="M220.5288,203.5706 Q219.9506,203.8675 219.31,204.0081 Q218.6694,204.1644 217.9663,204.1644 Q215.4663,204.1644 214.1381,202.5237 Q212.8256,200.8675 212.8256,197.7425 Q212.8256,194.6175 214.1381,192.9612 Q215.4663,191.305 217.9663,191.305 Q218.6694,191.305 219.31,191.4612 Q219.9663,191.6175 220.5288,191.9144 L220.5288,194.6331 Q219.9038,194.055 219.31,193.7894 Q218.7163,193.5081 218.0913,193.5081 Q216.7475,193.5081 216.06,194.5862 Q215.3725,195.6487 215.3725,197.7425 Q215.3725,199.8362 216.06,200.9144 Q216.7475,201.9769 218.0913,201.9769 Q218.7163,201.9769 219.31,201.7112 Q219.9038,201.43 220.5288,200.8519 L220.5288,203.5706 Z " fill="#000000"/><text fill="#000000" font-family="sans-serif" font-size="14" lengthAdjust="spacing" textLength="127.415" x="231.56" y="202.7767">ConcreteHandler2</text><line style="stroke:#181818;stroke-width:0.5;" x1="203.56" x2="360.975" y1="213.93" y2="213.93"/><ellipse cx="213.56" cy="227.5784" fill="#84BE84" rx="3" ry="3" style="stroke:#038048;stroke-width:1;"/><text fill="#000000" font-family="sans-serif" font-size="14" lengthAdjust="spacing" textLength="116.1357" x="222.56" y="230.9251">handleRequest()</text></g><g class="entity" data-entity="N1" data-source-line="27" data-uid="ent0010" id="entity_N1"><path d="M309.31,6 L309.31,121.9297 L611.2128,121.9297 L611.2128,16 L601.2128,6 L309.31,6" fill="#FEFFDD" style="stroke:#181818;stroke-width:0.5;"/><path d="M601.2128,6 L601.2128,16 L611.2128,16 L601.2128,6" fill="#FEFFDD" style="stroke:#181818;stroke-width:1;"/><text fill="#4169E1" font-family="sans-serif" font-size="13" font-weight="bold" lengthAdjust="spacing" textLength="168.5303" x="315.31" y="23.0669">Chain of Responsibility</text><text fill="#000000" font-family="sans-serif" font-size="13" font-weight="bold" lengthAdjust="spacing" textLength="40.6631" x="315.31" y="38.1997">Type:</text><text fill="#000000" font-family="sans-serif" font-size="13" lengthAdjust="spacing" textLength="69.3037" x="360.1054" y="38.1997">Behavioral</text><text fill="#000000" font-family="sans-serif" font-size="13" lengthAdjust="spacing" textLength="269.8262" x="315.31" y="53.3325">Avoid coupling the sender of a request to</text><text fill="#000000" font-family="sans-serif" font-size="13" lengthAdjust="spacing" textLength="280.9028" x="315.31" y="68.4653">its receiver by giving more than one object</text><text fill="#000000" font-family="sans-serif" font-size="13" lengthAdjust="spacing" textLength="274.625" x="315.31" y="83.5981">a chance to handle the request. Chain the</text><text fill="#000000" font-family="sans-serif" font-size="13" lengthAdjust="spacing" textLength="252.6494" x="315.31" y="98.731">receiving objects and pass the request</text><text fill="#000000" font-family="sans-serif" font-size="13" lengthAdjust="spacing" textLength="270.4736" x="315.31" y="113.8638">along the chain until an object handles it.</text></g><!--link Client to Handler--><g class="link" data-entity-1="Client" data-entity-2="Handler" data-source-line="21" data-uid="lnk6" id="link_Client_Handler"><path codeLine="21" d="M79.83,64.23 C90.27,64.23 96.02,64.23 107.78,64.23" fill="none" id="Client-to-Handler" style="stroke:#181818;stroke-width:1;"/><polygon fill="#181818" points="113.78,64.23,104.78,60.23,108.78,64.23,104.78,68.23,113.78,64.23" style="stroke:#181818;stroke-width:1;"/></g><!--reverse link Handler to ConcreteHandler1--><g class="link" data-entity-1="Handler" data-entity-2="ConcreteHandler1" data-source-line="22" data-uid="lnk7" id="link_Handler_ConcreteHandler1"><path codeLine="22" d="M132.12,110.49 C132.12,136.23 132.12,155.91 132.12,181.63" fill="none" id="Handler-backto-ConcreteHandler1" style="stroke:#181818;stroke-width:1;"/><polygon fill="none" points="132.12,92.49,126.12,110.49,138.12,110.49,132.12,92.49" style="stroke:#181818;stroke-width:1;"/></g><!--reverse link Handler to ConcreteHandler2--><g class="link" data-entity-1="Handler" data-entity-2="ConcreteHandler2" data-source-line="23" data-uid="lnk8" id="link_Handler_ConcreteHandler2"><path codeLine="23" d="M229.45,110.49 C229.45,136.23 229.45,155.91 229.45,181.63" fill="none" id="Handler-backto-ConcreteHandler2" style="stroke:#181818;stroke-width:1;"/><polygon fill="none" points="229.45,92.49,223.45,110.49,235.45,110.49,229.45,92.49" style="stroke:#181818;stroke-width:1;"/></g><!--link Handler to Handler--><g class="link" data-entity-1="Handler" data-entity-2="Handler" data-source-line="24" data-uid="lnk9" id="link_Handler_Handler"><path codeLine="24" d="M185.27,35.7 C185.27,27.75 185.27,21.23 185.27,21.23 C185.27,21.23 96.86,21.23 96.86,21.23 C96.86,21.23 96.86,107.23 96.86,107.23 C96.86,107.23 150.05,107.23 150.05,107.23 C150.05,107.23 150.05,106.63 150.05,98.58" fill="none" id="Handler-to-Handler" style="stroke:#181818;stroke-width:1;"/><polygon fill="#181818" points="150.05,92.58,146.05,101.58,150.05,97.58,154.05,101.58,150.05,92.58" style="stroke:#181818;stroke-width:1;"/><text fill="#000000" font-family="sans-serif" font-size="13" lengthAdjust="spacing" textLength="64.1494" x="26.86" y="37.7769">successor</text></g><!--SRC=[bL7BJiCm4BpxA_O8GctL7gie4ks54uUA7t2SRMFgU8FNYHG1_yxQIGiIg1A-UUVXyIoVhUzqq2rKsfnFWNfVxybHW1YqPu7GHyLNbhCUuzWXTEJ6TFaBen0RKieupGnxPvE5iZvYE6g3yAHzxJ30km8v3z3a-m7VUkHuTwy-hrBo9c34MR3-js9pIz7O6W7RBexGObjXOAMciB0eBo7L9MpniLZy2dGJtLpHRplO0lV683C5fJn51CtmlCufYweiJEf-6sZKRkTwBFUDjXxe20VaZZpRoZeRnsALYMMngigBzaMgtwO1xB3HWwMWNSOU1x8r6EexsT09OeF0w6j98xuQmbGAHCfi6rb61kqWX6g4ansIggM08jKInik6grSqCVCr69dAMYFDBUSNPjSbJ3-GKMPFpibmic0G2NHfTpzKax6ZEQt95hsFra4Aa9NpOoo1bqg-0wdDBm00]--></g></svg>