<svg xmlns="http://www.w3.org/2000/svg" xmlns:xlink="http://www.w3.org/1999/xlink" contentStyleType="text/css" data-diagram-type="CLASS" height="372px" preserveAspectRatio="none" style="width:568px;height:372px;" version="1.1" viewBox="0 0 568 372" width="568px" zoomAndPan="magnify"><defs/><g><!--class Client--><g class="entity" data-entity="Client" data-source-line="5" data-uid="ent0002" id="entity_Client"><rect fill="#F1F1F1" height="32" rx="2.5" ry="2.5" style="stroke:#181818;stroke-width:0.5;" width="72.5303" x="165.04" y="32.83"/><ellipse cx="180.04" cy="48.83" fill="#ADD1B2" rx="11" ry="11" style="stroke:#181818;stroke-width:1;"/><path d="M183.0088,54.4706 Q182.4306,54.7675 181.79,54.9081 Q181.1494,55.0644 180.4463,55.0644 Q177.9463,55.0644 176.6181,53.4237 Q175.3056,51.7675 175.3056,48.6425 Q175.3056,45.5175 176.6181,43.8612 Q177.9463,42.205 180.4463,42.205 Q181.1494,42.205 181.79,42.3612 Q182.4463,42.5175 183.0088,42.8144 L183.0088,45.5331 Q182.3838,44.955 181.79,44.6894 Q181.1963,44.4081 180.5713,44.4081 Q179.2275,44.4081 178.54,45.4862 Q177.8525,46.5487 177.8525,48.6425 Q177.8525,50.7362 178.54,51.8144 Q179.2275,52.8769 180.5713,52.8769 Q181.1963,52.8769 181.79,52.6112 Q182.3838,52.33 183.0088,51.7519 L183.0088,54.4706 Z " fill="#000000"/><text fill="#000000" font-family="sans-serif" font-size="14" lengthAdjust="spacing" textLength="40.5303" x="194.04" y="53.6767">Client</text></g><!--class Aggregate--><g class="entity" data-entity="Aggregate" data-source-line="7" data-uid="ent0003" id="entity_Aggregate"><rect fill="#F1F1F1" height="64.5625" rx="2.5" ry="2.5" style="stroke:#181818;stroke-width:0.5;" width="182.6182" x="7" y="159.82"/><ellipse cx="51.75" cy="179.9528" fill="#B4A7E5" rx="11" ry="11" style="stroke:#181818;stroke-width:1;"/><path d="M47.6719,175.7184 L47.6719,173.5622 L55.0625,173.5622 L55.0625,175.7184 L52.5938,175.7184 L52.5938,183.7966 L55.0625,183.7966 L55.0625,185.9528 L47.6719,185.9528 L47.6719,183.7966 L50.1406,183.7966 L50.1406,175.7184 L47.6719,175.7184 Z " fill="#000000"/><text fill="#000000" font-family="sans-serif" font-size="12" font-style="italic" lengthAdjust="spacing" textLength="68.2031" x="74.7925" y="175.9587">&#171;interface&#187;</text><text fill="#000000" font-family="sans-serif" font-size="14" font-style="italic" lengthAdjust="spacing" textLength="73.2881" x="72.25" y="191.7839">Aggregate</text><rect fill="#FFFFFF" height="15.9688" style="stroke:#181818;stroke-width:1;stroke-dasharray:2.0,2.0;" width="9.3301" x="183.2881" y="156.82"/><text fill="#000000" font-family="sans-serif" font-size="12" font-style="italic" lengthAdjust="spacing" textLength="7.3301" x="184.2881" y="168.9587">T</text><line style="stroke:#181818;stroke-width:0.5;" x1="8" x2="188.6182" y1="200.0856" y2="200.0856"/><ellipse cx="18" cy="213.7341" fill="#84BE84" rx="3" ry="3" style="stroke:#038048;stroke-width:1;"/><text fill="#000000" font-family="sans-serif" font-size="14" lengthAdjust="spacing" textLength="156.6182" x="27" y="217.0807">iterator(): Iterator&lt;T&gt;</text></g><!--class ConcreteAggregate--><g class="entity" data-entity="ConcreteAggregate" data-source-line="11" data-uid="ent0004" id="entity_ConcreteAggregate"><rect fill="#F1F1F1" height="56.2969" rx="2.5" ry="2.5" style="stroke:#181818;stroke-width:0.5;" width="168.6709" x="13.97" y="300.67"/><ellipse cx="28.97" cy="316.67" fill="#ADD1B2" rx="11" ry="11" style="stroke:#181818;stroke-width:1;"/><path d="M31.9388,322.3106 Q31.3606,322.6075 30.72,322.7481 Q30.0794,322.9044 29.3763,322.9044 Q26.8763,322.9044 25.5481,321.2638 Q24.2356,319.6075 24.2356,316.4825 Q24.2356,313.3575 25.5481,311.7013 Q26.8763,310.045 29.3763,310.045 Q30.0794,310.045 30.72,310.2013 Q31.3763,310.3575 31.9388,310.6544 L31.9388,313.3731 Q31.3138,312.795 30.72,312.5294 Q30.1263,312.2481 29.5013,312.2481 Q28.1575,312.2481 27.47,313.3263 Q26.7825,314.3888 26.7825,316.4825 Q26.7825,318.5763 27.47,319.6544 Q28.1575,320.7169 29.5013,320.7169 Q30.1263,320.7169 30.72,320.4513 Q31.3138,320.17 31.9388,319.5919 L31.9388,322.3106 Z " fill="#000000"/><text fill="#000000" font-family="sans-serif" font-size="14" lengthAdjust="spacing" textLength="136.6709" x="42.97" y="321.5167">ConcreteAggregate</text><line style="stroke:#181818;stroke-width:0.5;" x1="14.97" x2="181.6409" y1="332.67" y2="332.67"/><ellipse cx="24.97" cy="346.3184" fill="#84BE84" rx="3" ry="3" style="stroke:#038048;stroke-width:1;"/><text fill="#000000" font-family="sans-serif" font-size="14" lengthAdjust="spacing" textLength="125.7676" x="33.97" y="349.6651">createIterator(): T</text></g><!--class Iterator--><g class="entity" data-entity="Iterator" data-source-line="15" data-uid="ent0005" id="entity_Iterator"><rect fill="#F1F1F1" height="80.8594" rx="2.5" ry="2.5" style="stroke:#181818;stroke-width:0.5;" width="159.6699" x="224.47" y="151.67"/><ellipse cx="262.9315" cy="171.8028" fill="#B4A7E5" rx="11" ry="11" style="stroke:#181818;stroke-width:1;"/><path d="M258.8534,167.5684 L258.8534,165.4122 L266.244,165.4122 L266.244,167.5684 L263.7753,167.5684 L263.7753,175.6466 L266.244,175.6466 L266.244,177.8028 L258.8534,177.8028 L258.8534,175.6466 L261.3221,175.6466 L261.3221,167.5684 L258.8534,167.5684 Z " fill="#000000"/><text fill="#000000" font-family="sans-serif" font-size="12" font-style="italic" lengthAdjust="spacing" textLength="68.2031" x="280.1452" y="167.8087">&#171;interface&#187;</text><text fill="#000000" font-family="sans-serif" font-size="14" font-style="italic" lengthAdjust="spacing" textLength="52.377" x="288.0583" y="183.6339">Iterator</text><rect fill="#FFFFFF" height="15.9688" style="stroke:#181818;stroke-width:1;stroke-dasharray:2.0,2.0;" width="9.3301" x="377.8098" y="148.67"/><text fill="#000000" font-family="sans-serif" font-size="12" font-style="italic" lengthAdjust="spacing" textLength="7.3301" x="378.8098" y="160.8087">T</text><line style="stroke:#181818;stroke-width:0.5;" x1="225.47" x2="383.1399" y1="191.9356" y2="191.9356"/><ellipse cx="235.47" cy="205.5841" fill="#84BE84" rx="3" ry="3" style="stroke:#038048;stroke-width:1;"/><text fill="#000000" font-family="sans-serif" font-size="14" lengthAdjust="spacing" textLength="133.6699" x="244.47" y="208.9307">hasNext(): boolean</text><ellipse cx="235.47" cy="221.8809" fill="#84BE84" rx="3" ry="3" style="stroke:#038048;stroke-width:1;"/><text fill="#000000" font-family="sans-serif" font-size="14" lengthAdjust="spacing" textLength="59.9033" x="244.47" y="225.2276">next(): T</text></g><!--class ConcreteIterator--><g class="entity" data-entity="ConcreteIterator" data-source-line="20" data-uid="ent0006" id="entity_ConcreteIterator"><rect fill="#F1F1F1" height="72.5938" rx="2.5" ry="2.5" style="stroke:#181818;stroke-width:0.5;" width="159.6699" x="224.47" y="292.53"/><ellipse cx="244.8296" cy="308.53" fill="#ADD1B2" rx="11" ry="11" style="stroke:#181818;stroke-width:1;"/><path d="M247.7983,314.1706 Q247.2202,314.4675 246.5796,314.6081 Q245.9389,314.7644 245.2358,314.7644 Q242.7358,314.7644 241.4077,313.1238 Q240.0952,311.4675 240.0952,308.3425 Q240.0952,305.2175 241.4077,303.5613 Q242.7358,301.905 245.2358,301.905 Q245.9389,301.905 246.5796,302.0613 Q247.2358,302.2175 247.7983,302.5144 L247.7983,305.2331 Q247.1733,304.655 246.5796,304.3894 Q245.9858,304.1081 245.3608,304.1081 Q244.0171,304.1081 243.3296,305.1863 Q242.6421,306.2488 242.6421,308.3425 Q242.6421,310.4363 243.3296,311.5144 Q244.0171,312.5769 245.3608,312.5769 Q245.9858,312.5769 246.5796,312.3113 Q247.1733,312.03 247.7983,311.4519 L247.7983,314.1706 Z " fill="#000000"/><text fill="#000000" font-family="sans-serif" font-size="14" lengthAdjust="spacing" textLength="115.7598" x="260.0206" y="313.3767">ConcreteIterator</text><line style="stroke:#181818;stroke-width:0.5;" x1="225.47" x2="383.1399" y1="324.53" y2="324.53"/><ellipse cx="235.47" cy="338.1784" fill="#84BE84" rx="3" ry="3" style="stroke:#038048;stroke-width:1;"/><text fill="#000000" font-family="sans-serif" font-size="14" lengthAdjust="spacing" textLength="59.6367" x="244.47" y="341.5251">next()  T</text><ellipse cx="235.47" cy="354.4753" fill="#84BE84" rx="3" ry="3" style="stroke:#038048;stroke-width:1;"/><text fill="#000000" font-family="sans-serif" font-size="14" lengthAdjust="spacing" textLength="133.6699" x="244.47" y="357.822">hasNext(): boolean</text></g><g class="entity" data-entity="N1" data-source-line="33" data-uid="ent0011" id="entity_N1"><path d="M272.87,6 L272.87,91.6641 L561.7538,91.6641 L561.7538,16 L551.7538,6 L272.87,6" fill="#FEFFDD" style="stroke:#181818;stroke-width:0.5;"/><path d="M551.7538,6 L551.7538,16 L561.7538,16 L551.7538,6" fill="#FEFFDD" style="stroke:#181818;stroke-width:1;"/><text fill="#4169E1" font-family="sans-serif" font-size="13" font-weight="bold" lengthAdjust="spacing" textLength="56.6084" x="278.87" y="23.0669">Iterator</text><text fill="#000000" font-family="sans-serif" font-size="13" font-weight="bold" lengthAdjust="spacing" textLength="40.6631" x="278.87" y="38.1997">Type:</text><text fill="#000000" font-family="sans-serif" font-size="13" lengthAdjust="spacing" textLength="69.3037" x="323.6654" y="38.1997">Behavioral</text><text fill="#000000" font-family="sans-serif" font-size="13" lengthAdjust="spacing" textLength="262.9771" x="278.87" y="53.3325">Provide a way to access the elements of</text><text fill="#000000" font-family="sans-serif" font-size="13" lengthAdjust="spacing" textLength="267.8838" x="278.87" y="68.4653">an aggregate object sequentially without</text><text fill="#000000" font-family="sans-serif" font-size="13" lengthAdjust="spacing" textLength="256.1787" x="278.87" y="83.5981">exposing its underlying representation.</text></g><!--link Client to Aggregate--><g class="link" data-entity-1="Client" data-entity-2="Aggregate" data-source-line="27" data-uid="lnk7" id="link_Client_Aggregate"><path codeLine="27" d="M177.33,65.27 C177.33,88.13 177.33,124.01 177.33,153.37" fill="none" id="Client-to-Aggregate" style="stroke:#181818;stroke-width:1;"/><polygon fill="#181818" points="177.33,159.37,181.33,150.37,177.33,154.37,173.33,150.37,177.33,159.37" style="stroke:#181818;stroke-width:1;"/></g><!--link Client to Iterator--><g class="link" data-entity-1="Client" data-entity-2="Iterator" data-source-line="28" data-uid="lnk8" id="link_Client_Iterator"><path codeLine="28" d="M231.02,65.27 C231.02,86.14 231.02,116.88 231.02,145.46" fill="none" id="Client-to-Iterator" style="stroke:#181818;stroke-width:1;"/><polygon fill="#181818" points="231.02,151.46,235.02,142.46,231.02,146.46,227.02,142.46,231.02,151.46" style="stroke:#181818;stroke-width:1;"/></g><!--reverse link Aggregate to ConcreteAggregate--><g class="link" data-entity-1="Aggregate" data-entity-2="ConcreteAggregate" data-source-line="29" data-uid="lnk9" id="link_Aggregate_ConcreteAggregate"><path codeLine="29" d="M98.31,242.85 C98.31,265.91 98.31,278.49 98.31,300.51" fill="none" id="Aggregate-backto-ConcreteAggregate" style="stroke:#181818;stroke-width:1;"/><polygon fill="none" points="98.31,224.85,92.31,242.85,104.31,242.85,98.31,224.85" style="stroke:#181818;stroke-width:1;"/></g><!--reverse link Iterator to ConcreteIterator--><g class="link" data-entity-1="Iterator" data-entity-2="ConcreteIterator" data-source-line="30" data-uid="lnk10" id="link_Iterator_ConcreteIterator"><path codeLine="30" d="M304.31,250.75 C304.31,269.64 304.31,273.93 304.31,292.28" fill="none" id="Iterator-backto-ConcreteIterator" style="stroke:#181818;stroke-width:1;"/><polygon fill="none" points="304.31,232.75,298.31,250.75,310.31,250.75,304.31,232.75" style="stroke:#181818;stroke-width:1;"/></g><!--SRC=[TLBDRi8m3BxdANpSD36qAweg3KvSq0vz0RUODYEDkoG5gctlFgT0oiHsY_tz-2VsUsqxTDX2YTM-TjpRxOeDEmWEhHU8R50-iOos58QEe6CpnE0lZ5reMAdAeFUmCZfQA6q3kHrM1AzrxQZ6G5cHGvR1XEGvV2g09z2ImS3kuN41wyjRsEexkRAj70LANgCmIYKjuVh6e8YogSYDtp_L6_GREeMeBPaDeHtJzf8hxjkuUgOkpbmGxZd-mr9C6hqbeBOB0xJKbkIyKkTzmMoMJukwJLvBgMdqx6iskz-8IatzmfDUMHOjUjYyZ4rcPPvLyUiNZWSqIzDJddOr7v4ycvVvbLp8LozY0fRKu46pGpDYRuuFSJ248muG6B2gI9OL6XdMK2kJUE3To4KBcERWyfsg09u-Uk5eD6Q0evPRwiD8fbF7NjjQpiE372evCyJGKUV8YmI3Plkio6uX3lS3]--></g></svg>