<svg xmlns="http://www.w3.org/2000/svg" xmlns:xlink="http://www.w3.org/1999/xlink" contentStyleType="text/css" data-diagram-type="CLASS" height="347px" preserveAspectRatio="none" style="width:594px;height:347px;" version="1.1" viewBox="0 0 594 347" width="594px" zoomAndPan="magnify"><defs/><g><!--class Prototype--><g class="entity" data-entity="Prototype" data-source-line="5" data-uid="ent0002" id="entity_Prototype"><rect fill="#F1F1F1" height="64.2969" rx="2.5" ry="2.5" style="stroke:#181818;stroke-width:0.5;" width="100.0928" x="146.15" y="151.67"/><ellipse cx="161.15" cy="167.67" fill="#B4A7E5" rx="11" ry="11" style="stroke:#181818;stroke-width:1;"/><path d="M157.0719,163.4356 L157.0719,161.2794 L164.4625,161.2794 L164.4625,163.4356 L161.9938,163.4356 L161.9938,171.5138 L164.4625,171.5138 L164.4625,173.67 L157.0719,173.67 L157.0719,171.5138 L159.5406,171.5138 L159.5406,163.4356 L157.0719,163.4356 Z " fill="#000000"/><text fill="#000000" font-family="sans-serif" font-size="14" font-style="italic" lengthAdjust="spacing" textLength="68.0928" x="175.15" y="172.5167">Prototype</text><line style="stroke:#181818;stroke-width:0.5;" x1="147.15" x2="245.2428" y1="183.67" y2="183.67"/><line style="stroke:#181818;stroke-width:0.5;" x1="147.15" x2="245.2428" y1="191.67" y2="191.67"/><ellipse cx="157.15" cy="205.3184" fill="#84BE84" rx="3" ry="3" style="stroke:#038048;stroke-width:1;"/><text fill="#000000" font-family="sans-serif" font-size="14" lengthAdjust="spacing" textLength="48.5625" x="166.15" y="208.6651">clone()</text></g><!--class Client--><g class="entity" data-entity="Client" data-source-line="9" data-uid="ent0003" id="entity_Client"><rect fill="#F1F1F1" height="48" rx="2.5" ry="2.5" style="stroke:#181818;stroke-width:0.5;" width="72.5303" x="159.93" y="24.83"/><ellipse cx="174.93" cy="40.83" fill="#ADD1B2" rx="11" ry="11" style="stroke:#181818;stroke-width:1;"/><path d="M177.8988,46.4706 Q177.3206,46.7675 176.68,46.9081 Q176.0394,47.0644 175.3363,47.0644 Q172.8363,47.0644 171.5081,45.4237 Q170.1956,43.7675 170.1956,40.6425 Q170.1956,37.5175 171.5081,35.8612 Q172.8363,34.205 175.3363,34.205 Q176.0394,34.205 176.68,34.3612 Q177.3363,34.5175 177.8988,34.8144 L177.8988,37.5331 Q177.2738,36.955 176.68,36.6894 Q176.0863,36.4081 175.4613,36.4081 Q174.1175,36.4081 173.43,37.4862 Q172.7425,38.5487 172.7425,40.6425 Q172.7425,42.7362 173.43,43.8144 Q174.1175,44.8769 175.4613,44.8769 Q176.0863,44.8769 176.68,44.6112 Q177.2738,44.33 177.8988,43.7519 L177.8988,46.4706 Z " fill="#000000"/><text fill="#000000" font-family="sans-serif" font-size="14" lengthAdjust="spacing" textLength="40.5303" x="188.93" y="45.6767">Client</text><line style="stroke:#181818;stroke-width:0.5;" x1="160.93" x2="231.4603" y1="56.83" y2="56.83"/><line style="stroke:#181818;stroke-width:0.5;" x1="160.93" x2="231.4603" y1="64.83" y2="64.83"/></g><!--class ConcretePrototype1--><g class="entity" data-entity="ConcretePrototype1" data-source-line="11" data-uid="ent0004" id="entity_ConcretePrototype1"><rect fill="#F1F1F1" height="64.2969" rx="2.5" ry="2.5" style="stroke:#181818;stroke-width:0.5;" width="172.3828" x="7" y="275.96"/><ellipse cx="22" cy="291.96" fill="#ADD1B2" rx="11" ry="11" style="stroke:#181818;stroke-width:1;"/><path d="M24.9688,297.6006 Q24.3906,297.8975 23.75,298.0381 Q23.1094,298.1944 22.4063,298.1944 Q19.9063,298.1944 18.5781,296.5538 Q17.2656,294.8975 17.2656,291.7725 Q17.2656,288.6475 18.5781,286.9913 Q19.9063,285.335 22.4063,285.335 Q23.1094,285.335 23.75,285.4913 Q24.4063,285.6475 24.9688,285.9444 L24.9688,288.6631 Q24.3438,288.085 23.75,287.8194 Q23.1563,287.5381 22.5313,287.5381 Q21.1875,287.5381 20.5,288.6163 Q19.8125,289.6788 19.8125,291.7725 Q19.8125,293.8663 20.5,294.9444 Q21.1875,296.0069 22.5313,296.0069 Q23.1563,296.0069 23.75,295.7413 Q24.3438,295.46 24.9688,294.8819 L24.9688,297.6006 Z " fill="#000000"/><text fill="#000000" font-family="sans-serif" font-size="14" lengthAdjust="spacing" textLength="140.3828" x="36" y="296.8067">ConcretePrototype1</text><line style="stroke:#181818;stroke-width:0.5;" x1="8" x2="178.3828" y1="307.96" y2="307.96"/><line style="stroke:#181818;stroke-width:0.5;" x1="8" x2="178.3828" y1="315.96" y2="315.96"/><ellipse cx="18" cy="329.6084" fill="#84BE84" rx="3" ry="3" style="stroke:#038048;stroke-width:1;"/><text fill="#000000" font-family="sans-serif" font-size="14" lengthAdjust="spacing" textLength="48.5625" x="27" y="332.9551">clone()</text></g><!--class ConcretePrototype2--><g class="entity" data-entity="ConcretePrototype2" data-source-line="15" data-uid="ent0005" id="entity_ConcretePrototype2"><rect fill="#F1F1F1" height="64.2969" rx="2.5" ry="2.5" style="stroke:#181818;stroke-width:0.5;" width="172.3828" x="214" y="275.96"/><ellipse cx="229" cy="291.96" fill="#ADD1B2" rx="11" ry="11" style="stroke:#181818;stroke-width:1;"/><path d="M231.9688,297.6006 Q231.3906,297.8975 230.75,298.0381 Q230.1094,298.1944 229.4063,298.1944 Q226.9063,298.1944 225.5781,296.5538 Q224.2656,294.8975 224.2656,291.7725 Q224.2656,288.6475 225.5781,286.9913 Q226.9063,285.335 229.4063,285.335 Q230.1094,285.335 230.75,285.4913 Q231.4063,285.6475 231.9688,285.9444 L231.9688,288.6631 Q231.3438,288.085 230.75,287.8194 Q230.1563,287.5381 229.5313,287.5381 Q228.1875,287.5381 227.5,288.6163 Q226.8125,289.6788 226.8125,291.7725 Q226.8125,293.8663 227.5,294.9444 Q228.1875,296.0069 229.5313,296.0069 Q230.1563,296.0069 230.75,295.7413 Q231.3438,295.46 231.9688,294.8819 L231.9688,297.6006 Z " fill="#000000"/><text fill="#000000" font-family="sans-serif" font-size="14" lengthAdjust="spacing" textLength="140.3828" x="243" y="296.8067">ConcretePrototype2</text><line style="stroke:#181818;stroke-width:0.5;" x1="215" x2="385.3828" y1="307.96" y2="307.96"/><line style="stroke:#181818;stroke-width:0.5;" x1="215" x2="385.3828" y1="315.96" y2="315.96"/><ellipse cx="225" cy="329.6084" fill="#84BE84" rx="3" ry="3" style="stroke:#038048;stroke-width:1;"/><text fill="#000000" font-family="sans-serif" font-size="14" lengthAdjust="spacing" textLength="48.5625" x="234" y="332.9551">clone()</text></g><g class="entity" data-entity="N1" data-source-line="24" data-uid="ent0009" id="entity_N1"><path d="M267.37,6 L267.37,91.6641 L587.0082,91.6641 L587.0082,16 L577.0082,6 L267.37,6" fill="#FEFFDD" style="stroke:#181818;stroke-width:0.5;"/><path d="M577.0082,6 L577.0082,16 L587.0082,16 L577.0082,6" fill="#FEFFDD" style="stroke:#181818;stroke-width:1;"/><text fill="#4169E1" font-family="sans-serif" font-size="13" font-weight="bold" lengthAdjust="spacing" textLength="72.8267" x="273.37" y="23.0669">Prototype</text><text fill="#000000" font-family="sans-serif" font-size="13" font-weight="bold" lengthAdjust="spacing" textLength="40.6631" x="273.37" y="38.1997">Type:</text><text fill="#000000" font-family="sans-serif" font-size="13" lengthAdjust="spacing" textLength="66.8662" x="318.1654" y="38.1997">Creational</text><text fill="#000000" font-family="sans-serif" font-size="13" lengthAdjust="spacing" textLength="242.0298" x="273.37" y="53.3325">Specify the kinds of objects to create</text><text fill="#000000" font-family="sans-serif" font-size="13" lengthAdjust="spacing" textLength="221.2539" x="273.37" y="68.4653">using a prototypical instance, and</text><text fill="#000000" font-family="sans-serif" font-size="13" lengthAdjust="spacing" textLength="298.6382" x="273.37" y="83.5981">create new objects by copying this prototype.</text></g><!--link Client to Prototype--><g class="link" data-entity-1="Client" data-entity-2="Prototype" data-source-line="19" data-uid="lnk6" id="link_Client_Prototype"><path codeLine="19" d="M196.19,73.28 C196.19,95.08 196.19,121.17 196.19,145.17" fill="none" id="Client-to-Prototype" style="stroke:#181818;stroke-width:1;"/><polygon fill="#181818" points="196.19,151.17,200.19,142.17,196.19,146.17,192.19,142.17,196.19,151.17" style="stroke:#181818;stroke-width:1;"/></g><!--reverse link Prototype to ConcretePrototype1--><g class="link" data-entity-1="Prototype" data-entity-2="ConcretePrototype1" data-source-line="20" data-uid="lnk7" id="link_Prototype_ConcretePrototype1"><path codeLine="20" d="M162.76,234.15 C162.76,252.42 162.76,257.19 162.76,275.51" fill="none" id="Prototype-backto-ConcretePrototype1" style="stroke:#181818;stroke-width:1;"/><polygon fill="none" points="162.76,216.15,156.76,234.15,168.76,234.15,162.76,216.15" style="stroke:#181818;stroke-width:1;"/></g><!--reverse link Prototype to ConcretePrototype2--><g class="link" data-entity-1="Prototype" data-entity-2="ConcretePrototype2" data-source-line="21" data-uid="lnk8" id="link_Prototype_ConcretePrototype2"><path codeLine="21" d="M230.12,234.15 C230.12,252.42 230.12,257.19 230.12,275.51" fill="none" id="Prototype-backto-ConcretePrototype2" style="stroke:#181818;stroke-width:1;"/><polygon fill="none" points="230.12,216.15,224.12,234.15,236.12,234.15,230.12,216.15" style="stroke:#181818;stroke-width:1;"/></g><!--SRC=[XP31JiCm38RlUGeVGL2cxJXLFT0xGe8NS5Dt3SliAd658k3TQJhMIQY2tEp_-_qxZaV70mOyGOFsU0WoSbkBbm0QaECa4Qk92-KTawQ1O12VSh6cIT1UZ76i53gq1Cz1L6Rfmy3qxi1wORgvDL_6M8ynGkrTJhfKmZQGqcBS_k7ypUxMsFDyA8hgkesvxbL-5iLAwh_4pXWM9S08JzivjMogqkOBxeCaz8z-f6h1oyqiLUMcgIxqwzJVvmRKWL2TCFfPUnd8kYw1zWJJaTi8qe4qRsGrWWhOZDECZj7n0H26do1dqOFZgCYMxW6vdR6p0vZUbpbD0Yj3odRjNLmcq8CXRY5_xXi0]--></g></svg>