<svg xmlns="http://www.w3.org/2000/svg" xmlns:xlink="http://www.w3.org/1999/xlink" contentStyleType="text/css" data-diagram-type="CLASS" height="608px" preserveAspectRatio="none" style="width:891px;height:608px;" version="1.1" viewBox="0 0 891 608" width="891px" zoomAndPan="magnify"><defs/><g><!--cluster equip--><g class="cluster" data-entity="equip" data-source-line="13" data-uid="ent0003" id="cluster_equip"><path d="M89.5,6 L134.8037,6 A3.75,3.75 0 0 1 137.3037,8.5 L144.3037,28.2969 L776.5,28.2969 A2.5,2.5 0 0 1 779,30.7969 L779,86.5 A2.5,2.5 0 0 1 776.5,89 L89.5,89 A2.5,2.5 0 0 1 87,86.5 L87,8.5 A2.5,2.5 0 0 1 89.5,6" fill="none" style="stroke:#000000;stroke-width:1.5;"/><line style="stroke:#000000;stroke-width:1.5;" x1="87" x2="144.3037" y1="28.2969" y2="28.2969"/><text fill="#000000" font-family="sans-serif" font-size="14" font-weight="bold" lengthAdjust="spacing" textLength="44.3037" x="91" y="20.9951">equip</text></g><!--cluster gem--><g class="cluster" data-entity="gem" data-source-line="36" data-uid="ent0011" id="cluster_gem"><path d="M8.5,518.12 L43.6045,518.12 A3.75,3.75 0 0 1 46.1045,520.62 L53.1045,540.4169 L881.5,540.4169 A2.5,2.5 0 0 1 884,542.9169 L884,598.62 A2.5,2.5 0 0 1 881.5,601.12 L8.5,601.12 A2.5,2.5 0 0 1 6,598.62 L6,520.62 A2.5,2.5 0 0 1 8.5,518.12" fill="none" style="stroke:#000000;stroke-width:1.5;"/><line style="stroke:#000000;stroke-width:1.5;" x1="6" x2="53.1045" y1="540.4169" y2="540.4169"/><text fill="#000000" font-family="sans-serif" font-size="14" font-weight="bold" lengthAdjust="spacing" textLength="34.1045" x="10" y="533.1151">gem</text></g><!--class Weapon--><g class="entity" data-entity="Weapon" data-source-line="14" data-uid="ent0004" id="entity_Weapon"><rect fill="#F1F1F1" height="32" rx="2.5" ry="2.5" style="stroke:#181818;stroke-width:0.5;" width="100.5615" x="102.72" y="41"/><ellipse cx="117.72" cy="57" fill="#ADD1B2" rx="11" ry="11" style="stroke:#181818;stroke-width:1;"/><path d="M120.6888,62.6406 Q120.1106,62.9375 119.47,63.0781 Q118.8294,63.2344 118.1263,63.2344 Q115.6263,63.2344 114.2981,61.5938 Q112.9856,59.9375 112.9856,56.8125 Q112.9856,53.6875 114.2981,52.0313 Q115.6263,50.375 118.1263,50.375 Q118.8294,50.375 119.47,50.5313 Q120.1263,50.6875 120.6888,50.9844 L120.6888,53.7031 Q120.0638,53.125 119.47,52.8594 Q118.8763,52.5781 118.2513,52.5781 Q116.9075,52.5781 116.22,53.6563 Q115.5325,54.7188 115.5325,56.8125 Q115.5325,58.9063 116.22,59.9844 Q116.9075,61.0469 118.2513,61.0469 Q118.8763,61.0469 119.47,60.7813 Q120.0638,60.5 120.6888,59.9219 L120.6888,62.6406 Z " fill="#000000"/><text fill="#000000" font-family="sans-serif" font-size="14" lengthAdjust="spacing" textLength="57.3604" x="131.72" y="61.8467">Weapon</text><rect fill="#FFFFFF" height="15.9688" style="stroke:#181818;stroke-width:1;stroke-dasharray:2,2;" width="9.2012" x="197.0804" y="38"/><text fill="#000000" font-family="sans-serif" font-size="12" font-style="italic" lengthAdjust="spacing" textLength="7.2012" x="198.0804" y="50.1387">&#128481;</text></g><!--class Cap--><g class="entity" data-entity="Cap" data-source-line="16" data-uid="ent0005" id="entity_Cap"><rect fill="#F1F1F1" height="32" rx="2.5" ry="2.5" style="stroke:#181818;stroke-width:0.5;" width="70.4424" x="238.78" y="41"/><ellipse cx="253.78" cy="57" fill="#ADD1B2" rx="11" ry="11" style="stroke:#181818;stroke-width:1;"/><path d="M256.7488,62.6406 Q256.1706,62.9375 255.53,63.0781 Q254.8894,63.2344 254.1863,63.2344 Q251.6863,63.2344 250.3581,61.5938 Q249.0456,59.9375 249.0456,56.8125 Q249.0456,53.6875 250.3581,52.0313 Q251.6863,50.375 254.1863,50.375 Q254.8894,50.375 255.53,50.5313 Q256.1863,50.6875 256.7488,50.9844 L256.7488,53.7031 Q256.1238,53.125 255.53,52.8594 Q254.9363,52.5781 254.3113,52.5781 Q252.9675,52.5781 252.28,53.6563 Q251.5925,54.7188 251.5925,56.8125 Q251.5925,58.9063 252.28,59.9844 Q252.9675,61.0469 254.3113,61.0469 Q254.9363,61.0469 255.53,60.7813 Q256.1238,60.5 256.7488,59.9219 L256.7488,62.6406 Z " fill="#000000"/><text fill="#000000" font-family="sans-serif" font-size="14" lengthAdjust="spacing" textLength="27.2412" x="267.78" y="61.8467">Cap</text><rect fill="#FFFFFF" height="15.9688" style="stroke:#181818;stroke-width:1;stroke-dasharray:2,2;" width="9.2012" x="303.0212" y="38"/><text fill="#000000" font-family="sans-serif" font-size="12" font-style="italic" lengthAdjust="spacing" textLength="7.2012" x="304.0212" y="50.1387">&#129506;</text></g><!--class Coat--><g class="entity" data-entity="Coat" data-source-line="18" data-uid="ent0006" id="entity_Coat"><rect fill="#F1F1F1" height="32" rx="2.5" ry="2.5" style="stroke:#181818;stroke-width:0.5;" width="75.6104" x="344.19" y="41"/><ellipse cx="359.19" cy="57" fill="#ADD1B2" rx="11" ry="11" style="stroke:#181818;stroke-width:1;"/><path d="M362.1588,62.6406 Q361.5806,62.9375 360.94,63.0781 Q360.2994,63.2344 359.5963,63.2344 Q357.0963,63.2344 355.7681,61.5938 Q354.4556,59.9375 354.4556,56.8125 Q354.4556,53.6875 355.7681,52.0313 Q357.0963,50.375 359.5963,50.375 Q360.2994,50.375 360.94,50.5313 Q361.5963,50.6875 362.1588,50.9844 L362.1588,53.7031 Q361.5338,53.125 360.94,52.8594 Q360.3463,52.5781 359.7213,52.5781 Q358.3775,52.5781 357.69,53.6563 Q357.0025,54.7188 357.0025,56.8125 Q357.0025,58.9063 357.69,59.9844 Q358.3775,61.0469 359.7213,61.0469 Q360.3463,61.0469 360.94,60.7813 Q361.5338,60.5 362.1588,59.9219 L362.1588,62.6406 Z " fill="#000000"/><text fill="#000000" font-family="sans-serif" font-size="14" lengthAdjust="spacing" textLength="32.4092" x="373.19" y="61.8467">Coat</text><rect fill="#FFFFFF" height="15.9688" style="stroke:#181818;stroke-width:1;stroke-dasharray:2,2;" width="9.2012" x="413.5992" y="38"/><text fill="#000000" font-family="sans-serif" font-size="12" font-style="italic" lengthAdjust="spacing" textLength="7.2012" x="414.5992" y="50.1387">&#128084;</text></g><!--class Neck--><g class="entity" data-entity="Neck" data-source-line="20" data-uid="ent0007" id="entity_Neck"><rect fill="#F1F1F1" height="32" rx="2.5" ry="2.5" style="stroke:#181818;stroke-width:0.5;" width="78.0918" x="454.95" y="41"/><ellipse cx="469.95" cy="57" fill="#ADD1B2" rx="11" ry="11" style="stroke:#181818;stroke-width:1;"/><path d="M472.9188,62.6406 Q472.3406,62.9375 471.7,63.0781 Q471.0594,63.2344 470.3563,63.2344 Q467.8563,63.2344 466.5281,61.5938 Q465.2156,59.9375 465.2156,56.8125 Q465.2156,53.6875 466.5281,52.0313 Q467.8563,50.375 470.3563,50.375 Q471.0594,50.375 471.7,50.5313 Q472.3563,50.6875 472.9188,50.9844 L472.9188,53.7031 Q472.2938,53.125 471.7,52.8594 Q471.1063,52.5781 470.4813,52.5781 Q469.1375,52.5781 468.45,53.6563 Q467.7625,54.7188 467.7625,56.8125 Q467.7625,58.9063 468.45,59.9844 Q469.1375,61.0469 470.4813,61.0469 Q471.1063,61.0469 471.7,60.7813 Q472.2938,60.5 472.9188,59.9219 L472.9188,62.6406 Z " fill="#000000"/><text fill="#000000" font-family="sans-serif" font-size="14" lengthAdjust="spacing" textLength="34.8906" x="483.95" y="61.8467">Neck</text><rect fill="#FFFFFF" height="15.9688" style="stroke:#181818;stroke-width:1;stroke-dasharray:2,2;" width="9.2012" x="526.8406" y="38"/><text fill="#000000" font-family="sans-serif" font-size="12" font-style="italic" lengthAdjust="spacing" textLength="7.2012" x="527.8406" y="50.1387">&#129509;</text></g><!--class Pants--><g class="entity" data-entity="Pants" data-source-line="22" data-uid="ent0008" id="entity_Pants"><rect fill="#F1F1F1" height="32" rx="2.5" ry="2.5" style="stroke:#181818;stroke-width:0.5;" width="81.8789" x="568.06" y="41"/><ellipse cx="583.06" cy="57" fill="#ADD1B2" rx="11" ry="11" style="stroke:#181818;stroke-width:1;"/><path d="M586.0288,62.6406 Q585.4506,62.9375 584.81,63.0781 Q584.1694,63.2344 583.4663,63.2344 Q580.9663,63.2344 579.6381,61.5938 Q578.3256,59.9375 578.3256,56.8125 Q578.3256,53.6875 579.6381,52.0313 Q580.9663,50.375 583.4663,50.375 Q584.1694,50.375 584.81,50.5313 Q585.4663,50.6875 586.0288,50.9844 L586.0288,53.7031 Q585.4038,53.125 584.81,52.8594 Q584.2163,52.5781 583.5913,52.5781 Q582.2475,52.5781 581.56,53.6563 Q580.8725,54.7188 580.8725,56.8125 Q580.8725,58.9063 581.56,59.9844 Q582.2475,61.0469 583.5913,61.0469 Q584.2163,61.0469 584.81,60.7813 Q585.4038,60.5 586.0288,59.9219 L586.0288,62.6406 Z " fill="#000000"/><text fill="#000000" font-family="sans-serif" font-size="14" lengthAdjust="spacing" textLength="38.6777" x="597.06" y="61.8467">Pants</text><rect fill="#FFFFFF" height="15.9688" style="stroke:#181818;stroke-width:1;stroke-dasharray:2,2;" width="9.2012" x="643.7377" y="38"/><text fill="#000000" font-family="sans-serif" font-size="12" font-style="italic" lengthAdjust="spacing" textLength="7.2012" x="644.7377" y="50.1387">&#128086;</text></g><!--class Shoe--><g class="entity" data-entity="Shoe" data-source-line="24" data-uid="ent0009" id="entity_Shoe"><rect fill="#F1F1F1" height="32" rx="2.5" ry="2.5" style="stroke:#181818;stroke-width:0.5;" width="78.1396" x="684.93" y="41"/><ellipse cx="699.93" cy="57" fill="#ADD1B2" rx="11" ry="11" style="stroke:#181818;stroke-width:1;"/><path d="M702.8988,62.6406 Q702.3206,62.9375 701.68,63.0781 Q701.0394,63.2344 700.3363,63.2344 Q697.8363,63.2344 696.5081,61.5938 Q695.1956,59.9375 695.1956,56.8125 Q695.1956,53.6875 696.5081,52.0313 Q697.8363,50.375 700.3363,50.375 Q701.0394,50.375 701.68,50.5313 Q702.3363,50.6875 702.8988,50.9844 L702.8988,53.7031 Q702.2738,53.125 701.68,52.8594 Q701.0863,52.5781 700.4613,52.5781 Q699.1175,52.5781 698.43,53.6563 Q697.7425,54.7188 697.7425,56.8125 Q697.7425,58.9063 698.43,59.9844 Q699.1175,61.0469 700.4613,61.0469 Q701.0863,61.0469 701.68,60.7813 Q702.2738,60.5 702.8988,59.9219 L702.8988,62.6406 Z " fill="#000000"/><text fill="#000000" font-family="sans-serif" font-size="14" lengthAdjust="spacing" textLength="34.9385" x="713.93" y="61.8467">Shoe</text><rect fill="#FFFFFF" height="15.9688" style="stroke:#181818;stroke-width:1;stroke-dasharray:2,2;" width="9.2012" x="756.8685" y="38"/><text fill="#000000" font-family="sans-serif" font-size="12" font-style="italic" lengthAdjust="spacing" textLength="7.2012" x="757.8685" y="50.1387">&#128098;</text></g><!--class RedGem--><g class="entity" data-entity="RedGem" data-source-line="37" data-uid="ent0012" id="entity_RedGem"><rect fill="#F1F1F1" height="32" rx="2.5" ry="2.5" style="stroke:#181818;stroke-width:0.5;" width="135.4736" x="22.26" y="553.12"/><ellipse cx="37.26" cy="569.12" fill="#ADD1B2" rx="11" ry="11" style="stroke:#181818;stroke-width:1;"/><path d="M40.2288,574.7606 Q39.6506,575.0575 39.01,575.1981 Q38.3694,575.3544 37.6663,575.3544 Q35.1663,575.3544 33.8381,573.7138 Q32.5256,572.0575 32.5256,568.9325 Q32.5256,565.8075 33.8381,564.1513 Q35.1663,562.495 37.6663,562.495 Q38.3694,562.495 39.01,562.6513 Q39.6663,562.8075 40.2288,563.1044 L40.2288,565.8231 Q39.6038,565.245 39.01,564.9794 Q38.4163,564.6981 37.7913,564.6981 Q36.4475,564.6981 35.76,565.7763 Q35.0725,566.8388 35.0725,568.9325 Q35.0725,571.0263 35.76,572.1044 Q36.4475,573.1669 37.7913,573.1669 Q38.4163,573.1669 39.01,572.9013 Q39.6038,572.62 40.2288,572.0419 L40.2288,574.7606 Z " fill="#000000"/><text fill="#000000" font-family="sans-serif" font-size="14" lengthAdjust="spacing" textLength="60.3271" x="51.26" y="573.9667">RedGem</text><rect fill="#FFFFFF" height="15.9688" style="stroke:#181818;stroke-width:1;stroke-dasharray:2,2;" width="41.1465" x="119.5871" y="550.12"/><text fill="#000000" font-family="sans-serif" font-size="12" font-style="italic" lengthAdjust="spacing" textLength="39.1465" x="120.5871" y="562.2587">&#10084;&#65039;,hp+</text></g><!--class BlueGem--><g class="entity" data-entity="BlueGem" data-source-line="39" data-uid="ent0013" id="entity_BlueGem"><rect fill="#F1F1F1" height="32" rx="2.5" ry="2.5" style="stroke:#181818;stroke-width:0.5;" width="136.373" x="192.81" y="553.12"/><ellipse cx="207.81" cy="569.12" fill="#ADD1B2" rx="11" ry="11" style="stroke:#181818;stroke-width:1;"/><path d="M210.7788,574.7606 Q210.2006,575.0575 209.56,575.1981 Q208.9194,575.3544 208.2163,575.3544 Q205.7163,575.3544 204.3881,573.7138 Q203.0756,572.0575 203.0756,568.9325 Q203.0756,565.8075 204.3881,564.1513 Q205.7163,562.495 208.2163,562.495 Q208.9194,562.495 209.56,562.6513 Q210.2163,562.8075 210.7788,563.1044 L210.7788,565.8231 Q210.1538,565.245 209.56,564.9794 Q208.9663,564.6981 208.3413,564.6981 Q206.9975,564.6981 206.31,565.7763 Q205.6225,566.8388 205.6225,568.9325 Q205.6225,571.0263 206.31,572.1044 Q206.9975,573.1669 208.3413,573.1669 Q208.9663,573.1669 209.56,572.9013 Q210.1538,572.62 210.7788,572.0419 L210.7788,574.7606 Z " fill="#000000"/><text fill="#000000" font-family="sans-serif" font-size="14" lengthAdjust="spacing" textLength="64.0801" x="221.81" y="573.9667">BlueGem</text><rect fill="#FFFFFF" height="15.9688" style="stroke:#181818;stroke-width:1;stroke-dasharray:2,2;" width="38.293" x="293.8901" y="550.12"/><text fill="#000000" font-family="sans-serif" font-size="12" font-style="italic" lengthAdjust="spacing" textLength="36.293" x="294.8901" y="562.2587">&#128153;,hp+</text></g><!--class GreenGem--><g class="entity" data-entity="GreenGem" data-source-line="41" data-uid="ent0014" id="entity_GreenGem"><rect fill="#F1F1F1" height="32" rx="2.5" ry="2.5" style="stroke:#181818;stroke-width:0.5;" width="146.7432" x="364.63" y="553.12"/><ellipse cx="379.63" cy="569.12" fill="#ADD1B2" rx="11" ry="11" style="stroke:#181818;stroke-width:1;"/><path d="M382.5988,574.7606 Q382.0206,575.0575 381.38,575.1981 Q380.7394,575.3544 380.0363,575.3544 Q377.5363,575.3544 376.2081,573.7138 Q374.8956,572.0575 374.8956,568.9325 Q374.8956,565.8075 376.2081,564.1513 Q377.5363,562.495 380.0363,562.495 Q380.7394,562.495 381.38,562.6513 Q382.0363,562.8075 382.5988,563.1044 L382.5988,565.8231 Q381.9738,565.245 381.38,564.9794 Q380.7863,564.6981 380.1613,564.6981 Q378.8175,564.6981 378.13,565.7763 Q377.4425,566.8388 377.4425,568.9325 Q377.4425,571.0263 378.13,572.1044 Q378.8175,573.1669 380.1613,573.1669 Q380.7863,573.1669 381.38,572.9013 Q381.9738,572.62 382.5988,572.0419 L382.5988,574.7606 Z " fill="#000000"/><text fill="#000000" font-family="sans-serif" font-size="14" lengthAdjust="spacing" textLength="75.8037" x="393.63" y="573.9667">GreenGem</text><rect fill="#FFFFFF" height="15.9688" style="stroke:#181818;stroke-width:1;stroke-dasharray:2,2;" width="36.9395" x="477.4337" y="550.12"/><text fill="#000000" font-family="sans-serif" font-size="12" font-style="italic" lengthAdjust="spacing" textLength="34.9395" x="478.4337" y="562.2587">&#128154;,sp+</text></g><!--class CyanGem--><g class="entity" data-entity="CyanGem" data-source-line="43" data-uid="ent0015" id="entity_CyanGem"><rect fill="#F1F1F1" height="32" rx="2.5" ry="2.5" style="stroke:#181818;stroke-width:0.5;" width="137.5244" x="546.24" y="553.12"/><ellipse cx="561.24" cy="569.12" fill="#ADD1B2" rx="11" ry="11" style="stroke:#181818;stroke-width:1;"/><path d="M564.2088,574.7606 Q563.6306,575.0575 562.99,575.1981 Q562.3494,575.3544 561.6463,575.3544 Q559.1463,575.3544 557.8181,573.7138 Q556.5056,572.0575 556.5056,568.9325 Q556.5056,565.8075 557.8181,564.1513 Q559.1463,562.495 561.6463,562.495 Q562.3494,562.495 562.99,562.6513 Q563.6463,562.8075 564.2088,563.1044 L564.2088,565.8231 Q563.5838,565.245 562.99,564.9794 Q562.3963,564.6981 561.7713,564.6981 Q560.4275,564.6981 559.74,565.7763 Q559.0525,566.8388 559.0525,568.9325 Q559.0525,571.0263 559.74,572.1044 Q560.4275,573.1669 561.7713,573.1669 Q562.3963,573.1669 562.99,572.9013 Q563.5838,572.62 564.2088,572.0419 L564.2088,574.7606 Z " fill="#000000"/><text fill="#000000" font-family="sans-serif" font-size="14" lengthAdjust="spacing" textLength="68.6123" x="575.24" y="573.9667">CyanGem</text><rect fill="#FFFFFF" height="15.9688" style="stroke:#181818;stroke-width:1;stroke-dasharray:2,2;" width="34.9121" x="651.8523" y="550.12"/><text fill="#000000" font-family="sans-serif" font-size="12" font-style="italic" lengthAdjust="spacing" textLength="32.9121" x="652.8523" y="562.2587">&#128156;,df+</text></g><!--class YellowGem--><g class="entity" data-entity="YellowGem" data-source-line="45" data-uid="ent0016" id="entity_YellowGem"><rect fill="#F1F1F1" height="32" rx="2.5" ry="2.5" style="stroke:#181818;stroke-width:0.5;" width="149.4326" x="718.28" y="553.12"/><ellipse cx="733.28" cy="569.12" fill="#ADD1B2" rx="11" ry="11" style="stroke:#181818;stroke-width:1;"/><path d="M736.2488,574.7606 Q735.6706,575.0575 735.03,575.1981 Q734.3894,575.3544 733.6863,575.3544 Q731.1863,575.3544 729.8581,573.7138 Q728.5456,572.0575 728.5456,568.9325 Q728.5456,565.8075 729.8581,564.1513 Q731.1863,562.495 733.6863,562.495 Q734.3894,562.495 735.03,562.6513 Q735.6863,562.8075 736.2488,563.1044 L736.2488,565.8231 Q735.6238,565.245 735.03,564.9794 Q734.4363,564.6981 733.8113,564.6981 Q732.4675,564.6981 731.78,565.7763 Q731.0925,566.8388 731.0925,568.9325 Q731.0925,571.0263 731.78,572.1044 Q732.4675,573.1669 733.8113,573.1669 Q734.4363,573.1669 735.03,572.9013 Q735.6238,572.62 736.2488,572.0419 L736.2488,574.7606 Z " fill="#000000"/><text fill="#000000" font-family="sans-serif" font-size="14" lengthAdjust="spacing" textLength="78.0596" x="747.28" y="573.9667">YellowGem</text><rect fill="#FFFFFF" height="15.9688" style="stroke:#181818;stroke-width:1;stroke-dasharray:2,2;" width="37.373" x="833.3396" y="550.12"/><text fill="#000000" font-family="sans-serif" font-size="12" font-style="italic" lengthAdjust="spacing" textLength="35.373" x="834.3396" y="562.2587">&#128155;,ak+</text></g><!--class Equip--><g class="entity" data-entity="Equip" data-source-line="5" data-uid="ent0002" id="entity_Equip"><rect fill="#F1F1F1" height="146.0469" rx="2.5" ry="2.5" style="stroke:#181818;stroke-width:0.5;" width="165.7129" x="355.14" y="133"/><ellipse cx="401.6449" cy="153.1328" fill="#B4A7E5" rx="11" ry="11" style="stroke:#181818;stroke-width:1;"/><path d="M397.5668,148.8984 L397.5668,146.7422 L404.9574,146.7422 L404.9574,148.8984 L402.4886,148.8984 L402.4886,156.9766 L404.9574,156.9766 L404.9574,159.1328 L397.5668,159.1328 L397.5668,156.9766 L400.0355,156.9766 L400.0355,148.8984 L397.5668,148.8984 Z " fill="#000000"/><text fill="#000000" font-family="sans-serif" font-size="12" font-style="italic" lengthAdjust="spacing" textLength="68.2031" x="420.1449" y="149.1387">&#171;interface&#187;</text><text fill="#000000" font-family="sans-serif" font-size="14" font-style="italic" lengthAdjust="spacing" textLength="39.3818" x="434.5555" y="164.9639">Equip</text><line style="stroke:#181818;stroke-width:0.5;" x1="356.14" x2="519.8529" y1="173.2656" y2="173.2656"/><ellipse cx="366.14" cy="186.9141" fill="#84BE84" rx="3" ry="3" style="stroke:#038048;stroke-width:1;"/><text fill="#000000" font-family="sans-serif" font-size="14" lengthAdjust="spacing" textLength="82.2842" x="375.14" y="190.2607">attack(): int</text><ellipse cx="366.14" cy="203.2109" fill="#84BE84" rx="3" ry="3" style="stroke:#038048;stroke-width:1;"/><text fill="#000000" font-family="sans-serif" font-size="14" lengthAdjust="spacing" textLength="80.6367" x="375.14" y="206.5576">speed(): int</text><ellipse cx="366.14" cy="219.5078" fill="#84BE84" rx="3" ry="3" style="stroke:#038048;stroke-width:1;"/><text fill="#000000" font-family="sans-serif" font-size="14" lengthAdjust="spacing" textLength="94.165" x="375.14" y="222.8545">defense(): int</text><ellipse cx="366.14" cy="235.8047" fill="#84BE84" rx="3" ry="3" style="stroke:#038048;stroke-width:1;"/><text fill="#000000" font-family="sans-serif" font-size="14" lengthAdjust="spacing" textLength="56.1025" x="375.14" y="239.1514">hp(): int</text><ellipse cx="366.14" cy="252.1016" fill="#84BE84" rx="3" ry="3" style="stroke:#038048;stroke-width:1;"/><text fill="#000000" font-family="sans-serif" font-size="14" lengthAdjust="spacing" textLength="60.8672" x="375.14" y="255.4482">mp(): int</text><ellipse cx="366.14" cy="268.3984" fill="#84BE84" rx="3" ry="3" style="stroke:#038048;stroke-width:1;"/><text fill="#000000" font-family="sans-serif" font-size="14" lengthAdjust="spacing" textLength="139.7129" x="375.14" y="271.7451">description(): String</text></g><!--class EquipDecorator--><g class="entity" data-entity="EquipDecorator" data-source-line="27" data-uid="ent0010" id="entity_EquipDecorator"><rect fill="#F1F1F1" height="154.0781" rx="2.5" ry="2.5" style="stroke:#181818;stroke-width:0.5;" width="190.2061" x="342.9" y="339.04"/><ellipse cx="379.9601" cy="355.04" fill="#ADD1B2" rx="11" ry="11" style="stroke:#181818;stroke-width:1;"/><path d="M382.9289,360.6806 Q382.3507,360.9775 381.7101,361.1181 Q381.0695,361.2744 380.3664,361.2744 Q377.8664,361.2744 376.5382,359.6338 Q375.2257,357.9775 375.2257,354.8525 Q375.2257,351.7275 376.5382,350.0713 Q377.8664,348.415 380.3664,348.415 Q381.0695,348.415 381.7101,348.5713 Q382.3664,348.7275 382.9289,349.0244 L382.9289,351.7431 Q382.3039,351.165 381.7101,350.8994 Q381.1164,350.6181 380.4914,350.6181 Q379.1476,350.6181 378.4601,351.6963 Q377.7726,352.7588 377.7726,354.8525 Q377.7726,356.9463 378.4601,358.0244 Q379.1476,359.0869 380.4914,359.0869 Q381.1164,359.0869 381.7101,358.8213 Q382.3039,358.54 382.9289,357.9619 L382.9289,360.6806 Z " fill="#000000"/><text fill="#000000" font-family="sans-serif" font-size="14" lengthAdjust="spacing" textLength="109.1836" x="398.8624" y="359.8867">EquipDecorator</text><line style="stroke:#181818;stroke-width:0.5;" x1="343.9" x2="532.1061" y1="371.04" y2="371.04"/><polygon fill="#FFFF44" points="353.9,379.6884,357.9,383.6884,353.9,387.6884,349.9,383.6884" style="stroke:#B38D22;stroke-width:1;"/><text fill="#000000" font-family="sans-serif" font-size="14" lengthAdjust="spacing" textLength="164.2061" x="362.9" y="388.0351">EquipDecorator(Equip):</text><ellipse cx="353.9" cy="400.9853" fill="#84BE84" rx="3" ry="3" style="stroke:#038048;stroke-width:1;"/><text fill="#000000" font-family="sans-serif" font-size="14" lengthAdjust="spacing" textLength="56.1025" x="362.9" y="404.332">hp(): int</text><ellipse cx="353.9" cy="417.2822" fill="#84BE84" rx="3" ry="3" style="stroke:#038048;stroke-width:1;"/><text fill="#000000" font-family="sans-serif" font-size="14" lengthAdjust="spacing" textLength="139.7129" x="362.9" y="420.6289">description(): String</text><ellipse cx="353.9" cy="433.5791" fill="#84BE84" rx="3" ry="3" style="stroke:#038048;stroke-width:1;"/><text fill="#000000" font-family="sans-serif" font-size="14" lengthAdjust="spacing" textLength="60.8672" x="362.9" y="436.9257">mp(): int</text><ellipse cx="353.9" cy="449.8759" fill="#84BE84" rx="3" ry="3" style="stroke:#038048;stroke-width:1;"/><text fill="#000000" font-family="sans-serif" font-size="14" lengthAdjust="spacing" textLength="80.6367" x="362.9" y="453.2226">speed(): int</text><ellipse cx="353.9" cy="466.1728" fill="#84BE84" rx="3" ry="3" style="stroke:#038048;stroke-width:1;"/><text fill="#000000" font-family="sans-serif" font-size="14" lengthAdjust="spacing" textLength="94.165" x="362.9" y="469.5195">defense(): int</text><ellipse cx="353.9" cy="482.4697" fill="#84BE84" rx="3" ry="3" style="stroke:#038048;stroke-width:1;"/><text fill="#000000" font-family="sans-serif" font-size="14" lengthAdjust="spacing" textLength="82.2842" x="362.9" y="485.8164">attack(): int</text></g><!--link Cap to Equip--><g class="link" data-entity-1="Cap" data-entity-2="Equip" data-source-line="52" data-uid="lnk17" id="link_Cap_Equip"><path codeLine="52" d="M274,73.35 C274,107.27 274,182.12 274,182.12 C274,182.12 296.36,182.12 337.04,182.12" fill="none" id="Cap-to-Equip" style="stroke:#008200;stroke-width:1;stroke-dasharray:7,7;"/><polygon fill="none" points="355.04,182.12,337.04,176.12,337.04,188.12,355.04,182.12" style="stroke:#008200;stroke-width:1;"/></g><!--link Coat to Equip--><g class="link" data-entity-1="Coat" data-entity-2="Equip" data-source-line="53" data-uid="lnk18" id="link_Coat_Equip"><path codeLine="53" d="M387.47,73.23 C387.47,87.79 387.47,92.24 387.47,114.56" fill="none" id="Coat-to-Equip" style="stroke:#008200;stroke-width:1;stroke-dasharray:7,7;"/><polygon fill="none" points="387.47,132.56,393.47,114.56,381.47,114.56,387.47,132.56" style="stroke:#008200;stroke-width:1;"/></g><!--link Neck to Equip--><g class="link" data-entity-1="Neck" data-entity-2="Equip" data-source-line="54" data-uid="lnk19" id="link_Neck_Equip"><path codeLine="54" d="M487.91,73.23 C487.91,87.79 487.91,92.24 487.91,114.56" fill="none" id="Neck-to-Equip" style="stroke:#008200;stroke-width:1;stroke-dasharray:7,7;"/><polygon fill="none" points="487.91,132.56,493.91,114.56,481.91,114.56,487.91,132.56" style="stroke:#008200;stroke-width:1;"/></g><!--link Pants to Equip--><g class="link" data-entity-1="Pants" data-entity-2="Equip" data-source-line="55" data-uid="lnk20" id="link_Pants_Equip"><path codeLine="55" d="M609,73.35 C609,107.27 609,182.12 609,182.12 C609,182.12 582.73,182.12 539.25,182.12" fill="none" id="Pants-to-Equip" style="stroke:#008200;stroke-width:1;stroke-dasharray:7,7;"/><polygon fill="none" points="521.25,182.12,539.25,188.12,539.25,176.12,521.25,182.12" style="stroke:#008200;stroke-width:1;"/></g><!--link Shoe to Equip--><g class="link" data-entity-1="Shoe" data-entity-2="Equip" data-source-line="56" data-uid="lnk21" id="link_Shoe_Equip"><path codeLine="56" d="M701.61,73.38 C701.61,116.72 701.61,231.12 701.61,231.12 C701.61,231.12 616.31,231.12 539.05,231.12" fill="none" id="Shoe-to-Equip" style="stroke:#008200;stroke-width:1;stroke-dasharray:7,7;"/><polygon fill="none" points="521.05,231.12,539.05,237.12,539.05,225.12,521.05,231.12" style="stroke:#008200;stroke-width:1;"/></g><!--link Weapon to Equip--><g class="link" data-entity-1="Weapon" data-entity-2="Equip" data-source-line="57" data-uid="lnk22" id="link_Weapon_Equip"><path codeLine="57" d="M198.05,73.38 C198.05,116.72 198.05,231.12 198.05,231.12 C198.05,231.12 267.45,231.12 336.75,231.12" fill="none" id="Weapon-to-Equip" style="stroke:#008200;stroke-width:1;stroke-dasharray:7,7;"/><polygon fill="none" points="354.75,231.12,336.75,225.12,336.75,237.12,354.75,231.12" style="stroke:#008200;stroke-width:1;"/></g><!--reverse link Equip to EquipDecorator--><g class="link" data-entity-1="Equip" data-entity-2="EquipDecorator" data-source-line="58" data-uid="lnk24" id="link_Equip_EquipDecorator"><path codeLine="58" d="M438,297.49 C438,316.65 438,319.37 438,338.73" fill="none" id="Equip-backto-EquipDecorator" style="stroke:#008200;stroke-width:1;stroke-dasharray:7,7;"/><polygon fill="none" points="438,279.49,432,297.49,444,297.49,438,279.49" style="stroke:#008200;stroke-width:1;"/></g><!--reverse link EquipDecorator to BlueGem--><g class="link" data-entity-1="EquipDecorator" data-entity-2="BlueGem" data-source-line="59" data-uid="lnk26" id="link_EquipDecorator_BlueGem"><path codeLine="59" d="M353.76,511.55 C353.76,549.91 353.76,570.12 353.76,570.12 C353.76,570.12 343.29,570.12 329.39,570.12" fill="none" id="EquipDecorator-backto-BlueGem" style="stroke:#000082;stroke-width:1;"/><polygon fill="none" points="353.76,493.55,347.76,511.55,359.76,511.55,353.76,493.55" style="stroke:#000082;stroke-width:1;"/></g><!--reverse link EquipDecorator to CyanGem--><g class="link" data-entity-1="EquipDecorator" data-entity-2="CyanGem" data-source-line="60" data-uid="lnk28" id="link_EquipDecorator_CyanGem"><path codeLine="60" d="M522.24,511.55 C522.24,549.91 522.24,570.12 522.24,570.12 C522.24,570.12 532.46,570.12 546.13,570.12" fill="none" id="EquipDecorator-backto-CyanGem" style="stroke:#000082;stroke-width:1;"/><polygon fill="none" points="522.24,493.55,516.24,511.55,528.24,511.55,522.24,493.55" style="stroke:#000082;stroke-width:1;"/></g><!--reverse link EquipDecorator to GreenGem--><g class="link" data-entity-1="EquipDecorator" data-entity-2="GreenGem" data-source-line="61" data-uid="lnk30" id="link_EquipDecorator_GreenGem"><path codeLine="61" d="M438,511.5 C438,533.89 438,538.17 438,552.69" fill="none" id="EquipDecorator-backto-GreenGem" style="stroke:#000082;stroke-width:1;"/><polygon fill="none" points="438,493.5,432,511.5,444,511.5,438,493.5" style="stroke:#000082;stroke-width:1;"/></g><!--reverse link EquipDecorator to RedGem--><g class="link" data-entity-1="EquipDecorator" data-entity-2="RedGem" data-source-line="62" data-uid="lnk32" id="link_EquipDecorator_RedGem"><path codeLine="62" d="M324.73,416.12 C234.34,416.12 130.23,416.12 130.23,416.12 C130.23,416.12 130.23,513.28 130.23,552.75" fill="none" id="EquipDecorator-backto-RedGem" style="stroke:#000082;stroke-width:1;"/><polygon fill="none" points="342.73,416.12,324.73,410.12,324.73,422.12,342.73,416.12" style="stroke:#000082;stroke-width:1;"/></g><!--reverse link EquipDecorator to YellowGem--><g class="link" data-entity-1="EquipDecorator" data-entity-2="YellowGem" data-source-line="63" data-uid="lnk34" id="link_EquipDecorator_YellowGem"><path codeLine="63" d="M551.35,416.12 C640.07,416.12 740.68,416.12 740.68,416.12 C740.68,416.12 740.68,513.28 740.68,552.75" fill="none" id="EquipDecorator-backto-YellowGem" style="stroke:#000082;stroke-width:1;"/><polygon fill="none" points="533.35,416.12,551.35,422.12,551.35,410.12,533.35,416.12" style="stroke:#000082;stroke-width:1;"/></g><!--SRC=[hLFTIYCn5BxFKmIyKJf2yKgMuiLMyKv4BsIHNJXEJZkXCqbCKaeHdq6KPHT_5b4KNy7dyGNq4Kp6cJPJPqNiv2xVT_XopfVlc04N2ZHaz03YGL_BeM1TcKfDhGPX78N24ZEfIhb0ErP8bKp7_bB7IMqJIGWN5dKFOgGRXqEkQAT3fz3Q6ZqYbBOeMEjUNbpwviaSCGgHXG337Wg38PIey9QfQhc9DLUMI-7XNQkvw9DZejmxq4UAUJT794x16Bg7eAJel5p_lV4j7HTm5vJ37cuhc0JhmDFV8RY5yS1NteVWDWXhVEcV4DrD97gm42tXt9rrZAK6wuptjYpCW8lvrGrJCtpzkEzj-OojrS-OMjR7R6BO3h9Dp3fF_-wU7q-YHBN24R-dG_Jio_NP-IotgH55GLv4fafsnr1oLn7hLRWVcAPoLB2N4GnQfO49PqWpp0vG6s8IEIgYbg5B80kXgRybHzmNqzgplB_GRg-kjDiH0vCW-ydaI2p_eeNu-qDyCXgIydbgI2fFOJDIFheDTVMsS8r8pVpi1r93zQ5G4Tl_zEIb8fK25w5EpRkaIF7SEkMgpAlpjgjqxduc6_WLdLS0]--></g></svg>