<svg xmlns="http://www.w3.org/2000/svg" xmlns:xlink="http://www.w3.org/1999/xlink" contentStyleType="text/css" data-diagram-type="CLASS" height="331px" preserveAspectRatio="none" style="width:554px;height:331px;" version="1.1" viewBox="0 0 554 331" width="554px" zoomAndPan="magnify"><defs/><g><!--class Client--><g class="entity" data-entity="Client" data-source-line="5" data-uid="ent0002" id="entity_Client"><rect fill="#F1F1F1" height="32" rx="2.5" ry="2.5" style="stroke:#181818;stroke-width:0.5;" width="72.5303" x="151.07" y="32.83"/><ellipse cx="166.07" cy="48.83" fill="#ADD1B2" rx="11" ry="11" style="stroke:#181818;stroke-width:1;"/><path d="M169.0388,54.4706 Q168.4606,54.7675 167.82,54.9081 Q167.1794,55.0644 166.4763,55.0644 Q163.9763,55.0644 162.6481,53.4237 Q161.3356,51.7675 161.3356,48.6425 Q161.3356,45.5175 162.6481,43.8612 Q163.9763,42.205 166.4763,42.205 Q167.1794,42.205 167.82,42.3612 Q168.4763,42.5175 169.0388,42.8144 L169.0388,45.5331 Q168.4138,44.955 167.82,44.6894 Q167.2263,44.4081 166.6013,44.4081 Q165.2575,44.4081 164.57,45.4862 Q163.8825,46.5487 163.8825,48.6425 Q163.8825,50.7362 164.57,51.8144 Q165.2575,52.8769 166.6013,52.8769 Q167.2263,52.8769 167.82,52.6112 Q168.4138,52.33 169.0388,51.7519 L169.0388,54.4706 Z " fill="#000000"/><text fill="#000000" font-family="sans-serif" font-size="14" lengthAdjust="spacing" textLength="40.5303" x="180.07" y="53.6767">Client</text></g><!--class Aggregate--><g class="entity" data-entity="Aggregate" data-source-line="7" data-uid="ent0003" id="entity_Aggregate"><rect fill="#F1F1F1" height="56.2969" rx="2.5" ry="2.5" style="stroke:#181818;stroke-width:0.5;" width="134.0488" x="47.31" y="151.67"/><ellipse cx="75.2523" cy="167.67" fill="#B4A7E5" rx="11" ry="11" style="stroke:#181818;stroke-width:1;"/><path d="M71.1742,163.4356 L71.1742,161.2794 L78.5648,161.2794 L78.5648,163.4356 L76.0961,163.4356 L76.0961,171.5138 L78.5648,171.5138 L78.5648,173.67 L71.1742,173.67 L71.1742,171.5138 L73.643,171.5138 L73.643,163.4356 L71.1742,163.4356 Z " fill="#000000"/><text fill="#000000" font-family="sans-serif" font-size="14" font-style="italic" lengthAdjust="spacing" textLength="73.2881" x="92.1284" y="172.5167">Aggregate</text><line style="stroke:#181818;stroke-width:0.5;" x1="48.31" x2="180.3588" y1="183.67" y2="183.67"/><ellipse cx="58.31" cy="197.3184" fill="#84BE84" rx="3" ry="3" style="stroke:#038048;stroke-width:1;"/><text fill="#000000" font-family="sans-serif" font-size="14" lengthAdjust="spacing" textLength="108.0488" x="67.31" y="200.6651">createIterator()</text></g><!--class ConcreteAggregate--><g class="entity" data-entity="ConcreteAggregate" data-source-line="11" data-uid="ent0004" id="entity_ConcreteAggregate"><rect fill="#F1F1F1" height="56.2969" rx="2.5" ry="2.5" style="stroke:#181818;stroke-width:0.5;" width="168.6709" x="7" y="267.96"/><ellipse cx="22" cy="283.96" fill="#ADD1B2" rx="11" ry="11" style="stroke:#181818;stroke-width:1;"/><path d="M24.9688,289.6006 Q24.3906,289.8975 23.75,290.0381 Q23.1094,290.1944 22.4063,290.1944 Q19.9063,290.1944 18.5781,288.5538 Q17.2656,286.8975 17.2656,283.7725 Q17.2656,280.6475 18.5781,278.9913 Q19.9063,277.335 22.4063,277.335 Q23.1094,277.335 23.75,277.4913 Q24.4063,277.6475 24.9688,277.9444 L24.9688,280.6631 Q24.3438,280.085 23.75,279.8194 Q23.1563,279.5381 22.5313,279.5381 Q21.1875,279.5381 20.5,280.6163 Q19.8125,281.6788 19.8125,283.7725 Q19.8125,285.8663 20.5,286.9444 Q21.1875,288.0069 22.5313,288.0069 Q23.1563,288.0069 23.75,287.7413 Q24.3438,287.46 24.9688,286.8819 L24.9688,289.6006 Z " fill="#000000"/><text fill="#000000" font-family="sans-serif" font-size="14" lengthAdjust="spacing" textLength="136.6709" x="36" y="288.8067">ConcreteAggregate</text><line style="stroke:#181818;stroke-width:0.5;" x1="8" x2="174.6709" y1="299.96" y2="299.96"/><ellipse cx="18" cy="313.6084" fill="#84BE84" rx="3" ry="3" style="stroke:#038048;stroke-width:1;"/><text fill="#000000" font-family="sans-serif" font-size="14" lengthAdjust="spacing" textLength="130.2178" x="27" y="316.9551">createIterator() : T</text></g><!--class Iterator--><g class="entity" data-entity="Iterator" data-source-line="15" data-uid="ent0005" id="entity_Iterator"><rect fill="#F1F1F1" height="56.2969" rx="2.5" ry="2.5" style="stroke:#181818;stroke-width:0.5;" width="90.3535" x="227.16" y="151.67"/><ellipse cx="244.8495" cy="167.67" fill="#B4A7E5" rx="11" ry="11" style="stroke:#181818;stroke-width:1;"/><path d="M240.7713,163.4356 L240.7713,161.2794 L248.162,161.2794 L248.162,163.4356 L245.6932,163.4356 L245.6932,171.5138 L248.162,171.5138 L248.162,173.67 L240.7713,173.67 L240.7713,171.5138 L243.2401,171.5138 L243.2401,163.4356 L240.7713,163.4356 Z " fill="#000000"/><text fill="#000000" font-family="sans-serif" font-size="14" font-style="italic" lengthAdjust="spacing" textLength="52.377" x="259.4471" y="172.5167">Iterator</text><line style="stroke:#181818;stroke-width:0.5;" x1="228.16" x2="316.5135" y1="183.67" y2="183.67"/><ellipse cx="238.16" cy="197.3184" fill="#84BE84" rx="3" ry="3" style="stroke:#038048;stroke-width:1;"/><text fill="#000000" font-family="sans-serif" font-size="14" lengthAdjust="spacing" textLength="64.3535" x="247.16" y="200.6651">next() : T</text></g><!--class ConcreteIterator--><g class="entity" data-entity="ConcreteIterator" data-source-line="19" data-uid="ent0006" id="entity_ConcreteIterator"><rect fill="#F1F1F1" height="56.2969" rx="2.5" ry="2.5" style="stroke:#181818;stroke-width:0.5;" width="147.7598" x="210.46" y="267.96"/><ellipse cx="225.46" cy="283.96" fill="#ADD1B2" rx="11" ry="11" style="stroke:#181818;stroke-width:1;"/><path d="M228.4288,289.6006 Q227.8506,289.8975 227.21,290.0381 Q226.5694,290.1944 225.8663,290.1944 Q223.3663,290.1944 222.0381,288.5538 Q220.7256,286.8975 220.7256,283.7725 Q220.7256,280.6475 222.0381,278.9913 Q223.3663,277.335 225.8663,277.335 Q226.5694,277.335 227.21,277.4913 Q227.8663,277.6475 228.4288,277.9444 L228.4288,280.6631 Q227.8038,280.085 227.21,279.8194 Q226.6163,279.5381 225.9913,279.5381 Q224.6475,279.5381 223.96,280.6163 Q223.2725,281.6788 223.2725,283.7725 Q223.2725,285.8663 223.96,286.9444 Q224.6475,288.0069 225.9913,288.0069 Q226.6163,288.0069 227.21,287.7413 Q227.8038,287.46 228.4288,286.8819 L228.4288,289.6006 Z " fill="#000000"/><text fill="#000000" font-family="sans-serif" font-size="14" lengthAdjust="spacing" textLength="115.7598" x="239.46" y="288.8067">ConcreteIterator</text><line style="stroke:#181818;stroke-width:0.5;" x1="211.46" x2="357.2198" y1="299.96" y2="299.96"/><ellipse cx="221.46" cy="313.6084" fill="#84BE84" rx="3" ry="3" style="stroke:#038048;stroke-width:1;"/><text fill="#000000" font-family="sans-serif" font-size="14" lengthAdjust="spacing" textLength="64.3535" x="230.46" y="316.9551">next() : T</text></g><g class="entity" data-entity="N1" data-source-line="31" data-uid="ent0011" id="entity_N1"><path d="M258.89,6 L258.89,91.6641 L547.7738,91.6641 L547.7738,16 L537.7738,6 L258.89,6" fill="#FEFFDD" style="stroke:#181818;stroke-width:0.5;"/><path d="M537.7738,6 L537.7738,16 L547.7738,16 L537.7738,6" fill="#FEFFDD" style="stroke:#181818;stroke-width:1;"/><text fill="#4169E1" font-family="sans-serif" font-size="13" font-weight="bold" lengthAdjust="spacing" textLength="56.6084" x="264.89" y="23.0669">Iterator</text><text fill="#000000" font-family="sans-serif" font-size="13" font-weight="bold" lengthAdjust="spacing" textLength="40.6631" x="264.89" y="38.1997">Type:</text><text fill="#000000" font-family="sans-serif" font-size="13" lengthAdjust="spacing" textLength="69.3037" x="309.6854" y="38.1997">Behavioral</text><text fill="#000000" font-family="sans-serif" font-size="13" lengthAdjust="spacing" textLength="262.9771" x="264.89" y="53.3325">Provide a way to access the elements of</text><text fill="#000000" font-family="sans-serif" font-size="13" lengthAdjust="spacing" textLength="267.8838" x="264.89" y="68.4653">an aggregate object sequentially without</text><text fill="#000000" font-family="sans-serif" font-size="13" lengthAdjust="spacing" textLength="256.1787" x="264.89" y="83.5981">exposing its underlying representation.</text></g><!--link Client to Aggregate--><g class="link" data-entity-1="Client" data-entity-2="Aggregate" data-source-line="25" data-uid="lnk7" id="link_Client_Aggregate"><path codeLine="25" d="M166.22,65.16 C166.22,86.69 166.22,118.94 166.22,145.3" fill="none" id="Client-to-Aggregate" style="stroke:#181818;stroke-width:1;"/><polygon fill="#181818" points="166.22,151.3,170.22,142.3,166.22,146.3,162.22,142.3,166.22,151.3" style="stroke:#181818;stroke-width:1;"/></g><!--link Client to Iterator--><g class="link" data-entity-1="Client" data-entity-2="Iterator" data-source-line="26" data-uid="lnk8" id="link_Client_Iterator"><path codeLine="26" d="M223.86,49.26 C234.36,49.26 243.03,49.26 243.03,49.26 C243.03,49.26 243.03,107.09 243.03,145.49" fill="none" id="Client-to-Iterator" style="stroke:#181818;stroke-width:1;"/><polygon fill="#181818" points="243.03,151.49,247.03,142.49,243.03,146.49,239.03,142.49,243.03,151.49" style="stroke:#181818;stroke-width:1;"/></g><!--reverse link Aggregate to ConcreteAggregate--><g class="link" data-entity-1="Aggregate" data-entity-2="ConcreteAggregate" data-source-line="27" data-uid="lnk9" id="link_Aggregate_ConcreteAggregate"><path codeLine="27" d="M111.49,226.26 C111.49,244.29 111.49,249.51 111.49,267.55" fill="none" id="Aggregate-backto-ConcreteAggregate" style="stroke:#181818;stroke-width:1;"/><polygon fill="none" points="111.49,208.26,105.49,226.26,117.49,226.26,111.49,208.26" style="stroke:#181818;stroke-width:1;"/></g><!--reverse link Iterator to ConcreteIterator--><g class="link" data-entity-1="Iterator" data-entity-2="ConcreteIterator" data-source-line="28" data-uid="lnk10" id="link_Iterator_ConcreteIterator"><path codeLine="28" d="M272.34,226.26 C272.34,244.29 272.34,249.51 272.34,267.55" fill="none" id="Iterator-backto-ConcreteIterator" style="stroke:#181818;stroke-width:1;"/><polygon fill="none" points="272.34,208.26,266.34,226.26,278.34,226.26,272.34,208.26" style="stroke:#181818;stroke-width:1;"/></g><!--SRC=[XPB1JiCm38RlUGeVGQXCNAUg4kF41N7O2xYPruQbSN7IRH7mxYH5RPb0Mc_E__rs_hZ-O5oFWXtKg0-DyE1sJsnP80WwdoHoGVcPiiPHY3r1ppRcuZ-D9RIibBReFJnParieumB97ZN1OzC8DHW8FXIaxmwqK2gV4u21vUPMVSrkTaaCTDq3QzXctp9dqcQBetDOmCi1L-3Mx0YewqE4ZhgQn2lramoAebeY_JwSMghbykLdKVpDfERX5_hiLuwJ5psyF8oNA-kgr7b9Q-68TcC7gYQuN8rALQxgQeAtQIdhV00RQl5eMD2EsglmCGT3E664m81QKtgKqAQmbhgKn0FlHnOTu9o3wpVI0Joz3uanQ6s4aqbR7y88qxbdRrm39ZL8lnI9ZRaKweLyic0mxEuLkHtaSDy0]--></g></svg>