<?xml version="1.0" encoding="us-ascii" standalone="no"?><svg xmlns="http://www.w3.org/2000/svg" xmlns:xlink="http://www.w3.org/1999/xlink" contentStyleType="text/css" height="606px" preserveAspectRatio="none" style="width:1352px;height:606px;" version="1.1" viewBox="0 0 1352 606" width="1352px" zoomAndPan="magnify"><defs/><g><ellipse cx="1269" cy="32" fill="#222222" rx="10" ry="10" style="stroke:#222222;stroke-width:1.0;"/><path d="M1224.5,117 L1313.5,117 A3.5,3.5 0 0 1 1317,120.5 L1317,143.2969 L1221,143.2969 L1221,120.5 A3.5,3.5 0 0 1 1224.5,117 " fill="#F1F1F1" style="stroke:#F1F1F1;stroke-width:1.0;"/><rect fill="none" height="153.2969" rx="3.5" ry="3.5" style="stroke:#181818;stroke-width:0.5;" width="96" x="1221" y="117"/><line style="stroke:#181818;stroke-width:0.5;" x1="1221" x2="1317" y1="143.2969" y2="143.2969"/><text fill="#000000" font-family="sans-serif" font-size="14" lengthAdjust="spacing" textLength="30" x="1254" y="134.9951">New</text><ellipse cx="1270.5" cy="164.2969" fill="#222222" rx="10" ry="10" style="stroke:#222222;stroke-width:1.0;"/><g id="New.Created"><rect fill="#F1F1F1" height="50" rx="3.5" ry="3.5" style="stroke:#181818;stroke-width:0.5;" width="75" x="1233" y="210.2969"/><line style="stroke:#181818;stroke-width:0.5;" x1="1233" x2="1308" y1="236.5937" y2="236.5937"/><text fill="#000000" font-family="sans-serif" font-size="14" lengthAdjust="spacing" textLength="55" x="1243" y="228.292">Created</text></g><!--link *start*New to Created--><g id="link_*start*New_Created"><path d="M1270.5,174.7769 C1270.5,184.0269 1270.5,191.9069 1270.5,204.0369 " fill="none" id="*start*New-to-Created" style="stroke:#454645;stroke-width:1.0;"/><polygon fill="#454645" points="1270.5,210.0369,1274.5,201.0369,1270.5,205.0369,1266.5,201.0369,1270.5,210.0369" style="stroke:#454645;stroke-width:1.0;"/></g><g id="Ready"><rect fill="#F1F1F1" height="50" rx="3.5" ry="3.5" style="stroke:#181818;stroke-width:0.5;" width="63" x="1237.5" y="330.3"/><line style="stroke:#181818;stroke-width:0.5;" x1="1237.5" x2="1300.5" y1="356.5969" y2="356.5969"/><text fill="#000000" font-family="sans-serif" font-size="14" lengthAdjust="spacing" textLength="43" x="1247.5" y="348.2951">Ready</text></g><g id="Running"><rect fill="#F1F1F1" height="50" rx="3.5" ry="3.5" style="stroke:#181818;stroke-width:0.5;" width="78" x="1230" y="440.3"/><line style="stroke:#181818;stroke-width:0.5;" x1="1230" x2="1308" y1="466.5969" y2="466.5969"/><text fill="#000000" font-family="sans-serif" font-size="14" lengthAdjust="spacing" textLength="58" x="1240" y="458.2951">Running</text></g><g id="Waiting"><rect fill="#F1F1F1" height="50" rx="3.5" ry="3.5" style="stroke:#181818;stroke-width:0.5;" width="70" x="1142" y="550.3"/><line style="stroke:#181818;stroke-width:0.5;" x1="1142" x2="1212" y1="576.5969" y2="576.5969"/><text fill="#000000" font-family="sans-serif" font-size="14" lengthAdjust="spacing" textLength="50" x="1152" y="568.2951">Waiting</text></g><g id="Terminated"><rect fill="#F1F1F1" height="50" rx="3.5" ry="3.5" style="stroke:#181818;stroke-width:0.5;" width="99" x="1246.5" y="550.3"/><line style="stroke:#181818;stroke-width:0.5;" x1="1246.5" x2="1345.5" y1="576.5969" y2="576.5969"/><text fill="#000000" font-family="sans-serif" font-size="14" lengthAdjust="spacing" textLength="79" x="1256.5" y="568.2951">Terminated</text></g><g id="NewState"><rect fill="#F1F1F1" height="50" rx="3.5" ry="3.5" style="stroke:#181818;stroke-width:0.5;" width="50" x="7" y="7"/><line style="stroke:#181818;stroke-width:0.5;" x1="7" x2="57" y1="33.2969" y2="33.2969"/><text fill="#000000" font-family="sans-serif" font-size="14" lengthAdjust="spacing" textLength="30" x="17" y="24.9951">New</text></g><g id="ReadyState"><rect fill="#F1F1F1" height="50" rx="3.5" ry="3.5" style="stroke:#181818;stroke-width:0.5;" width="63" x="225.5" y="7"/><line style="stroke:#181818;stroke-width:0.5;" x1="225.5" x2="288.5" y1="33.2969" y2="33.2969"/><text fill="#000000" font-family="sans-serif" font-size="14" lengthAdjust="spacing" textLength="43" x="235.5" y="24.9951">Ready</text></g><g id="RunningState"><rect fill="#F1F1F1" height="50" rx="3.5" ry="3.5" style="stroke:#181818;stroke-width:0.5;" width="78" x="467" y="7"/><line style="stroke:#181818;stroke-width:0.5;" x1="467" x2="545" y1="33.2969" y2="33.2969"/><text fill="#000000" font-family="sans-serif" font-size="14" lengthAdjust="spacing" textLength="58" x="477" y="24.9951">Running</text></g><g id="WaitingState"><rect fill="#F1F1F1" height="50" rx="3.5" ry="3.5" style="stroke:#181818;stroke-width:0.5;" width="70" x="687" y="7"/><line style="stroke:#181818;stroke-width:0.5;" x1="687" x2="757" y1="33.2969" y2="33.2969"/><text fill="#000000" font-family="sans-serif" font-size="14" lengthAdjust="spacing" textLength="50" x="697" y="24.9951">Waiting</text></g><g id="TerminatedState"><rect fill="#F1F1F1" height="50" rx="3.5" ry="3.5" style="stroke:#181818;stroke-width:0.5;" width="99" x="964.5" y="7"/><line style="stroke:#181818;stroke-width:0.5;" x1="964.5" x2="1063.5" y1="33.2969" y2="33.2969"/><text fill="#000000" font-family="sans-serif" font-size="14" lengthAdjust="spacing" textLength="79" x="974.5" y="24.9951">Terminated</text></g><g id="elem_GMN23"><path d="M91.5,22.94 L91.5,28.3 L57.28,32.3 L91.5,36.3 L91.5,41.0728 A3.5,3.5 0 0 0 95,44.5728 L187,44.5728 A3.5,3.5 0 0 0 190.5,41.0728 L190.5,29.44 L180.5,19.44 L95,19.44 A3.5,3.5 0 0 0 91.5,22.94 " fill="#90EE90" style="stroke:#454645;stroke-width:1.0;"/><path d="M180.5,19.44 L180.5,27.69 A1.75,1.75 0 0 0 182.25,29.44 L190.5,29.44 L180.5,19.44 " fill="#90EE90" style="stroke:#454645;stroke-width:1.0;"/><text fill="#454645" font-family="sans-serif" font-size="13" lengthAdjust="spacing" textLength="78" x="97.5" y="36.5069">&#36827;&#31243;&#21018;&#34987;&#21019;&#24314;</text></g><g id="elem_GMN26"><path d="M324,22.94 L324,28.3 L288.79,32.3 L324,36.3 L324,41.0728 A3.5,3.5 0 0 0 327.5,44.5728 L428.5,44.5728 A3.5,3.5 0 0 0 432,41.0728 L432,29.44 L422,19.44 L327.5,19.44 A3.5,3.5 0 0 0 324,22.94 " fill="#90EE90" style="stroke:#454645;stroke-width:1.0;"/><path d="M422,19.44 L422,27.69 A1.75,1.75 0 0 0 423.75,29.44 L432,29.44 L422,19.44 " fill="#90EE90" style="stroke:#454645;stroke-width:1.0;"/><text fill="#454645" font-family="sans-serif" font-size="13" lengthAdjust="spacing" textLength="87" x="330" y="36.5069">&#31561;&#24453; CPU &#35843;&#24230;</text></g><g id="elem_GMN29"><path d="M579.5,22.94 L579.5,28.3 L545.4,32.3 L579.5,36.3 L579.5,41.0728 A3.5,3.5 0 0 0 583,44.5728 L649,44.5728 A3.5,3.5 0 0 0 652.5,41.0728 L652.5,29.44 L642.5,19.44 L583,19.44 A3.5,3.5 0 0 0 579.5,22.94 " fill="#90EE90" style="stroke:#454645;stroke-width:1.0;"/><path d="M642.5,19.44 L642.5,27.69 A1.75,1.75 0 0 0 644.25,29.44 L652.5,29.44 L642.5,19.44 " fill="#90EE90" style="stroke:#454645;stroke-width:1.0;"/><text fill="#454645" font-family="sans-serif" font-size="13" lengthAdjust="spacing" textLength="52" x="585.5" y="36.5069">&#27491;&#22312;&#25191;&#34892;</text></g><g id="elem_GMN32"><path d="M792.5,22.94 L792.5,28.3 L757.44,32.3 L792.5,36.3 L792.5,41.0728 A3.5,3.5 0 0 0 796,44.5728 L926,44.5728 A3.5,3.5 0 0 0 929.5,41.0728 L929.5,29.44 L919.5,19.44 L796,19.44 A3.5,3.5 0 0 0 792.5,22.94 " fill="#90EE90" style="stroke:#454645;stroke-width:1.0;"/><path d="M919.5,19.44 L919.5,27.69 A1.75,1.75 0 0 0 921.25,29.44 L929.5,29.44 L919.5,19.44 " fill="#90EE90" style="stroke:#454645;stroke-width:1.0;"/><text fill="#454645" font-family="sans-serif" font-size="13" lengthAdjust="spacing" textLength="116" x="798.5" y="36.5069">&#31561;&#24453; I/O &#25110;&#20107;&#20214;&#23436;&#25104;</text></g><g id="elem_GMN35"><path d="M1098.5,22.94 L1098.5,28.3 L1063.77,32.3 L1098.5,36.3 L1098.5,41.0728 A3.5,3.5 0 0 0 1102,44.5728 L1220,44.5728 A3.5,3.5 0 0 0 1223.5,41.0728 L1223.5,29.44 L1213.5,19.44 L1102,19.44 A3.5,3.5 0 0 0 1098.5,22.94 " fill="#90EE90" style="stroke:#454645;stroke-width:1.0;"/><path d="M1213.5,19.44 L1213.5,27.69 A1.75,1.75 0 0 0 1215.25,29.44 L1223.5,29.44 L1213.5,19.44 " fill="#90EE90" style="stroke:#454645;stroke-width:1.0;"/><text fill="#454645" font-family="sans-serif" font-size="13" lengthAdjust="spacing" textLength="104" x="1104.5" y="36.5069">&#25191;&#34892;&#23436;&#27605;&#25110;&#34987;&#32456;&#27490;</text></g><!--link *start* to New--><g id="link_*start*_New"><path d="M1269,42.12 C1269,57.32 1269,81.44 1269,110.84 " fill="none" id="*start*-to-New" style="stroke:#454645;stroke-width:1.0;"/><polygon fill="#454645" points="1269,116.84,1273,107.84,1269,111.84,1265,107.84,1269,116.84" style="stroke:#454645;stroke-width:1.0;"/></g><!--link New to Ready--><g id="link_New_Ready"><path d="M1269,270.69 C1269,292.16 1269,307.98 1269,324.09 " fill="none" id="New-to-Ready" style="stroke:#454645;stroke-width:1.0;"/><polygon fill="#454645" points="1269,330.09,1273,321.09,1269,325.09,1265,321.09,1269,330.09" style="stroke:#454645;stroke-width:1.0;"/><text fill="#000000" font-family="sans-serif" font-size="13" lengthAdjust="spacing" textLength="47" x="1221" y="296.4569">admit()</text></g><!--link Ready to Running--><g id="link_Ready_Running"><path d="M1258.5,380.54 C1258.5,398.3 1258.5,415.98 1258.5,433.8 " fill="none" id="Ready-to-Running" style="stroke:#454645;stroke-width:1.0;"/><polygon fill="#454645" points="1258.5,439.8,1262.5,430.8,1258.5,434.8,1254.5,430.8,1258.5,439.8" style="stroke:#454645;stroke-width:1.0;"/><text fill="#000000" font-family="sans-serif" font-size="13" lengthAdjust="spacing" textLength="67" x="1190.5" y="406.2369">schedule()</text></g><!--link Running to Ready--><g id="link_Running_Ready"><path d="M1279.5,440.06 C1279.5,422.3 1279.5,404.62 1279.5,386.8 " fill="none" id="Running-to-Ready" style="stroke:#454645;stroke-width:1.0;"/><polygon fill="#454645" points="1279.5,380.8,1275.5,389.8,1279.5,385.8,1283.5,389.8,1279.5,380.8" style="stroke:#454645;stroke-width:1.0;"/><text fill="#000000" font-family="sans-serif" font-size="13" lengthAdjust="spacing" textLength="65" x="1213.5" y="423.4969">interrupt()</text></g><!--link Running to Waiting--><g id="link_Running_Waiting"><path d="M1238.25,490.77 C1238.25,523.54 1238.25,576.3 1238.25,576.3 C1238.25,576.3 1231.89,576.3 1218.27,576.3 " fill="none" id="Running-to-Waiting" style="stroke:#454645;stroke-width:1.0;"/><polygon fill="#454645" points="1212.27,576.3,1221.27,580.3,1217.27,576.3,1221.27,572.3,1212.27,576.3" style="stroke:#454645;stroke-width:1.0;"/><text fill="#000000" font-family="sans-serif" font-size="13" lengthAdjust="spacing" textLength="48" x="1189.25" y="542.5869">ioWait()</text></g><!--link Running to Terminated--><g id="link_Running_Terminated"><path d="M1277.25,490.54 C1277.25,508.3 1277.25,525.98 1277.25,543.8 " fill="none" id="Running-to-Terminated" style="stroke:#454645;stroke-width:1.0;"/><polygon fill="#454645" points="1277.25,549.8,1281.25,540.8,1277.25,544.8,1273.25,540.8,1277.25,549.8" style="stroke:#454645;stroke-width:1.0;"/><text fill="#000000" font-family="sans-serif" font-size="13" lengthAdjust="spacing" textLength="33" x="1243.25" y="516.2369">exit()</text></g><!--link Waiting to Ready--><g id="link_Waiting_Ready"><path d="M1177,550.18 C1177,492.65 1177,356.3 1177,356.3 C1177,356.3 1204.51,356.3 1231.08,356.3 " fill="none" id="Waiting-to-Ready" style="stroke:#454645;stroke-width:1.0;"/><polygon fill="#454645" points="1237.08,356.3,1228.08,352.3,1232.08,356.3,1228.08,360.3,1237.08,356.3" style="stroke:#454645;stroke-width:1.0;"/><text fill="#000000" font-family="sans-serif" font-size="13" lengthAdjust="spacing" textLength="108" x="1068" y="419.2669">eventComplete()</text></g><!--SRC=[TP2_JW914CRxVOgHIas8lONDLJPg_1CBOx5o8sousxtiBIenLiRa21GsMeYDc2Y9GQqi8D6NuGuUmzqzy0uYtUptc- -RcLrI5VGHbAYJiCfuG2NruOIMgcKfQjnrX2SaA4bvg15obUlo64TL3n02uTNDupycfAe8GevMZw5Ot80jF2SaL5IXAU6I04oH8r7BBhaYn20ZxI9rwx0ErFMPMbuX91Kigd7EU5d3i5H1j-QXvHCrRsPSePIrm0Ja-I5bAarWmjHpU1-bpxZPI7VWHJf_widduvd-5aVuWOVABf6ULz175826viuzeqnrwxF4LhCiNI2bQJt39_CjdzGpF5lQjcJFj8jmeRiaArSKYDDiCu3nJtlKRSRHmxZp5aVjUD0do5qm_VEktDO0eruZ_hu1P-S0nf_NSVzbiIr_3a3IUuuVkqdZTVpKMkYPEV5lsERQDYJH_R3V70w-ulTM4jqkJ9Z_0JtOZZIsZpkTekyT3QAaryaYVW40]--></g></svg>