<svg xmlns="http://www.w3.org/2000/svg" xmlns:xlink="http://www.w3.org/1999/xlink" contentStyleType="text/css" data-diagram-type="CLASS" height="363px" preserveAspectRatio="none" style="width:554px;height:363px;" version="1.1" viewBox="0 0 554 363" width="554px" zoomAndPan="magnify"><defs/><g><!--class Client--><g class="entity" data-entity="Client" data-source-line="5" data-uid="ent0002" id="entity_Client"><rect fill="#F1F1F1" height="32" rx="2.5" ry="2.5" style="stroke:#181818;stroke-width:0.5;" width="72.5303" x="151.07" y="32.83"/><ellipse cx="166.07" cy="48.83" fill="#ADD1B2" rx="11" ry="11" style="stroke:#181818;stroke-width:1;"/><path d="M169.0388,54.4706 Q168.4606,54.7675 167.82,54.9081 Q167.1794,55.0644 166.4763,55.0644 Q163.9763,55.0644 162.6481,53.4238 Q161.3356,51.7675 161.3356,48.6425 Q161.3356,45.5175 162.6481,43.8613 Q163.9763,42.205 166.4763,42.205 Q167.1794,42.205 167.82,42.3613 Q168.4763,42.5175 169.0388,42.8144 L169.0388,45.5331 Q168.4138,44.955 167.82,44.6894 Q167.2263,44.4081 166.6013,44.4081 Q165.2575,44.4081 164.57,45.4863 Q163.8825,46.5488 163.8825,48.6425 Q163.8825,50.7363 164.57,51.8144 Q165.2575,52.8769 166.6013,52.8769 Q167.2263,52.8769 167.82,52.6113 Q168.4138,52.33 169.0388,51.7519 L169.0388,54.4706 Z " fill="#000000"/><text fill="#000000" font-family="sans-serif" font-size="14" lengthAdjust="spacing" textLength="40.5303" x="180.07" y="53.6767">Client</text></g><!--class Aggregate--><g class="entity" data-entity="Aggregate" data-source-line="7" data-uid="ent0003" id="entity_Aggregate"><rect fill="#F1F1F1" height="56.2969" rx="2.5" ry="2.5" style="stroke:#181818;stroke-width:0.5;" width="134.0488" x="35.31" y="159.81"/><ellipse cx="63.2523" cy="175.81" fill="#B4A7E5" rx="11" ry="11" style="stroke:#181818;stroke-width:1;"/><path d="M59.1742,171.5756 L59.1742,169.4194 L66.5648,169.4194 L66.5648,171.5756 L64.0961,171.5756 L64.0961,179.6538 L66.5648,179.6538 L66.5648,181.81 L59.1742,181.81 L59.1742,179.6538 L61.643,179.6538 L61.643,171.5756 L59.1742,171.5756 Z " fill="#000000"/><text fill="#000000" font-family="sans-serif" font-size="14" font-style="italic" lengthAdjust="spacing" textLength="73.2881" x="80.1284" y="180.6567">Aggregate</text><line style="stroke:#181818;stroke-width:0.5;" x1="36.31" x2="168.3588" y1="191.81" y2="191.81"/><ellipse cx="46.31" cy="205.4584" fill="#84BE84" rx="3" ry="3" style="stroke:#038048;stroke-width:1;"/><text fill="#000000" font-family="sans-serif" font-size="14" lengthAdjust="spacing" textLength="108.0488" x="55.31" y="208.8051">createIterator()</text></g><!--class ConcreteAggregate--><g class="entity" data-entity="ConcreteAggregate" data-source-line="11" data-uid="ent0004" id="entity_ConcreteAggregate"><rect fill="#F1F1F1" height="56.2969" rx="2.5" ry="2.5" style="stroke:#181818;stroke-width:0.5;" width="168.6709" x="7" y="292.4"/><ellipse cx="22" cy="308.4" fill="#ADD1B2" rx="11" ry="11" style="stroke:#181818;stroke-width:1;"/><path d="M24.9688,314.0406 Q24.3906,314.3375 23.75,314.4781 Q23.1094,314.6344 22.4063,314.6344 Q19.9063,314.6344 18.5781,312.9938 Q17.2656,311.3375 17.2656,308.2125 Q17.2656,305.0875 18.5781,303.4313 Q19.9063,301.775 22.4063,301.775 Q23.1094,301.775 23.75,301.9313 Q24.4063,302.0875 24.9688,302.3844 L24.9688,305.1031 Q24.3438,304.525 23.75,304.2594 Q23.1563,303.9781 22.5313,303.9781 Q21.1875,303.9781 20.5,305.0563 Q19.8125,306.1188 19.8125,308.2125 Q19.8125,310.3063 20.5,311.3844 Q21.1875,312.4469 22.5313,312.4469 Q23.1563,312.4469 23.75,312.1813 Q24.3438,311.9 24.9688,311.3219 L24.9688,314.0406 Z " fill="#000000"/><text fill="#000000" font-family="sans-serif" font-size="14" lengthAdjust="spacing" textLength="136.6709" x="36" y="313.2467">ConcreteAggregate</text><line style="stroke:#181818;stroke-width:0.5;" x1="8" x2="174.6709" y1="324.4" y2="324.4"/><ellipse cx="18" cy="338.0484" fill="#84BE84" rx="3" ry="3" style="stroke:#038048;stroke-width:1;"/><text fill="#000000" font-family="sans-serif" font-size="14" lengthAdjust="spacing" textLength="130.2178" x="27" y="341.3951">createIterator() : T</text></g><!--class Iterator--><g class="entity" data-entity="Iterator" data-source-line="15" data-uid="ent0005" id="entity_Iterator"><rect fill="#F1F1F1" height="72.5938" rx="2.5" ry="2.5" style="stroke:#181818;stroke-width:0.5;" width="138.0547" x="209.31" y="151.66"/><ellipse cx="248.465" cy="167.66" fill="#B4A7E5" rx="11" ry="11" style="stroke:#181818;stroke-width:1;"/><path d="M244.3869,163.4256 L244.3869,161.2694 L251.7775,161.2694 L251.7775,163.4256 L249.3087,163.4256 L249.3087,171.5038 L251.7775,171.5038 L251.7775,173.66 L244.3869,173.66 L244.3869,171.5038 L246.8556,171.5038 L246.8556,163.4256 L244.3869,163.4256 Z " fill="#000000"/><text fill="#000000" font-family="sans-serif" font-size="14" font-style="italic" lengthAdjust="spacing" textLength="52.377" x="267.8328" y="172.5067">Iterator</text><line style="stroke:#181818;stroke-width:0.5;" x1="210.31" x2="346.3647" y1="183.66" y2="183.66"/><ellipse cx="220.31" cy="197.3084" fill="#84BE84" rx="3" ry="3" style="stroke:#038048;stroke-width:1;"/><text fill="#000000" font-family="sans-serif" font-size="14" lengthAdjust="spacing" textLength="64.3535" x="229.31" y="200.6551">next() : T</text><ellipse cx="220.31" cy="213.6053" fill="#84BE84" rx="3" ry="3" style="stroke:#038048;stroke-width:1;"/><text fill="#000000" font-family="sans-serif" font-size="14" lengthAdjust="spacing" textLength="112.0547" x="229.31" y="216.952">hasNext() : bool</text></g><!--class ConcreteIterator--><g class="entity" data-entity="ConcreteIterator" data-source-line="20" data-uid="ent0006" id="entity_ConcreteIterator"><rect fill="#F1F1F1" height="72.5938" rx="2.5" ry="2.5" style="stroke:#181818;stroke-width:0.5;" width="147.7598" x="210.46" y="284.26"/><ellipse cx="225.46" cy="300.26" fill="#ADD1B2" rx="11" ry="11" style="stroke:#181818;stroke-width:1;"/><path d="M228.4288,305.9006 Q227.8506,306.1975 227.21,306.3381 Q226.5694,306.4944 225.8663,306.4944 Q223.3663,306.4944 222.0381,304.8538 Q220.7256,303.1975 220.7256,300.0725 Q220.7256,296.9475 222.0381,295.2913 Q223.3663,293.635 225.8663,293.635 Q226.5694,293.635 227.21,293.7913 Q227.8663,293.9475 228.4288,294.2444 L228.4288,296.9631 Q227.8038,296.385 227.21,296.1194 Q226.6163,295.8381 225.9913,295.8381 Q224.6475,295.8381 223.96,296.9163 Q223.2725,297.9788 223.2725,300.0725 Q223.2725,302.1663 223.96,303.2444 Q224.6475,304.3069 225.9913,304.3069 Q226.6163,304.3069 227.21,304.0413 Q227.8038,303.76 228.4288,303.1819 L228.4288,305.9006 Z " fill="#000000"/><text fill="#000000" font-family="sans-serif" font-size="14" lengthAdjust="spacing" textLength="115.7598" x="239.46" y="305.1067">ConcreteIterator</text><line style="stroke:#181818;stroke-width:0.5;" x1="211.46" x2="357.2198" y1="316.26" y2="316.26"/><ellipse cx="221.46" cy="329.9084" fill="#84BE84" rx="3" ry="3" style="stroke:#038048;stroke-width:1;"/><text fill="#000000" font-family="sans-serif" font-size="14" lengthAdjust="spacing" textLength="64.3535" x="230.46" y="333.2551">next() : T</text><ellipse cx="221.46" cy="346.2053" fill="#84BE84" rx="3" ry="3" style="stroke:#038048;stroke-width:1;"/><text fill="#000000" font-family="sans-serif" font-size="14" lengthAdjust="spacing" textLength="107.6045" x="230.46" y="349.552">hasNext(): bool</text></g><g class="entity" data-entity="N1" data-source-line="33" data-uid="ent0011" id="entity_N1"><path d="M258.89,6 L258.89,91.6641 L547.7738,91.6641 L547.7738,16 L537.7738,6 L258.89,6" fill="#FEFFDD" style="stroke:#181818;stroke-width:0.5;"/><path d="M537.7738,6 L537.7738,16 L547.7738,16 L537.7738,6" fill="#FEFFDD" style="stroke:#181818;stroke-width:1;"/><text fill="#4169E1" font-family="sans-serif" font-size="13" font-weight="bold" lengthAdjust="spacing" textLength="56.6084" x="264.89" y="23.0669">Iterator</text><text fill="#000000" font-family="sans-serif" font-size="13" font-weight="bold" lengthAdjust="spacing" textLength="40.6631" x="264.89" y="38.1997">Type:</text><text fill="#000000" font-family="sans-serif" font-size="13" lengthAdjust="spacing" textLength="69.3037" x="309.6854" y="38.1997">Behavioral</text><text fill="#000000" font-family="sans-serif" font-size="13" lengthAdjust="spacing" textLength="262.9771" x="264.89" y="53.3325">Provide a way to access the elements of</text><text fill="#000000" font-family="sans-serif" font-size="13" lengthAdjust="spacing" textLength="267.8838" x="264.89" y="68.4653">an aggregate object sequentially without</text><text fill="#000000" font-family="sans-serif" font-size="13" lengthAdjust="spacing" textLength="256.1787" x="264.89" y="83.5981">exposing its underlying representation.</text></g><!--link Client to Aggregate--><g class="link" data-entity-1="Client" data-entity-2="Aggregate" data-source-line="27" data-uid="lnk7" id="link_Client_Aggregate"><path codeLine="27" d="M160.22,65.06 C160.22,88.22 160.22,125.07 160.22,153.55" fill="none" id="Client-to-Aggregate" style="stroke:#181818;stroke-width:1;"/><polygon fill="#181818" points="160.22,159.55,164.22,150.55,160.22,154.55,156.22,150.55,160.22,159.55" style="stroke:#181818;stroke-width:1;"/></g><!--link Client to Iterator--><g class="link" data-entity-1="Client" data-entity-2="Iterator" data-source-line="28" data-uid="lnk8" id="link_Client_Iterator"><path codeLine="28" d="M216.45,65.06 C216.45,86.07 216.45,117.28 216.45,145.27" fill="none" id="Client-to-Iterator" style="stroke:#181818;stroke-width:1;"/><polygon fill="#181818" points="216.45,151.27,220.45,142.27,216.45,146.27,212.45,142.27,216.45,151.27" style="stroke:#181818;stroke-width:1;"/></g><!--reverse link Aggregate to ConcreteAggregate--><g class="link" data-entity-1="Aggregate" data-entity-2="ConcreteAggregate" data-source-line="29" data-uid="lnk9" id="link_Aggregate_ConcreteAggregate"><path codeLine="29" d="M102.34,234.4 C102.34,256.78 102.34,269.8 102.34,292.16" fill="none" id="Aggregate-backto-ConcreteAggregate" style="stroke:#181818;stroke-width:1;"/><polygon fill="none" points="102.34,216.4,96.34,234.4,108.34,234.4,102.34,216.4" style="stroke:#181818;stroke-width:1;"/></g><!--reverse link Iterator to ConcreteIterator--><g class="link" data-entity-1="Iterator" data-entity-2="ConcreteIterator" data-source-line="30" data-uid="lnk10" id="link_Iterator_ConcreteIterator"><path codeLine="30" d="M278.91,242.54 C278.91,261.09 278.91,265.56 278.91,284.09" fill="none" id="Iterator-backto-ConcreteIterator" style="stroke:#181818;stroke-width:1;"/><polygon fill="none" points="278.91,224.54,272.91,242.54,284.91,242.54,278.91,224.54" style="stroke:#181818;stroke-width:1;"/></g><!--SRC=[bLB1JiCm3BtdAtm4eJ9ndQfAR2Sk4uVzW9jvRLWQ5oVTLW7_JjBH5ZGaH6xsUy_si-CFnhKes429-b09TswtPii2GT3v294BoayiQno5lYLesVOf-0rZ2JKhfIrw3sjhKWbbN23PeoPuh2gX2WF1cuBuxa0BnV0f4Z2mtDogZqdDBeA1_jR04hP9D_SPiKdYw1o-Y9T4ZNupvafcUztt7pNc4hNP4L3JXXuQQaeIhzHb3P1bnUp_Ut9if6Qd-NkMNIz0JIFzm2UzSXorw67pC4oObqMkqqMNmZtQbUse6CdvOa2AV54M8taRBxXC2LXHZKV3WdR0deMFoHZ22Ni83AWrnLM5Efgrr4Gd7dW_SD41JZwuV24TmDDh5pa6hUtXPE8NwS90fdFBthWAJ2mG_n-9xLCer0hvAC5WsDqhSZj8vZu1]--></g></svg>