<svg xmlns="http://www.w3.org/2000/svg" xmlns:xlink="http://www.w3.org/1999/xlink" contentStyleType="text/css" data-diagram-type="STATE" height="627px" preserveAspectRatio="none" style="width:570px;height:627px;" version="1.1" viewBox="0 0 570 627" width="570px" zoomAndPan="magnify"><defs/><g><path d="M240.64,87 L312.3529,87 A12.5,12.5 0 0 1 324.8529,99.5 L324.8529,113.2969 L228.14,113.2969 L228.14,99.5 A12.5,12.5 0 0 1 240.64,87" fill="#F1F1F1"/><rect fill="none" height="153.2969" rx="12.5" ry="12.5" style="stroke:#181818;stroke-width:0.5;" width="96.7129" x="228.14" y="87"/><line style="stroke:#181818;stroke-width:0.5;" x1="228.14" x2="324.8529" y1="113.2969" y2="113.2969"/><text fill="#000000" font-family="sans-serif" font-size="14" lengthAdjust="spacing" textLength="30.5361" x="261.2284" y="104.9951">New</text><ellipse cx="278" cy="134.2969" fill="#222222" rx="10" ry="10" style="stroke:#222222;stroke-width:1;"/><g id="New.Created"><rect fill="#F1F1F1" height="50" rx="12.5" ry="12.5" style="stroke:#181818;stroke-width:0.5;" width="75.7129" x="240.14" y="180.2969"/><line style="stroke:#181818;stroke-width:0.5;" x1="240.14" x2="315.8529" y1="206.5938" y2="206.5938"/><text fill="#000000" font-family="sans-serif" font-size="14" lengthAdjust="spacing" textLength="55.7129" x="250.14" y="198.292">Created</text></g><!--link *start*New to Created--><g class="link" data-entity-1="*start*New" data-entity-2="Created" data-source-line="6" data-uid="lnk6" id="link_*start*New_Created"><path d="M278,144.6069 C278,153.6469 278,161.7869 278,174.0269" fill="none" id="*start*New-to-Created" style="stroke:#181818;stroke-width:1;"/><polygon fill="#181818" points="278,180.0269,282,171.0269,278,175.0269,274,171.0269,278,180.0269" style="stroke:#181818;stroke-width:1;"/></g><ellipse cx="276.5" cy="16" fill="#222222" rx="10" ry="10" style="stroke:#222222;stroke-width:1;"/><g id="Ready"><rect fill="#F1F1F1" height="50" rx="12.5" ry="12.5" style="stroke:#181818;stroke-width:0.5;" width="64.0918" x="244.45" y="317.3"/><line style="stroke:#181818;stroke-width:0.5;" x1="244.45" x2="308.5418" y1="343.5969" y2="343.5969"/><text fill="#000000" font-family="sans-serif" font-size="14" lengthAdjust="spacing" textLength="44.0918" x="254.45" y="335.2951">Ready</text></g><g id="Running"><rect fill="#F1F1F1" height="50" rx="12.5" ry="12.5" style="stroke:#181818;stroke-width:0.5;" width="77.9961" x="198.5" y="444.3"/><line style="stroke:#181818;stroke-width:0.5;" x1="198.5" x2="276.4961" y1="470.5969" y2="470.5969"/><text fill="#000000" font-family="sans-serif" font-size="14" lengthAdjust="spacing" textLength="57.9961" x="208.5" y="462.2951">Running</text></g><g id="Waiting"><rect fill="#F1F1F1" height="50" rx="12.5" ry="12.5" style="stroke:#181818;stroke-width:0.5;" width="73.4502" x="316.77" y="571.3"/><line style="stroke:#181818;stroke-width:0.5;" x1="316.77" x2="390.2202" y1="597.5969" y2="597.5969"/><text fill="#000000" font-family="sans-serif" font-size="14" lengthAdjust="spacing" textLength="53.4502" x="326.77" y="589.2951">Waiting</text></g><g id="Terminated"><rect fill="#F1F1F1" height="50" rx="12.5" ry="12.5" style="stroke:#181818;stroke-width:0.5;" width="100.8896" x="166.06" y="571.3"/><line style="stroke:#181818;stroke-width:0.5;" x1="166.06" x2="266.9496" y1="597.5969" y2="597.5969"/><text fill="#000000" font-family="sans-serif" font-size="14" lengthAdjust="spacing" textLength="80.8896" x="176.06" y="589.2951">Terminated</text></g><g class="entity" data-entity="GMN2" data-source-line="20" data-uid="ent0003" id="entity_GMN2"><path d="M94,151.09 L94,176.2228 A0,0 0 0 0 94,176.2228 L193.0001,176.2228 A0,0 0 0 0 193.0001,176.2228 L193.0001,169.09 L227.79,163.65 L193.0001,161.09 L193.0001,161.09 L183.0001,151.09 L94,151.09 A0,0 0 0 0 94,151.09" fill="#FEFFDD" style="stroke:#181818;stroke-width:0.5;"/><path d="M183.0001,151.09 L183.0001,161.09 L193.0001,161.09 L183.0001,151.09" fill="#FEFFDD" style="stroke:#181818;stroke-width:0.5;"/><text fill="#000000" font-family="sans-serif" font-size="13" lengthAdjust="spacing" textLength="78.0001" x="100" y="168.1569">&#36827;&#31243;&#21018;&#34987;&#21019;&#24314;</text></g><g class="entity" data-entity="GMN5" data-source-line="24" data-uid="ent0006" id="entity_GMN5"><path d="M343.65,329.73 L343.65,338.3 L308.64,342.3 L343.65,346.3 L343.65,354.8628 A0,0 0 0 0 343.65,354.8628 L451.3464,354.8628 A0,0 0 0 0 451.3464,354.8628 L451.3464,339.73 L441.3464,329.73 L343.65,329.73 A0,0 0 0 0 343.65,329.73" fill="#FEFFDD" style="stroke:#181818;stroke-width:0.5;"/><path d="M441.3464,329.73 L441.3464,339.73 L451.3464,339.73 L441.3464,329.73" fill="#FEFFDD" style="stroke:#181818;stroke-width:0.5;"/><text fill="#000000" font-family="sans-serif" font-size="13" lengthAdjust="spacing" textLength="86.6964" x="349.65" y="346.7969">&#31561;&#24453; CPU &#35843;&#24230;</text></g><g class="entity" data-entity="GMN8" data-source-line="28" data-uid="ent0009" id="entity_GMN8"><path d="M91,456.73 L91,481.8628 A0,0 0 0 0 91,481.8628 L164.0001,481.8628 A0,0 0 0 0 164.0001,481.8628 L164.0001,474.73 L198.12,469.3 L164.0001,466.73 L164.0001,466.73 L154.0001,456.73 L91,456.73 A0,0 0 0 0 91,456.73" fill="#FEFFDD" style="stroke:#181818;stroke-width:0.5;"/><path d="M154.0001,456.73 L154.0001,466.73 L164.0001,466.73 L154.0001,456.73" fill="#FEFFDD" style="stroke:#181818;stroke-width:0.5;"/><text fill="#000000" font-family="sans-serif" font-size="13" lengthAdjust="spacing" textLength="52.0001" x="97" y="473.7969">&#27491;&#22312;&#25191;&#34892;</text></g><g class="entity" data-entity="GMN11" data-source-line="32" data-uid="ent0012" id="entity_GMN11"><path d="M425.14,583.73 L425.14,592.3 L390.68,596.3 L425.14,600.3 L425.14,608.8628 A0,0 0 0 0 425.14,608.8628 L563.851,608.8628 A0,0 0 0 0 563.851,608.8628 L563.851,593.73 L553.851,583.73 L425.14,583.73 A0,0 0 0 0 425.14,583.73" fill="#FEFFDD" style="stroke:#181818;stroke-width:0.5;"/><path d="M553.851,583.73 L553.851,593.73 L563.851,593.73 L553.851,583.73" fill="#FEFFDD" style="stroke:#181818;stroke-width:0.5;"/><text fill="#000000" font-family="sans-serif" font-size="13" lengthAdjust="spacing" textLength="117.711" x="431.14" y="600.7969">&#31561;&#24453; I/O &#25110;&#20107;&#20214;&#23436;&#25104;</text></g><g class="entity" data-entity="GMN14" data-source-line="36" data-uid="ent0015" id="entity_GMN14"><path d="M6,583.73 L6,608.8628 A0,0 0 0 0 6,608.8628 L131.0001,608.8628 A0,0 0 0 0 131.0001,608.8628 L131.0001,601.73 L165.87,596.3 L131.0001,593.73 L131.0001,593.73 L121.0001,583.73 L6,583.73 A0,0 0 0 0 6,583.73" fill="#FEFFDD" style="stroke:#181818;stroke-width:0.5;"/><path d="M121.0001,583.73 L121.0001,593.73 L131.0001,593.73 L121.0001,583.73" fill="#FEFFDD" style="stroke:#181818;stroke-width:0.5;"/><text fill="#000000" font-family="sans-serif" font-size="13" lengthAdjust="spacing" textLength="104.0001" x="12" y="600.7969">&#25191;&#34892;&#23436;&#27605;&#25110;&#34987;&#32456;&#27490;</text></g><!--link *start* to New--><g class="link" data-entity-1="*start*" data-entity-2="New" data-source-line="3" data-uid="lnk3" id="link_*start*_New"><path d="M276.5,26.11 C276.5,38.63 276.5,56.36 276.5,80.58" fill="none" id="*start*-to-New" style="stroke:#181818;stroke-width:1;"/><polygon fill="#181818" points="276.5,86.58,280.5,77.58,276.5,81.58,272.5,77.58,276.5,86.58" style="stroke:#181818;stroke-width:1;"/></g><!--link New to Ready--><g class="link" data-entity-1="New" data-entity-2="Ready" data-source-line="9" data-uid="lnk8" id="link_New_Ready"><path d="M276.5,240.59 C276.5,268.08 276.5,291.21 276.5,311.03" fill="none" id="New-to-Ready" style="stroke:#181818;stroke-width:1;"/><polygon fill="#181818" points="276.5,317.03,280.5,308.03,276.5,312.03,272.5,308.03,276.5,317.03" style="stroke:#181818;stroke-width:1;"/><text fill="#000000" font-family="sans-serif" font-size="13" lengthAdjust="spacing" textLength="47.7344" x="277.5" y="283.3669">admit()</text></g><!--link Ready to Running--><g class="link" data-entity-1="Ready" data-entity-2="Running" data-source-line="11" data-uid="lnk10" id="link_Ready_Running"><path d="M244.17,349.02 C217.42,355.64 181.07,369.43 163.5,397.3 C150.11,418.54 168.6517,435.0486 192.7417,448.1786" fill="none" id="Ready-to-Running" style="stroke:#181818;stroke-width:1;"/><polygon fill="#181818" points="198.01,451.05,192.0218,443.2307,193.6198,448.6571,188.1933,450.2551,198.01,451.05" style="stroke:#181818;stroke-width:1;"/><text fill="#000000" font-family="sans-serif" font-size="13" lengthAdjust="spacing" textLength="68.4023" x="164.5" y="410.3669">schedule()</text></g><!--link Running to Ready--><g class="link" data-entity-1="Running" data-entity-2="Ready" data-source-line="13" data-uid="lnk11" id="link_Running_Ready"><path d="M245.09,443.96 C251.96,421.96 260.233,395.4477 267.103,373.4277" fill="none" id="Running-to-Ready" style="stroke:#181818;stroke-width:1;"/><polygon fill="#181818" points="268.89,367.7,262.391,375.1002,267.4008,372.4731,270.028,377.4829,268.89,367.7" style="stroke:#181818;stroke-width:1;"/><text fill="#000000" font-family="sans-serif" font-size="13" lengthAdjust="spacing" textLength="67.3677" x="260.5" y="410.3669">interrupt()</text></g><!--link Running to Waiting--><g class="link" data-entity-1="Running" data-entity-2="Waiting" data-source-line="14" data-uid="lnk13" id="link_Running_Waiting"><path d="M253.27,494.75 C262.95,508.98 276.05,526.89 289.5,541.3 C299.22,551.71 306.2498,558.2541 316.9398,567.0641" fill="none" id="Running-to-Waiting" style="stroke:#181818;stroke-width:1;"/><polygon fill="#181818" points="321.57,570.88,317.1686,562.0693,317.7115,567.7001,312.0807,568.2429,321.57,570.88" style="stroke:#181818;stroke-width:1;"/><text fill="#000000" font-family="sans-serif" font-size="13" lengthAdjust="spacing" textLength="51.2383" x="290.5" y="537.3669">ioWait()</text></g><!--link Running to Terminated--><g class="link" data-entity-1="Running" data-entity-2="Terminated" data-source-line="15" data-uid="lnk15" id="link_Running_Terminated"><path d="M224.13,494.57 C219.84,503.62 215.65,514.16 213.5,524.3 C210.25,539.63 210.2965,551.2568 211.8365,565.0968" fill="none" id="Running-to-Terminated" style="stroke:#181818;stroke-width:1;"/><polygon fill="#181818" points="212.5,571.06,215.4802,561.6728,211.9471,566.0907,207.5292,562.5576,212.5,571.06" style="stroke:#181818;stroke-width:1;"/><text fill="#000000" font-family="sans-serif" font-size="13" lengthAdjust="spacing" textLength="34.5439" x="214.5" y="537.3669">exit()</text></g><!--link Waiting to Ready--><g class="link" data-entity-1="Waiting" data-entity-2="Ready" data-source-line="17" data-uid="lnk16" id="link_Waiting_Ready"><path d="M356.9,570.93 C361.17,531.98 364.86,454.29 336.5,397.3 C330.19,384.63 324.1429,377.3748 313.5429,368.6048" fill="none" id="Waiting-to-Ready" style="stroke:#181818;stroke-width:1;"/><polygon fill="#181818" points="308.92,364.78,313.3045,373.5991,312.7724,367.9673,318.4042,367.4353,308.92,364.78" style="stroke:#181818;stroke-width:1;"/><text fill="#000000" font-family="sans-serif" font-size="13" lengthAdjust="spacing" textLength="109.8208" x="359.5" y="473.8669">eventComplete()</text></g><!--SRC=[TP2zIWD158NxUOfRgX3iBMosib4HnK8inknDCcHt9ipE-eDOYR0XAMoqC3P6q41OjR98G5ycizd7S6PsOq8WtN3F_SwvPw8cuoqgQGXdjDgiIn5ptnE1aA0avP6Ha2j2JZPEeLBPXbsy82HILA5zmZK1c4cUH3FsoGqXLhAZ0wJ-5Mm1zKEcrjO9AGPEYZbdl6x4gDf0FmxGwULq4MPSePHnoneiwiUKgSA12VjUaWzHXepRYym6NXRvCsRH7yzDGq-4hG2LEu8Bqox0cW9HSuK1yj_UTD3HoLFU7-gafySZWjm7krdkIrPlEC3P6cIQjlNF7NZxHv1_tUhHsp8nIoYFDaYMlkhdGTP-pr-wA_tB2lE4dSqzo9B7oQWp6N_hZswMtA-Acl-9JNCv5lXyCBnfDXqdMTh_X_y0]--></g></svg>