<?xml version="1.0" encoding="us-ascii" standalone="no"?><svg xmlns="http://www.w3.org/2000/svg" xmlns:xlink="http://www.w3.org/1999/xlink" contentStyleType="text/css" height="270px" preserveAspectRatio="none" style="width:536px;height:270px;" version="1.1" viewBox="0 0 536 270" width="536px" zoomAndPan="magnify"><defs/><g><!--class Component--><g id="elem_Component"><rect codeLine="6" fill="#F1F1F1" height="64.2969" id="Component" rx="3.5" ry="3.5" style="stroke:#181818;stroke-width:0.5;" width="114" x="7" y="24.25"/><ellipse cx="22" cy="40.25" fill="#B4A7E5" rx="11" ry="11" style="stroke:#181818;stroke-width:1.0;"/><path d="M17.9219,36.0156 L17.9219,33.8594 L25.3125,33.8594 L25.3125,36.0156 L22.8438,36.0156 L22.8438,44.0938 L25.3125,44.0938 L25.3125,46.25 L17.9219,46.25 L17.9219,44.0938 L20.3906,44.0938 L20.3906,36.0156 L17.9219,36.0156 Z " fill="#000000"/><text fill="#000000" font-family="sans-serif" font-size="14" font-style="italic" lengthAdjust="spacing" textLength="82" x="36" y="45.0967">Component</text><line style="stroke:#181818;stroke-width:0.5;" x1="8" x2="120" y1="56.25" y2="56.25"/><line style="stroke:#181818;stroke-width:0.5;" x1="8" x2="120" y1="64.25" y2="64.25"/><ellipse cx="18" cy="77.8984" fill="#84BE84" rx="3" ry="3" style="stroke:#038048;stroke-width:1.0;"/><text fill="#000000" font-family="sans-serif" font-size="14" lengthAdjust="spacing" textLength="76" x="27" y="81.2451">operation()</text></g><!--class ConcreteComponent--><g id="elem_ConcreteComponent"><rect codeLine="10" fill="#F1F1F1" height="64.2969" id="ConcreteComponent" rx="3.5" ry="3.5" style="stroke:#181818;stroke-width:0.5;" width="178" x="351" y="183.1"/><ellipse cx="366" cy="199.1" fill="#ADD1B2" rx="11" ry="11" style="stroke:#181818;stroke-width:1.0;"/><path d="M368.9688,204.7406 Q368.3906,205.0375 367.75,205.1781 Q367.1094,205.3344 366.4063,205.3344 Q363.9063,205.3344 362.5781,203.6938 Q361.2656,202.0375 361.2656,198.9125 Q361.2656,195.7875 362.5781,194.1313 Q363.9063,192.475 366.4063,192.475 Q367.1094,192.475 367.75,192.6313 Q368.4063,192.7875 368.9688,193.0844 L368.9688,195.8031 Q368.3438,195.225 367.75,194.9594 Q367.1563,194.6781 366.5313,194.6781 Q365.1875,194.6781 364.5,195.7563 Q363.8125,196.8188 363.8125,198.9125 Q363.8125,201.0063 364.5,202.0844 Q365.1875,203.1469 366.5313,203.1469 Q367.1563,203.1469 367.75,202.8813 Q368.3438,202.6 368.9688,202.0219 L368.9688,204.7406 Z " fill="#000000"/><text fill="#000000" font-family="sans-serif" font-size="14" lengthAdjust="spacing" textLength="146" x="380" y="203.9467">ConcreteComponent</text><line style="stroke:#181818;stroke-width:0.5;" x1="352" x2="528" y1="215.1" y2="215.1"/><line style="stroke:#181818;stroke-width:0.5;" x1="352" x2="528" y1="223.1" y2="223.1"/><ellipse cx="362" cy="236.7484" fill="#84BE84" rx="3" ry="3" style="stroke:#038048;stroke-width:1.0;"/><text fill="#000000" font-family="sans-serif" font-size="14" lengthAdjust="spacing" textLength="76" x="371" y="240.0951">operation()</text></g><!--class Decorator--><g id="elem_Decorator"><rect codeLine="14" fill="#F1F1F1" height="64.2969" id="Decorator" rx="3.5" ry="3.5" style="stroke:#181818;stroke-width:0.5;" width="102" x="13" y="183.1"/><ellipse cx="28.45" cy="199.1" fill="#ADD1B2" rx="11" ry="11" style="stroke:#181818;stroke-width:1.0;"/><path d="M31.4188,204.7406 Q30.8406,205.0375 30.2,205.1781 Q29.5594,205.3344 28.8563,205.3344 Q26.3563,205.3344 25.0281,203.6938 Q23.7156,202.0375 23.7156,198.9125 Q23.7156,195.7875 25.0281,194.1313 Q26.3563,192.475 28.8563,192.475 Q29.5594,192.475 30.2,192.6313 Q30.8563,192.7875 31.4188,193.0844 L31.4188,195.8031 Q30.7938,195.225 30.2,194.9594 Q29.6063,194.6781 28.9813,194.6781 Q27.6375,194.6781 26.95,195.7563 Q26.2625,196.8188 26.2625,198.9125 Q26.2625,201.0063 26.95,202.0844 Q27.6375,203.1469 28.9813,203.1469 Q29.6063,203.1469 30.2,202.8813 Q30.7938,202.6 31.4188,202.0219 L31.4188,204.7406 Z " fill="#000000"/><text fill="#000000" font-family="sans-serif" font-size="14" lengthAdjust="spacing" textLength="69" x="42.55" y="203.9467">Decorator</text><line style="stroke:#181818;stroke-width:0.5;" x1="14" x2="114" y1="215.1" y2="215.1"/><line style="stroke:#181818;stroke-width:0.5;" x1="14" x2="114" y1="223.1" y2="223.1"/><ellipse cx="24" cy="236.7484" fill="#84BE84" rx="3" ry="3" style="stroke:#038048;stroke-width:1.0;"/><text fill="#000000" font-family="sans-serif" font-size="14" lengthAdjust="spacing" textLength="76" x="33" y="240.0951">operation()</text></g><!--class ConcreteDecorator--><g id="elem_ConcreteDecorator"><rect codeLine="18" fill="#F1F1F1" height="96.8906" id="ConcreteDecorator" rx="3.5" ry="3.5" style="stroke:#181818;stroke-width:0.5;" width="165" x="150.5" y="166.8"/><ellipse cx="165.5" cy="182.8" fill="#ADD1B2" rx="11" ry="11" style="stroke:#181818;stroke-width:1.0;"/><path d="M168.4688,188.4406 Q167.8906,188.7375 167.25,188.8781 Q166.6094,189.0344 165.9063,189.0344 Q163.4063,189.0344 162.0781,187.3938 Q160.7656,185.7375 160.7656,182.6125 Q160.7656,179.4875 162.0781,177.8313 Q163.4063,176.175 165.9063,176.175 Q166.6094,176.175 167.25,176.3313 Q167.9063,176.4875 168.4688,176.7844 L168.4688,179.5031 Q167.8438,178.925 167.25,178.6594 Q166.6563,178.3781 166.0313,178.3781 Q164.6875,178.3781 164,179.4563 Q163.3125,180.5188 163.3125,182.6125 Q163.3125,184.7063 164,185.7844 Q164.6875,186.8469 166.0313,186.8469 Q166.6563,186.8469 167.25,186.5813 Q167.8438,186.3 168.4688,185.7219 L168.4688,188.4406 Z " fill="#000000"/><text fill="#000000" font-family="sans-serif" font-size="14" lengthAdjust="spacing" textLength="133" x="179.5" y="187.6467">ConcreteDecorator</text><line style="stroke:#181818;stroke-width:0.5;" x1="151.5" x2="314.5" y1="198.8" y2="198.8"/><rect fill="none" height="6" style="stroke:#C82930;stroke-width:1.0;" width="6" x="158.5" y="209.4484"/><text fill="#000000" font-family="sans-serif" font-size="14" lengthAdjust="spacing" textLength="80" x="170.5" y="215.7951">addedState</text><line style="stroke:#181818;stroke-width:0.5;" x1="151.5" x2="314.5" y1="223.0969" y2="223.0969"/><ellipse cx="161.5" cy="236.7453" fill="#84BE84" rx="3" ry="3" style="stroke:#038048;stroke-width:1.0;"/><text fill="#000000" font-family="sans-serif" font-size="14" lengthAdjust="spacing" textLength="76" x="170.5" y="240.092">operation()</text><ellipse cx="161.5" cy="253.0422" fill="#84BE84" rx="3" ry="3" style="stroke:#038048;stroke-width:1.0;"/><text fill="#000000" font-family="sans-serif" font-size="14" lengthAdjust="spacing" textLength="123" x="170.5" y="256.3889">addedBehaviour()</text></g><g id="elem_N1"><path d="M155.5,9.5 L155.5,103.2969 A3.5,3.5 0 0 0 159,106.7969 L429,106.7969 A3.5,3.5 0 0 0 432.5,103.2969 L432.5,16 L422.5,6 L159,6 A3.5,3.5 0 0 0 155.5,9.5 " fill="#90EE90" style="stroke:#454645;stroke-width:1.0;"/><path d="M422.5,6 L422.5,14.25 A1.75,1.75 0 0 0 424.25,16 L432.5,16 L422.5,6 " fill="#90EE90" style="stroke:#454645;stroke-width:1.0;"/><text fill="#4169E1" font-family="sans-serif" font-size="13" font-weight="bold" lengthAdjust="spacing" textLength="73" x="161.5" y="23.0669">Decorator</text><text fill="#454645" font-family="sans-serif" font-size="13" font-weight="bold" lengthAdjust="spacing" textLength="40" x="161.5" y="38.1997">Type:</text><text fill="#454645" font-family="sans-serif" font-size="13" lengthAdjust="spacing" textLength="63" x="205.5" y="38.1997">Structural</text><text fill="#454645" font-family="sans-serif" font-size="13" lengthAdjust="spacing" textLength="243" x="161.5" y="53.3325">Attach additional responsibilities to an</text><text fill="#454645" font-family="sans-serif" font-size="13" lengthAdjust="spacing" textLength="233" x="161.5" y="68.4653">object dynamically. Provide a flexible</text><text fill="#454645" font-family="sans-serif" font-size="13" lengthAdjust="spacing" textLength="256" x="161.5" y="83.5981">alternative to sub-classing for extending</text><text fill="#454645" font-family="sans-serif" font-size="13" lengthAdjust="spacing" textLength="81" x="161.5" y="98.731">functionality.</text></g><!--reverse link Component to ConcreteComponent--><g id="link_Component_ConcreteComponent"><path codeLine="24" d="M89.5,107 C89.5,129.61 89.5,137.69 89.5,137.69 C89.5,137.69 391.75,137.69 391.75,137.69 C391.75,137.69 391.75,161.55 391.75,182.8 " fill="none" id="Component-backto-ConcreteComponent" style="stroke:#454645;stroke-width:1.0;"/><polygon fill="none" points="89.5,89,83.5,107,95.5,107,89.5,89" style="stroke:#454645;stroke-width:1.0;"/></g><!--reverse link Component to Decorator--><g id="link_Component_Decorator"><path codeLine="25" d="M38.5,106.93 C38.5,134.34 38.5,155.36 38.5,182.76 " fill="none" id="Component-backto-Decorator" style="stroke:#454645;stroke-width:1.0;"/><polygon fill="none" points="38.5,88.93,32.5,106.93,44.5,106.93,38.5,88.93" style="stroke:#454645;stroke-width:1.0;"/></g><!--link Component to Decorator--><g id="link_Component_Decorator"><path codeLine="26" d="M64,88.93 C64,116.34 64,143.36 64,170.76 " fill="none" id="Component-to-Decorator" style="stroke:#454645;stroke-width:1.0;"/><polygon fill="#454645" points="64,182.76,68,176.76,64,170.76,60,176.76,64,182.76" style="stroke:#454645;stroke-width:1.0;"/></g><!--reverse link Decorator to ConcreteDecorator--><g id="link_Decorator_ConcreteDecorator"><path codeLine="27" d="M133.16,215.69 C144.24,215.69 138.22,215.69 150.17,215.69 " fill="none" id="Decorator-backto-ConcreteDecorator" style="stroke:#454645;stroke-width:1.0;"/><polygon fill="none" points="115.16,215.69,133.16,221.69,133.16,209.69,115.16,215.69" style="stroke:#454645;stroke-width:1.0;"/></g><!--SRC=[ZPBFRi8m3CRlUGhljZygQ5TKLHhiF4rYB-2cBcIaSPMuY6hRkyzjDK30ORdb-tvnFiUvaoqr1CAzIJiNMepOG8bsjudSXMh5dYD8n93KeY1db7U1f6y9MlRziBdbSPGj6-E2KApH4gouQJbe9VWoeEi9kAM8uZZSFvWVOwp7b1GBDfBGF_5NigogPlrNrKiy0wmggjQ2GZVEJyg8B6cBUyTTdCgUukNVMNQT-X8uNdncPDdZcNwAfWUk0niJM0WmmTlpc2ilYzmEKrf4xj4lVKV5aSxderNayxBuepzqB8j1WBN4paeNqO_UYmZQxT2c6_f63v6IPaokT5ubIlfD0CC8S_b9Lg3g0pREelVz3DuZxrsbuQ3sT72bdzuIlSu-w5lkXty6gIkpSHekRA3MFkaW52hTZNJT1JjTxwIV6NLWwDZy0W00]--></g></svg>