<?xml version="1.0" encoding="us-ascii" standalone="no"?><svg xmlns="http://www.w3.org/2000/svg" xmlns:xlink="http://www.w3.org/1999/xlink" contentStyleType="text/css" height="331px" preserveAspectRatio="none" style="width:534px;height:331px;" version="1.1" viewBox="0 0 534 331" width="534px" zoomAndPan="magnify"><defs/><g><!--class Context--><g id="elem_Context"><rect codeLine="6" fill="#F1F1F1" height="56.2969" id="Context" rx="3.5" ry="3.5" style="stroke:#181818;stroke-width:0.5;" width="90" x="120.5" y="20.69"/><ellipse cx="137.3" cy="36.69" fill="#ADD1B2" rx="11" ry="11" style="stroke:#181818;stroke-width:1.0;"/><path d="M140.2688,42.3306 Q139.6906,42.6275 139.05,42.7681 Q138.4094,42.9244 137.7063,42.9244 Q135.2063,42.9244 133.8781,41.2838 Q132.5656,39.6275 132.5656,36.5025 Q132.5656,33.3775 133.8781,31.7212 Q135.2063,30.065 137.7063,30.065 Q138.4094,30.065 139.05,30.2212 Q139.7063,30.3775 140.2688,30.6744 L140.2688,33.3931 Q139.6438,32.815 139.05,32.5494 Q138.4563,32.2681 137.8313,32.2681 Q136.4875,32.2681 135.8,33.3463 Q135.1125,34.4088 135.1125,36.5025 Q135.1125,38.5963 135.8,39.6744 Q136.4875,40.7369 137.8313,40.7369 Q138.4563,40.7369 139.05,40.4713 Q139.6438,40.19 140.2688,39.6119 L140.2688,42.3306 Z " fill="#000000"/><text fill="#000000" font-family="sans-serif" font-size="14" lengthAdjust="spacing" textLength="54" x="151.7" y="41.5367">Context</text><line style="stroke:#181818;stroke-width:0.5;" x1="121.5" x2="209.5" y1="52.69" y2="52.69"/><ellipse cx="131.5" cy="66.3384" fill="#84BE84" rx="3" ry="3" style="stroke:#038048;stroke-width:1.0;"/><text fill="#000000" font-family="sans-serif" font-size="14" lengthAdjust="spacing" textLength="64" x="140.5" y="69.6851">request()</text></g><!--class State--><g id="elem_State"><rect codeLine="10" fill="#F1F1F1" height="56.2969" id="State" rx="3.5" ry="3.5" style="stroke:#181818;stroke-width:0.5;" width="83" x="124" y="151.67"/><ellipse cx="145.75" cy="167.67" fill="#B4A7E5" rx="11" ry="11" style="stroke:#181818;stroke-width:1.0;"/><path d="M141.6719,163.4356 L141.6719,161.2794 L149.0625,161.2794 L149.0625,163.4356 L146.5938,163.4356 L146.5938,171.5138 L149.0625,171.5138 L149.0625,173.67 L141.6719,173.67 L141.6719,171.5138 L144.1406,171.5138 L144.1406,163.4356 L141.6719,163.4356 Z " fill="#000000"/><text fill="#000000" font-family="sans-serif" font-size="14" font-style="italic" lengthAdjust="spacing" textLength="36" x="161.25" y="172.5167">State</text><line style="stroke:#181818;stroke-width:0.5;" x1="125" x2="206" y1="183.67" y2="183.67"/><ellipse cx="135" cy="197.3184" fill="#84BE84" rx="3" ry="3" style="stroke:#038048;stroke-width:1.0;"/><text fill="#000000" font-family="sans-serif" font-size="14" lengthAdjust="spacing" textLength="57" x="144" y="200.6651">handle()</text></g><!--class ConcreteState1--><g id="elem_ConcreteState1"><rect codeLine="14" fill="#F1F1F1" height="56.2969" id="ConcreteState1" rx="3.5" ry="3.5" style="stroke:#181818;stroke-width:0.5;" width="141" x="7" y="267.96"/><ellipse cx="22" cy="283.96" fill="#ADD1B2" rx="11" ry="11" style="stroke:#181818;stroke-width:1.0;"/><path d="M24.9688,289.6006 Q24.3906,289.8975 23.75,290.0381 Q23.1094,290.1944 22.4063,290.1944 Q19.9063,290.1944 18.5781,288.5538 Q17.2656,286.8975 17.2656,283.7725 Q17.2656,280.6475 18.5781,278.9913 Q19.9063,277.335 22.4063,277.335 Q23.1094,277.335 23.75,277.4913 Q24.4063,277.6475 24.9688,277.9444 L24.9688,280.6631 Q24.3438,280.085 23.75,279.8194 Q23.1563,279.5381 22.5313,279.5381 Q21.1875,279.5381 20.5,280.6163 Q19.8125,281.6788 19.8125,283.7725 Q19.8125,285.8663 20.5,286.9444 Q21.1875,288.0069 22.5313,288.0069 Q23.1563,288.0069 23.75,287.7413 Q24.3438,287.46 24.9688,286.8819 L24.9688,289.6006 Z " fill="#000000"/><text fill="#000000" font-family="sans-serif" font-size="14" lengthAdjust="spacing" textLength="109" x="36" y="288.8067">ConcreteState1</text><line style="stroke:#181818;stroke-width:0.5;" x1="8" x2="147" y1="299.96" y2="299.96"/><ellipse cx="18" cy="313.6084" fill="#84BE84" rx="3" ry="3" style="stroke:#038048;stroke-width:1.0;"/><text fill="#000000" font-family="sans-serif" font-size="14" lengthAdjust="spacing" textLength="57" x="27" y="316.9551">handle()</text></g><!--class ConcreteState2--><g id="elem_ConcreteState2"><rect codeLine="18" fill="#F1F1F1" height="56.2969" id="ConcreteState2" rx="3.5" ry="3.5" style="stroke:#181818;stroke-width:0.5;" width="141" x="183" y="267.96"/><ellipse cx="198" cy="283.96" fill="#ADD1B2" rx="11" ry="11" style="stroke:#181818;stroke-width:1.0;"/><path d="M200.9688,289.6006 Q200.3906,289.8975 199.75,290.0381 Q199.1094,290.1944 198.4063,290.1944 Q195.9063,290.1944 194.5781,288.5538 Q193.2656,286.8975 193.2656,283.7725 Q193.2656,280.6475 194.5781,278.9913 Q195.9063,277.335 198.4063,277.335 Q199.1094,277.335 199.75,277.4913 Q200.4063,277.6475 200.9688,277.9444 L200.9688,280.6631 Q200.3438,280.085 199.75,279.8194 Q199.1563,279.5381 198.5313,279.5381 Q197.1875,279.5381 196.5,280.6163 Q195.8125,281.6788 195.8125,283.7725 Q195.8125,285.8663 196.5,286.9444 Q197.1875,288.0069 198.5313,288.0069 Q199.1563,288.0069 199.75,287.7413 Q200.3438,287.46 200.9688,286.8819 L200.9688,289.6006 Z " fill="#000000"/><text fill="#000000" font-family="sans-serif" font-size="14" lengthAdjust="spacing" textLength="109" x="212" y="288.8067">ConcreteState2</text><line style="stroke:#181818;stroke-width:0.5;" x1="184" x2="323" y1="299.96" y2="299.96"/><ellipse cx="194" cy="313.6084" fill="#84BE84" rx="3" ry="3" style="stroke:#038048;stroke-width:1.0;"/><text fill="#000000" font-family="sans-serif" font-size="14" lengthAdjust="spacing" textLength="57" x="203" y="316.9551">handle()</text></g><g id="elem_N1"><path d="M246,9.5 L246,88.1641 A3.5,3.5 0 0 0 249.5,91.6641 L523.5,91.6641 A3.5,3.5 0 0 0 527,88.1641 L527,16 L517,6 L249.5,6 A3.5,3.5 0 0 0 246,9.5 " fill="#90EE90" style="stroke:#454645;stroke-width:1.0;"/><path d="M517,6 L517,14.25 A1.75,1.75 0 0 0 518.75,16 L527,16 L517,6 " fill="#90EE90" style="stroke:#454645;stroke-width:1.0;"/><text fill="#4169E1" font-family="sans-serif" font-size="13" font-weight="bold" lengthAdjust="spacing" textLength="39" x="252" y="23.0669">State</text><text fill="#454645" font-family="sans-serif" font-size="13" font-weight="bold" lengthAdjust="spacing" textLength="40" x="252" y="38.1997">Type:</text><text fill="#454645" font-family="sans-serif" font-size="13" lengthAdjust="spacing" textLength="67" x="296" y="38.1997">Behavioral</text><text fill="#454645" font-family="sans-serif" font-size="13" lengthAdjust="spacing" textLength="260" x="252" y="53.3325">Allow an object to alter its behavior when</text><text fill="#454645" font-family="sans-serif" font-size="13" lengthAdjust="spacing" textLength="258" x="252" y="68.4653">its internal state changes. The object will</text><text fill="#454645" font-family="sans-serif" font-size="13" lengthAdjust="spacing" textLength="172" x="252" y="83.5981">appear to change its class.</text></g><!--reverse link Context to State--><g id="link_Context_State"><path codeLine="24" d="M165.5,89.26 C165.5,111.22 165.5,129.49 165.5,151.45 " fill="none" id="Context-backto-State" style="stroke:#454645;stroke-width:1.0;"/><polygon fill="#454645" points="165.5,77.26,161.5,83.26,165.5,89.26,169.5,83.26,165.5,77.26" style="stroke:#454645;stroke-width:1.0;"/></g><!--reverse link State to ConcreteState1--><g id="link_State_ConcreteState1"><path codeLine="25" d="M136,226.26 C136,244.29 136,249.51 136,267.55 " fill="none" id="State-backto-ConcreteState1" style="stroke:#454645;stroke-width:1.0;"/><polygon fill="none" points="136,208.26,130,226.26,142,226.26,136,208.26" style="stroke:#454645;stroke-width:1.0;"/></g><!--reverse link State to ConcreteState2--><g id="link_State_ConcreteState2"><path codeLine="26" d="M195,226.26 C195,244.29 195,249.51 195,267.55 " fill="none" id="State-backto-ConcreteState2" style="stroke:#454645;stroke-width:1.0;"/><polygon fill="none" points="195,208.26,189,226.26,201,226.26,195,208.26" style="stroke:#454645;stroke-width:1.0;"/></g><!--SRC=[ZP7DJiCm48Jl-nJBZH-rLNkieaYqToxq1JREKfiwTh0tX0XuTno7L20L2T-yysayExuIpGsZ-07YoRYM0ZLOaJeTW-zSlVVM1vH0BYQ9dVoWh74iGylOUZkCbqkQ3w8zWB8K8-wz4tuJV0TCvmu3ltGSvVe6FW5Cqi8JASP78U4pfCdLbYVcRAC22sTk_LzmSn7KfcRaffK16sug3X5WZdcxM4nPO4fKVAJ1xyV_L3O0pYU58Zwiyxj5LHPgh7CR_41sPpikCrgiyhWiLbKvauVKtNOSu8urlHeVo6RjtbhV8pdqrJChIH-7P5DnQ2HYzSrYhzbbV9pcOXrPZ3chIkiVEIxne7bswOsTxAbjcSBeEc7P89Uv17OrZZl15m00]--></g></svg>