<svg xmlns="http://www.w3.org/2000/svg" xmlns:xlink="http://www.w3.org/1999/xlink" contentStyleType="text/css" data-diagram-type="CLASS" height="331px" preserveAspectRatio="none" style="width:580px;height:331px;" version="1.1" viewBox="0 0 580 331" width="580px" zoomAndPan="magnify"><defs/><g><!--class Client--><g class="entity" data-entity="Client" data-source-line="5" data-uid="ent0002" id="entity_Client"><rect fill="#F1F1F1" height="32" rx="2.5" ry="2.5" style="stroke:#181818;stroke-width:0.5;" width="72.5303" x="177.11" y="32.83"/><ellipse cx="192.11" cy="48.83" fill="#ADD1B2" rx="11" ry="11" style="stroke:#181818;stroke-width:1;"/><path d="M195.0788,54.4706 Q194.5006,54.7675 193.86,54.9081 Q193.2194,55.0644 192.5163,55.0644 Q190.0163,55.0644 188.6881,53.4237 Q187.3756,51.7675 187.3756,48.6425 Q187.3756,45.5175 188.6881,43.8612 Q190.0163,42.205 192.5163,42.205 Q193.2194,42.205 193.86,42.3612 Q194.5163,42.5175 195.0788,42.8144 L195.0788,45.5331 Q194.4538,44.955 193.86,44.6894 Q193.2663,44.4081 192.6413,44.4081 Q191.2975,44.4081 190.61,45.4862 Q189.9225,46.5487 189.9225,48.6425 Q189.9225,50.7362 190.61,51.8144 Q191.2975,52.8769 192.6413,52.8769 Q193.2663,52.8769 193.86,52.6112 Q194.4538,52.33 195.0788,51.7519 L195.0788,54.4706 Z " fill="#000000"/><text fill="#000000" font-family="sans-serif" font-size="14" lengthAdjust="spacing" textLength="40.5303" x="206.11" y="53.6767">Client</text></g><!--class Aggregate--><g class="entity" data-entity="Aggregate" data-source-line="7" data-uid="ent0003" id="entity_Aggregate"><rect fill="#F1F1F1" height="56.2969" rx="2.5" ry="2.5" style="stroke:#181818;stroke-width:0.5;" width="134.0488" x="61.35" y="151.67"/><ellipse cx="89.2923" cy="167.67" fill="#B4A7E5" rx="11" ry="11" style="stroke:#181818;stroke-width:1;"/><path d="M85.2142,163.4356 L85.2142,161.2794 L92.6048,161.2794 L92.6048,163.4356 L90.1361,163.4356 L90.1361,171.5138 L92.6048,171.5138 L92.6048,173.67 L85.2142,173.67 L85.2142,171.5138 L87.683,171.5138 L87.683,163.4356 L85.2142,163.4356 Z " fill="#000000"/><text fill="#000000" font-family="sans-serif" font-size="14" font-style="italic" lengthAdjust="spacing" textLength="73.2881" x="106.1684" y="172.5167">Aggregate</text><line style="stroke:#181818;stroke-width:0.5;" x1="62.35" x2="194.3988" y1="183.67" y2="183.67"/><ellipse cx="72.35" cy="197.3184" fill="#84BE84" rx="3" ry="3" style="stroke:#038048;stroke-width:1;"/><text fill="#000000" font-family="sans-serif" font-size="14" lengthAdjust="spacing" textLength="108.0488" x="81.35" y="200.6651">createIterator()</text></g><!--class ConcreteAggregate--><g class="entity" data-entity="ConcreteAggregate" data-source-line="11" data-uid="ent0004" id="entity_ConcreteAggregate"><rect fill="#F1F1F1" height="56.2969" rx="2.5" ry="2.5" style="stroke:#181818;stroke-width:0.5;" width="202.7568" x="7" y="267.96"/><ellipse cx="37.3387" cy="283.96" fill="#ADD1B2" rx="11" ry="11" style="stroke:#181818;stroke-width:1;"/><path d="M40.3074,289.6006 Q39.7293,289.8975 39.0887,290.0381 Q38.448,290.1944 37.7449,290.1944 Q35.2449,290.1944 33.9168,288.5538 Q32.6043,286.8975 32.6043,283.7725 Q32.6043,280.6475 33.9168,278.9913 Q35.2449,277.335 37.7449,277.335 Q38.448,277.335 39.0887,277.4913 Q39.7449,277.6475 40.3074,277.9444 L40.3074,280.6631 Q39.6824,280.085 39.0887,279.8194 Q38.4949,279.5381 37.8699,279.5381 Q36.5262,279.5381 35.8387,280.6163 Q35.1512,281.6788 35.1512,283.7725 Q35.1512,285.8663 35.8387,286.9444 Q36.5262,288.0069 37.8699,288.0069 Q38.4949,288.0069 39.0887,287.7413 Q39.6824,287.46 40.3074,286.8819 L40.3074,289.6006 Z " fill="#000000"/><text fill="#000000" font-family="sans-serif" font-size="14" lengthAdjust="spacing" textLength="136.6709" x="54.7473" y="288.8067">ConcreteAggregate</text><line style="stroke:#181818;stroke-width:0.5;" x1="8" x2="208.7568" y1="299.96" y2="299.96"/><ellipse cx="18" cy="313.6084" fill="#84BE84" rx="3" ry="3" style="stroke:#038048;stroke-width:1;"/><text fill="#000000" font-family="sans-serif" font-size="14" lengthAdjust="spacing" textLength="176.7568" x="27" y="316.9551">createIterator() : Context</text></g><!--class Iterator--><g class="entity" data-entity="Iterator" data-source-line="15" data-uid="ent0005" id="entity_Iterator"><rect fill="#F1F1F1" height="56.2969" rx="2.5" ry="2.5" style="stroke:#181818;stroke-width:0.5;" width="136.8926" x="239.93" y="151.67"/><ellipse cx="278.562" cy="167.67" fill="#B4A7E5" rx="11" ry="11" style="stroke:#181818;stroke-width:1;"/><path d="M274.4839,163.4356 L274.4839,161.2794 L281.8745,161.2794 L281.8745,163.4356 L279.4058,163.4356 L279.4058,171.5138 L281.8745,171.5138 L281.8745,173.67 L274.4839,173.67 L274.4839,171.5138 L276.9527,171.5138 L276.9527,163.4356 L274.4839,163.4356 Z " fill="#000000"/><text fill="#000000" font-family="sans-serif" font-size="14" font-style="italic" lengthAdjust="spacing" textLength="52.377" x="297.8136" y="172.5167">Iterator</text><line style="stroke:#181818;stroke-width:0.5;" x1="240.93" x2="375.8226" y1="183.67" y2="183.67"/><ellipse cx="250.93" cy="197.3184" fill="#84BE84" rx="3" ry="3" style="stroke:#038048;stroke-width:1;"/><text fill="#000000" font-family="sans-serif" font-size="14" lengthAdjust="spacing" textLength="110.8926" x="259.93" y="200.6651">next() : Context</text></g><!--class ConcreteIterator--><g class="entity" data-entity="ConcreteIterator" data-source-line="19" data-uid="ent0006" id="entity_ConcreteIterator"><rect fill="#F1F1F1" height="56.2969" rx="2.5" ry="2.5" style="stroke:#181818;stroke-width:0.5;" width="147.7598" x="244.5" y="267.96"/><ellipse cx="259.5" cy="283.96" fill="#ADD1B2" rx="11" ry="11" style="stroke:#181818;stroke-width:1;"/><path d="M262.4688,289.6006 Q261.8906,289.8975 261.25,290.0381 Q260.6094,290.1944 259.9063,290.1944 Q257.4063,290.1944 256.0781,288.5538 Q254.7656,286.8975 254.7656,283.7725 Q254.7656,280.6475 256.0781,278.9913 Q257.4063,277.335 259.9063,277.335 Q260.6094,277.335 261.25,277.4913 Q261.9063,277.6475 262.4688,277.9444 L262.4688,280.6631 Q261.8438,280.085 261.25,279.8194 Q260.6563,279.5381 260.0313,279.5381 Q258.6875,279.5381 258,280.6163 Q257.3125,281.6788 257.3125,283.7725 Q257.3125,285.8663 258,286.9444 Q258.6875,288.0069 260.0313,288.0069 Q260.6563,288.0069 261.25,287.7413 Q261.8438,287.46 262.4688,286.8819 L262.4688,289.6006 Z " fill="#000000"/><text fill="#000000" font-family="sans-serif" font-size="14" lengthAdjust="spacing" textLength="115.7598" x="273.5" y="288.8067">ConcreteIterator</text><line style="stroke:#181818;stroke-width:0.5;" x1="245.5" x2="391.2598" y1="299.96" y2="299.96"/><ellipse cx="255.5" cy="313.6084" fill="#84BE84" rx="3" ry="3" style="stroke:#038048;stroke-width:1;"/><text fill="#000000" font-family="sans-serif" font-size="14" lengthAdjust="spacing" textLength="110.8926" x="264.5" y="316.9551">next() : Context</text></g><g class="entity" data-entity="N1" data-source-line="31" data-uid="ent0011" id="entity_N1"><path d="M284.94,6 L284.94,91.6641 L573.8238,91.6641 L573.8238,16 L563.8238,6 L284.94,6" fill="#FEFFDD" style="stroke:#181818;stroke-width:0.5;"/><path d="M563.8238,6 L563.8238,16 L573.8238,16 L563.8238,6" fill="#FEFFDD" style="stroke:#181818;stroke-width:1;"/><text fill="#4169E1" font-family="sans-serif" font-size="13" font-weight="bold" lengthAdjust="spacing" textLength="56.6084" x="290.94" y="23.0669">Iterator</text><text fill="#000000" font-family="sans-serif" font-size="13" font-weight="bold" lengthAdjust="spacing" textLength="40.6631" x="290.94" y="38.1997">Type:</text><text fill="#000000" font-family="sans-serif" font-size="13" lengthAdjust="spacing" textLength="69.3037" x="335.7354" y="38.1997">Behavioral</text><text fill="#000000" font-family="sans-serif" font-size="13" lengthAdjust="spacing" textLength="262.9771" x="290.94" y="53.3325">Provide a way to access the elements of</text><text fill="#000000" font-family="sans-serif" font-size="13" lengthAdjust="spacing" textLength="267.8838" x="290.94" y="68.4653">an aggregate object sequentially without</text><text fill="#000000" font-family="sans-serif" font-size="13" lengthAdjust="spacing" textLength="256.1787" x="290.94" y="83.5981">exposing its underlying representation.</text></g><!--link Client to Aggregate--><g class="link" data-entity-1="Client" data-entity-2="Aggregate" data-source-line="25" data-uid="lnk7" id="link_Client_Aggregate"><path codeLine="25" d="M186.26,65.16 C186.26,86.69 186.26,118.94 186.26,145.3" fill="none" id="Client-to-Aggregate" style="stroke:#181818;stroke-width:1;"/><polygon fill="#181818" points="186.26,151.3,190.26,142.3,186.26,146.3,182.26,142.3,186.26,151.3" style="stroke:#181818;stroke-width:1;"/></g><!--link Client to Iterator--><g class="link" data-entity-1="Client" data-entity-2="Iterator" data-source-line="26" data-uid="lnk8" id="link_Client_Iterator"><path codeLine="26" d="M244.79,65.16 C244.79,86.69 244.79,118.94 244.79,145.3" fill="none" id="Client-to-Iterator" style="stroke:#181818;stroke-width:1;"/><polygon fill="#181818" points="244.79,151.3,248.79,142.3,244.79,146.3,240.79,142.3,244.79,151.3" style="stroke:#181818;stroke-width:1;"/></g><!--reverse link Aggregate to ConcreteAggregate--><g class="link" data-entity-1="Aggregate" data-entity-2="ConcreteAggregate" data-source-line="27" data-uid="lnk9" id="link_Aggregate_ConcreteAggregate"><path codeLine="27" d="M128.38,226.26 C128.38,244.29 128.38,249.51 128.38,267.55" fill="none" id="Aggregate-backto-ConcreteAggregate" style="stroke:#181818;stroke-width:1;"/><polygon fill="none" points="128.38,208.26,122.38,226.26,134.38,226.26,128.38,208.26" style="stroke:#181818;stroke-width:1;"/></g><!--reverse link Iterator to ConcreteIterator--><g class="link" data-entity-1="Iterator" data-entity-2="ConcreteIterator" data-source-line="28" data-uid="lnk10" id="link_Iterator_ConcreteIterator"><path codeLine="28" d="M310.66,226.26 C310.66,244.29 310.66,249.51 310.66,267.55" fill="none" id="Iterator-backto-ConcreteIterator" style="stroke:#181818;stroke-width:1;"/><polygon fill="none" points="310.66,208.26,304.66,226.26,316.66,226.26,310.66,208.26" style="stroke:#181818;stroke-width:1;"/></g><!--SRC=[ZPB1JiCm38RlUGeVGMXCNAUg4kF41N7W1TpCQyFIk3ZkjWfuTvAYTWoG83Vd_tuxVvAuSw53mHOgjBjQk0-RE_Oie88X9ec2cZXJtWNIeIFes0-v-4rZqOQDiHvZX3llSWlZWf9iqHBSrhLGZKhmQY2jAx12gRnF02hBnQLvdzqSagZqjmTM6LOwQdQVfat4R0m9-OwV3_kNfN4R0cex7Q2bjYA9ndncXSMYF8NykZarDgSunTjYyJEbcOzmfiz-4pXvCSB3pNZ4eYeBcvzj9JoWN_kUoWakbgDI5ikgdE2dz4ohl05hQd3lMD2FsgFmFWT3EE00oe3MKheQRL9OJsrA4e6t8ui1SCx1rJDPXKWlVM8SUZ_0mQL_qEi8qx7Zw48DBZL8dup43xaKweHYig0w3jU6mWPok0y0]--></g></svg>