<svg xmlns="http://www.w3.org/2000/svg" xmlns:xlink="http://www.w3.org/1999/xlink" contentStyleType="text/css" height="594px" preserveAspectRatio="none" style="width:692px;height:594px;background:#FFFFFF;" version="1.1" viewBox="0 0 692 594" width="692px" zoomAndPan="magnify"><defs/><g><rect fill="#FFBBBB" height="167.0625" style="stroke:#181818;stroke-width:1.0;" width="10" x="412.5" y="67.4297"/><rect fill="#FFBBBB" height="29.1328" style="stroke:#181818;stroke-width:1.0;" width="10" x="412.5" y="291.625"/><rect fill="#E9967A" height="77.3984" style="stroke:#181818;stroke-width:1.0;" width="10" x="579.5" y="416.1563"/><rect fill="none" height="123.6641" style="stroke:#000000;stroke-width:1.5;" width="551" x="135" y="377.8906"/><line style="stroke:#181818;stroke-width:0.5;stroke-dasharray:5.0,5.0;" x1="70" x2="70" y1="36.2969" y2="242.4922"/><line style="stroke:#A80036;stroke-width:1.0;stroke-dasharray:1.0,4.0;" x1="70" x2="70" y1="242.4922" y2="270.4922"/><line style="stroke:#181818;stroke-width:0.5;stroke-dasharray:5.0,5.0;" x1="70" x2="70" y1="270.4922" y2="508.5547"/><line style="stroke:#A80036;stroke-width:1.0;stroke-dasharray:1.0,4.0;" x1="70" x2="70" y1="508.5547" y2="549.3594"/><line style="stroke:#181818;stroke-width:0.5;stroke-dasharray:5.0,5.0;" x1="70" x2="70" y1="549.3594" y2="559.3594"/><line style="stroke:#181818;stroke-width:0.5;stroke-dasharray:5.0,5.0;" x1="223" x2="223" y1="36.2969" y2="242.4922"/><line style="stroke:#A80036;stroke-width:1.0;stroke-dasharray:1.0,4.0;" x1="223" x2="223" y1="242.4922" y2="270.4922"/><line style="stroke:#181818;stroke-width:0.5;stroke-dasharray:5.0,5.0;" x1="223" x2="223" y1="270.4922" y2="508.5547"/><line style="stroke:#A80036;stroke-width:1.0;stroke-dasharray:1.0,4.0;" x1="223" x2="223" y1="508.5547" y2="549.3594"/><line style="stroke:#181818;stroke-width:0.5;stroke-dasharray:5.0,5.0;" x1="223" x2="223" y1="549.3594" y2="559.3594"/><line style="stroke:#181818;stroke-width:0.5;stroke-dasharray:5.0,5.0;" x1="417" x2="417" y1="36.2969" y2="242.4922"/><line style="stroke:#A80036;stroke-width:1.0;stroke-dasharray:1.0,4.0;" x1="417" x2="417" y1="242.4922" y2="270.4922"/><line style="stroke:#181818;stroke-width:0.5;stroke-dasharray:5.0,5.0;" x1="417" x2="417" y1="270.4922" y2="508.5547"/><line style="stroke:#A80036;stroke-width:1.0;stroke-dasharray:1.0,4.0;" x1="417" x2="417" y1="508.5547" y2="549.3594"/><line style="stroke:#181818;stroke-width:0.5;stroke-dasharray:5.0,5.0;" x1="417" x2="417" y1="549.3594" y2="559.3594"/><line style="stroke:#181818;stroke-width:0.5;stroke-dasharray:5.0,5.0;" x1="584" x2="584" y1="36.2969" y2="242.4922"/><line style="stroke:#A80036;stroke-width:1.0;stroke-dasharray:1.0,4.0;" x1="584" x2="584" y1="242.4922" y2="270.4922"/><line style="stroke:#181818;stroke-width:0.5;stroke-dasharray:5.0,5.0;" x1="584" x2="584" y1="270.4922" y2="508.5547"/><line style="stroke:#A80036;stroke-width:1.0;stroke-dasharray:1.0,4.0;" x1="584" x2="584" y1="508.5547" y2="549.3594"/><line style="stroke:#181818;stroke-width:0.5;stroke-dasharray:5.0,5.0;" x1="584" x2="584" y1="549.3594" y2="559.3594"/><rect fill="#E2E2F0" height="30.2969" rx="2.5" ry="2.5" style="stroke:#181818;stroke-width:0.5;" width="130" x="5" y="5"/><text fill="#000000" font-family="sans-serif" font-size="14" lengthAdjust="spacing" textLength="116" x="12" y="24.9951">Resource Owner</text><rect fill="#E2E2F0" height="30.2969" rx="2.5" ry="2.5" style="stroke:#181818;stroke-width:0.5;" width="130" x="5" y="558.3594"/><text fill="#000000" font-family="sans-serif" font-size="14" lengthAdjust="spacing" textLength="116" x="12" y="578.3545">Resource Owner</text><rect fill="#E2E2F0" height="30.2969" rx="2.5" ry="2.5" style="stroke:#181818;stroke-width:0.5;" width="157" x="145" y="5"/><text fill="#000000" font-family="sans-serif" font-size="14" lengthAdjust="spacing" textLength="143" x="152" y="24.9951">Javascript Application</text><rect fill="#E2E2F0" height="30.2969" rx="2.5" ry="2.5" style="stroke:#181818;stroke-width:0.5;" width="157" x="145" y="558.3594"/><text fill="#000000" font-family="sans-serif" font-size="14" lengthAdjust="spacing" textLength="143" x="152" y="578.3545">Javascript Application</text><rect fill="#E2E2F0" height="30.2969" rx="2.5" ry="2.5" style="stroke:#181818;stroke-width:0.5;" width="153" x="341" y="5"/><text fill="#000000" font-family="sans-serif" font-size="14" lengthAdjust="spacing" textLength="139" x="348" y="24.9951">Authorization Server</text><rect fill="#E2E2F0" height="30.2969" rx="2.5" ry="2.5" style="stroke:#181818;stroke-width:0.5;" width="153" x="341" y="558.3594"/><text fill="#000000" font-family="sans-serif" font-size="14" lengthAdjust="spacing" textLength="139" x="348" y="578.3545">Authorization Server</text><rect fill="#E2E2F0" height="30.2969" rx="2.5" ry="2.5" style="stroke:#181818;stroke-width:0.5;" width="129" x="520" y="5"/><text fill="#000000" font-family="sans-serif" font-size="14" lengthAdjust="spacing" textLength="115" x="527" y="24.9951">Resource Server</text><rect fill="#E2E2F0" height="30.2969" rx="2.5" ry="2.5" style="stroke:#181818;stroke-width:0.5;" width="129" x="520" y="558.3594"/><text fill="#000000" font-family="sans-serif" font-size="14" lengthAdjust="spacing" textLength="115" x="527" y="578.3545">Resource Server</text><rect fill="#FFBBBB" height="167.0625" style="stroke:#181818;stroke-width:1.0;" width="10" x="412.5" y="67.4297"/><rect fill="#FFBBBB" height="29.1328" style="stroke:#181818;stroke-width:1.0;" width="10" x="412.5" y="291.625"/><rect fill="#E9967A" height="77.3984" style="stroke:#181818;stroke-width:1.0;" width="10" x="579.5" y="416.1563"/><polygon fill="#181818" points="400.5,63.4297,410.5,67.4297,400.5,71.4297,404.5,67.4297" style="stroke:#181818;stroke-width:1.0;"/><line style="stroke:#181818;stroke-width:1.0;" x1="223.5" x2="406.5" y1="67.4297" y2="67.4297"/><text fill="#000000" font-family="sans-serif" font-size="13" lengthAdjust="spacing" textLength="143" x="230.5" y="62.3638">Access Token Request</text><rect fill="#FEFFDD" height="98" style="stroke:#181818;stroke-width:0.5;" width="195" x="320" y="80.4297"/><text fill="#000000" font-family="sans-serif" font-size="13" lengthAdjust="spacing" textLength="41" x="324" y="96.4966">Needs</text><text fill="#000000" font-family="sans-serif" font-size="13" lengthAdjust="spacing" textLength="16" x="324" y="111.6294">&#160;&#160;&#160;&#160;</text><text fill="#000000" font-family="sans-serif" font-size="13" font-style="italic" font-weight="bold" lengthAdjust="spacing" textLength="61" x="340" y="111.6294">client_id</text><text fill="#000000" font-family="sans-serif" font-size="13" lengthAdjust="spacing" textLength="16" x="324" y="126.7622">&#160;&#160;&#160;&#160;</text><text fill="#000000" font-family="sans-serif" font-size="13" font-style="italic" font-weight="bold" lengthAdjust="spacing" textLength="84" x="340" y="126.7622">redirect_uri</text><text fill="#000000" font-family="sans-serif" font-size="13" lengthAdjust="spacing" textLength="16" x="324" y="141.895">&#160;&#160;&#160;&#160;</text><text fill="#000000" font-family="sans-serif" font-size="13" font-style="italic" font-weight="bold" lengthAdjust="spacing" textLength="124" x="340" y="141.895">response_type =</text><text fill="#FF0000" font-family="sans-serif" font-size="13" font-style="italic" font-weight="bold" lengthAdjust="spacing" textLength="42" x="469" y="141.895">token</text><text fill="#000000" font-family="sans-serif" font-size="13" lengthAdjust="spacing" textLength="5" x="340" y="157.0278">[</text><text fill="#000000" font-family="sans-serif" font-size="13" font-style="italic" font-weight="bold" lengthAdjust="spacing" textLength="44" x="345" y="157.0278">scope</text><text fill="#000000" font-family="sans-serif" font-size="13" lengthAdjust="spacing" textLength="5" x="389" y="157.0278">]</text><text fill="#000000" font-family="sans-serif" font-size="13" lengthAdjust="spacing" textLength="5" x="340" y="172.1606">[</text><text fill="#000000" font-family="sans-serif" font-size="13" font-style="italic" font-weight="bold" lengthAdjust="spacing" textLength="38" x="345" y="172.1606">state</text><text fill="#000000" font-family="sans-serif" font-size="13" lengthAdjust="spacing" textLength="5" x="383" y="172.1606">]</text><polygon fill="#181818" points="400.5,201.3594,410.5,205.3594,400.5,209.3594,404.5,205.3594" style="stroke:#181818;stroke-width:1.0;"/><line style="stroke:#181818;stroke-width:1.0;" x1="70" x2="406.5" y1="205.3594" y2="205.3594"/><text fill="#000000" font-family="sans-serif" font-size="13" lengthAdjust="spacing" textLength="106" x="77" y="200.2935">Login &amp; Consent</text><polygon fill="#181818" points="234.5,230.4922,224.5,234.4922,234.5,238.4922,230.5,234.4922" style="stroke:#181818;stroke-width:1.0;"/><line style="stroke:#181818;stroke-width:1.0;stroke-dasharray:2.0,2.0;" x1="228.5" x2="416.5" y1="234.4922" y2="234.4922"/><text fill="#000000" font-family="sans-serif" font-size="13" lengthAdjust="spacing" textLength="87" x="240.5" y="229.4263">Access Token</text><polygon fill="#181818" points="400.5,287.625,410.5,291.625,400.5,295.625,404.5,291.625" style="stroke:#181818;stroke-width:1.0;"/><line style="stroke:#181818;stroke-width:1.0;" x1="223.5" x2="406.5" y1="291.625" y2="291.625"/><text fill="#000000" font-family="sans-serif" font-size="13" lengthAdjust="spacing" textLength="170" x="230.5" y="286.5591">Access Token Info Request</text><polygon fill="#181818" points="234.5,316.7578,224.5,320.7578,234.5,324.7578,230.5,320.7578" style="stroke:#181818;stroke-width:1.0;"/><line style="stroke:#181818;stroke-width:1.0;stroke-dasharray:2.0,2.0;" x1="228.5" x2="416.5" y1="320.7578" y2="320.7578"/><text fill="#000000" font-family="sans-serif" font-size="13" lengthAdjust="spacing" textLength="114" x="240.5" y="315.6919">Access Token Info</text><line style="stroke:#181818;stroke-width:1.0;" x1="223.5" x2="265.5" y1="349.8906" y2="349.8906"/><line style="stroke:#181818;stroke-width:1.0;" x1="265.5" x2="265.5" y1="349.8906" y2="362.8906"/><line style="stroke:#181818;stroke-width:1.0;" x1="224.5" x2="265.5" y1="362.8906" y2="362.8906"/><polygon fill="#181818" points="234.5,358.8906,224.5,362.8906,234.5,366.8906,230.5,362.8906" style="stroke:#181818;stroke-width:1.0;"/><text fill="#000000" font-family="sans-serif" font-size="13" lengthAdjust="spacing" textLength="108" x="230.5" y="344.8247">Validate client_id</text><path d="M135,377.8906 L212,377.8906 L212,385.0234 L202,395.0234 L135,395.0234 L135,377.8906 " fill="#EEEEEE" style="stroke:#000000;stroke-width:1.5;"/><rect fill="none" height="123.6641" style="stroke:#000000;stroke-width:1.5;" width="551" x="135" y="377.8906"/><text fill="#000000" font-family="sans-serif" font-size="13" font-weight="bold" lengthAdjust="spacing" textLength="32" x="150" y="390.9575">loop</text><polygon fill="#181818" points="567.5,412.1563,577.5,416.1563,567.5,420.1563,571.5,416.1563" style="stroke:#181818;stroke-width:1.0;"/><line style="stroke:#181818;stroke-width:1.0;" x1="223.5" x2="573.5" y1="416.1563" y2="416.1563"/><text fill="#000000" font-family="sans-serif" font-size="13" lengthAdjust="spacing" textLength="167" x="230.5" y="411.0903">Call API with Access Token</text><rect fill="#FEFFDD" height="38" style="stroke:#181818;stroke-width:0.5;" width="183" x="493" y="429.1563"/><text fill="#000000" font-family="sans-serif" font-size="13" lengthAdjust="spacing" textLength="144" x="497" y="445.2231">Must Implement CORS</text><text fill="#000000" font-family="sans-serif" font-size="13" lengthAdjust="spacing" textLength="175" x="497" y="460.356">for Cross-Domain Requests</text><polygon fill="#181818" points="234.5,489.5547,224.5,493.5547,234.5,497.5547,230.5,493.5547" style="stroke:#181818;stroke-width:1.0;"/><line style="stroke:#181818;stroke-width:1.0;stroke-dasharray:2.0,2.0;" x1="228.5" x2="583.5" y1="493.5547" y2="493.5547"/><text fill="#000000" font-family="sans-serif" font-size="13" lengthAdjust="spacing" textLength="133" x="240.5" y="488.4888">Response With Data[</text><text fill="#A209E1" font-family="sans-serif" font-size="13" font-weight="bold" lengthAdjust="spacing" textLength="98" x="373.5" y="488.4888">Unauthorized</text><text fill="#000000" font-family="sans-serif" font-size="13" lengthAdjust="spacing" textLength="4" x="471.5" y="488.4888">|</text><text fill="#006400" font-family="sans-serif" font-size="13" font-weight="bold" lengthAdjust="spacing" textLength="92" x="475.5" y="488.4888">Real wanted</text><text fill="#000000" font-family="sans-serif" font-size="13" lengthAdjust="spacing" textLength="5" x="567.5" y="488.4888">]</text><text fill="#000000" font-family="sans-serif" font-size="11" lengthAdjust="spacing" textLength="139" x="255.75" y="532.7651">subsequent as you wish</text><!--SRC=[hLHDRnCn4BtxLumQYKEaiC2DA4HQ4eg2WA8DXKDLHSOx9LOTZx6zYLhnunblcssoqQP5CCVvydipy-oaZrff9ss4am83LLuXd6qi-XFXTeCVv5e6vRMBa3jdj99HasqbvLLSajUtTGpcwDS7VPf7jb7HrHe6uuwEGyYLmX3WArsZXG9_LHYYa2hgjOpOKGMzqzEtR49uIvn5xEo2_1cn30BOigpVLqQZZGjTzljPrdWzbjgZYelAwrOWEB815_768Ro1aI937dfSC8u9yIYhFUEcwYAL1KKEa-jonnUPpvqFRLdZve6r5dLiK1_ffxRm32O9a8tTmnuD1a-QjX0bFZ9eyRos_x3PcRsYlrxlFrEidtq2pUFyEc93-2QDBbFRvgo48NAFj6lhPWWJQGpaNsQmqN6vlwC7vEqow4sblvvBioAxfuC3NQOR_5I52BELCxXYf30vA-Qr_uhFUU8fXC6KLb8t4WmFLtfy2uTiYdlHmFV4PYgZlDZg9d_rulMxbwoMSoll5u4inQsAVc_pIcRstYDQJYrG6jZmZxERURctrCEVYC4BaQutL3z2OiISPO0RgdZ6OGaS-GC0]--></g></svg>