<svg xmlns="http://www.w3.org/2000/svg" xmlns:xlink="http://www.w3.org/1999/xlink" contentStyleType="text/css" data-diagram-type="CLASS" height="363px" preserveAspectRatio="none" style="width:557px;height:363px;" version="1.1" viewBox="0 0 557 363" width="557px" zoomAndPan="magnify"><defs/><g><!--class Client--><g class="entity" data-entity="Client" data-source-line="5" data-uid="ent0002" id="entity_Client"><rect fill="#F1F1F1" height="32" rx="2.5" ry="2.5" style="stroke:#181818;stroke-width:0.5;" width="72.5303" x="154.07" y="32.83"/><ellipse cx="169.07" cy="48.83" fill="#ADD1B2" rx="11" ry="11" style="stroke:#181818;stroke-width:1;"/><path d="M172.0388,54.4706 Q171.4606,54.7675 170.82,54.9081 Q170.1794,55.0644 169.4763,55.0644 Q166.9763,55.0644 165.6481,53.4238 Q164.3356,51.7675 164.3356,48.6425 Q164.3356,45.5175 165.6481,43.8613 Q166.9763,42.205 169.4763,42.205 Q170.1794,42.205 170.82,42.3613 Q171.4763,42.5175 172.0388,42.8144 L172.0388,45.5331 Q171.4138,44.955 170.82,44.6894 Q170.2263,44.4081 169.6013,44.4081 Q168.2575,44.4081 167.57,45.4863 Q166.8825,46.5488 166.8825,48.6425 Q166.8825,50.7363 167.57,51.8144 Q168.2575,52.8769 169.6013,52.8769 Q170.2263,52.8769 170.82,52.6113 Q171.4138,52.33 172.0388,51.7519 L172.0388,54.4706 Z " fill="#000000"/><text fill="#000000" font-family="sans-serif" font-size="14" lengthAdjust="spacing" textLength="40.5303" x="183.07" y="53.6767">Client</text></g><!--class Aggregate--><g class="entity" data-entity="Aggregate" data-source-line="7" data-uid="ent0003" id="entity_Aggregate"><rect fill="#F1F1F1" height="56.2969" rx="2.5" ry="2.5" style="stroke:#181818;stroke-width:0.5;" width="134.0488" x="38.31" y="159.81"/><ellipse cx="66.2523" cy="175.81" fill="#B4A7E5" rx="11" ry="11" style="stroke:#181818;stroke-width:1;"/><path d="M62.1742,171.5756 L62.1742,169.4194 L69.5648,169.4194 L69.5648,171.5756 L67.0961,171.5756 L67.0961,179.6538 L69.5648,179.6538 L69.5648,181.81 L62.1742,181.81 L62.1742,179.6538 L64.643,179.6538 L64.643,171.5756 L62.1742,171.5756 Z " fill="#000000"/><text fill="#000000" font-family="sans-serif" font-size="14" font-style="italic" lengthAdjust="spacing" textLength="73.2881" x="83.1284" y="180.6567">Aggregate</text><line style="stroke:#181818;stroke-width:0.5;" x1="39.31" x2="171.3588" y1="191.81" y2="191.81"/><ellipse cx="49.31" cy="205.4584" fill="#84BE84" rx="3" ry="3" style="stroke:#038048;stroke-width:1;"/><text fill="#000000" font-family="sans-serif" font-size="14" lengthAdjust="spacing" textLength="108.0488" x="58.31" y="208.8051">createIterator()</text></g><!--class ConcreteAggregate--><g class="entity" data-entity="ConcreteAggregate" data-source-line="11" data-uid="ent0004" id="entity_ConcreteAggregate"><rect fill="#F1F1F1" height="56.2969" rx="2.5" ry="2.5" style="stroke:#181818;stroke-width:0.5;" width="168.6709" x="7" y="292.4"/><ellipse cx="22" cy="308.4" fill="#ADD1B2" rx="11" ry="11" style="stroke:#181818;stroke-width:1;"/><path d="M24.9688,314.0406 Q24.3906,314.3375 23.75,314.4781 Q23.1094,314.6344 22.4063,314.6344 Q19.9063,314.6344 18.5781,312.9938 Q17.2656,311.3375 17.2656,308.2125 Q17.2656,305.0875 18.5781,303.4313 Q19.9063,301.775 22.4063,301.775 Q23.1094,301.775 23.75,301.9313 Q24.4063,302.0875 24.9688,302.3844 L24.9688,305.1031 Q24.3438,304.525 23.75,304.2594 Q23.1563,303.9781 22.5313,303.9781 Q21.1875,303.9781 20.5,305.0563 Q19.8125,306.1188 19.8125,308.2125 Q19.8125,310.3063 20.5,311.3844 Q21.1875,312.4469 22.5313,312.4469 Q23.1563,312.4469 23.75,312.1813 Q24.3438,311.9 24.9688,311.3219 L24.9688,314.0406 Z " fill="#000000"/><text fill="#000000" font-family="sans-serif" font-size="14" lengthAdjust="spacing" textLength="136.6709" x="36" y="313.2467">ConcreteAggregate</text><line style="stroke:#181818;stroke-width:0.5;" x1="8" x2="174.6709" y1="324.4" y2="324.4"/><ellipse cx="18" cy="338.0484" fill="#84BE84" rx="3" ry="3" style="stroke:#038048;stroke-width:1;"/><text fill="#000000" font-family="sans-serif" font-size="14" lengthAdjust="spacing" textLength="130.2178" x="27" y="341.3951">createIterator() : T</text></g><!--class Iterator--><g class="entity" data-entity="Iterator" data-source-line="15" data-uid="ent0005" id="entity_Iterator"><rect fill="#F1F1F1" height="72.5938" rx="2.5" ry="2.5" style="stroke:#181818;stroke-width:0.5;" width="138.0547" x="214.31" y="151.66"/><ellipse cx="253.465" cy="167.66" fill="#B4A7E5" rx="11" ry="11" style="stroke:#181818;stroke-width:1;"/><path d="M249.3869,163.4256 L249.3869,161.2694 L256.7775,161.2694 L256.7775,163.4256 L254.3087,163.4256 L254.3087,171.5038 L256.7775,171.5038 L256.7775,173.66 L249.3869,173.66 L249.3869,171.5038 L251.8556,171.5038 L251.8556,163.4256 L249.3869,163.4256 Z " fill="#000000"/><text fill="#000000" font-family="sans-serif" font-size="14" font-style="italic" lengthAdjust="spacing" textLength="52.377" x="272.8328" y="172.5067">Iterator</text><line style="stroke:#181818;stroke-width:0.5;" x1="215.31" x2="351.3647" y1="183.66" y2="183.66"/><ellipse cx="225.31" cy="197.3084" fill="#84BE84" rx="3" ry="3" style="stroke:#038048;stroke-width:1;"/><text fill="#000000" font-family="sans-serif" font-size="14" lengthAdjust="spacing" textLength="64.3535" x="234.31" y="200.6551">next() : T</text><ellipse cx="225.31" cy="213.6053" fill="#84BE84" rx="3" ry="3" style="stroke:#038048;stroke-width:1;"/><text fill="#000000" font-family="sans-serif" font-size="14" lengthAdjust="spacing" textLength="112.0547" x="234.31" y="216.952">hasNext() : bool</text></g><!--class ConcreteIterator--><g class="entity" data-entity="ConcreteIterator" data-source-line="20" data-uid="ent0006" id="entity_ConcreteIterator"><rect fill="#F1F1F1" height="72.5938" rx="2.5" ry="2.5" style="stroke:#181818;stroke-width:0.5;" width="159.6699" x="210.5" y="284.26"/><ellipse cx="230.8596" cy="300.26" fill="#ADD1B2" rx="11" ry="11" style="stroke:#181818;stroke-width:1;"/><path d="M233.8283,305.9006 Q233.2502,306.1975 232.6096,306.3381 Q231.9689,306.4944 231.2658,306.4944 Q228.7658,306.4944 227.4377,304.8538 Q226.1252,303.1975 226.1252,300.0725 Q226.1252,296.9475 227.4377,295.2913 Q228.7658,293.635 231.2658,293.635 Q231.9689,293.635 232.6096,293.7913 Q233.2658,293.9475 233.8283,294.2444 L233.8283,296.9631 Q233.2033,296.385 232.6096,296.1194 Q232.0158,295.8381 231.3908,295.8381 Q230.0471,295.8381 229.3596,296.9163 Q228.6721,297.9788 228.6721,300.0725 Q228.6721,302.1663 229.3596,303.2444 Q230.0471,304.3069 231.3908,304.3069 Q232.0158,304.3069 232.6096,304.0413 Q233.2033,303.76 233.8283,303.1819 L233.8283,305.9006 Z " fill="#000000"/><text fill="#000000" font-family="sans-serif" font-size="14" lengthAdjust="spacing" textLength="115.7598" x="246.0506" y="305.1067">ConcreteIterator</text><line style="stroke:#181818;stroke-width:0.5;" x1="211.5" x2="369.1699" y1="316.26" y2="316.26"/><ellipse cx="221.5" cy="329.9084" fill="#84BE84" rx="3" ry="3" style="stroke:#038048;stroke-width:1;"/><text fill="#000000" font-family="sans-serif" font-size="14" lengthAdjust="spacing" textLength="64.3535" x="230.5" y="333.2551">next() : T</text><ellipse cx="221.5" cy="346.2053" fill="#84BE84" rx="3" ry="3" style="stroke:#038048;stroke-width:1;"/><text fill="#000000" font-family="sans-serif" font-size="14" lengthAdjust="spacing" textLength="133.6699" x="230.5" y="349.552">hasNext(): boolean</text></g><g class="entity" data-entity="N1" data-source-line="33" data-uid="ent0011" id="entity_N1"><path d="M261.89,6 L261.89,91.6641 L550.7738,91.6641 L550.7738,16 L540.7738,6 L261.89,6" fill="#FEFFDD" style="stroke:#181818;stroke-width:0.5;"/><path d="M540.7738,6 L540.7738,16 L550.7738,16 L540.7738,6" fill="#FEFFDD" style="stroke:#181818;stroke-width:1;"/><text fill="#4169E1" font-family="sans-serif" font-size="13" font-weight="bold" lengthAdjust="spacing" textLength="56.6084" x="267.89" y="23.0669">Iterator</text><text fill="#000000" font-family="sans-serif" font-size="13" font-weight="bold" lengthAdjust="spacing" textLength="40.6631" x="267.89" y="38.1997">Type:</text><text fill="#000000" font-family="sans-serif" font-size="13" lengthAdjust="spacing" textLength="69.3037" x="312.6854" y="38.1997">Behavioral</text><text fill="#000000" font-family="sans-serif" font-size="13" lengthAdjust="spacing" textLength="262.9771" x="267.89" y="53.3325">Provide a way to access the elements of</text><text fill="#000000" font-family="sans-serif" font-size="13" lengthAdjust="spacing" textLength="267.8838" x="267.89" y="68.4653">an aggregate object sequentially without</text><text fill="#000000" font-family="sans-serif" font-size="13" lengthAdjust="spacing" textLength="256.1787" x="267.89" y="83.5981">exposing its underlying representation.</text></g><!--link Client to Aggregate--><g class="link" data-entity-1="Client" data-entity-2="Aggregate" data-source-line="27" data-uid="lnk7" id="link_Client_Aggregate"><path codeLine="27" d="M163.22,65.06 C163.22,88.22 163.22,125.07 163.22,153.55" fill="none" id="Client-to-Aggregate" style="stroke:#181818;stroke-width:1;"/><polygon fill="#181818" points="163.22,159.55,167.22,150.55,163.22,154.55,159.22,150.55,163.22,159.55" style="stroke:#181818;stroke-width:1;"/></g><!--link Client to Iterator--><g class="link" data-entity-1="Client" data-entity-2="Iterator" data-source-line="28" data-uid="lnk8" id="link_Client_Iterator"><path codeLine="28" d="M220.45,65.06 C220.45,86.07 220.45,117.28 220.45,145.27" fill="none" id="Client-to-Iterator" style="stroke:#181818;stroke-width:1;"/><polygon fill="#181818" points="220.45,151.27,224.45,142.27,220.45,146.27,216.45,142.27,220.45,151.27" style="stroke:#181818;stroke-width:1;"/></g><!--reverse link Aggregate to ConcreteAggregate--><g class="link" data-entity-1="Aggregate" data-entity-2="ConcreteAggregate" data-source-line="29" data-uid="lnk9" id="link_Aggregate_ConcreteAggregate"><path codeLine="29" d="M105.34,234.4 C105.34,256.78 105.34,269.8 105.34,292.16" fill="none" id="Aggregate-backto-ConcreteAggregate" style="stroke:#181818;stroke-width:1;"/><polygon fill="none" points="105.34,216.4,99.34,234.4,111.34,234.4,105.34,216.4" style="stroke:#181818;stroke-width:1;"/></g><!--reverse link Iterator to ConcreteIterator--><g class="link" data-entity-1="Iterator" data-entity-2="ConcreteIterator" data-source-line="30" data-uid="lnk10" id="link_Iterator_ConcreteIterator"><path codeLine="30" d="M283.34,242.54 C283.34,261.09 283.34,265.56 283.34,284.09" fill="none" id="Iterator-backto-ConcreteIterator" style="stroke:#181818;stroke-width:1;"/><polygon fill="none" points="283.34,224.54,277.34,242.54,289.34,242.54,283.34,224.54" style="stroke:#181818;stroke-width:1;"/></g><!--SRC=[bLBDJiCm3BxdANm4eJ9nhQfAR2Sk4uUzW9jvRLWQ5oVTLW7lJjBH3ZGaH6xsz-DyJlpUk0u5MwXGxslXtcrNR5aW23eV8N91-PbbZQCmT0GTso4Lls4ieM6bj4NlOMLDib361P8TQeB7kXQgCH2yAOZd3hHGB9yY0GFBpQtwcDNi8XZeRmtai4cwovm9coMEJk6BU6uqwDTJhsAsrtF_uN6s87J9fJ5R0cgxC41BRKNYbJfl0hAilApWUtEQfIvXY_Sikzw1cc_r0v_rod7KeeVrmtZ9eYeBdHur5nxGBcrFvKGk5YDI5ekgdCYR-8XvQi2I6ZmO5hGZzYnyIC4GZZX0O42jAMuhD36ifJOcyS2xaOiESCx1rGlf09vU-yWnQEq0HnD_IHz6CfqwziRLOA91_88aTaYbK2VaemI3ONUlo6qXXVi4]--></g></svg>