<?xml version="1.0" encoding="us-ascii" standalone="no"?><svg xmlns="http://www.w3.org/2000/svg" xmlns:xlink="http://www.w3.org/1999/xlink" contentStyleType="text/css" height="658px" preserveAspectRatio="none" style="width:1466px;height:658px;" version="1.1" viewBox="0 0 1466 658" width="1466px" zoomAndPan="magnify"><defs/><g><ellipse cx="1269" cy="32" fill="#222222" rx="10" ry="10" style="stroke:#222222;stroke-width:1.0;"/><path d="M1224.5,118 L1313.5,118 A3.5,3.5 0 0 1 1317,121.5 L1317,144.2969 L1221,144.2969 L1221,121.5 A3.5,3.5 0 0 1 1224.5,118 " fill="#F1F1F1" style="stroke:#F1F1F1;stroke-width:1.0;"/><rect fill="none" height="153.2969" rx="3.5" ry="3.5" style="stroke:#181818;stroke-width:0.5;" width="96" x="1221" y="118"/><line style="stroke:#181818;stroke-width:0.5;" x1="1221" x2="1317" y1="144.2969" y2="144.2969"/><text fill="#000000" font-family="sans-serif" font-size="14" lengthAdjust="spacing" textLength="30" x="1254" y="135.9951">New</text><ellipse cx="1270.5" cy="165.2969" fill="#222222" rx="10" ry="10" style="stroke:#222222;stroke-width:1.0;"/><g id="New.Created"><rect fill="#F1F1F1" height="50" rx="3.5" ry="3.5" style="stroke:#181818;stroke-width:0.5;" width="75" x="1233" y="211.2969"/><line style="stroke:#181818;stroke-width:0.5;" x1="1233" x2="1308" y1="237.5938" y2="237.5938"/><text fill="#000000" font-family="sans-serif" font-size="14" lengthAdjust="spacing" textLength="55" x="1243" y="229.292">Created</text></g><!--link *start*New to Created--><g id="link_*start*New_Created"><path d="M1270.5,175.6069 C1270.5,184.6469 1270.5,192.7869 1270.5,205.0269 " fill="none" id="*start*New-to-Created" style="stroke:#454645;stroke-width:1.0;"/><polygon fill="#454645" points="1270.5,211.0269,1274.5,202.0269,1270.5,206.0269,1266.5,202.0269,1270.5,211.0269" style="stroke:#454645;stroke-width:1.0;"/></g><g id="Ready"><rect fill="#F1F1F1" height="50" rx="3.5" ry="3.5" style="stroke:#181818;stroke-width:0.5;" width="63" x="1237.5" y="348.3"/><line style="stroke:#181818;stroke-width:0.5;" x1="1237.5" x2="1300.5" y1="374.5969" y2="374.5969"/><text fill="#000000" font-family="sans-serif" font-size="14" lengthAdjust="spacing" textLength="43" x="1247.5" y="366.2951">Ready</text></g><g id="Running"><rect fill="#F1F1F1" height="50" rx="3.5" ry="3.5" style="stroke:#181818;stroke-width:0.5;" width="78" x="1191" y="475.3"/><line style="stroke:#181818;stroke-width:0.5;" x1="1191" x2="1269" y1="501.5969" y2="501.5969"/><text fill="#000000" font-family="sans-serif" font-size="14" lengthAdjust="spacing" textLength="58" x="1201" y="493.2951">Running</text></g><g id="Waiting"><rect fill="#F1F1F1" height="50" rx="3.5" ry="3.5" style="stroke:#181818;stroke-width:0.5;" width="70" x="1309" y="602.3"/><line style="stroke:#181818;stroke-width:0.5;" x1="1309" x2="1379" y1="628.5969" y2="628.5969"/><text fill="#000000" font-family="sans-serif" font-size="14" lengthAdjust="spacing" textLength="50" x="1319" y="620.2951">Waiting</text></g><g id="Terminated"><rect fill="#F1F1F1" height="50" rx="3.5" ry="3.5" style="stroke:#181818;stroke-width:0.5;" width="99" x="1161.5" y="602.3"/><line style="stroke:#181818;stroke-width:0.5;" x1="1161.5" x2="1260.5" y1="628.5969" y2="628.5969"/><text fill="#000000" font-family="sans-serif" font-size="14" lengthAdjust="spacing" textLength="79" x="1171.5" y="620.2951">Terminated</text></g><g id="NewState"><rect fill="#F1F1F1" height="50" rx="3.5" ry="3.5" style="stroke:#181818;stroke-width:0.5;" width="50" x="7" y="7"/><line style="stroke:#181818;stroke-width:0.5;" x1="7" x2="57" y1="33.2969" y2="33.2969"/><text fill="#000000" font-family="sans-serif" font-size="14" lengthAdjust="spacing" textLength="30" x="17" y="24.9951">New</text></g><g id="ReadyState"><rect fill="#F1F1F1" height="50" rx="3.5" ry="3.5" style="stroke:#181818;stroke-width:0.5;" width="63" x="225.5" y="7"/><line style="stroke:#181818;stroke-width:0.5;" x1="225.5" x2="288.5" y1="33.2969" y2="33.2969"/><text fill="#000000" font-family="sans-serif" font-size="14" lengthAdjust="spacing" textLength="43" x="235.5" y="24.9951">Ready</text></g><g id="RunningState"><rect fill="#F1F1F1" height="50" rx="3.5" ry="3.5" style="stroke:#181818;stroke-width:0.5;" width="78" x="467" y="7"/><line style="stroke:#181818;stroke-width:0.5;" x1="467" x2="545" y1="33.2969" y2="33.2969"/><text fill="#000000" font-family="sans-serif" font-size="14" lengthAdjust="spacing" textLength="58" x="477" y="24.9951">Running</text></g><g id="WaitingState"><rect fill="#F1F1F1" height="50" rx="3.5" ry="3.5" style="stroke:#181818;stroke-width:0.5;" width="70" x="687" y="7"/><line style="stroke:#181818;stroke-width:0.5;" x1="687" x2="757" y1="33.2969" y2="33.2969"/><text fill="#000000" font-family="sans-serif" font-size="14" lengthAdjust="spacing" textLength="50" x="697" y="24.9951">Waiting</text></g><g id="TerminatedState"><rect fill="#F1F1F1" height="50" rx="3.5" ry="3.5" style="stroke:#181818;stroke-width:0.5;" width="99" x="964.5" y="7"/><line style="stroke:#181818;stroke-width:0.5;" x1="964.5" x2="1063.5" y1="33.2969" y2="33.2969"/><text fill="#000000" font-family="sans-serif" font-size="14" lengthAdjust="spacing" textLength="79" x="974.5" y="24.9951">Terminated</text></g><g id="elem_GMN23"><path d="M91.5,22.94 L91.5,28 L57.12,32 L91.5,36 L91.5,41.0728 A3.5,3.5 0 0 0 95,44.5728 L187,44.5728 A3.5,3.5 0 0 0 190.5,41.0728 L190.5,29.44 L180.5,19.44 L95,19.44 A3.5,3.5 0 0 0 91.5,22.94 " fill="#90EE90" style="stroke:#454645;stroke-width:1.0;"/><path d="M180.5,19.44 L180.5,27.69 A1.75,1.75 0 0 0 182.25,29.44 L190.5,29.44 L180.5,19.44 " fill="#90EE90" style="stroke:#454645;stroke-width:1.0;"/><text fill="#454645" font-family="sans-serif" font-size="13" lengthAdjust="spacing" textLength="78" x="97.5" y="36.5069">&#36827;&#31243;&#21018;&#34987;&#21019;&#24314;</text></g><g id="elem_GMN26"><path d="M324,22.94 L324,28 L288.67,32 L324,36 L324,41.0728 A3.5,3.5 0 0 0 327.5,44.5728 L428.5,44.5728 A3.5,3.5 0 0 0 432,41.0728 L432,29.44 L422,19.44 L327.5,19.44 A3.5,3.5 0 0 0 324,22.94 " fill="#90EE90" style="stroke:#454645;stroke-width:1.0;"/><path d="M422,19.44 L422,27.69 A1.75,1.75 0 0 0 423.75,29.44 L432,29.44 L422,19.44 " fill="#90EE90" style="stroke:#454645;stroke-width:1.0;"/><text fill="#454645" font-family="sans-serif" font-size="13" lengthAdjust="spacing" textLength="87" x="330" y="36.5069">&#31561;&#24453; CPU &#35843;&#24230;</text></g><g id="elem_GMN29"><path d="M579.5,22.94 L579.5,28 L545.1,32 L579.5,36 L579.5,41.0728 A3.5,3.5 0 0 0 583,44.5728 L649,44.5728 A3.5,3.5 0 0 0 652.5,41.0728 L652.5,29.44 L642.5,19.44 L583,19.44 A3.5,3.5 0 0 0 579.5,22.94 " fill="#90EE90" style="stroke:#454645;stroke-width:1.0;"/><path d="M642.5,19.44 L642.5,27.69 A1.75,1.75 0 0 0 644.25,29.44 L652.5,29.44 L642.5,19.44 " fill="#90EE90" style="stroke:#454645;stroke-width:1.0;"/><text fill="#454645" font-family="sans-serif" font-size="13" lengthAdjust="spacing" textLength="52" x="585.5" y="36.5069">&#27491;&#22312;&#25191;&#34892;</text></g><g id="elem_GMN32"><path d="M792.5,22.94 L792.5,28 L757.29,32 L792.5,36 L792.5,41.0728 A3.5,3.5 0 0 0 796,44.5728 L926,44.5728 A3.5,3.5 0 0 0 929.5,41.0728 L929.5,29.44 L919.5,19.44 L796,19.44 A3.5,3.5 0 0 0 792.5,22.94 " fill="#90EE90" style="stroke:#454645;stroke-width:1.0;"/><path d="M919.5,19.44 L919.5,27.69 A1.75,1.75 0 0 0 921.25,29.44 L929.5,29.44 L919.5,19.44 " fill="#90EE90" style="stroke:#454645;stroke-width:1.0;"/><text fill="#454645" font-family="sans-serif" font-size="13" lengthAdjust="spacing" textLength="116" x="798.5" y="36.5069">&#31561;&#24453; I/O &#25110;&#20107;&#20214;&#23436;&#25104;</text></g><g id="elem_GMN35"><path d="M1098.5,22.94 L1098.5,28 L1063.96,32 L1098.5,36 L1098.5,41.0728 A3.5,3.5 0 0 0 1102,44.5728 L1220,44.5728 A3.5,3.5 0 0 0 1223.5,41.0728 L1223.5,29.44 L1213.5,19.44 L1102,19.44 A3.5,3.5 0 0 0 1098.5,22.94 " fill="#90EE90" style="stroke:#454645;stroke-width:1.0;"/><path d="M1213.5,19.44 L1213.5,27.69 A1.75,1.75 0 0 0 1215.25,29.44 L1223.5,29.44 L1213.5,19.44 " fill="#90EE90" style="stroke:#454645;stroke-width:1.0;"/><text fill="#454645" font-family="sans-serif" font-size="13" lengthAdjust="spacing" textLength="104" x="1104.5" y="36.5069">&#25191;&#34892;&#23436;&#27605;&#25110;&#34987;&#32456;&#27490;</text></g><!--link *start* to New--><g id="link_*start*_New"><path d="M1269,42.1 C1269,56.97 1269,81.84 1269,111.86 " fill="none" id="*start*-to-New" style="stroke:#454645;stroke-width:1.0;"/><polygon fill="#454645" points="1269,117.86,1273,108.86,1269,112.86,1265,108.86,1269,117.86" style="stroke:#454645;stroke-width:1.0;"/></g><!--link New to Ready--><g id="link_New_Ready"><path d="M1269,271.59 C1269,299.08 1269,322.21 1269,342.03 " fill="none" id="New-to-Ready" style="stroke:#454645;stroke-width:1.0;"/><polygon fill="#454645" points="1269,348.03,1273,339.03,1269,343.03,1265,339.03,1269,348.03" style="stroke:#454645;stroke-width:1.0;"/><text fill="#000000" font-family="sans-serif" font-size="13" lengthAdjust="spacing" textLength="47" x="1270" y="314.3669">admit()</text></g><!--link Ready to Running--><g id="link_Ready_Running"><path d="M1237.21,380.04 C1210.66,386.69 1174.45,400.51 1157,428.3 C1143.84,449.26 1161.6591,465.6088 1185.2691,478.7688 " fill="none" id="Ready-to-Running" style="stroke:#454645;stroke-width:1.0;"/><polygon fill="#454645" points="1190.51,481.69,1184.5962,473.8143,1186.1426,479.2557,1180.7012,480.8021,1190.51,481.69" style="stroke:#454645;stroke-width:1.0;"/><text fill="#000000" font-family="sans-serif" font-size="13" lengthAdjust="spacing" textLength="67" x="1158" y="441.3669">schedule()</text></g><!--link Running to Ready--><g id="link_Running_Ready"><path d="M1237.59,474.96 C1244.46,452.96 1252.733,426.4477 1259.603,404.4277 " fill="none" id="Running-to-Ready" style="stroke:#454645;stroke-width:1.0;"/><polygon fill="#454645" points="1261.39,398.7,1254.891,406.1002,1259.9008,403.4731,1262.528,408.4829,1261.39,398.7" style="stroke:#454645;stroke-width:1.0;"/><text fill="#000000" font-family="sans-serif" font-size="13" lengthAdjust="spacing" textLength="65" x="1253" y="441.3669">interrupt()</text></g><!--link Running to Waiting--><g id="link_Running_Waiting"><path d="M1246.27,525.6 C1256.21,539.78 1269.57,557.7 1283,572.3 C1292.48,582.61 1299.2154,589.0909 1309.4754,597.9809 " fill="none" id="Running-to-Waiting" style="stroke:#454645;stroke-width:1.0;"/><polygon fill="#454645" points="1314.01,601.91,1309.8275,592.9933,1310.2312,598.6358,1304.5888,599.0394,1314.01,601.91" style="stroke:#454645;stroke-width:1.0;"/><text fill="#000000" font-family="sans-serif" font-size="13" lengthAdjust="spacing" textLength="48" x="1284" y="568.3669">ioWait()</text></g><!--link Running to Terminated--><g id="link_Running_Terminated"><path d="M1217.73,525.68 C1213.8,534.74 1209.97,545.27 1208,555.3 C1204.99,570.68 1205.0573,582.3045 1206.5473,596.1345 " fill="none" id="Running-to-Terminated" style="stroke:#454645;stroke-width:1.0;"/><polygon fill="#454645" points="1207.19,602.1,1210.2029,592.7233,1206.6544,597.1288,1202.249,593.5802,1207.19,602.1" style="stroke:#454645;stroke-width:1.0;"/><text fill="#000000" font-family="sans-serif" font-size="13" lengthAdjust="spacing" textLength="33" x="1209" y="568.3669">exit()</text></g><!--link Waiting to Ready--><g id="link_Waiting_Ready"><path d="M1347.29,601.98 C1351.4,563.11 1354.88,485.52 1327,428.3 C1321.03,416.06 1315.5441,409.1396 1305.4941,400.4296 " fill="none" id="Waiting-to-Ready" style="stroke:#454645;stroke-width:1.0;"/><polygon fill="#454645" points="1300.96,396.5,1305.1415,405.4171,1304.7384,399.7747,1310.3809,399.3716,1300.96,396.5" style="stroke:#454645;stroke-width:1.0;"/><text fill="#000000" font-family="sans-serif" font-size="13" lengthAdjust="spacing" textLength="108" x="1350" y="504.8669">eventComplete()</text></g><!--SRC=[TP2zJiCm58LtFyMb4o1Lx0micLW0yIC6n60QqrfjxCfnW0en8QHKxS020sK19AY42amChGGlKwTv3FpJagHIj-lxtNFlELwIDH8GaBo5mZfbJInm02UuKgyA7Z7VumqkG0hCGeq8amWThHv3kRm1M-GSeL1YIKm9bmXWXZn1TDj7LmWPP5gx1FijM0Vi1rGkho3a6XP5Z55MrJ2ir8WVDOZbqsvUJ9aaGaHDio3F3p6LRWFbffx3-qG4b1b7Ue9SkFipJNu_ETC9FHuq6qHQ4ovUIOSe0GvDpZtJcVMjpX9R5PapuAYh2tnwt_9fNU2PQJkIFTqKObnF2LgjIU2dcJE0zBStwNTK_90-lwkufqP3H9WFPdvUbNCDC1cqrSyDU3i7a7vTg-7hOba-3a0oU56F_QJzbZvr5seA4V-FRQvjGnBVZuUTyUXRVNIJ-7RXXlaVq8VjIIFxlDDRTDx9A4u6pzcAFm00]--></g></svg>