<svg xmlns="http://www.w3.org/2000/svg" xmlns:xlink="http://www.w3.org/1999/xlink" contentStyleType="text/css" data-diagram-type="CLASS" height="375px" preserveAspectRatio="none" style="width:859px;height:375px;" version="1.1" viewBox="0 0 859 375" width="859px" zoomAndPan="magnify"><defs/><g><!--class Blue--><g class="entity" data-entity="Blue" data-source-line="6" data-uid="ent0002" id="entity_Blue"><rect fill="#F1F1F1" height="80.5938" rx="2.5" ry="2.5" style="stroke:#181818;stroke-width:0.5;" width="92.3154" x="505.75" y="147.59"/><ellipse cx="533.9507" cy="163.59" fill="#ADD1B2" rx="11" ry="11" style="stroke:#181818;stroke-width:1;"/><path d="M536.9195,169.2306 Q536.3414,169.5275 535.7007,169.6681 Q535.0601,169.8244 534.357,169.8244 Q531.857,169.8244 530.5289,168.1837 Q529.2164,166.5275 529.2164,163.4025 Q529.2164,160.2775 530.5289,158.6212 Q531.857,156.965 534.357,156.965 Q535.0601,156.965 535.7007,157.1212 Q536.357,157.2775 536.9195,157.5744 L536.9195,160.2931 Q536.2945,159.715 535.7007,159.4494 Q535.107,159.1681 534.482,159.1681 Q533.1382,159.1681 532.4507,160.2462 Q531.7632,161.3087 531.7632,163.4025 Q531.7632,165.4962 532.4507,166.5744 Q533.1382,167.6369 534.482,167.6369 Q535.107,167.6369 535.7007,167.3712 Q536.2945,167.09 536.9195,166.5119 L536.9195,169.2306 Z " fill="#000000"/><text fill="#000000" font-family="sans-serif" font-size="14" lengthAdjust="spacing" textLength="30.9805" x="550.8842" y="168.4367">Blue</text><line style="stroke:#181818;stroke-width:0.5;" x1="506.75" x2="597.0654" y1="179.59" y2="179.59"/><line style="stroke:#181818;stroke-width:0.5;" x1="506.75" x2="597.0654" y1="187.59" y2="187.59"/><ellipse cx="516.75" cy="201.2384" fill="#84BE84" rx="3" ry="3" style="stroke:#038048;stroke-width:1;"/><text fill="#000000" font-family="sans-serif" font-size="14" lengthAdjust="spacing" textLength="46.6211" x="525.75" y="204.5851">Blue():</text><ellipse cx="516.75" cy="217.5353" fill="#84BE84" rx="3" ry="3" style="stroke:#038048;stroke-width:1;"/><text fill="#000000" font-family="sans-serif" font-size="14" lengthAdjust="spacing" textLength="66.3154" x="525.75" y="220.882">fill(): void</text></g><!--class Circle--><g class="entity" data-entity="Circle" data-source-line="10" data-uid="ent0003" id="entity_Circle"><rect fill="#F1F1F1" height="80.5938" rx="2.5" ry="2.5" style="stroke:#181818;stroke-width:0.5;" width="117.8135" x="7" y="147.59"/><ellipse cx="42.7866" cy="163.59" fill="#ADD1B2" rx="11" ry="11" style="stroke:#181818;stroke-width:1;"/><path d="M45.7553,169.2306 Q45.1772,169.5275 44.5366,169.6681 Q43.8959,169.8244 43.1928,169.8244 Q40.6928,169.8244 39.3647,168.1837 Q38.0522,166.5275 38.0522,163.4025 Q38.0522,160.2775 39.3647,158.6212 Q40.6928,156.965 43.1928,156.965 Q43.8959,156.965 44.5366,157.1212 Q45.1928,157.2775 45.7553,157.5744 L45.7553,160.2931 Q45.1303,159.715 44.5366,159.4494 Q43.9428,159.1681 43.3178,159.1681 Q41.9741,159.1681 41.2866,160.2462 Q40.5991,161.3087 40.5991,163.4025 Q40.5991,165.4962 41.2866,166.5744 Q41.9741,167.6369 43.3178,167.6369 Q43.9428,167.6369 44.5366,167.3712 Q45.1303,167.09 45.7553,166.5119 L45.7553,169.2306 Z " fill="#000000"/><text fill="#000000" font-family="sans-serif" font-size="14" lengthAdjust="spacing" textLength="39.6211" x="61.4058" y="168.4367">Circle</text><line style="stroke:#181818;stroke-width:0.5;" x1="8" x2="123.8135" y1="179.59" y2="179.59"/><line style="stroke:#181818;stroke-width:0.5;" x1="8" x2="123.8135" y1="187.59" y2="187.59"/><ellipse cx="18" cy="201.2384" fill="#84BE84" rx="3" ry="3" style="stroke:#038048;stroke-width:1;"/><text fill="#000000" font-family="sans-serif" font-size="14" lengthAdjust="spacing" textLength="91.8135" x="27" y="204.5851">Circle(Color):</text><ellipse cx="18" cy="217.5353" fill="#84BE84" rx="3" ry="3" style="stroke:#038048;stroke-width:1;"/><text fill="#000000" font-family="sans-serif" font-size="14" lengthAdjust="spacing" textLength="84.3896" x="27" y="220.882">draw(): void</text></g><!--class Client--><g class="entity" data-entity="Client" data-source-line="14" data-uid="ent0004" id="entity_Client"><rect fill="#F1F1F1" height="80.5938" rx="2.5" ry="2.5" style="stroke:#181818;stroke-width:0.5;" width="163.4023" x="397.21" y="7"/><ellipse cx="454.396" cy="23" fill="#ADD1B2" rx="11" ry="11" style="stroke:#181818;stroke-width:1;"/><path d="M457.3648,28.6406 Q456.7867,28.9375 456.146,29.0781 Q455.5054,29.2344 454.8023,29.2344 Q452.3023,29.2344 450.9742,27.5938 Q449.6617,25.9375 449.6617,22.8125 Q449.6617,19.6875 450.9742,18.0313 Q452.3023,16.375 454.8023,16.375 Q455.5054,16.375 456.146,16.5313 Q456.8023,16.6875 457.3648,16.9844 L457.3648,19.7031 Q456.7398,19.125 456.146,18.8594 Q455.5523,18.5781 454.9273,18.5781 Q453.5835,18.5781 452.896,19.6563 Q452.2085,20.7188 452.2085,22.8125 Q452.2085,24.9063 452.896,25.9844 Q453.5835,27.0469 454.9273,27.0469 Q455.5523,27.0469 456.146,26.7813 Q456.7398,26.5 457.3648,25.9219 L457.3648,28.6406 Z " fill="#000000"/><text fill="#000000" font-family="sans-serif" font-size="14" lengthAdjust="spacing" textLength="40.5303" x="474.896" y="27.8467">Client</text><line style="stroke:#181818;stroke-width:0.5;" x1="398.21" x2="559.6123" y1="39" y2="39"/><line style="stroke:#181818;stroke-width:0.5;" x1="398.21" x2="559.6123" y1="47" y2="47"/><ellipse cx="408.21" cy="60.6484" fill="#84BE84" rx="3" ry="3" style="stroke:#038048;stroke-width:1;"/><text fill="#000000" font-family="sans-serif" font-size="14" lengthAdjust="spacing" textLength="56.1709" x="417.21" y="63.9951">Client():</text><ellipse cx="408.21" cy="76.9453" fill="#84BE84" rx="3" ry="3" style="stroke:#038048;stroke-width:1;"/><text fill="#000000" font-family="sans-serif" font-size="14" lengthAdjust="spacing" textLength="137.4023" x="417.21" y="80.292">main(String[]): void</text></g><!--class Color--><g class="entity" data-entity="Color" data-source-line="18" data-uid="ent0005" id="entity_Color"><rect fill="#F1F1F1" height="72.5625" rx="2.5" ry="2.5" style="stroke:#181818;stroke-width:0.5;" width="96.2031" x="566.81" y="292.2"/><ellipse cx="581.81" cy="312.3328" fill="#B4A7E5" rx="11" ry="11" style="stroke:#181818;stroke-width:1;"/><path d="M577.7319,308.0984 L577.7319,305.9422 L585.1225,305.9422 L585.1225,308.0984 L582.6538,308.0984 L582.6538,316.1766 L585.1225,316.1766 L585.1225,318.3328 L577.7319,318.3328 L577.7319,316.1766 L580.2006,316.1766 L580.2006,308.0984 L577.7319,308.0984 Z " fill="#000000"/><text fill="#000000" font-family="sans-serif" font-size="12" font-style="italic" lengthAdjust="spacing" textLength="68.2031" x="593.81" y="308.3387">&#171;interface&#187;</text><text fill="#000000" font-family="sans-serif" font-size="14" font-style="italic" lengthAdjust="spacing" textLength="36.5518" x="609.6357" y="324.1639">Color</text><line style="stroke:#181818;stroke-width:0.5;" x1="567.81" x2="662.0131" y1="332.4656" y2="332.4656"/><line style="stroke:#181818;stroke-width:0.5;" x1="567.81" x2="662.0131" y1="340.4656" y2="340.4656"/><ellipse cx="577.81" cy="354.1141" fill="#84BE84" rx="3" ry="3" style="stroke:#038048;stroke-width:1;"/><text fill="#000000" font-family="sans-serif" font-size="14" lengthAdjust="spacing" textLength="66.3154" x="586.81" y="357.4607">fill(): void</text></g><!--class Green--><g class="entity" data-entity="Green" data-source-line="21" data-uid="ent0006" id="entity_Green"><rect fill="#F1F1F1" height="80.5938" rx="2.5" ry="2.5" style="stroke:#181818;stroke-width:0.5;" width="92.3154" x="632.75" y="147.59"/><ellipse cx="655.6751" cy="163.59" fill="#ADD1B2" rx="11" ry="11" style="stroke:#181818;stroke-width:1;"/><path d="M658.6438,169.2306 Q658.0657,169.5275 657.4251,169.6681 Q656.7845,169.8244 656.0813,169.8244 Q653.5813,169.8244 652.2532,168.1837 Q650.9407,166.5275 650.9407,163.4025 Q650.9407,160.2775 652.2532,158.6212 Q653.5813,156.965 656.0813,156.965 Q656.7845,156.965 657.4251,157.1212 Q658.0813,157.2775 658.6438,157.5744 L658.6438,160.2931 Q658.0188,159.715 657.4251,159.4494 Q656.8313,159.1681 656.2063,159.1681 Q654.8626,159.1681 654.1751,160.2462 Q653.4876,161.3087 653.4876,163.4025 Q653.4876,165.4962 654.1751,166.5744 Q654.8626,167.6369 656.2063,167.6369 Q656.8313,167.6369 657.4251,167.3712 Q658.0188,167.09 658.6438,166.5119 L658.6438,169.2306 Z " fill="#000000"/><text fill="#000000" font-family="sans-serif" font-size="14" lengthAdjust="spacing" textLength="42.7041" x="671.4362" y="168.4367">Green</text><line style="stroke:#181818;stroke-width:0.5;" x1="633.75" x2="724.0654" y1="179.59" y2="179.59"/><line style="stroke:#181818;stroke-width:0.5;" x1="633.75" x2="724.0654" y1="187.59" y2="187.59"/><ellipse cx="643.75" cy="201.2384" fill="#84BE84" rx="3" ry="3" style="stroke:#038048;stroke-width:1;"/><text fill="#000000" font-family="sans-serif" font-size="14" lengthAdjust="spacing" textLength="58.3447" x="652.75" y="204.5851">Green():</text><ellipse cx="643.75" cy="217.5353" fill="#84BE84" rx="3" ry="3" style="stroke:#038048;stroke-width:1;"/><text fill="#000000" font-family="sans-serif" font-size="14" lengthAdjust="spacing" textLength="66.3154" x="652.75" y="220.882">fill(): void</text></g><!--class Rectangle--><g class="entity" data-entity="Rectangle" data-source-line="25" data-uid="ent0007" id="entity_Rectangle"><rect fill="#F1F1F1" height="80.5938" rx="2.5" ry="2.5" style="stroke:#181818;stroke-width:0.5;" width="148.5615" x="159.63" y="147.59"/><ellipse cx="195.4166" cy="163.59" fill="#ADD1B2" rx="11" ry="11" style="stroke:#181818;stroke-width:1;"/><path d="M198.3853,169.2306 Q197.8072,169.5275 197.1666,169.6681 Q196.5259,169.8244 195.8228,169.8244 Q193.3228,169.8244 191.9947,168.1837 Q190.6822,166.5275 190.6822,163.4025 Q190.6822,160.2775 191.9947,158.6212 Q193.3228,156.965 195.8228,156.965 Q196.5259,156.965 197.1666,157.1212 Q197.8228,157.2775 198.3853,157.5744 L198.3853,160.2931 Q197.7603,159.715 197.1666,159.4494 Q196.5728,159.1681 195.9478,159.1681 Q194.6041,159.1681 193.9166,160.2462 Q193.2291,161.3087 193.2291,163.4025 Q193.2291,165.4962 193.9166,166.5744 Q194.6041,167.6369 195.9478,167.6369 Q196.5728,167.6369 197.1666,167.3712 Q197.7603,167.09 198.3853,166.5119 L198.3853,169.2306 Z " fill="#000000"/><text fill="#000000" font-family="sans-serif" font-size="14" lengthAdjust="spacing" textLength="70.3691" x="214.0358" y="168.4367">Rectangle</text><line style="stroke:#181818;stroke-width:0.5;" x1="160.63" x2="307.1915" y1="179.59" y2="179.59"/><line style="stroke:#181818;stroke-width:0.5;" x1="160.63" x2="307.1915" y1="187.59" y2="187.59"/><ellipse cx="170.63" cy="201.2384" fill="#84BE84" rx="3" ry="3" style="stroke:#038048;stroke-width:1;"/><text fill="#000000" font-family="sans-serif" font-size="14" lengthAdjust="spacing" textLength="122.5615" x="179.63" y="204.5851">Rectangle(Color):</text><ellipse cx="170.63" cy="217.5353" fill="#84BE84" rx="3" ry="3" style="stroke:#038048;stroke-width:1;"/><text fill="#000000" font-family="sans-serif" font-size="14" lengthAdjust="spacing" textLength="84.3896" x="179.63" y="220.882">draw(): void</text></g><!--class Red--><g class="entity" data-entity="Red" data-source-line="29" data-uid="ent0008" id="entity_Red"><rect fill="#F1F1F1" height="80.5938" rx="2.5" ry="2.5" style="stroke:#181818;stroke-width:0.5;" width="92.3154" x="759.75" y="147.59"/><ellipse cx="789.6396" cy="163.59" fill="#ADD1B2" rx="11" ry="11" style="stroke:#181818;stroke-width:1;"/><path d="M792.6083,169.2306 Q792.0302,169.5275 791.3896,169.6681 Q790.7489,169.8244 790.0458,169.8244 Q787.5458,169.8244 786.2177,168.1837 Q784.9052,166.5275 784.9052,163.4025 Q784.9052,160.2775 786.2177,158.6212 Q787.5458,156.965 790.0458,156.965 Q790.7489,156.965 791.3896,157.1212 Q792.0458,157.2775 792.6083,157.5744 L792.6083,160.2931 Q791.9833,159.715 791.3896,159.4494 Q790.7958,159.1681 790.1708,159.1681 Q788.8271,159.1681 788.1396,160.2462 Q787.4521,161.3087 787.4521,163.4025 Q787.4521,165.4962 788.1396,166.5744 Q788.8271,167.6369 790.1708,167.6369 Q790.7958,167.6369 791.3896,167.3712 Q791.9833,167.09 792.6083,166.5119 L792.6083,169.2306 Z " fill="#000000"/><text fill="#000000" font-family="sans-serif" font-size="14" lengthAdjust="spacing" textLength="27.2275" x="806.9483" y="168.4367">Red</text><line style="stroke:#181818;stroke-width:0.5;" x1="760.75" x2="851.0654" y1="179.59" y2="179.59"/><line style="stroke:#181818;stroke-width:0.5;" x1="760.75" x2="851.0654" y1="187.59" y2="187.59"/><ellipse cx="770.75" cy="201.2384" fill="#84BE84" rx="3" ry="3" style="stroke:#038048;stroke-width:1;"/><text fill="#000000" font-family="sans-serif" font-size="14" lengthAdjust="spacing" textLength="42.8682" x="779.75" y="204.5851">Red():</text><ellipse cx="770.75" cy="217.5353" fill="#84BE84" rx="3" ry="3" style="stroke:#038048;stroke-width:1;"/><text fill="#000000" font-family="sans-serif" font-size="14" lengthAdjust="spacing" textLength="66.3154" x="779.75" y="220.882">fill(): void</text></g><!--class Shape--><g class="entity" data-entity="Shape" data-source-line="33" data-uid="ent0009" id="entity_Shape"><rect fill="#F1F1F1" height="80.5938" rx="2.5" ry="2.5" style="stroke:#181818;stroke-width:0.5;" width="122.0313" x="259.89" y="288.19"/><ellipse cx="295.6766" cy="304.19" fill="#ADD1B2" rx="11" ry="11" style="stroke:#181818;stroke-width:1;"/><path d="M298.6453,309.8306 Q298.0672,310.1275 297.4266,310.2681 Q296.7859,310.4244 296.0828,310.4244 Q293.5828,310.4244 292.2547,308.7837 Q290.9422,307.1275 290.9422,304.0025 Q290.9422,300.8775 292.2547,299.2212 Q293.5828,297.565 296.0828,297.565 Q296.7859,297.565 297.4266,297.7212 Q298.0828,297.8775 298.6453,298.1744 L298.6453,300.8931 Q298.0203,300.315 297.4266,300.0494 Q296.8328,299.7681 296.2078,299.7681 Q294.8641,299.7681 294.1766,300.8462 Q293.4891,301.9087 293.4891,304.0025 Q293.4891,306.0962 294.1766,307.1744 Q294.8641,308.2369 296.2078,308.2369 Q296.8328,308.2369 297.4266,307.9712 Q298.0203,307.69 298.6453,307.1119 L298.6453,309.8306 Z " fill="#000000"/><text fill="#000000" font-family="sans-serif" font-size="14" lengthAdjust="spacing" textLength="43.8389" x="314.2958" y="309.0367">Shape</text><line style="stroke:#181818;stroke-width:0.5;" x1="260.89" x2="380.9213" y1="320.19" y2="320.19"/><line style="stroke:#181818;stroke-width:0.5;" x1="260.89" x2="380.9213" y1="328.19" y2="328.19"/><polygon fill="#FFFF44" points="270.89,336.8384,274.89,340.8384,270.89,344.8384,266.89,340.8384" style="stroke:#B38D22;stroke-width:1;"/><text fill="#000000" font-family="sans-serif" font-size="14" lengthAdjust="spacing" textLength="96.0313" x="279.89" y="345.1851">Shape(Color):</text><ellipse cx="270.89" cy="358.1353" fill="#84BE84" rx="3" ry="3" style="stroke:#038048;stroke-width:1;"/><text fill="#000000" font-family="sans-serif" font-size="14" lengthAdjust="spacing" textLength="84.3896" x="279.89" y="361.482">draw(): void</text></g><!--class Square--><g class="entity" data-entity="Square" data-source-line="37" data-uid="ent0010" id="entity_Square"><rect fill="#F1F1F1" height="80.5938" rx="2.5" ry="2.5" style="stroke:#181818;stroke-width:0.5;" width="127.7871" x="343.01" y="147.59"/><ellipse cx="378.7966" cy="163.59" fill="#ADD1B2" rx="11" ry="11" style="stroke:#181818;stroke-width:1;"/><path d="M381.7653,169.2306 Q381.1872,169.5275 380.5466,169.6681 Q379.9059,169.8244 379.2028,169.8244 Q376.7028,169.8244 375.3747,168.1837 Q374.0622,166.5275 374.0622,163.4025 Q374.0622,160.2775 375.3747,158.6212 Q376.7028,156.965 379.2028,156.965 Q379.9059,156.965 380.5466,157.1212 Q381.2028,157.2775 381.7653,157.5744 L381.7653,160.2931 Q381.1403,159.715 380.5466,159.4494 Q379.9528,159.1681 379.3278,159.1681 Q377.9841,159.1681 377.2966,160.2462 Q376.6091,161.3087 376.6091,163.4025 Q376.6091,165.4962 377.2966,166.5744 Q377.9841,167.6369 379.3278,167.6369 Q379.9528,167.6369 380.5466,167.3712 Q381.1403,167.09 381.7653,166.5119 L381.7653,169.2306 Z " fill="#000000"/><text fill="#000000" font-family="sans-serif" font-size="14" lengthAdjust="spacing" textLength="49.5947" x="397.4158" y="168.4367">Square</text><line style="stroke:#181818;stroke-width:0.5;" x1="344.01" x2="469.7971" y1="179.59" y2="179.59"/><line style="stroke:#181818;stroke-width:0.5;" x1="344.01" x2="469.7971" y1="187.59" y2="187.59"/><ellipse cx="354.01" cy="201.2384" fill="#84BE84" rx="3" ry="3" style="stroke:#038048;stroke-width:1;"/><text fill="#000000" font-family="sans-serif" font-size="14" lengthAdjust="spacing" textLength="101.7871" x="363.01" y="204.5851">Square(Color):</text><ellipse cx="354.01" cy="217.5353" fill="#84BE84" rx="3" ry="3" style="stroke:#038048;stroke-width:1;"/><text fill="#000000" font-family="sans-serif" font-size="14" lengthAdjust="spacing" textLength="84.3896" x="363.01" y="220.882">draw(): void</text></g><!--link Blue to Color--><g class="link" data-entity-1="Blue" data-entity-2="Color" data-source-line="42" data-uid="lnk11" id="link_Blue_Color"><path codeLine="42" d="M582.43,228.55 C582.43,248.51 582.43,254.35 582.43,273.75" fill="none" id="Blue-to-Color" style="stroke:#008200;stroke-width:1;stroke-dasharray:7,7;"/><polygon fill="none" points="582.43,291.75,588.43,273.75,576.43,273.75,582.43,291.75" style="stroke:#008200;stroke-width:1;"/></g><!--link Circle to Shape--><g class="link" data-entity-1="Circle" data-entity-2="Shape" data-source-line="43" data-uid="lnk12" id="link_Circle_Shape"><path codeLine="43" d="M65.91,228.64 C65.91,270.25 65.91,328.78 65.91,328.78 C65.91,328.78 166.05,328.78 241.5,328.78" fill="none" id="Circle-to-Shape" style="stroke:#000082;stroke-width:1;"/><polygon fill="none" points="259.5,328.78,241.5,322.78,241.5,334.78,259.5,328.78" style="stroke:#000082;stroke-width:1;"/></g><!--link Client to Blue--><g class="link" data-entity-1="Client" data-entity-2="Blue" data-source-line="44" data-uid="lnk13" id="link_Client_Blue"><path codeLine="44" d="M533.18,87.96 C533.18,106.61 533.18,122.67 533.18,141.32" fill="none" id="Client-to-Blue" style="stroke:#595959;stroke-width:1;stroke-dasharray:7,7;"/><polygon fill="#595959" points="533.18,147.32,537.18,138.32,533.18,142.32,529.18,138.32,533.18,147.32" style="stroke:#595959;stroke-width:1;"/><text fill="#000000" font-family="sans-serif" font-size="13" lengthAdjust="spacing" textLength="41.5518" x="491.18" y="113.7069">create</text></g><!--link Client to Circle--><g class="link" data-entity-1="Client" data-entity-2="Circle" data-source-line="45" data-uid="lnk14" id="link_Client_Circle"><path codeLine="45" d="M396.82,34.78 C276.37,34.78 65.91,34.78 65.91,34.78 C65.91,34.78 65.91,95.9 65.91,141.26" fill="none" id="Client-to-Circle" style="stroke:#595959;stroke-width:1;stroke-dasharray:7,7;"/><polygon fill="#595959" points="65.91,147.26,69.91,138.26,65.91,142.26,61.91,138.26,65.91,147.26" style="stroke:#595959;stroke-width:1;"/><text fill="#000000" font-family="sans-serif" font-size="13" lengthAdjust="spacing" textLength="41.5518" x="133.12" y="30.8469">create</text></g><!--link Client to Green--><g class="link" data-entity-1="Client" data-entity-2="Green" data-source-line="46" data-uid="lnk15" id="link_Client_Green"><path codeLine="46" d="M560.83,60.78 C616.06,60.78 678.91,60.78 678.91,60.78 C678.91,60.78 678.91,104.12 678.91,141.32" fill="none" id="Client-to-Green" style="stroke:#595959;stroke-width:1;stroke-dasharray:7,7;"/><polygon fill="#595959" points="678.91,147.32,682.91,138.32,678.91,142.32,674.91,138.32,678.91,147.32" style="stroke:#595959;stroke-width:1;"/><text fill="#000000" font-family="sans-serif" font-size="13" lengthAdjust="spacing" textLength="41.5518" x="621.14" y="56.8469">create</text></g><!--link Client to Rectangle--><g class="link" data-entity-1="Client" data-entity-2="Rectangle" data-source-line="47" data-uid="lnk16" id="link_Client_Rectangle"><path codeLine="47" d="M396.98,60.78 C325.76,60.78 233.91,60.78 233.91,60.78 C233.91,60.78 233.91,104.12 233.91,141.32" fill="none" id="Client-to-Rectangle" style="stroke:#595959;stroke-width:1;stroke-dasharray:7,7;"/><polygon fill="#595959" points="233.91,147.32,237.91,138.32,233.91,142.32,229.91,138.32,233.91,147.32" style="stroke:#595959;stroke-width:1;"/><text fill="#000000" font-family="sans-serif" font-size="13" lengthAdjust="spacing" textLength="41.5518" x="230.17" y="56.8469">create</text></g><!--link Client to Red--><g class="link" data-entity-1="Client" data-entity-2="Red" data-source-line="48" data-uid="lnk17" id="link_Client_Red"><path codeLine="48" d="M561,34.78 C657.86,34.78 805.91,34.78 805.91,34.78 C805.91,34.78 805.91,95.9 805.91,141.26" fill="none" id="Client-to-Red" style="stroke:#595959;stroke-width:1;stroke-dasharray:7,7;"/><polygon fill="#595959" points="805.91,147.26,809.91,138.26,805.91,142.26,801.91,138.26,805.91,147.26" style="stroke:#595959;stroke-width:1;"/><text fill="#000000" font-family="sans-serif" font-size="13" lengthAdjust="spacing" textLength="41.5518" x="697.69" y="30.8469">create</text></g><!--link Client to Square--><g class="link" data-entity-1="Client" data-entity-2="Square" data-source-line="49" data-uid="lnk18" id="link_Client_Square"><path codeLine="49" d="M434,87.96 C434,106.61 434,122.67 434,141.32" fill="none" id="Client-to-Square" style="stroke:#595959;stroke-width:1;stroke-dasharray:7,7;"/><polygon fill="#595959" points="434,147.32,438,138.32,434,142.32,430,138.32,434,147.32" style="stroke:#595959;stroke-width:1;"/><text fill="#000000" font-family="sans-serif" font-size="13" lengthAdjust="spacing" textLength="41.5518" x="392" y="113.7069">create</text></g><!--link Green to Color--><g class="link" data-entity-1="Green" data-entity-2="Color" data-source-line="50" data-uid="lnk19" id="link_Green_Color"><path codeLine="50" d="M647.88,228.55 C647.88,248.51 647.88,254.35 647.88,273.75" fill="none" id="Green-to-Color" style="stroke:#008200;stroke-width:1;stroke-dasharray:7,7;"/><polygon fill="none" points="647.88,291.75,653.88,273.75,641.88,273.75,647.88,291.75" style="stroke:#008200;stroke-width:1;"/></g><!--link Rectangle to Shape--><g class="link" data-entity-1="Rectangle" data-entity-2="Shape" data-source-line="51" data-uid="lnk20" id="link_Rectangle_Shape"><path codeLine="51" d="M284.04,228.55 C284.04,247.21 284.04,251.27 284.04,269.91" fill="none" id="Rectangle-to-Shape" style="stroke:#000082;stroke-width:1;"/><polygon fill="none" points="284.04,287.91,290.04,269.91,278.04,269.91,284.04,287.91" style="stroke:#000082;stroke-width:1;"/></g><!--link Red to Color--><g class="link" data-entity-1="Red" data-entity-2="Color" data-source-line="52" data-uid="lnk21" id="link_Red_Color"><path codeLine="52" d="M805.91,228.64 C805.91,270.25 805.91,328.78 805.91,328.78 C805.91,328.78 737.69,328.78 681.1,328.78" fill="none" id="Red-to-Color" style="stroke:#008200;stroke-width:1;stroke-dasharray:7,7;"/><polygon fill="none" points="663.1,328.78,681.1,334.78,681.1,322.78,663.1,328.78" style="stroke:#008200;stroke-width:1;"/></g><!--link Shape to Color--><g class="link" data-entity-1="Shape" data-entity-2="Color" data-source-line="53" data-uid="lnk22" id="link_Shape_Color"><path codeLine="53" d="M394.18,328.78 C448.87,328.78 509.9,328.78 560.34,328.78" fill="none" id="Shape-Color" style="stroke:#595959;stroke-width:1;"/><polygon fill="#595959" points="382.18,328.78,388.18,332.78,394.18,328.78,388.18,324.78,382.18,328.78" style="stroke:#595959;stroke-width:1;"/><polygon fill="#595959" points="566.34,328.78,557.34,324.78,561.34,328.78,557.34,332.78,566.34,328.78" style="stroke:#595959;stroke-width:1;"/><text fill="#000000" font-family="sans-serif" font-size="13" lengthAdjust="spacing" textLength="8.271" x="389.743" y="325.0213">1</text><text fill="#000000" font-family="sans-serif" font-size="13" lengthAdjust="spacing" textLength="32.0112" x="526.8746" y="309.1624">color</text><text fill="#000000" font-family="sans-serif" font-size="13" lengthAdjust="spacing" textLength="8.271" x="538.7447" y="324.2952">1</text></g><!--link Square to Shape--><g class="link" data-entity-1="Square" data-entity-2="Shape" data-source-line="54" data-uid="lnk23" id="link_Square_Shape"><path codeLine="54" d="M362.47,228.55 C362.47,247.21 362.47,251.27 362.47,269.91" fill="none" id="Square-to-Shape" style="stroke:#000082;stroke-width:1;"/><polygon fill="none" points="362.47,287.91,368.47,269.91,356.47,269.91,362.47,287.91" style="stroke:#000082;stroke-width:1;"/></g><!--SRC=[dL71JW8n5BptArwM2oeaguc94i913jxXY9YKRTbjAEtQBHfY_28_mHjVPhSjhGcu2tGldUtCU_FUL2icIgpm6XOuM-LARWGPIouLQ8L5PPweqAWABCu4rTkIGYdvjWR7tgJIXKHQbg0bBAJMSWs4APff9WL26STL1KzyG-4J0TpOQ_Tg01Oi6USrU9UCe2zF7ZELyJtTWQwrkLSHXJyELPmPztkL1Q7D6ZFHdMh5H3wRHo4JcgebpYYuBGo747-DHhxMKO_FYbBX2VRUFDB4h0EBF4mLy0c3JIW9AjBSPbhWqhNekFi9vQTl6vExx-10emhPBDtfppff-d2NfZs2guAIUVyL_2xhWtoIWLgJUoKtQLYci-kOBZtFl7-ilr1q112R3Y3PVMUAOartFqchC5euK-WIla0OipvRIE2Y6Ns4Xy8uGsjKqNLRLD5cQz6eIcuJk8xcNM75yaAR0PAibhm8m_ah3bFzx-WN]--></g></svg>