<svg xmlns="http://www.w3.org/2000/svg" xmlns:xlink="http://www.w3.org/1999/xlink" contentStyleType="text/css" data-diagram-type="CLASS" height="362px" preserveAspectRatio="none" style="width:896px;height:362px;" version="1.1" viewBox="0 0 896 362" width="896px" zoomAndPan="magnify"><defs/><g><!--class AbstractFactory--><g class="entity" data-entity="AbstractFactory" data-source-line="9" data-uid="ent0002" id="entity_AbstractFactory"><rect fill="#F1F1F1" height="80.5938" rx="2.5" ry="2.5" style="stroke:#181818;stroke-width:0.5;" width="144.9863" x="236" y="16.1"/><ellipse cx="251.8068" cy="32.1" fill="#B4A7E5" rx="11" ry="11" style="stroke:#181818;stroke-width:1;"/><path d="M247.7287,27.8656 L247.7287,25.7094 L255.1193,25.7094 L255.1193,27.8656 L252.6506,27.8656 L252.6506,35.9437 L255.1193,35.9437 L255.1193,38.1 L247.7287,38.1 L247.7287,35.9437 L250.1975,35.9437 L250.1975,27.8656 L247.7287,27.8656 Z " fill="#000000"/><text fill="#000000" font-family="sans-serif" font-size="14" font-style="italic" lengthAdjust="spacing" textLength="111.1934" x="265.9861" y="36.9467">AbstractFactory</text><line style="stroke:#181818;stroke-width:0.5;" x1="237" x2="379.9863" y1="48.1" y2="48.1"/><line style="stroke:#181818;stroke-width:0.5;" x1="237" x2="379.9863" y1="56.1" y2="56.1"/><ellipse cx="247" cy="69.7484" fill="#84BE84" rx="3" ry="3" style="stroke:#038048;stroke-width:1;"/><text fill="#000000" font-family="sans-serif" font-size="14" lengthAdjust="spacing" textLength="118.959" x="256" y="73.0951">createProductA()</text><ellipse cx="247" cy="86.0453" fill="#84BE84" rx="3" ry="3" style="stroke:#038048;stroke-width:1;"/><text fill="#000000" font-family="sans-serif" font-size="14" lengthAdjust="spacing" textLength="118.9863" x="256" y="89.392">createProductB()</text></g><!--class Factory1--><g class="entity" data-entity="Factory1" data-source-line="14" data-uid="ent0003" id="entity_Factory1"><rect fill="#F1F1F1" height="80.5938" rx="2.5" ry="2.5" style="stroke:#181818;stroke-width:0.5;" width="144.9863" x="7" y="166.8"/><ellipse cx="45.2444" cy="182.8" fill="#ADD1B2" rx="11" ry="11" style="stroke:#181818;stroke-width:1;"/><path d="M48.2132,188.4406 Q47.6351,188.7375 46.9944,188.8781 Q46.3538,189.0344 45.6507,189.0344 Q43.1507,189.0344 41.8226,187.3937 Q40.5101,185.7375 40.5101,182.6125 Q40.5101,179.4875 41.8226,177.8312 Q43.1507,176.175 45.6507,176.175 Q46.3538,176.175 46.9944,176.3312 Q47.6507,176.4875 48.2132,176.7844 L48.2132,179.5031 Q47.5882,178.925 46.9944,178.6594 Q46.4007,178.3781 45.7757,178.3781 Q44.4319,178.3781 43.7444,179.4562 Q43.0569,180.5187 43.0569,182.6125 Q43.0569,184.7062 43.7444,185.7844 Q44.4319,186.8469 45.7757,186.8469 Q46.4007,186.8469 46.9944,186.5812 Q47.5882,186.3 48.2132,185.7219 L48.2132,188.4406 Z " fill="#000000"/><text fill="#000000" font-family="sans-serif" font-size="14" lengthAdjust="spacing" textLength="61.332" x="64.4099" y="187.6467">Factory1</text><line style="stroke:#181818;stroke-width:0.5;" x1="8" x2="150.9863" y1="198.8" y2="198.8"/><line style="stroke:#181818;stroke-width:0.5;" x1="8" x2="150.9863" y1="206.8" y2="206.8"/><ellipse cx="18" cy="220.4484" fill="#84BE84" rx="3" ry="3" style="stroke:#038048;stroke-width:1;"/><text fill="#000000" font-family="sans-serif" font-size="14" lengthAdjust="spacing" textLength="118.959" x="27" y="223.7951">createProductA()</text><ellipse cx="18" cy="236.7453" fill="#84BE84" rx="3" ry="3" style="stroke:#038048;stroke-width:1;"/><text fill="#000000" font-family="sans-serif" font-size="14" lengthAdjust="spacing" textLength="118.9863" x="27" y="240.092">createProductB()</text></g><!--class Factory2--><g class="entity" data-entity="Factory2" data-source-line="19" data-uid="ent0004" id="entity_Factory2"><rect fill="#F1F1F1" height="80.5938" rx="2.5" ry="2.5" style="stroke:#181818;stroke-width:0.5;" width="144.9863" x="466" y="166.8"/><ellipse cx="504.2444" cy="182.8" fill="#ADD1B2" rx="11" ry="11" style="stroke:#181818;stroke-width:1;"/><path d="M507.2132,188.4406 Q506.6351,188.7375 505.9944,188.8781 Q505.3538,189.0344 504.6507,189.0344 Q502.1507,189.0344 500.8226,187.3937 Q499.5101,185.7375 499.5101,182.6125 Q499.5101,179.4875 500.8226,177.8312 Q502.1507,176.175 504.6507,176.175 Q505.3538,176.175 505.9944,176.3312 Q506.6507,176.4875 507.2132,176.7844 L507.2132,179.5031 Q506.5882,178.925 505.9944,178.6594 Q505.4007,178.3781 504.7757,178.3781 Q503.4319,178.3781 502.7444,179.4562 Q502.0569,180.5187 502.0569,182.6125 Q502.0569,184.7062 502.7444,185.7844 Q503.4319,186.8469 504.7757,186.8469 Q505.4007,186.8469 505.9944,186.5812 Q506.5882,186.3 507.2132,185.7219 L507.2132,188.4406 Z " fill="#000000"/><text fill="#000000" font-family="sans-serif" font-size="14" lengthAdjust="spacing" textLength="61.332" x="523.4099" y="187.6467">Factory2</text><line style="stroke:#181818;stroke-width:0.5;" x1="467" x2="609.9863" y1="198.8" y2="198.8"/><line style="stroke:#181818;stroke-width:0.5;" x1="467" x2="609.9863" y1="206.8" y2="206.8"/><ellipse cx="477" cy="220.4484" fill="#84BE84" rx="3" ry="3" style="stroke:#038048;stroke-width:1;"/><text fill="#000000" font-family="sans-serif" font-size="14" lengthAdjust="spacing" textLength="118.959" x="486" y="223.7951">createProductA()</text><ellipse cx="477" cy="236.7453" fill="#84BE84" rx="3" ry="3" style="stroke:#038048;stroke-width:1;"/><text fill="#000000" font-family="sans-serif" font-size="14" lengthAdjust="spacing" textLength="118.9863" x="486" y="240.092">createProductB()</text></g><!--class ProductA--><g class="entity" data-entity="ProductA" data-source-line="23" data-uid="ent0005" id="entity_ProductA"><rect fill="#F1F1F1" height="48" rx="2.5" ry="2.5" style="stroke:#181818;stroke-width:0.5;" width="95.2871" x="719.85" y="307.39"/><ellipse cx="734.85" cy="323.39" fill="#B4A7E5" rx="11" ry="11" style="stroke:#181818;stroke-width:1;"/><path d="M730.7719,319.1556 L730.7719,316.9994 L738.1625,316.9994 L738.1625,319.1556 L735.6938,319.1556 L735.6938,327.2338 L738.1625,327.2338 L738.1625,329.39 L730.7719,329.39 L730.7719,327.2338 L733.2406,327.2338 L733.2406,319.1556 L730.7719,319.1556 Z " fill="#000000"/><text fill="#000000" font-family="sans-serif" font-size="14" font-style="italic" lengthAdjust="spacing" textLength="63.2871" x="748.85" y="328.2367">ProductA</text><line style="stroke:#181818;stroke-width:0.5;" x1="720.85" x2="814.1371" y1="339.39" y2="339.39"/><line style="stroke:#181818;stroke-width:0.5;" x1="720.85" x2="814.1371" y1="347.39" y2="347.39"/></g><!--class ProductB--><g class="entity" data-entity="ProductB" data-source-line="24" data-uid="ent0006" id="entity_ProductB"><rect fill="#F1F1F1" height="48" rx="2.5" ry="2.5" style="stroke:#181818;stroke-width:0.5;" width="95.3145" x="261.84" y="307.39"/><ellipse cx="276.84" cy="323.39" fill="#B4A7E5" rx="11" ry="11" style="stroke:#181818;stroke-width:1;"/><path d="M272.7619,319.1556 L272.7619,316.9994 L280.1525,316.9994 L280.1525,319.1556 L277.6838,319.1556 L277.6838,327.2338 L280.1525,327.2338 L280.1525,329.39 L272.7619,329.39 L272.7619,327.2338 L275.2306,327.2338 L275.2306,319.1556 L272.7619,319.1556 Z " fill="#000000"/><text fill="#000000" font-family="sans-serif" font-size="14" font-style="italic" lengthAdjust="spacing" textLength="63.3145" x="290.84" y="328.2367">ProductB</text><line style="stroke:#181818;stroke-width:0.5;" x1="262.84" x2="356.1545" y1="339.39" y2="339.39"/><line style="stroke:#181818;stroke-width:0.5;" x1="262.84" x2="356.1545" y1="347.39" y2="347.39"/></g><!--class ProductA1--><g class="entity" data-entity="ProductA1" data-source-line="26" data-uid="ent0007" id="entity_ProductA1"><rect fill="#F1F1F1" height="48" rx="2.5" ry="2.5" style="stroke:#181818;stroke-width:0.5;" width="104.1943" x="646.4" y="183.09"/><ellipse cx="661.4" cy="199.09" fill="#ADD1B2" rx="11" ry="11" style="stroke:#181818;stroke-width:1;"/><path d="M664.3688,204.7306 Q663.7906,205.0275 663.15,205.1681 Q662.5094,205.3244 661.8063,205.3244 Q659.3063,205.3244 657.9781,203.6837 Q656.6656,202.0275 656.6656,198.9025 Q656.6656,195.7775 657.9781,194.1212 Q659.3063,192.465 661.8063,192.465 Q662.5094,192.465 663.15,192.6212 Q663.8063,192.7775 664.3688,193.0744 L664.3688,195.7931 Q663.7438,195.215 663.15,194.9494 Q662.5563,194.6681 661.9313,194.6681 Q660.5875,194.6681 659.9,195.7462 Q659.2125,196.8087 659.2125,198.9025 Q659.2125,200.9962 659.9,202.0744 Q660.5875,203.1369 661.9313,203.1369 Q662.5563,203.1369 663.15,202.8712 Q663.7438,202.59 664.3688,202.0119 L664.3688,204.7306 Z " fill="#000000"/><text fill="#000000" font-family="sans-serif" font-size="14" lengthAdjust="spacing" textLength="72.1943" x="675.4" y="203.9367">ProductA1</text><line style="stroke:#181818;stroke-width:0.5;" x1="647.4" x2="749.5943" y1="215.09" y2="215.09"/><line style="stroke:#181818;stroke-width:0.5;" x1="647.4" x2="749.5943" y1="223.09" y2="223.09"/></g><!--class ProductA2--><g class="entity" data-entity="ProductA2" data-source-line="27" data-uid="ent0008" id="entity_ProductA2"><rect fill="#F1F1F1" height="48" rx="2.5" ry="2.5" style="stroke:#181818;stroke-width:0.5;" width="104.1943" x="785.4" y="183.09"/><ellipse cx="800.4" cy="199.09" fill="#ADD1B2" rx="11" ry="11" style="stroke:#181818;stroke-width:1;"/><path d="M803.3688,204.7306 Q802.7906,205.0275 802.15,205.1681 Q801.5094,205.3244 800.8063,205.3244 Q798.3063,205.3244 796.9781,203.6837 Q795.6656,202.0275 795.6656,198.9025 Q795.6656,195.7775 796.9781,194.1212 Q798.3063,192.465 800.8063,192.465 Q801.5094,192.465 802.15,192.6212 Q802.8063,192.7775 803.3688,193.0744 L803.3688,195.7931 Q802.7438,195.215 802.15,194.9494 Q801.5563,194.6681 800.9313,194.6681 Q799.5875,194.6681 798.9,195.7462 Q798.2125,196.8087 798.2125,198.9025 Q798.2125,200.9962 798.9,202.0744 Q799.5875,203.1369 800.9313,203.1369 Q801.5563,203.1369 802.15,202.8712 Q802.7438,202.59 803.3688,202.0119 L803.3688,204.7306 Z " fill="#000000"/><text fill="#000000" font-family="sans-serif" font-size="14" lengthAdjust="spacing" textLength="72.1943" x="814.4" y="203.9367">ProductA2</text><line style="stroke:#181818;stroke-width:0.5;" x1="786.4" x2="888.5943" y1="215.09" y2="215.09"/><line style="stroke:#181818;stroke-width:0.5;" x1="786.4" x2="888.5943" y1="223.09" y2="223.09"/></g><!--class ProductB1--><g class="entity" data-entity="ProductB1" data-source-line="28" data-uid="ent0009" id="entity_ProductB1"><rect fill="#F1F1F1" height="48" rx="2.5" ry="2.5" style="stroke:#181818;stroke-width:0.5;" width="104.2217" x="326.38" y="183.09"/><ellipse cx="341.38" cy="199.09" fill="#ADD1B2" rx="11" ry="11" style="stroke:#181818;stroke-width:1;"/><path d="M344.3488,204.7306 Q343.7706,205.0275 343.13,205.1681 Q342.4894,205.3244 341.7863,205.3244 Q339.2863,205.3244 337.9581,203.6837 Q336.6456,202.0275 336.6456,198.9025 Q336.6456,195.7775 337.9581,194.1212 Q339.2863,192.465 341.7863,192.465 Q342.4894,192.465 343.13,192.6212 Q343.7863,192.7775 344.3488,193.0744 L344.3488,195.7931 Q343.7238,195.215 343.13,194.9494 Q342.5363,194.6681 341.9113,194.6681 Q340.5675,194.6681 339.88,195.7462 Q339.1925,196.8087 339.1925,198.9025 Q339.1925,200.9962 339.88,202.0744 Q340.5675,203.1369 341.9113,203.1369 Q342.5363,203.1369 343.13,202.8712 Q343.7238,202.59 344.3488,202.0119 L344.3488,204.7306 Z " fill="#000000"/><text fill="#000000" font-family="sans-serif" font-size="14" lengthAdjust="spacing" textLength="72.2217" x="355.38" y="203.9367">ProductB1</text><line style="stroke:#181818;stroke-width:0.5;" x1="327.38" x2="429.6017" y1="215.09" y2="215.09"/><line style="stroke:#181818;stroke-width:0.5;" x1="327.38" x2="429.6017" y1="223.09" y2="223.09"/></g><!--class ProductB2--><g class="entity" data-entity="ProductB2" data-source-line="29" data-uid="ent0010" id="entity_ProductB2"><rect fill="#F1F1F1" height="48" rx="2.5" ry="2.5" style="stroke:#181818;stroke-width:0.5;" width="104.2217" x="187.38" y="183.09"/><ellipse cx="202.38" cy="199.09" fill="#ADD1B2" rx="11" ry="11" style="stroke:#181818;stroke-width:1;"/><path d="M205.3488,204.7306 Q204.7706,205.0275 204.13,205.1681 Q203.4894,205.3244 202.7863,205.3244 Q200.2863,205.3244 198.9581,203.6837 Q197.6456,202.0275 197.6456,198.9025 Q197.6456,195.7775 198.9581,194.1212 Q200.2863,192.465 202.7863,192.465 Q203.4894,192.465 204.13,192.6212 Q204.7863,192.7775 205.3488,193.0744 L205.3488,195.7931 Q204.7238,195.215 204.13,194.9494 Q203.5363,194.6681 202.9113,194.6681 Q201.5675,194.6681 200.88,195.7462 Q200.1925,196.8087 200.1925,198.9025 Q200.1925,200.9962 200.88,202.0744 Q201.5675,203.1369 202.9113,203.1369 Q203.5363,203.1369 204.13,202.8712 Q204.7238,202.59 205.3488,202.0119 L205.3488,204.7306 Z " fill="#000000"/><text fill="#000000" font-family="sans-serif" font-size="14" lengthAdjust="spacing" textLength="72.2217" x="216.38" y="203.9367">ProductB2</text><line style="stroke:#181818;stroke-width:0.5;" x1="188.38" x2="290.6017" y1="215.09" y2="215.09"/><line style="stroke:#181818;stroke-width:0.5;" x1="188.38" x2="290.6017" y1="223.09" y2="223.09"/></g><g class="entity" data-entity="N1" data-source-line="43" data-uid="ent0021" id="entity_N1"><path d="M416.14,6 L416.14,106.7969 L654.8519,106.7969 L654.8519,16 L644.8519,6 L416.14,6" fill="#FEFFDD" style="stroke:#181818;stroke-width:0.5;"/><path d="M644.8519,6 L644.8519,16 L654.8519,16 L644.8519,6" fill="#FEFFDD" style="stroke:#181818;stroke-width:1;"/><text fill="#4169E1" font-family="sans-serif" font-size="13" font-weight="bold" lengthAdjust="spacing" textLength="122.3384" x="422.14" y="23.0669">Abstract Factory</text><text fill="#000000" font-family="sans-serif" font-size="13" font-weight="bold" lengthAdjust="spacing" textLength="40.6631" x="422.14" y="38.1997">Type:</text><text fill="#000000" font-family="sans-serif" font-size="13" lengthAdjust="spacing" textLength="66.8662" x="466.9354" y="38.1997">Creational</text><text fill="#000000" font-family="sans-serif" font-size="13" lengthAdjust="spacing" textLength="217.7119" x="422.14" y="53.3325">Provides an interface for creating</text><text fill="#000000" font-family="sans-serif" font-size="13" lengthAdjust="spacing" textLength="209.7646" x="422.14" y="68.4653">families of related or dependent</text><text fill="#000000" font-family="sans-serif" font-size="13" lengthAdjust="spacing" textLength="204.5469" x="422.14" y="83.5981">objects without specifying their</text><text fill="#000000" font-family="sans-serif" font-size="13" lengthAdjust="spacing" textLength="97.4619" x="422.14" y="98.731">concrete class.</text></g><!--reverse link ProductA1 to ProductA--><g class="link" data-entity-1="ProductA1" data-entity-2="ProductA" data-source-line="31" data-uid="lnk11" id="link_ProductA1_ProductA"><path codeLine="31" d="M735.22,249.35 C735.22,271.26 735.22,285.31 735.22,307.19" fill="none" id="ProductA1-backto-ProductA" style="stroke:#181818;stroke-width:1;"/><polygon fill="none" points="735.22,231.35,729.22,249.35,741.22,249.35,735.22,231.35" style="stroke:#181818;stroke-width:1;"/></g><!--reverse link ProductB1 to ProductB--><g class="link" data-entity-1="ProductB1" data-entity-2="ProductB" data-source-line="32" data-uid="lnk12" id="link_ProductB1_ProductB"><path codeLine="32" d="M346.89,249.35 C346.89,271.26 346.89,285.31 346.89,307.19" fill="none" id="ProductB1-backto-ProductB" style="stroke:#181818;stroke-width:1;"/><polygon fill="none" points="346.89,231.35,340.89,249.35,352.89,249.35,346.89,231.35" style="stroke:#181818;stroke-width:1;"/></g><!--reverse link ProductA2 to ProductA--><g class="link" data-entity-1="ProductA2" data-entity-2="ProductA" data-source-line="33" data-uid="lnk13" id="link_ProductA2_ProductA"><path codeLine="33" d="M805.22,249.35 C805.22,271.26 805.22,285.31 805.22,307.19" fill="none" id="ProductA2-backto-ProductA" style="stroke:#181818;stroke-width:1;"/><polygon fill="none" points="805.22,231.35,799.22,249.35,811.22,249.35,805.22,231.35" style="stroke:#181818;stroke-width:1;"/></g><!--reverse link ProductB2 to ProductB--><g class="link" data-entity-1="ProductB2" data-entity-2="ProductB" data-source-line="34" data-uid="lnk14" id="link_ProductB2_ProductB"><path codeLine="34" d="M281.68,249.35 C281.68,271.26 281.68,285.31 281.68,307.19" fill="none" id="ProductB2-backto-ProductB" style="stroke:#181818;stroke-width:1;"/><polygon fill="none" points="281.68,231.35,275.68,249.35,287.68,249.35,281.68,231.35" style="stroke:#181818;stroke-width:1;"/></g><!--reverse link AbstractFactory to Factory1--><g class="link" data-entity-1="AbstractFactory" data-entity-2="Factory1" data-source-line="35" data-uid="lnk15" id="link_AbstractFactory_Factory1"><path codeLine="35" d="M263.8,115.02 C263.8,150.51 263.8,178.39 263.8,178.39 C263.8,178.39 203.85,178.39 152.34,178.39" fill="none" id="AbstractFactory-backto-Factory1" style="stroke:#181818;stroke-width:1;"/><polygon fill="none" points="263.8,97.02,257.8,115.02,269.8,115.02,263.8,97.02" style="stroke:#181818;stroke-width:1;"/></g><!--link Factory1 to ProductA1--><g class="link" data-entity-1="Factory1" data-entity-2="ProductA1" data-source-line="36" data-uid="lnk16" id="link_Factory1_ProductA1"><path codeLine="36" d="M79.49,166.55 C79.49,151.21 79.49,137.39 79.49,137.39 C79.49,137.39 650.62,137.39 650.62,137.39 C650.62,137.39 650.62,156.61 650.62,176.71" fill="none" id="Factory1-to-ProductA1" style="stroke:#181818;stroke-width:1;stroke-dasharray:7.0,7.0;"/><polygon fill="#181818" points="650.62,182.71,654.62,173.71,650.62,177.71,646.62,173.71,650.62,182.71" style="stroke:#181818;stroke-width:1;"/></g><!--link Factory1 to ProductB1--><g class="link" data-entity-1="Factory1" data-entity-2="ProductB1" data-source-line="37" data-uid="lnk17" id="link_Factory1_ProductB1"><path codeLine="37" d="M152.15,242.39 C228.19,242.39 336.64,242.39 336.64,242.39 C336.64,242.39 336.64,243.43 336.64,237.22" fill="none" id="Factory1-to-ProductB1" style="stroke:#181818;stroke-width:1;stroke-dasharray:7.0,7.0;"/><polygon fill="#181818" points="336.64,231.22,332.64,240.22,336.64,236.22,340.64,240.22,336.64,231.22" style="stroke:#181818;stroke-width:1;"/></g><!--reverse link AbstractFactory to Factory2--><g class="link" data-entity-1="AbstractFactory" data-entity-2="Factory2" data-source-line="38" data-uid="lnk18" id="link_AbstractFactory_Factory2"><path codeLine="38" d="M353.68,114.97 C353.68,148.42 353.68,172.39 353.68,172.39 C353.68,172.39 414,172.39 465.72,172.39" fill="none" id="AbstractFactory-backto-Factory2" style="stroke:#181818;stroke-width:1;"/><polygon fill="none" points="353.68,96.97,347.68,114.97,359.68,114.97,353.68,96.97" style="stroke:#181818;stroke-width:1;"/></g><!--link Factory2 to ProductA2--><g class="link" data-entity-1="Factory2" data-entity-2="ProductA2" data-source-line="39" data-uid="lnk19" id="link_Factory2_ProductA2"><path codeLine="39" d="M611.4,239.39 C687.33,239.39 795.31,239.39 795.31,239.39 C795.31,239.39 795.31,242.08 795.31,237.57" fill="none" id="Factory2-to-ProductA2" style="stroke:#181818;stroke-width:1;stroke-dasharray:7.0,7.0;"/><polygon fill="#181818" points="795.31,231.57,791.31,240.57,795.31,236.57,799.31,240.57,795.31,231.57" style="stroke:#181818;stroke-width:1;"/></g><!--link Factory2 to ProductB2--><g class="link" data-entity-1="Factory2" data-entity-2="ProductB2" data-source-line="40" data-uid="lnk20" id="link_Factory2_ProductB2"><path codeLine="40" d="M465.61,237.39 C386.63,237.39 271.76,237.39 271.76,237.39 C271.76,237.39 271.76,240.99 271.76,237.55" fill="none" id="Factory2-to-ProductB2" style="stroke:#181818;stroke-width:1;stroke-dasharray:7.0,7.0;"/><polygon fill="#181818" points="271.76,231.55,267.76,240.55,271.76,236.55,275.76,240.55,271.76,231.55" style="stroke:#181818;stroke-width:1;"/></g><!--SRC=[fLFBJiCm4BpxA_O8GctL7AieKbE96uW3F-0uczJKzKQsGnK1_yx6Qj8sj1mWKWxUcPtHllnEsqOwkOT2gbtjgBNbXWmv24vQpn3Q8Fp8CjfYw1g4XapNFwvXvCAMn1coTeuEy260loVqNjQuDhgsUnQ7jX5VGcWRq5LI8QmBpzugFF9FhZkcFO1oA0E-E2fR5TPtzzV2EOTPJ1dfFHm5blzMIFwWSAfdOFyCvOFFG5bEtidbEv_WUIB4c0hfvsnsCXjJBkBvo4zky9C9VpgDY0wT5MEBvoKTR7PMo0s4I_XDCH5ZooUADv6-2PO2WlJml8m3IOiiLVqIhnnrqkIcnMnm7PpIHMHawQB8XgHNNjvL7u1DFr1DLfg8iTMxBj63j72QOiLN4YUlRHrfbTnhevb65JWql18btmAKsA0j-plgILIyeGeU3fgFf0tW6rIwwbW3mXQrYoH5bfMvg3ZlkU1yw8ly1W00]--></g></svg>