<svg xmlns="http://www.w3.org/2000/svg" xmlns:xlink="http://www.w3.org/1999/xlink" contentStyleType="text/css" data-diagram-type="CLASS" height="347px" preserveAspectRatio="none" style="width:554px;height:347px;" version="1.1" viewBox="0 0 554 347" width="554px" zoomAndPan="magnify"><defs/><g><!--class Client--><g class="entity" data-entity="Client" data-source-line="5" data-uid="ent0002" id="entity_Client"><rect fill="#F1F1F1" height="32" rx="2.5" ry="2.5" style="stroke:#181818;stroke-width:0.5;" width="72.5303" x="151.07" y="32.83"/><ellipse cx="166.07" cy="48.83" fill="#ADD1B2" rx="11" ry="11" style="stroke:#181818;stroke-width:1;"/><path d="M169.0388,54.4706 Q168.4606,54.7675 167.82,54.9081 Q167.1794,55.0644 166.4763,55.0644 Q163.9763,55.0644 162.6481,53.4237 Q161.3356,51.7675 161.3356,48.6425 Q161.3356,45.5175 162.6481,43.8612 Q163.9763,42.205 166.4763,42.205 Q167.1794,42.205 167.82,42.3612 Q168.4763,42.5175 169.0388,42.8144 L169.0388,45.5331 Q168.4138,44.955 167.82,44.6894 Q167.2263,44.4081 166.6013,44.4081 Q165.2575,44.4081 164.57,45.4862 Q163.8825,46.5487 163.8825,48.6425 Q163.8825,50.7362 164.57,51.8144 Q165.2575,52.8769 166.6013,52.8769 Q167.2263,52.8769 167.82,52.6112 Q168.4138,52.33 169.0388,51.7519 L169.0388,54.4706 Z " fill="#000000"/><text fill="#000000" font-family="sans-serif" font-size="14" lengthAdjust="spacing" textLength="40.5303" x="180.07" y="53.6767">Client</text></g><!--class Aggregate--><g class="entity" data-entity="Aggregate" data-source-line="7" data-uid="ent0003" id="entity_Aggregate"><rect fill="#F1F1F1" height="56.2969" rx="2.5" ry="2.5" style="stroke:#181818;stroke-width:0.5;" width="134.0488" x="32.31" y="159.81"/><ellipse cx="60.2523" cy="175.81" fill="#B4A7E5" rx="11" ry="11" style="stroke:#181818;stroke-width:1;"/><path d="M56.1742,171.5756 L56.1742,169.4194 L63.5648,169.4194 L63.5648,171.5756 L61.0961,171.5756 L61.0961,179.6538 L63.5648,179.6538 L63.5648,181.81 L56.1742,181.81 L56.1742,179.6538 L58.643,179.6538 L58.643,171.5756 L56.1742,171.5756 Z " fill="#000000"/><text fill="#000000" font-family="sans-serif" font-size="14" font-style="italic" lengthAdjust="spacing" textLength="73.2881" x="77.1284" y="180.6567">Aggregate</text><line style="stroke:#181818;stroke-width:0.5;" x1="33.31" x2="165.3588" y1="191.81" y2="191.81"/><ellipse cx="43.31" cy="205.4584" fill="#84BE84" rx="3" ry="3" style="stroke:#038048;stroke-width:1;"/><text fill="#000000" font-family="sans-serif" font-size="14" lengthAdjust="spacing" textLength="108.0488" x="52.31" y="208.8051">createIterator()</text></g><!--class ConcreteAggregate--><g class="entity" data-entity="ConcreteAggregate" data-source-line="11" data-uid="ent0004" id="entity_ConcreteAggregate"><rect fill="#F1F1F1" height="56.2969" rx="2.5" ry="2.5" style="stroke:#181818;stroke-width:0.5;" width="168.6709" x="7" y="284.25"/><ellipse cx="22" cy="300.25" fill="#ADD1B2" rx="11" ry="11" style="stroke:#181818;stroke-width:1;"/><path d="M24.9688,305.8906 Q24.3906,306.1875 23.75,306.3281 Q23.1094,306.4844 22.4063,306.4844 Q19.9063,306.4844 18.5781,304.8438 Q17.2656,303.1875 17.2656,300.0625 Q17.2656,296.9375 18.5781,295.2813 Q19.9063,293.625 22.4063,293.625 Q23.1094,293.625 23.75,293.7813 Q24.4063,293.9375 24.9688,294.2344 L24.9688,296.9531 Q24.3438,296.375 23.75,296.1094 Q23.1563,295.8281 22.5313,295.8281 Q21.1875,295.8281 20.5,296.9063 Q19.8125,297.9688 19.8125,300.0625 Q19.8125,302.1563 20.5,303.2344 Q21.1875,304.2969 22.5313,304.2969 Q23.1563,304.2969 23.75,304.0313 Q24.3438,303.75 24.9688,303.1719 L24.9688,305.8906 Z " fill="#000000"/><text fill="#000000" font-family="sans-serif" font-size="14" lengthAdjust="spacing" textLength="136.6709" x="36" y="305.0967">ConcreteAggregate</text><line style="stroke:#181818;stroke-width:0.5;" x1="8" x2="174.6709" y1="316.25" y2="316.25"/><ellipse cx="18" cy="329.8984" fill="#84BE84" rx="3" ry="3" style="stroke:#038048;stroke-width:1;"/><text fill="#000000" font-family="sans-serif" font-size="14" lengthAdjust="spacing" textLength="130.2178" x="27" y="333.2451">createIterator() : T</text></g><!--class Iterator--><g class="entity" data-entity="Iterator" data-source-line="15" data-uid="ent0005" id="entity_Iterator"><rect fill="#F1F1F1" height="72.5938" rx="2.5" ry="2.5" style="stroke:#181818;stroke-width:0.5;" width="149.5049" x="205.58" y="151.66"/><ellipse cx="249.894" cy="167.66" fill="#B4A7E5" rx="11" ry="11" style="stroke:#181818;stroke-width:1;"/><path d="M245.8158,163.4256 L245.8158,161.2694 L253.2065,161.2694 L253.2065,163.4256 L250.7377,163.4256 L250.7377,171.5038 L253.2065,171.5038 L253.2065,173.66 L245.8158,173.66 L245.8158,171.5038 L248.2846,171.5038 L248.2846,163.4256 L245.8158,163.4256 Z " fill="#000000"/><text fill="#000000" font-family="sans-serif" font-size="14" font-style="italic" lengthAdjust="spacing" textLength="52.377" x="270.394" y="172.5067">Iterator</text><line style="stroke:#181818;stroke-width:0.5;" x1="206.58" x2="354.0849" y1="183.66" y2="183.66"/><ellipse cx="216.58" cy="197.3084" fill="#84BE84" rx="3" ry="3" style="stroke:#038048;stroke-width:1;"/><text fill="#000000" font-family="sans-serif" font-size="14" lengthAdjust="spacing" textLength="64.3535" x="225.58" y="200.6551">next() : T</text><text fill="#000000" font-family="sans-serif" font-size="14" lengthAdjust="spacing" textLength="123.5049" x="225.58" y="216.952">_ hasNext() : bool</text></g><!--class ConcreteIterator--><g class="entity" data-entity="ConcreteIterator" data-source-line="20" data-uid="ent0006" id="entity_ConcreteIterator"><rect fill="#F1F1F1" height="56.2969" rx="2.5" ry="2.5" style="stroke:#181818;stroke-width:0.5;" width="147.7598" x="210.46" y="284.25"/><ellipse cx="225.46" cy="300.25" fill="#ADD1B2" rx="11" ry="11" style="stroke:#181818;stroke-width:1;"/><path d="M228.4288,305.8906 Q227.8506,306.1875 227.21,306.3281 Q226.5694,306.4844 225.8663,306.4844 Q223.3663,306.4844 222.0381,304.8438 Q220.7256,303.1875 220.7256,300.0625 Q220.7256,296.9375 222.0381,295.2813 Q223.3663,293.625 225.8663,293.625 Q226.5694,293.625 227.21,293.7813 Q227.8663,293.9375 228.4288,294.2344 L228.4288,296.9531 Q227.8038,296.375 227.21,296.1094 Q226.6163,295.8281 225.9913,295.8281 Q224.6475,295.8281 223.96,296.9063 Q223.2725,297.9688 223.2725,300.0625 Q223.2725,302.1563 223.96,303.2344 Q224.6475,304.2969 225.9913,304.2969 Q226.6163,304.2969 227.21,304.0313 Q227.8038,303.75 228.4288,303.1719 L228.4288,305.8906 Z " fill="#000000"/><text fill="#000000" font-family="sans-serif" font-size="14" lengthAdjust="spacing" textLength="115.7598" x="239.46" y="305.0967">ConcreteIterator</text><line style="stroke:#181818;stroke-width:0.5;" x1="211.46" x2="357.2198" y1="316.25" y2="316.25"/><ellipse cx="221.46" cy="329.8984" fill="#84BE84" rx="3" ry="3" style="stroke:#038048;stroke-width:1;"/><text fill="#000000" font-family="sans-serif" font-size="14" lengthAdjust="spacing" textLength="64.3535" x="230.46" y="333.2451">next() : T</text></g><g class="entity" data-entity="N1" data-source-line="32" data-uid="ent0011" id="entity_N1"><path d="M258.89,6 L258.89,91.6641 L547.7738,91.6641 L547.7738,16 L537.7738,6 L258.89,6" fill="#FEFFDD" style="stroke:#181818;stroke-width:0.5;"/><path d="M537.7738,6 L537.7738,16 L547.7738,16 L537.7738,6" fill="#FEFFDD" style="stroke:#181818;stroke-width:1;"/><text fill="#4169E1" font-family="sans-serif" font-size="13" font-weight="bold" lengthAdjust="spacing" textLength="56.6084" x="264.89" y="23.0669">Iterator</text><text fill="#000000" font-family="sans-serif" font-size="13" font-weight="bold" lengthAdjust="spacing" textLength="40.6631" x="264.89" y="38.1997">Type:</text><text fill="#000000" font-family="sans-serif" font-size="13" lengthAdjust="spacing" textLength="69.3037" x="309.6854" y="38.1997">Behavioral</text><text fill="#000000" font-family="sans-serif" font-size="13" lengthAdjust="spacing" textLength="262.9771" x="264.89" y="53.3325">Provide a way to access the elements of</text><text fill="#000000" font-family="sans-serif" font-size="13" lengthAdjust="spacing" textLength="267.8838" x="264.89" y="68.4653">an aggregate object sequentially without</text><text fill="#000000" font-family="sans-serif" font-size="13" lengthAdjust="spacing" textLength="256.1787" x="264.89" y="83.5981">exposing its underlying representation.</text></g><!--link Client to Aggregate--><g class="link" data-entity-1="Client" data-entity-2="Aggregate" data-source-line="26" data-uid="lnk7" id="link_Client_Aggregate"><path codeLine="26" d="M158.72,65.06 C158.72,88.21 158.72,125.06 158.72,153.55" fill="none" id="Client-to-Aggregate" style="stroke:#181818;stroke-width:1;"/><polygon fill="#181818" points="158.72,159.55,162.72,150.55,158.72,154.55,154.72,150.55,158.72,159.55" style="stroke:#181818;stroke-width:1;"/></g><!--link Client to Iterator--><g class="link" data-entity-1="Client" data-entity-2="Iterator" data-source-line="27" data-uid="lnk8" id="link_Client_Iterator"><path codeLine="27" d="M214.59,65.06 C214.59,86.06 214.59,117.27 214.59,145.26" fill="none" id="Client-to-Iterator" style="stroke:#181818;stroke-width:1;"/><polygon fill="#181818" points="214.59,151.26,218.59,142.26,214.59,146.26,210.59,142.26,214.59,151.26" style="stroke:#181818;stroke-width:1;"/></g><!--reverse link Aggregate to ConcreteAggregate--><g class="link" data-entity-1="Aggregate" data-entity-2="ConcreteAggregate" data-source-line="28" data-uid="lnk9" id="link_Aggregate_ConcreteAggregate"><path codeLine="28" d="M99.34,234.51 C99.34,254.74 99.34,263.78 99.34,283.98" fill="none" id="Aggregate-backto-ConcreteAggregate" style="stroke:#181818;stroke-width:1;"/><polygon fill="none" points="99.34,216.51,93.34,234.51,105.34,234.51,99.34,216.51" style="stroke:#181818;stroke-width:1;"/></g><!--reverse link Iterator to ConcreteIterator--><g class="link" data-entity-1="Iterator" data-entity-2="ConcreteIterator" data-source-line="29" data-uid="lnk10" id="link_Iterator_ConcreteIterator"><path codeLine="29" d="M282.77,242.62 C282.77,261.55 282.77,266.3 282.77,283.89" fill="none" id="Iterator-backto-ConcreteIterator" style="stroke:#181818;stroke-width:1;"/><polygon fill="none" points="282.77,224.62,276.77,242.62,288.77,242.62,282.77,224.62" style="stroke:#181818;stroke-width:1;"/></g><!--SRC=[XP91JyCm38Nl-HK-Wj2Ok4vL9ROJbud3xiZjl3OiZOkJRgk0_uvJQ0SQWjxizpqxhqdOMz-YO0C5bljAkFFR5JiMY88-g4G-cZ1HpdgAVKlGikjJyPl64cisfdGO0goSJIECzP5aXoN1VLK9LHW9NWteTmEba9OF2c1akResxvERlOgH_lV00ZR9TzupQfF5qob-WQdn13M6zTWhcDtbthzcA5pRBG4rRUoXeQOW2SPy1eRPB3yd_TuSHvfpfknjDhkCQgRbF_J9Rpoh5mEixuR3PKMUbUdk5i8zkgNhA1_XR3ueUJOlyX7Uw5qjKWEMLEF1ig0Rj4VXGmg6SCGU8WEM9UbFYRM6TTHeaW2y6rZqW5CEBfwfZ13efLF6edCz7Aq-XYuEC9rQ3jPNO7M0lZGIrwTIg1KAQi5esTyQybj8uJu0]--></g></svg>