<svg xmlns="http://www.w3.org/2000/svg" xmlns:xlink="http://www.w3.org/1999/xlink" contentStyleType="text/css" data-diagram-type="CLASS" height="361px" preserveAspectRatio="none" style="width:562px;height:361px;" version="1.1" viewBox="0 0 562 361" width="562px" zoomAndPan="magnify"><defs/><g><!--class Context--><g class="entity" data-entity="Context" data-source-line="6" data-uid="ent0002" id="entity_Context"><rect fill="#F1F1F1" height="32" rx="2.5" ry="2.5" style="stroke:#181818;stroke-width:0.5;" width="87.0908" x="145.93" y="47.96"/><ellipse cx="160.93" cy="63.96" fill="#ADD1B2" rx="11" ry="11" style="stroke:#181818;stroke-width:1;"/><path d="M163.8988,69.6006 Q163.3206,69.8975 162.68,70.0381 Q162.0394,70.1944 161.3363,70.1944 Q158.8363,70.1944 157.5081,68.5537 Q156.1956,66.8975 156.1956,63.7725 Q156.1956,60.6475 157.5081,58.9912 Q158.8363,57.335 161.3363,57.335 Q162.0394,57.335 162.68,57.4912 Q163.3363,57.6475 163.8988,57.9444 L163.8988,60.6631 Q163.2738,60.085 162.68,59.8194 Q162.0863,59.5381 161.4613,59.5381 Q160.1175,59.5381 159.43,60.6162 Q158.7425,61.6787 158.7425,63.7725 Q158.7425,65.8662 159.43,66.9444 Q160.1175,68.0069 161.4613,68.0069 Q162.0863,68.0069 162.68,67.7412 Q163.2738,67.46 163.8988,66.8819 L163.8988,69.6006 Z " fill="#000000"/><text fill="#000000" font-family="sans-serif" font-size="14" lengthAdjust="spacing" textLength="55.0908" x="174.93" y="68.8067">Context</text></g><!--class Strategy--><g class="entity" data-entity="Strategy" data-source-line="8" data-uid="ent0003" id="entity_Strategy"><rect fill="#F1F1F1" height="56.2969" rx="2.5" ry="2.5" style="stroke:#181818;stroke-width:0.5;" width="93.1084" x="142.92" y="181.93"/><ellipse cx="158.4254" cy="197.93" fill="#B4A7E5" rx="11" ry="11" style="stroke:#181818;stroke-width:1;"/><path d="M154.3472,193.6956 L154.3472,191.5394 L161.7379,191.5394 L161.7379,193.6956 L159.2691,193.6956 L159.2691,201.7737 L161.7379,201.7737 L161.7379,203.93 L154.3472,203.93 L154.3472,201.7737 L156.816,201.7737 L156.816,193.6956 L154.3472,193.6956 Z " fill="#000000"/><text fill="#000000" font-family="sans-serif" font-size="14" font-style="italic" lengthAdjust="spacing" textLength="59.9854" x="172.5377" y="202.7767">Strategy</text><line style="stroke:#181818;stroke-width:0.5;" x1="143.92" x2="235.0284" y1="213.93" y2="213.93"/><ellipse cx="153.92" cy="227.5784" fill="#84BE84" rx="3" ry="3" style="stroke:#038048;stroke-width:1;"/><text fill="#000000" font-family="sans-serif" font-size="14" lengthAdjust="spacing" textLength="67.1084" x="162.92" y="230.9251">execute()</text></g><!--class ConcreteStrategyA--><g class="entity" data-entity="ConcreteStrategyA" data-source-line="12" data-uid="ent0004" id="entity_ConcreteStrategyA"><rect fill="#F1F1F1" height="56.2969" rx="2.5" ry="2.5" style="stroke:#181818;stroke-width:0.5;" width="164.9453" x="7" y="298.22"/><ellipse cx="22" cy="314.22" fill="#ADD1B2" rx="11" ry="11" style="stroke:#181818;stroke-width:1;"/><path d="M24.9688,319.8606 Q24.3906,320.1575 23.75,320.2981 Q23.1094,320.4544 22.4063,320.4544 Q19.9063,320.4544 18.5781,318.8137 Q17.2656,317.1575 17.2656,314.0325 Q17.2656,310.9075 18.5781,309.2512 Q19.9063,307.595 22.4063,307.595 Q23.1094,307.595 23.75,307.7512 Q24.4063,307.9075 24.9688,308.2044 L24.9688,310.9231 Q24.3438,310.345 23.75,310.0794 Q23.1563,309.7981 22.5313,309.7981 Q21.1875,309.7981 20.5,310.8762 Q19.8125,311.9387 19.8125,314.0325 Q19.8125,316.1262 20.5,317.2044 Q21.1875,318.2669 22.5313,318.2669 Q23.1563,318.2669 23.75,318.0012 Q24.3438,317.72 24.9688,317.1419 L24.9688,319.8606 Z " fill="#000000"/><text fill="#000000" font-family="sans-serif" font-size="14" lengthAdjust="spacing" textLength="132.9453" x="36" y="319.0667">ConcreteStrategyA</text><line style="stroke:#181818;stroke-width:0.5;" x1="8" x2="170.9453" y1="330.22" y2="330.22"/><ellipse cx="18" cy="343.8684" fill="#84BE84" rx="3" ry="3" style="stroke:#038048;stroke-width:1;"/><text fill="#000000" font-family="sans-serif" font-size="14" lengthAdjust="spacing" textLength="67.1084" x="27" y="347.2151">execute()</text></g><!--class ConcreteStrategyB--><g class="entity" data-entity="ConcreteStrategyB" data-source-line="16" data-uid="ent0005" id="entity_ConcreteStrategyB"><rect fill="#F1F1F1" height="56.2969" rx="2.5" ry="2.5" style="stroke:#181818;stroke-width:0.5;" width="164.9727" x="206.99" y="298.22"/><ellipse cx="221.99" cy="314.22" fill="#ADD1B2" rx="11" ry="11" style="stroke:#181818;stroke-width:1;"/><path d="M224.9588,319.8606 Q224.3806,320.1575 223.74,320.2981 Q223.0994,320.4544 222.3963,320.4544 Q219.8963,320.4544 218.5681,318.8137 Q217.2556,317.1575 217.2556,314.0325 Q217.2556,310.9075 218.5681,309.2512 Q219.8963,307.595 222.3963,307.595 Q223.0994,307.595 223.74,307.7512 Q224.3963,307.9075 224.9588,308.2044 L224.9588,310.9231 Q224.3338,310.345 223.74,310.0794 Q223.1463,309.7981 222.5213,309.7981 Q221.1775,309.7981 220.49,310.8762 Q219.8025,311.9387 219.8025,314.0325 Q219.8025,316.1262 220.49,317.2044 Q221.1775,318.2669 222.5213,318.2669 Q223.1463,318.2669 223.74,318.0012 Q224.3338,317.72 224.9588,317.1419 L224.9588,319.8606 Z " fill="#000000"/><text fill="#000000" font-family="sans-serif" font-size="14" lengthAdjust="spacing" textLength="132.9727" x="235.99" y="319.0667">ConcreteStrategyB</text><line style="stroke:#181818;stroke-width:0.5;" x1="207.99" x2="370.9627" y1="330.22" y2="330.22"/><ellipse cx="217.99" cy="343.8684" fill="#84BE84" rx="3" ry="3" style="stroke:#038048;stroke-width:1;"/><text fill="#000000" font-family="sans-serif" font-size="14" lengthAdjust="spacing" textLength="67.1084" x="226.99" y="347.2151">execute()</text></g><g class="entity" data-entity="N1" data-source-line="27" data-uid="ent0009" id="entity_N1"><path d="M267.72,6 L267.72,121.9297 L555.2263,121.9297 L555.2263,16 L545.2263,6 L267.72,6" fill="#FEFFDD" style="stroke:#181818;stroke-width:0.5;"/><path d="M545.2263,6 L545.2263,16 L555.2263,16 L545.2263,6" fill="#FEFFDD" style="stroke:#181818;stroke-width:1;"/><text fill="#4169E1" font-family="sans-serif" font-size="13" font-weight="bold" lengthAdjust="spacing" textLength="63.5718" x="273.72" y="23.0669">Strategy</text><text fill="#000000" font-family="sans-serif" font-size="13" font-weight="bold" lengthAdjust="spacing" textLength="40.6631" x="273.72" y="38.1997">Type:</text><text fill="#000000" font-family="sans-serif" font-size="13" lengthAdjust="spacing" textLength="69.3037" x="318.5154" y="38.1997">Behavioral</text><text fill="#000000" font-family="sans-serif" font-size="13" lengthAdjust="spacing" textLength="193.229" x="273.72" y="53.3325">Define a family of algorithms,</text><text fill="#000000" font-family="sans-serif" font-size="13" lengthAdjust="spacing" textLength="254.2363" x="273.72" y="68.4653">encapsulate each one, and make them</text><text fill="#000000" font-family="sans-serif" font-size="13" lengthAdjust="spacing" textLength="266.5063" x="273.72" y="83.5981">interchangeable. Lets the algorithm vary</text><text fill="#000000" font-family="sans-serif" font-size="13" lengthAdjust="spacing" textLength="128.1528" x="273.72" y="98.731">independently from</text><text fill="#000000" font-family="sans-serif" font-size="13" lengthAdjust="spacing" textLength="117.127" x="273.72" y="113.8638">clients that use it.</text></g><!--reverse link Context to Strategy--><g class="link" data-entity-1="Context" data-entity-2="Strategy" data-source-line="22" data-uid="lnk6" id="link_Context_Strategy"><path codeLine="22" d="M189.47,92.44 C189.47,116.99 189.47,151.52 189.47,181.64" fill="none" id="Context-backto-Strategy" style="stroke:#181818;stroke-width:1;"/><polygon fill="#181818" points="189.47,80.44,185.47,86.44,189.47,92.44,193.47,86.44,189.47,80.44" style="stroke:#181818;stroke-width:1;"/></g><!--reverse link Strategy to ConcreteStrategyA--><g class="link" data-entity-1="Strategy" data-entity-2="ConcreteStrategyA" data-source-line="23" data-uid="lnk7" id="link_Strategy_ConcreteStrategyA"><path codeLine="23" d="M157.43,256.52 C157.43,274.55 157.43,279.77 157.43,297.81" fill="none" id="Strategy-backto-ConcreteStrategyA" style="stroke:#181818;stroke-width:1;"/><polygon fill="none" points="157.43,238.52,151.43,256.52,163.43,256.52,157.43,238.52" style="stroke:#181818;stroke-width:1;"/></g><!--reverse link Strategy to ConcreteStrategyB--><g class="link" data-entity-1="Strategy" data-entity-2="ConcreteStrategyB" data-source-line="24" data-uid="lnk8" id="link_Strategy_ConcreteStrategyB"><path codeLine="24" d="M221.51,256.52 C221.51,274.55 221.51,279.77 221.51,297.81" fill="none" id="Strategy-backto-ConcreteStrategyB" style="stroke:#181818;stroke-width:1;"/><polygon fill="none" points="221.51,238.52,215.51,256.52,227.51,256.52,221.51,238.52" style="stroke:#181818;stroke-width:1;"/></g><!--SRC=[bP7DJiCm48JlVeezyjTMNAke4Yb7n0LUOEDC4gl-YUnDrGXuTvpG5YGg8NomvPtFu_4wxOplERAZYlMkZM7mzJRO44aY-vGbU57fJ5dZ8MCFweCTfyqbBKJfWb9AMqw9ji4B3gAKoMjiM8DUihcW7UbDKHwtX0Fq8BYwLXy_Zka8mObz-0zSNeOxKuFWUXd9mLM8IQbZFBfPBCwvr3bWyPxBlwByePTA-I0WJlHyF-SegasXfxQkOnZPbdR0vaGNgrdP5AjgSu9VSnlNKu5ATBmt8RATjKSqkSl4rB0pTgJG4DisH2ETItSp0g-vJuFDvWJM7GMFEs9Va-CTI3gucPk_GtViMt1biQGdI9haRqVQSnoFS8qUUVAIRsrY-FBGrkJAT8g5XWGoibGPe-dzdm00]--></g></svg>