<svg xmlns="http://www.w3.org/2000/svg" xmlns:xlink="http://www.w3.org/1999/xlink" contentStyleType="text/css" data-diagram-type="CLASS" height="316px" preserveAspectRatio="none" style="width:480px;height:316px;" version="1.1" viewBox="0 0 480 316" width="480px" zoomAndPan="magnify"><defs/><g><!--class Client--><g class="entity" data-entity="Client" data-source-line="5" data-uid="ent0002" id="entity_Client"><rect fill="#F1F1F1" height="32" rx="2.5" ry="2.5" style="stroke:#181818;stroke-width:0.5;" width="72.5303" x="97.31" y="25.27"/><ellipse cx="112.31" cy="41.27" fill="#ADD1B2" rx="11" ry="11" style="stroke:#181818;stroke-width:1;"/><path d="M115.2788,46.9106 Q114.7006,47.2075 114.06,47.3481 Q113.4194,47.5044 112.7163,47.5044 Q110.2163,47.5044 108.8881,45.8637 Q107.5756,44.2075 107.5756,41.0825 Q107.5756,37.9575 108.8881,36.3012 Q110.2163,34.645 112.7163,34.645 Q113.4194,34.645 114.06,34.8012 Q114.7163,34.9575 115.2788,35.2544 L115.2788,37.9731 Q114.6538,37.395 114.06,37.1294 Q113.4663,36.8481 112.8413,36.8481 Q111.4975,36.8481 110.81,37.9262 Q110.1225,38.9887 110.1225,41.0825 Q110.1225,43.1762 110.81,44.2544 Q111.4975,45.3169 112.8413,45.3169 Q113.4663,45.3169 114.06,45.0512 Q114.6538,44.77 115.2788,44.1919 L115.2788,46.9106 Z " fill="#000000"/><text fill="#000000" font-family="sans-serif" font-size="14" lengthAdjust="spacing" textLength="40.5303" x="126.31" y="46.1167">Client</text></g><!--class Subject--><g class="entity" data-entity="Subject" data-source-line="7" data-uid="ent0003" id="entity_Subject"><rect fill="#F1F1F1" height="56.2969" rx="2.5" ry="2.5" style="stroke:#181818;stroke-width:0.5;" width="90.4492" x="88.35" y="136.54"/><ellipse cx="106.101" cy="152.54" fill="#B4A7E5" rx="11" ry="11" style="stroke:#181818;stroke-width:1;"/><path d="M102.0229,148.3056 L102.0229,146.1494 L109.4135,146.1494 L109.4135,148.3056 L106.9447,148.3056 L106.9447,156.3838 L109.4135,156.3838 L109.4135,158.54 L102.0229,158.54 L102.0229,156.3838 L104.4916,156.3838 L104.4916,148.3056 L102.0229,148.3056 Z " fill="#000000"/><text fill="#000000" font-family="sans-serif" font-size="14" font-style="italic" lengthAdjust="spacing" textLength="52.3359" x="120.7123" y="157.3867">Subject</text><line style="stroke:#181818;stroke-width:0.5;" x1="89.35" x2="177.7992" y1="168.54" y2="168.54"/><ellipse cx="99.35" cy="182.1884" fill="#84BE84" rx="3" ry="3" style="stroke:#038048;stroke-width:1;"/><text fill="#000000" font-family="sans-serif" font-size="14" lengthAdjust="spacing" textLength="64.4492" x="108.35" y="185.5351">request()</text></g><!--class RealSubject--><g class="entity" data-entity="RealSubject" data-source-line="11" data-uid="ent0004" id="entity_RealSubject"><rect fill="#F1F1F1" height="56.2969" rx="2.5" ry="2.5" style="stroke:#181818;stroke-width:0.5;" width="115.1455" x="7" y="252.83"/><ellipse cx="22" cy="268.83" fill="#ADD1B2" rx="11" ry="11" style="stroke:#181818;stroke-width:1;"/><path d="M24.9688,274.4706 Q24.3906,274.7675 23.75,274.9081 Q23.1094,275.0644 22.4063,275.0644 Q19.9063,275.0644 18.5781,273.4238 Q17.2656,271.7675 17.2656,268.6425 Q17.2656,265.5175 18.5781,263.8613 Q19.9063,262.205 22.4063,262.205 Q23.1094,262.205 23.75,262.3613 Q24.4063,262.5175 24.9688,262.8144 L24.9688,265.5331 Q24.3438,264.955 23.75,264.6894 Q23.1563,264.4081 22.5313,264.4081 Q21.1875,264.4081 20.5,265.4863 Q19.8125,266.5488 19.8125,268.6425 Q19.8125,270.7363 20.5,271.8144 Q21.1875,272.8769 22.5313,272.8769 Q23.1563,272.8769 23.75,272.6113 Q24.3438,272.33 24.9688,271.7519 L24.9688,274.4706 Z " fill="#000000"/><text fill="#000000" font-family="sans-serif" font-size="14" lengthAdjust="spacing" textLength="83.1455" x="36" y="273.6767">RealSubject</text><line style="stroke:#181818;stroke-width:0.5;" x1="8" x2="121.1455" y1="284.83" y2="284.83"/><ellipse cx="18" cy="298.4784" fill="#84BE84" rx="3" ry="3" style="stroke:#038048;stroke-width:1;"/><text fill="#000000" font-family="sans-serif" font-size="14" lengthAdjust="spacing" textLength="64.4492" x="27" y="301.8251">request()</text></g><!--class Proxy--><g class="entity" data-entity="Proxy" data-source-line="15" data-uid="ent0005" id="entity_Proxy"><rect fill="#F1F1F1" height="56.2969" rx="2.5" ry="2.5" style="stroke:#181818;stroke-width:0.5;" width="90.4492" x="157.35" y="252.83"/><ellipse cx="180.9519" cy="268.83" fill="#ADD1B2" rx="11" ry="11" style="stroke:#181818;stroke-width:1;"/><path d="M183.9206,274.4706 Q183.3425,274.7675 182.7019,274.9081 Q182.0612,275.0644 181.3581,275.0644 Q178.8581,275.0644 177.53,273.4238 Q176.2175,271.7675 176.2175,268.6425 Q176.2175,265.5175 177.53,263.8613 Q178.8581,262.205 181.3581,262.205 Q182.0612,262.205 182.7019,262.3613 Q183.3581,262.5175 183.9206,262.8144 L183.9206,265.5331 Q183.2956,264.955 182.7019,264.6894 Q182.1081,264.4081 181.4831,264.4081 Q180.1394,264.4081 179.4519,265.4863 Q178.7644,266.5488 178.7644,268.6425 Q178.7644,270.7363 179.4519,271.8144 Q180.1394,272.8769 181.4831,272.8769 Q182.1081,272.8769 182.7019,272.6113 Q183.2956,272.33 183.9206,271.7519 L183.9206,274.4706 Z " fill="#000000"/><text fill="#000000" font-family="sans-serif" font-size="14" lengthAdjust="spacing" textLength="39.334" x="196.8634" y="273.6767">Proxy</text><line style="stroke:#181818;stroke-width:0.5;" x1="158.35" x2="246.7992" y1="284.83" y2="284.83"/><ellipse cx="168.35" cy="298.4784" fill="#84BE84" rx="3" ry="3" style="stroke:#038048;stroke-width:1;"/><text fill="#000000" font-family="sans-serif" font-size="14" lengthAdjust="spacing" textLength="64.4492" x="177.35" y="301.8251">request()</text></g><g class="entity" data-entity="N1" data-source-line="27" data-uid="ent0010" id="entity_N1"><path d="M205.15,6 L205.15,76.5313 L473.9879,76.5313 L473.9879,16 L463.9879,6 L205.15,6" fill="#FEFFDD" style="stroke:#181818;stroke-width:0.5;"/><path d="M463.9879,6 L463.9879,16 L473.9879,16 L463.9879,6" fill="#FEFFDD" style="stroke:#181818;stroke-width:1;"/><text fill="#4169E1" font-family="sans-serif" font-size="13" font-weight="bold" lengthAdjust="spacing" textLength="41.7295" x="211.15" y="23.0669">Proxy</text><text fill="#000000" font-family="sans-serif" font-size="13" font-weight="bold" lengthAdjust="spacing" textLength="40.6631" x="211.15" y="38.1997">Type:</text><text fill="#000000" font-family="sans-serif" font-size="13" lengthAdjust="spacing" textLength="64.3398" x="255.9454" y="38.1997">Structural</text><text fill="#000000" font-family="sans-serif" font-size="13" lengthAdjust="spacing" textLength="247.8379" x="211.15" y="53.3325">Provide a surrogate or placeholder for</text><text fill="#000000" font-family="sans-serif" font-size="13" lengthAdjust="spacing" textLength="243.7881" x="211.15" y="68.4653">another object to control access to it.</text></g><!--reverse link Subject to RealSubject--><g class="link" data-entity-1="Subject" data-entity-2="RealSubject" data-source-line="21" data-uid="lnk6" id="link_Subject_RealSubject"><path codeLine="21" d="M105.25,211.13 C105.25,229.16 105.25,234.38 105.25,252.42" fill="none" id="Subject-backto-RealSubject" style="stroke:#181818;stroke-width:1;"/><polygon fill="none" points="105.25,193.13,99.25,211.13,111.25,211.13,105.25,193.13" style="stroke:#181818;stroke-width:1;"/></g><!--reverse link Subject to Proxy--><g class="link" data-entity-1="Subject" data-entity-2="Proxy" data-source-line="22" data-uid="lnk7" id="link_Subject_Proxy"><path codeLine="22" d="M168.07,211.13 C168.07,229.16 168.07,234.38 168.07,252.42" fill="none" id="Subject-backto-Proxy" style="stroke:#181818;stroke-width:1;"/><polygon fill="none" points="168.07,193.13,162.07,211.13,174.07,211.13,168.07,193.13" style="stroke:#181818;stroke-width:1;"/></g><!--reverse link RealSubject to Proxy--><g class="link" data-entity-1="RealSubject" data-entity-2="Proxy" data-source-line="23" data-uid="lnk8" id="link_RealSubject_Proxy"><path codeLine="23" d="M128.3,281.13 C139.97,281.13 146.08,281.13 157.25,281.13" fill="none" id="RealSubject-backto-Proxy" style="stroke:#181818;stroke-width:1;"/><polygon fill="#181818" points="122.3,281.13,131.3,285.13,127.3,281.13,131.3,277.13,122.3,281.13" style="stroke:#181818;stroke-width:1;"/><text fill="#000000" font-family="sans-serif" font-size="13" lengthAdjust="spacing" textLength="69.8179" x="123.02" y="294.1969">represents</text></g><!--link Client to Subject--><g class="link" data-entity-1="Client" data-entity-2="Subject" data-source-line="24" data-uid="lnk9" id="link_Client_Subject"><path codeLine="24" d="M133.57,57.66 C133.57,77.72 133.57,106.03 133.57,130.39" fill="none" id="Client-to-Subject" style="stroke:#181818;stroke-width:1;"/><polygon fill="#181818" points="133.57,136.39,137.57,127.39,133.57,131.39,129.57,127.39,133.57,136.39" style="stroke:#181818;stroke-width:1;"/></g><!--SRC=[XL11JiGm3Bpd5Jw2K5bnhQeUs3j2B1zmK- -sR1e7nq5KmDz9kXGjqaeSFJCUZoSUHnzGS88ExV4Wd7o_PSS2AkXZfiYhYRygDthIEH04TdCPBd4iEh0nrc6Ci7LZiJ2ZLv8zMe9Twbx8AdmOW1iGUaqKzUhQVAqhJuJkNz6ZyFjyYHx6de2ce3DCD7KaqPZLhVcigdFxlyHYQSwlDpzWdKy4ePW_YURq4LHLkxvYZ6Sbm0WFTpaGGDErZIqrri8pkdkNg5sCciq2jyscQrVbS-wiBW3iL9BL9EWMBc-ybMSGOXBX0shf5eBBBGxiUXBOionIp066FFCfjp9OzYhi0AsbN5T6Hhqrv7ieMRy1]--></g></svg>