<svg xmlns="http://www.w3.org/2000/svg" xmlns:xlink="http://www.w3.org/1999/xlink" contentStyleType="text/css" data-diagram-type="CLASS" height="270px" preserveAspectRatio="none" style="width:534px;height:270px;" version="1.1" viewBox="0 0 534 270" width="534px" zoomAndPan="magnify"><defs/><g><!--class Component--><g class="entity" data-entity="Component" data-source-line="5" data-uid="ent0002" id="entity_Component"><rect fill="#F1F1F1" height="64.2969" rx="2.5" ry="2.5" style="stroke:#181818;stroke-width:0.5;" width="113.2793" x="7" y="24.25"/><ellipse cx="22" cy="40.25" fill="#B4A7E5" rx="11" ry="11" style="stroke:#181818;stroke-width:1;"/><path d="M17.9219,36.0156 L17.9219,33.8594 L25.3125,33.8594 L25.3125,36.0156 L22.8438,36.0156 L22.8438,44.0938 L25.3125,44.0938 L25.3125,46.25 L17.9219,46.25 L17.9219,44.0938 L20.3906,44.0938 L20.3906,36.0156 L17.9219,36.0156 Z " fill="#000000"/><text fill="#000000" font-family="sans-serif" font-size="14" font-style="italic" lengthAdjust="spacing" textLength="81.2793" x="36" y="45.0967">Component</text><line style="stroke:#181818;stroke-width:0.5;" x1="8" x2="119.2793" y1="56.25" y2="56.25"/><line style="stroke:#181818;stroke-width:0.5;" x1="8" x2="119.2793" y1="64.25" y2="64.25"/><ellipse cx="18" cy="77.8984" fill="#84BE84" rx="3" ry="3" style="stroke:#038048;stroke-width:1;"/><text fill="#000000" font-family="sans-serif" font-size="14" lengthAdjust="spacing" textLength="78.1416" x="27" y="81.2451">operation()</text></g><!--class ConcreteComponent--><g class="entity" data-entity="ConcreteComponent" data-source-line="9" data-uid="ent0003" id="entity_ConcreteComponent"><rect fill="#F1F1F1" height="64.2969" rx="2.5" ry="2.5" style="stroke:#181818;stroke-width:0.5;" width="176.6621" x="351.31" y="183.1"/><ellipse cx="366.31" cy="199.1" fill="#ADD1B2" rx="11" ry="11" style="stroke:#181818;stroke-width:1;"/><path d="M369.2788,204.7406 Q368.7006,205.0375 368.06,205.1781 Q367.4194,205.3344 366.7163,205.3344 Q364.2163,205.3344 362.8881,203.6938 Q361.5756,202.0375 361.5756,198.9125 Q361.5756,195.7875 362.8881,194.1313 Q364.2163,192.475 366.7163,192.475 Q367.4194,192.475 368.06,192.6313 Q368.7163,192.7875 369.2788,193.0844 L369.2788,195.8031 Q368.6538,195.225 368.06,194.9594 Q367.4663,194.6781 366.8413,194.6781 Q365.4975,194.6781 364.81,195.7563 Q364.1225,196.8188 364.1225,198.9125 Q364.1225,201.0063 364.81,202.0844 Q365.4975,203.1469 366.8413,203.1469 Q367.4663,203.1469 368.06,202.8813 Q368.6538,202.6 369.2788,202.0219 L369.2788,204.7406 Z " fill="#000000"/><text fill="#000000" font-family="sans-serif" font-size="14" lengthAdjust="spacing" textLength="144.6621" x="380.31" y="203.9467">ConcreteComponent</text><line style="stroke:#181818;stroke-width:0.5;" x1="352.31" x2="526.9721" y1="215.1" y2="215.1"/><line style="stroke:#181818;stroke-width:0.5;" x1="352.31" x2="526.9721" y1="223.1" y2="223.1"/><ellipse cx="362.31" cy="236.7484" fill="#84BE84" rx="3" ry="3" style="stroke:#038048;stroke-width:1;"/><text fill="#000000" font-family="sans-serif" font-size="14" lengthAdjust="spacing" textLength="78.1416" x="371.31" y="240.0951">operation()</text></g><!--class Decorator--><g class="entity" data-entity="Decorator" data-source-line="13" data-uid="ent0004" id="entity_Decorator"><rect fill="#F1F1F1" height="64.2969" rx="2.5" ry="2.5" style="stroke:#181818;stroke-width:0.5;" width="104.1416" x="11.57" y="183.1"/><ellipse cx="27.6229" cy="199.1" fill="#ADD1B2" rx="11" ry="11" style="stroke:#181818;stroke-width:1;"/><path d="M30.5917,204.7406 Q30.0136,205.0375 29.3729,205.1781 Q28.7323,205.3344 28.0292,205.3344 Q25.5292,205.3344 24.2011,203.6938 Q22.8886,202.0375 22.8886,198.9125 Q22.8886,195.7875 24.2011,194.1313 Q25.5292,192.475 28.0292,192.475 Q28.7323,192.475 29.3729,192.6313 Q30.0292,192.7875 30.5917,193.0844 L30.5917,195.8031 Q29.9667,195.225 29.3729,194.9594 Q28.7792,194.6781 28.1542,194.6781 Q26.8104,194.6781 26.1229,195.7563 Q25.4354,196.8188 25.4354,198.9125 Q25.4354,201.0063 26.1229,202.0844 Q26.8104,203.1469 28.1542,203.1469 Q28.7792,203.1469 29.3729,202.8813 Q29.9667,202.6 30.5917,202.0219 L30.5917,204.7406 Z " fill="#000000"/><text fill="#000000" font-family="sans-serif" font-size="14" lengthAdjust="spacing" textLength="69.8018" x="41.8569" y="203.9467">Decorator</text><line style="stroke:#181818;stroke-width:0.5;" x1="12.57" x2="114.7116" y1="215.1" y2="215.1"/><line style="stroke:#181818;stroke-width:0.5;" x1="12.57" x2="114.7116" y1="223.1" y2="223.1"/><ellipse cx="22.57" cy="236.7484" fill="#84BE84" rx="3" ry="3" style="stroke:#038048;stroke-width:1;"/><text fill="#000000" font-family="sans-serif" font-size="14" lengthAdjust="spacing" textLength="78.1416" x="31.57" y="240.0951">operation()</text></g><!--class ConcreteDecorator--><g class="entity" data-entity="ConcreteDecorator" data-source-line="17" data-uid="ent0005" id="entity_ConcreteDecorator"><rect fill="#F1F1F1" height="96.8906" rx="2.5" ry="2.5" style="stroke:#181818;stroke-width:0.5;" width="165.1846" x="151.05" y="166.8"/><ellipse cx="166.05" cy="182.8" fill="#ADD1B2" rx="11" ry="11" style="stroke:#181818;stroke-width:1;"/><path d="M169.0188,188.4406 Q168.4406,188.7375 167.8,188.8781 Q167.1594,189.0344 166.4563,189.0344 Q163.9563,189.0344 162.6281,187.3938 Q161.3156,185.7375 161.3156,182.6125 Q161.3156,179.4875 162.6281,177.8313 Q163.9563,176.175 166.4563,176.175 Q167.1594,176.175 167.8,176.3313 Q168.4563,176.4875 169.0188,176.7844 L169.0188,179.5031 Q168.3938,178.925 167.8,178.6594 Q167.2063,178.3781 166.5813,178.3781 Q165.2375,178.3781 164.55,179.4563 Q163.8625,180.5188 163.8625,182.6125 Q163.8625,184.7063 164.55,185.7844 Q165.2375,186.8469 166.5813,186.8469 Q167.2063,186.8469 167.8,186.5813 Q168.3938,186.3 169.0188,185.7219 L169.0188,188.4406 Z " fill="#000000"/><text fill="#000000" font-family="sans-serif" font-size="14" lengthAdjust="spacing" textLength="133.1846" x="180.05" y="187.6467">ConcreteDecorator</text><line style="stroke:#181818;stroke-width:0.5;" x1="152.05" x2="315.2346" y1="198.8" y2="198.8"/><rect fill="none" height="6" style="stroke:#C82930;stroke-width:1;" width="6" x="159.05" y="209.4484"/><text fill="#000000" font-family="sans-serif" font-size="14" lengthAdjust="spacing" textLength="80.9102" x="171.05" y="215.7951">addedState</text><line style="stroke:#181818;stroke-width:0.5;" x1="152.05" x2="315.2346" y1="223.0969" y2="223.0969"/><ellipse cx="162.05" cy="236.7453" fill="#84BE84" rx="3" ry="3" style="stroke:#038048;stroke-width:1;"/><text fill="#000000" font-family="sans-serif" font-size="14" lengthAdjust="spacing" textLength="78.1416" x="171.05" y="240.092">operation()</text><ellipse cx="162.05" cy="253.0422" fill="#84BE84" rx="3" ry="3" style="stroke:#038048;stroke-width:1;"/><text fill="#000000" font-family="sans-serif" font-size="14" lengthAdjust="spacing" textLength="125.8154" x="171.05" y="256.3889">addedBehaviour()</text></g><g class="entity" data-entity="N1" data-source-line="29" data-uid="ent0010" id="entity_N1"><path d="M155.24,6 L155.24,106.7969 L440.0296,106.7969 L440.0296,16 L430.0296,6 L155.24,6" fill="#FEFFDD" style="stroke:#181818;stroke-width:0.5;"/><path d="M430.0296,6 L430.0296,16 L440.0296,16 L430.0296,6" fill="#FEFFDD" style="stroke:#181818;stroke-width:1;"/><text fill="#4169E1" font-family="sans-serif" font-size="13" font-weight="bold" lengthAdjust="spacing" textLength="72.9854" x="161.24" y="23.0669">Decorator</text><text fill="#000000" font-family="sans-serif" font-size="13" font-weight="bold" lengthAdjust="spacing" textLength="40.6631" x="161.24" y="38.1997">Type:</text><text fill="#000000" font-family="sans-serif" font-size="13" lengthAdjust="spacing" textLength="64.3398" x="206.0354" y="38.1997">Structural</text><text fill="#000000" font-family="sans-serif" font-size="13" lengthAdjust="spacing" textLength="250.3008" x="161.24" y="53.3325">Attach additional responsibilities to an</text><text fill="#000000" font-family="sans-serif" font-size="13" lengthAdjust="spacing" textLength="241.7124" x="161.24" y="68.4653">object synamically. Provide a flexible</text><text fill="#000000" font-family="sans-serif" font-size="13" lengthAdjust="spacing" textLength="263.7896" x="161.24" y="83.5981">alternative to sub-classing for extending</text><text fill="#000000" font-family="sans-serif" font-size="13" lengthAdjust="spacing" textLength="85.2173" x="161.24" y="98.731">functionality.</text></g><!--reverse link Component to ConcreteComponent--><g class="link" data-entity-1="Component" data-entity-2="ConcreteComponent" data-source-line="23" data-uid="lnk6" id="link_Component_ConcreteComponent"><path codeLine="23" d="M89.68,107 C89.68,129.61 89.68,137.69 89.68,137.69 C89.68,137.69 395.67,137.69 395.67,137.69 C395.67,137.69 395.67,161.55 395.67,182.8" fill="none" id="Component-backto-ConcreteComponent" style="stroke:#181818;stroke-width:1;"/><polygon fill="none" points="89.68,89,83.68,107,95.68,107,89.68,89" style="stroke:#181818;stroke-width:1;"/></g><!--reverse link Component to Decorator--><g class="link" data-entity-1="Component" data-entity-2="Decorator" data-source-line="24" data-uid="lnk7" id="link_Component_Decorator"><path codeLine="24" d="M37.6,106.93 C37.6,134.34 37.6,155.36 37.6,182.76" fill="none" id="Component-backto-Decorator" style="stroke:#181818;stroke-width:1;"/><polygon fill="none" points="37.6,88.93,31.6,106.93,43.6,106.93,37.6,88.93" style="stroke:#181818;stroke-width:1;"/></g><!--link Component to Decorator--><g class="link" data-entity-1="Component" data-entity-2="Decorator" data-source-line="25" data-uid="lnk8" id="link_Component_Decorator"><path codeLine="25" d="M63.64,88.93 C63.64,116.34 63.64,143.36 63.64,170.76" fill="none" id="Component-to-Decorator" style="stroke:#181818;stroke-width:1;"/><polygon fill="#181818" points="63.64,182.76,67.64,176.76,63.64,170.76,59.64,176.76,63.64,182.76" style="stroke:#181818;stroke-width:1;"/></g><!--reverse link Decorator to ConcreteDecorator--><g class="link" data-entity-1="Decorator" data-entity-2="ConcreteDecorator" data-source-line="26" data-uid="lnk9" id="link_Decorator_ConcreteDecorator"><path codeLine="26" d="M134.03,215.69 C145.06,215.69 138.94,215.69 150.77,215.69" fill="none" id="Decorator-backto-ConcreteDecorator" style="stroke:#181818;stroke-width:1;"/><polygon fill="none" points="116.03,215.69,134.03,221.69,134.03,209.69,116.03,215.69" style="stroke:#181818;stroke-width:1;"/></g><!--SRC=[ZP7FRi8m3CRlUGeVzqS5xOegfC7EqoJs0cvg82FOLU8YgctlFhTeW803kUNxVh4_ntaJkC64MwZGRrP9Mgxd4YM19kHi5h6wVAHYODAk8MWaTltbbYT9r-9SOAMqH4ymbsqZR9NWsu6TPv264ceGVdXqlyxvY3aRnZwHqftu6tanrRBULVKIBm3hckg5ejADzmTbG6QqnbsGDXtAdkALFqLndVeIE3O-CuhYwKm_HRC7ru6TOr42pF3-CkGggsdf-orDadGOPx6bwP4knuCrBSVLz9_-jBLCUW4McbglRS8uUA-gwDVzcA6V6oCaofOnXof4aoY32Y0Fi5HVv1LonxWD7cFiHl2HP1Tg2mVBIFjGnSDVOhJTi_tbZle2kQsAOHk1Lx2qEMclnBNT1dhPiZ-q3zgDd3dGJ_m7]--></g></svg>