<svg xmlns="http://www.w3.org/2000/svg" xmlns:xlink="http://www.w3.org/1999/xlink" contentStyleType="text/css" data-diagram-type="FILES" height="191px" preserveAspectRatio="none" style="width:91px;height:191px;background:#FFFFFF;" version="1.1" viewBox="0 0 91 191" width="91px" zoomAndPan="magnify"><defs/><g><path d="M10,26.9167 C10,28.2053 11.0448,29.25 12.3333,29.25 L26.3333,29.25 C27.6219,29.25 28.6667,28.2053 28.6667,26.9167 L28.6667,17 C28.6667,15.7114 27.6219,14.6667 26.3333,14.6667 L21.0833,14.6667 C19.0055,14.6667 19.3333,11.75 16.1612,11.75 L12.3333,11.75 C11.0448,11.75 10,12.7948 10,14.0833 L10,26.9167" fill="#226699"/><path d="M28.8627,17 L25.0348,17 C21.8627,17 21.8948,19.9167 19.8169,19.9167 L14.5669,19.9167 C13.2783,19.9167 12.1274,20.9614 11.9968,22.25 L11.7092,24.5098 L11.4035,26.9167 L11.3918,26.9155 C11.3242,27.2696 10.9998,27.4983 10.6335,27.4983 C10.2584,27.4983 9.9883,27.2025 10.007,26.8309 C10.0058,26.8601 10,26.8875 10,26.9167 C10,28.0857 10.8622,29.0447 11.9833,29.2144 C12.0866,29.2366 12.1998,29.25 12.3333,29.25 L27.5,29.25 C28.7886,29.25 29.9395,28.2053 30.0702,26.9167 L30.9586,19.3333 C31.0898,18.0448 30.1513,17 28.8627,17" fill="#55ACEE"/><text fill="#000000" font-family="sans-serif" font-size="14" lengthAdjust="spacing" textLength="41.9998" x="31" y="29.4482">&#36816;&#33829;&#37096;</text><path d="M49.9088,40.3418 L44.6588,35.0918 C44.4482,34.8813 44.1559,34.75 43.8333,34.75 C43.1893,34.75 42.6673,35.2727 42.6667,35.9167 C42.6667,36.2387 42.7973,36.5309 43.0085,36.7421 L40.7574,38.9932 L46.0074,44.2432 L48.2585,41.9921 C48.4697,42.2027 48.7613,42.3333 49.0833,42.3333 C49.7273,42.3333 50.2506,41.8107 50.25,41.1667 C50.25,40.8447 50.1193,40.553 49.9088,40.3418" fill="#E1E8ED"/><path d="M43.8333,34.75 L35.0833,34.75 C33.7948,34.75 32.75,35.7948 32.75,37.0833 L32.75,53.4167 C32.75,54.7053 33.7948,55.75 35.0833,55.75 L47.9167,55.75 C49.2053,55.75 50.25,54.7053 50.25,53.4167 L50.25,41.1667 L45,41.1667 C44.4167,41.1667 43.8333,40.5833 43.8333,40 L43.8333,34.75" fill="#CCD6DD"/><path d="M43.8333,34.75 L42.6667,34.75 L42.6667,40 C42.6667,41.2886 43.7114,42.3333 45,42.3333 L50.25,42.3333 L50.25,41.1667 L45,41.1667 C44.4167,41.1667 43.8333,40.5833 43.8333,40 L43.8333,34.75 M40.9167,39.4167 C40.9167,39.7387 40.6553,40 40.3333,40 L35.6667,40 C35.3447,40 35.0833,39.7387 35.0833,39.4167 C35.0833,39.0947 35.3447,38.8333 35.6667,38.8333 L40.3333,38.8333 C40.6553,38.8333 40.9167,39.0947 40.9167,39.4167 M40.9167,41.75 C40.9167,42.072 40.6553,42.3333 40.3333,42.3333 L35.6667,42.3333 C35.3447,42.3333 35.0833,42.072 35.0833,41.75 C35.0833,41.428 35.3447,41.1667 35.6667,41.1667 L40.3333,41.1667 C40.6553,41.1667 40.9167,41.428 40.9167,41.75 M47.9167,44.0833 C47.9167,44.4053 47.6559,44.6667 47.3333,44.6667 L35.6667,44.6667 C35.3447,44.6667 35.0833,44.4053 35.0833,44.0833 C35.0833,43.7613 35.3447,43.5 35.6667,43.5 L47.3333,43.5 C47.6559,43.5 47.9167,43.7613 47.9167,44.0833 M47.9167,46.4167 C47.9167,46.7393 47.6559,47 47.3333,47 L35.6667,47 C35.3447,47 35.0833,46.7393 35.0833,46.4167 C35.0833,46.0941 35.3447,45.8333 35.6667,45.8333 L47.3333,45.8333 C47.6559,45.8333 47.9167,46.0941 47.9167,46.4167 M47.9167,48.75 C47.9167,49.0726 47.6559,49.3333 47.3333,49.3333 L35.6667,49.3333 C35.3447,49.3333 35.0833,49.0726 35.0833,48.75 C35.0833,48.4274 35.3447,48.1667 35.6667,48.1667 L47.3333,48.1667 C47.6559,48.1667 47.9167,48.4274 47.9167,48.75 M47.9167,51.0833 C47.9167,51.4059 47.6559,51.6667 47.3333,51.6667 L35.6667,51.6667 C35.3447,51.6667 35.0833,51.4059 35.0833,51.0833 C35.0833,50.7608 35.3447,50.5 35.6667,50.5 L47.3333,50.5 C47.6559,50.5 47.9167,50.7608 47.9167,51.0833" fill="#99AAB5"/><text fill="#000000" font-family="sans-serif" font-size="14" lengthAdjust="spacing" textLength="27.9999" x="52" y="54.1982">&#24352;&#19977;</text><path d="M49.9088,65.0918 L44.6588,59.8418 C44.4482,59.6313 44.1559,59.5 43.8333,59.5 C43.1893,59.5 42.6673,60.0227 42.6667,60.6667 C42.6667,60.9887 42.7973,61.2809 43.0085,61.4921 L40.7574,63.7432 L46.0074,68.9932 L48.2585,66.7421 C48.4697,66.9527 48.7613,67.0833 49.0833,67.0833 C49.7273,67.0833 50.2506,66.5607 50.25,65.9167 C50.25,65.5947 50.1193,65.303 49.9088,65.0918" fill="#E1E8ED"/><path d="M43.8333,59.5 L35.0833,59.5 C33.7948,59.5 32.75,60.5448 32.75,61.8333 L32.75,78.1667 C32.75,79.4553 33.7948,80.5 35.0833,80.5 L47.9167,80.5 C49.2053,80.5 50.25,79.4553 50.25,78.1667 L50.25,65.9167 L45,65.9167 C44.4167,65.9167 43.8333,65.3333 43.8333,64.75 L43.8333,59.5" fill="#CCD6DD"/><path d="M43.8333,59.5 L42.6667,59.5 L42.6667,64.75 C42.6667,66.0386 43.7114,67.0833 45,67.0833 L50.25,67.0833 L50.25,65.9167 L45,65.9167 C44.4167,65.9167 43.8333,65.3333 43.8333,64.75 L43.8333,59.5 M40.9167,64.1667 C40.9167,64.4887 40.6553,64.75 40.3333,64.75 L35.6667,64.75 C35.3447,64.75 35.0833,64.4887 35.0833,64.1667 C35.0833,63.8447 35.3447,63.5833 35.6667,63.5833 L40.3333,63.5833 C40.6553,63.5833 40.9167,63.8447 40.9167,64.1667 M40.9167,66.5 C40.9167,66.822 40.6553,67.0833 40.3333,67.0833 L35.6667,67.0833 C35.3447,67.0833 35.0833,66.822 35.0833,66.5 C35.0833,66.178 35.3447,65.9167 35.6667,65.9167 L40.3333,65.9167 C40.6553,65.9167 40.9167,66.178 40.9167,66.5 M47.9167,68.8333 C47.9167,69.1553 47.6559,69.4167 47.3333,69.4167 L35.6667,69.4167 C35.3447,69.4167 35.0833,69.1553 35.0833,68.8333 C35.0833,68.5113 35.3447,68.25 35.6667,68.25 L47.3333,68.25 C47.6559,68.25 47.9167,68.5113 47.9167,68.8333 M47.9167,71.1667 C47.9167,71.4893 47.6559,71.75 47.3333,71.75 L35.6667,71.75 C35.3447,71.75 35.0833,71.4893 35.0833,71.1667 C35.0833,70.8441 35.3447,70.5833 35.6667,70.5833 L47.3333,70.5833 C47.6559,70.5833 47.9167,70.8441 47.9167,71.1667 M47.9167,73.5 C47.9167,73.8226 47.6559,74.0833 47.3333,74.0833 L35.6667,74.0833 C35.3447,74.0833 35.0833,73.8226 35.0833,73.5 C35.0833,73.1774 35.3447,72.9167 35.6667,72.9167 L47.3333,72.9167 C47.6559,72.9167 47.9167,73.1774 47.9167,73.5 M47.9167,75.8333 C47.9167,76.1559 47.6559,76.4167 47.3333,76.4167 L35.6667,76.4167 C35.3447,76.4167 35.0833,76.1559 35.0833,75.8333 C35.0833,75.5108 35.3447,75.25 35.6667,75.25 L47.3333,75.25 C47.6559,75.25 47.9167,75.5108 47.9167,75.8333" fill="#99AAB5"/><text fill="#000000" font-family="sans-serif" font-size="14" lengthAdjust="spacing" textLength="27.9999" x="52" y="78.9482">&#26446;&#22235;</text><path d="M10,101.1667 C10,102.4553 11.0448,103.5 12.3333,103.5 L26.3333,103.5 C27.6219,103.5 28.6667,102.4553 28.6667,101.1667 L28.6667,91.25 C28.6667,89.9614 27.6219,88.9167 26.3333,88.9167 L21.0833,88.9167 C19.0055,88.9167 19.3333,86 16.1612,86 L12.3333,86 C11.0448,86 10,87.0448 10,88.3333 L10,101.1667" fill="#226699"/><path d="M28.8627,91.25 L25.0348,91.25 C21.8627,91.25 21.8948,94.1667 19.8169,94.1667 L14.5669,94.1667 C13.2783,94.1667 12.1274,95.2114 11.9968,96.5 L11.7092,98.7598 L11.4035,101.1667 L11.3918,101.1655 C11.3242,101.5196 10.9998,101.7483 10.6335,101.7483 C10.2584,101.7483 9.9883,101.4525 10.007,101.0809 C10.0058,101.1101 10,101.1375 10,101.1667 C10,102.3357 10.8622,103.2947 11.9833,103.4644 C12.0866,103.4866 12.1998,103.5 12.3333,103.5 L27.5,103.5 C28.7886,103.5 29.9395,102.4553 30.0702,101.1667 L30.9586,93.5833 C31.0898,92.2948 30.1513,91.25 28.8627,91.25" fill="#55ACEE"/><text fill="#000000" font-family="sans-serif" font-size="14" lengthAdjust="spacing" textLength="41.9998" x="31" y="103.6982">&#38144;&#21806;&#37096;</text><path d="M49.9088,114.5918 L44.6588,109.3418 C44.4482,109.1313 44.1559,109 43.8333,109 C43.1893,109 42.6673,109.5227 42.6667,110.1667 C42.6667,110.4887 42.7973,110.7809 43.0085,110.9921 L40.7574,113.2432 L46.0074,118.4932 L48.2585,116.2421 C48.4697,116.4527 48.7613,116.5833 49.0833,116.5833 C49.7273,116.5833 50.2506,116.0607 50.25,115.4167 C50.25,115.0947 50.1193,114.803 49.9088,114.5918" fill="#E1E8ED"/><path d="M43.8333,109 L35.0833,109 C33.7948,109 32.75,110.0448 32.75,111.3333 L32.75,127.6667 C32.75,128.9553 33.7948,130 35.0833,130 L47.9167,130 C49.2053,130 50.25,128.9553 50.25,127.6667 L50.25,115.4167 L45,115.4167 C44.4167,115.4167 43.8333,114.8333 43.8333,114.25 L43.8333,109" fill="#CCD6DD"/><path d="M43.8333,109 L42.6667,109 L42.6667,114.25 C42.6667,115.5386 43.7114,116.5833 45,116.5833 L50.25,116.5833 L50.25,115.4167 L45,115.4167 C44.4167,115.4167 43.8333,114.8333 43.8333,114.25 L43.8333,109 M40.9167,113.6667 C40.9167,113.9887 40.6553,114.25 40.3333,114.25 L35.6667,114.25 C35.3447,114.25 35.0833,113.9887 35.0833,113.6667 C35.0833,113.3447 35.3447,113.0833 35.6667,113.0833 L40.3333,113.0833 C40.6553,113.0833 40.9167,113.3447 40.9167,113.6667 M40.9167,116 C40.9167,116.322 40.6553,116.5833 40.3333,116.5833 L35.6667,116.5833 C35.3447,116.5833 35.0833,116.322 35.0833,116 C35.0833,115.678 35.3447,115.4167 35.6667,115.4167 L40.3333,115.4167 C40.6553,115.4167 40.9167,115.678 40.9167,116 M47.9167,118.3333 C47.9167,118.6553 47.6559,118.9167 47.3333,118.9167 L35.6667,118.9167 C35.3447,118.9167 35.0833,118.6553 35.0833,118.3333 C35.0833,118.0113 35.3447,117.75 35.6667,117.75 L47.3333,117.75 C47.6559,117.75 47.9167,118.0113 47.9167,118.3333 M47.9167,120.6667 C47.9167,120.9893 47.6559,121.25 47.3333,121.25 L35.6667,121.25 C35.3447,121.25 35.0833,120.9893 35.0833,120.6667 C35.0833,120.3441 35.3447,120.0833 35.6667,120.0833 L47.3333,120.0833 C47.6559,120.0833 47.9167,120.3441 47.9167,120.6667 M47.9167,123 C47.9167,123.3226 47.6559,123.5833 47.3333,123.5833 L35.6667,123.5833 C35.3447,123.5833 35.0833,123.3226 35.0833,123 C35.0833,122.6774 35.3447,122.4167 35.6667,122.4167 L47.3333,122.4167 C47.6559,122.4167 47.9167,122.6774 47.9167,123 M47.9167,125.3333 C47.9167,125.6559 47.6559,125.9167 47.3333,125.9167 L35.6667,125.9167 C35.3447,125.9167 35.0833,125.6559 35.0833,125.3333 C35.0833,125.0108 35.3447,124.75 35.6667,124.75 L47.3333,124.75 C47.6559,124.75 47.9167,125.0108 47.9167,125.3333" fill="#99AAB5"/><text fill="#000000" font-family="sans-serif" font-size="14" lengthAdjust="spacing" textLength="27.9999" x="52" y="128.4482">&#29579;&#20116;</text><path d="M28.9088,139.3418 L23.6587,134.0918 C23.4482,133.8813 23.1559,133.75 22.8333,133.75 C22.1893,133.75 21.6673,134.2727 21.6667,134.9167 C21.6667,135.2387 21.7973,135.5309 22.0085,135.7421 L19.7574,137.9932 L25.0074,143.2432 L27.2585,140.9921 C27.4697,141.2027 27.7613,141.3333 28.0833,141.3333 C28.7273,141.3333 29.2506,140.8107 29.25,140.1667 C29.25,139.8447 29.1193,139.553 28.9088,139.3418" fill="#E1E8ED"/><path d="M22.8333,133.75 L14.0833,133.75 C12.7948,133.75 11.75,134.7948 11.75,136.0833 L11.75,152.4167 C11.75,153.7053 12.7948,154.75 14.0833,154.75 L26.9167,154.75 C28.2053,154.75 29.25,153.7053 29.25,152.4167 L29.25,140.1667 L24,140.1667 C23.4167,140.1667 22.8333,139.5833 22.8333,139 L22.8333,133.75" fill="#CCD6DD"/><path d="M22.8333,133.75 L21.6667,133.75 L21.6667,139 C21.6667,140.2886 22.7114,141.3333 24,141.3333 L29.25,141.3333 L29.25,140.1667 L24,140.1667 C23.4167,140.1667 22.8333,139.5833 22.8333,139 L22.8333,133.75 M19.9167,138.4167 C19.9167,138.7387 19.6553,139 19.3333,139 L14.6667,139 C14.3447,139 14.0833,138.7387 14.0833,138.4167 C14.0833,138.0947 14.3447,137.8333 14.6667,137.8333 L19.3333,137.8333 C19.6553,137.8333 19.9167,138.0947 19.9167,138.4167 M19.9167,140.75 C19.9167,141.072 19.6553,141.3333 19.3333,141.3333 L14.6667,141.3333 C14.3447,141.3333 14.0833,141.072 14.0833,140.75 C14.0833,140.428 14.3447,140.1667 14.6667,140.1667 L19.3333,140.1667 C19.6553,140.1667 19.9167,140.428 19.9167,140.75 M26.9167,143.0833 C26.9167,143.4053 26.6559,143.6667 26.3333,143.6667 L14.6667,143.6667 C14.3447,143.6667 14.0833,143.4053 14.0833,143.0833 C14.0833,142.7613 14.3447,142.5 14.6667,142.5 L26.3333,142.5 C26.6559,142.5 26.9167,142.7613 26.9167,143.0833 M26.9167,145.4167 C26.9167,145.7393 26.6559,146 26.3333,146 L14.6667,146 C14.3447,146 14.0833,145.7393 14.0833,145.4167 C14.0833,145.0941 14.3447,144.8333 14.6667,144.8333 L26.3333,144.8333 C26.6559,144.8333 26.9167,145.0941 26.9167,145.4167 M26.9167,147.75 C26.9167,148.0726 26.6559,148.3333 26.3333,148.3333 L14.6667,148.3333 C14.3447,148.3333 14.0833,148.0726 14.0833,147.75 C14.0833,147.4274 14.3447,147.1667 14.6667,147.1667 L26.3333,147.1667 C26.6559,147.1667 26.9167,147.4274 26.9167,147.75 M26.9167,150.0833 C26.9167,150.4059 26.6559,150.6667 26.3333,150.6667 L14.6667,150.6667 C14.3447,150.6667 14.0833,150.4059 14.0833,150.0833 C14.0833,149.7608 14.3447,149.5 14.6667,149.5 L26.3333,149.5 C26.6559,149.5 26.9167,149.7608 26.9167,150.0833" fill="#99AAB5"/><text fill="#000000" font-family="sans-serif" font-size="14" lengthAdjust="spacing" textLength="29.6406" x="31" y="153.1982">CEO</text><path d="M28.9088,164.0918 L23.6587,158.8418 C23.4482,158.6313 23.1559,158.5 22.8333,158.5 C22.1893,158.5 21.6673,159.0227 21.6667,159.6667 C21.6667,159.9887 21.7973,160.2809 22.0085,160.4921 L19.7574,162.7432 L25.0074,167.9932 L27.2585,165.7421 C27.4697,165.9527 27.7613,166.0833 28.0833,166.0833 C28.7273,166.0833 29.2506,165.5607 29.25,164.9167 C29.25,164.5947 29.1193,164.303 28.9088,164.0918" fill="#E1E8ED"/><path d="M22.8333,158.5 L14.0833,158.5 C12.7948,158.5 11.75,159.5448 11.75,160.8333 L11.75,177.1667 C11.75,178.4553 12.7948,179.5 14.0833,179.5 L26.9167,179.5 C28.2053,179.5 29.25,178.4553 29.25,177.1667 L29.25,164.9167 L24,164.9167 C23.4167,164.9167 22.8333,164.3333 22.8333,163.75 L22.8333,158.5" fill="#CCD6DD"/><path d="M22.8333,158.5 L21.6667,158.5 L21.6667,163.75 C21.6667,165.0386 22.7114,166.0833 24,166.0833 L29.25,166.0833 L29.25,164.9167 L24,164.9167 C23.4167,164.9167 22.8333,164.3333 22.8333,163.75 L22.8333,158.5 M19.9167,163.1667 C19.9167,163.4887 19.6553,163.75 19.3333,163.75 L14.6667,163.75 C14.3447,163.75 14.0833,163.4887 14.0833,163.1667 C14.0833,162.8447 14.3447,162.5833 14.6667,162.5833 L19.3333,162.5833 C19.6553,162.5833 19.9167,162.8447 19.9167,163.1667 M19.9167,165.5 C19.9167,165.822 19.6553,166.0833 19.3333,166.0833 L14.6667,166.0833 C14.3447,166.0833 14.0833,165.822 14.0833,165.5 C14.0833,165.178 14.3447,164.9167 14.6667,164.9167 L19.3333,164.9167 C19.6553,164.9167 19.9167,165.178 19.9167,165.5 M26.9167,167.8333 C26.9167,168.1553 26.6559,168.4167 26.3333,168.4167 L14.6667,168.4167 C14.3447,168.4167 14.0833,168.1553 14.0833,167.8333 C14.0833,167.5113 14.3447,167.25 14.6667,167.25 L26.3333,167.25 C26.6559,167.25 26.9167,167.5113 26.9167,167.8333 M26.9167,170.1667 C26.9167,170.4893 26.6559,170.75 26.3333,170.75 L14.6667,170.75 C14.3447,170.75 14.0833,170.4893 14.0833,170.1667 C14.0833,169.8441 14.3447,169.5833 14.6667,169.5833 L26.3333,169.5833 C26.6559,169.5833 26.9167,169.8441 26.9167,170.1667 M26.9167,172.5 C26.9167,172.8226 26.6559,173.0833 26.3333,173.0833 L14.6667,173.0833 C14.3447,173.0833 14.0833,172.8226 14.0833,172.5 C14.0833,172.1774 14.3447,171.9167 14.6667,171.9167 L26.3333,171.9167 C26.6559,171.9167 26.9167,172.1774 26.9167,172.5 M26.9167,174.8333 C26.9167,175.1559 26.6559,175.4167 26.3333,175.4167 L14.6667,175.4167 C14.3447,175.4167 14.0833,175.1559 14.0833,174.8333 C14.0833,174.5108 14.3447,174.25 14.6667,174.25 L26.3333,174.25 C26.6559,174.25 26.9167,174.5108 26.9167,174.8333" fill="#99AAB5"/><text fill="#000000" font-family="sans-serif" font-size="14" lengthAdjust="spacing" textLength="29.3467" x="31" y="177.9482">CTO</text><!--SRC=[JP2zIWD158NxUOfR9aMo6d_GLC4a2Z7B1fDDFzcTBCFktWapToDsWfK88SLs8M0ZM5cB2BvCLfEtS1OHRMxndNFkNyiGrpILYJ3Cn19dNFCK9Zo88wqo3DigKHf8SpHM4aZCsNuijykdtTspKxm_Rbxl_vFFzQ9OhPYpos-B_AKaNuk7pLlEd7RNisNaiPR0y6SU6oGSoNVxC1VQI8MmNs_iDOxg1nD1_BJYOupg6Y5GwSm6W6GgggnoCUY3KPaE18JIa9QJZ6ouodfypk4gmzBN16yciDUv_0NGnRdK2jFoXjxO_JCS7zRE9C5GQBi6Z5tM4LEU9MGJWGebHatmH-Ur4zRd66Kyihq5ihRz3kaRgms_0G00]--></g></svg>