<?xml version="1.0" encoding="us-ascii" standalone="no"?><svg xmlns="http://www.w3.org/2000/svg" xmlns:xlink="http://www.w3.org/1999/xlink" contentStyleType="text/css" height="418px" preserveAspectRatio="none" style="width:283px;height:418px;" version="1.1" viewBox="0 0 283 418" width="283px" zoomAndPan="magnify"><defs/><g><!--cluster Placed--><g id="cluster_Placed"><path d="M79,7 L273,7 A3.5,3.5 0 0 1 276.5,10.5 L276.5,61.2344 L75.5,61.2344 L75.5,10.5 A3.5,3.5 0 0 1 79,7 " fill="#F1F1F1" style="stroke:#F1F1F1;stroke-width:1.0;"/><rect fill="none" height="164.72" rx="3.5" ry="3.5" style="stroke:#181818;stroke-width:0.5;" width="201" x="75.5" y="7"/><line style="stroke:#181818;stroke-width:0.5;" x1="75.5" x2="276.5" y1="61.2344" y2="61.2344"/><line style="stroke:#181818;stroke-width:0.5;" x1="75.5" x2="276.5" y1="28.2969" y2="28.2969"/><text fill="#000000" font-family="sans-serif" font-size="14" lengthAdjust="spacing" textLength="46" x="83.5" y="23.9951">Placed</text><text fill="#000000" font-family="sans-serif" font-size="12" lengthAdjust="spacing" textLength="120" x="80.5" y="41.9355">+next() -&gt; Shipped</text><text fill="#000000" font-family="sans-serif" font-size="12" lengthAdjust="spacing" textLength="185" x="80.5" y="55.9043">+previous() = "&#24050;&#32463;&#26159;&#21021;&#22987;&#29366;&#24577;"</text></g><ellipse cx="109.5" cy="93" fill="#222222" rx="10" ry="10" style="stroke:#222222;stroke-width:1.0;"/><ellipse cx="41.5" cy="93" fill="#222222" rx="10" ry="10" style="stroke:#222222;stroke-width:1.0;"/><g id="Shipped"><rect fill="#F1F1F1" height="64.2344" rx="3.5" ry="3.5" style="stroke:#181818;stroke-width:0.5;" width="157" x="18" y="223.72"/><line style="stroke:#181818;stroke-width:0.5;" x1="18" x2="175" y1="250.0169" y2="250.0169"/><text fill="#000000" font-family="sans-serif" font-size="14" lengthAdjust="spacing" textLength="57" x="68" y="241.7151">Shipped</text><text fill="#000000" font-family="sans-serif" font-size="12" lengthAdjust="spacing" textLength="127" x="23" y="266.1555">+next() -&gt; Delivered</text><text fill="#000000" font-family="sans-serif" font-size="12" lengthAdjust="spacing" textLength="137" x="23" y="280.1243">+previous() -&gt; Placed</text></g><g id="Delivered"><rect fill="#F1F1F1" height="64.2344" rx="3.5" ry="3.5" style="stroke:#181818;stroke-width:0.5;" width="179" x="7" y="347.96"/><line style="stroke:#181818;stroke-width:0.5;" x1="7" x2="186" y1="374.2569" y2="374.2569"/><text fill="#000000" font-family="sans-serif" font-size="14" lengthAdjust="spacing" textLength="65" x="64" y="365.9551">Delivered</text><text fill="#000000" font-family="sans-serif" font-size="12" lengthAdjust="spacing" textLength="159" x="12" y="390.3955">+next() = "&#24050;&#32463;&#26159;&#26368;&#32456;&#29366;&#24577;"</text><text fill="#000000" font-family="sans-serif" font-size="12" lengthAdjust="spacing" textLength="146" x="12" y="404.3643">+previous() -&gt; Shipped</text></g><!--link *start* to Placed--><g id="link_*start*_Placed"><path d="M41.5,103.2 C41.5,122.89 41.5,164.19 41.5,164.19 C41.5,164.19 54.405,164.19 67.7125,164.19 C69.3759,164.19 71.0457,164.19 72.6973,164.19 C73.5231,164.19 74.3443,164.19 75.158,164.19 C75.2597,164.19 69.3613,164.19 69.4628,164.19 " fill="none" id="*start*-to-Placed" style="stroke:#454645;stroke-width:1.0;"/><polygon fill="#454645" points="75.4628,164.19,66.4628,160.19,70.4628,164.19,66.4628,168.19,75.4628,164.19" style="stroke:#454645;stroke-width:1.0;"/></g><!--link *start*Placed to Placed--><g id="link_*start*Placed_Placed"><path d="M112.83,102.9 C112.83,122.46 112.83,164.19 112.83,164.19 C112.83,164.19 104.48,164.19 102.68,164.19 " fill="none" id="*start*Placed-to-Placed" style="stroke:#454645;stroke-width:1.0;"/><polygon fill="#454645" points="96.68,164.19,105.68,168.19,101.68,164.19,105.68,160.19,96.68,164.19" style="stroke:#454645;stroke-width:1.0;"/></g><!--link Placed to Shipped--><g id="link_Placed_Shipped"><path d="M106.17,172.0011 C106.17,172.1498 106.17,172.2987 106.17,172.4478 C106.17,172.746 106.17,173.045 106.17,173.3448 C106.17,173.9443 106.17,174.547 106.17,175.1524 C106.17,176.3633 106.17,177.5853 106.17,178.8165 C106.17,183.741 106.17,188.8102 106.17,193.8852 C106.17,204.035 106.17,208.2075 106.17,217.29 " fill="none" id="Placed-to-Shipped" style="stroke:#454645;stroke-width:1.0;"/><polygon fill="#454645" points="106.17,223.29,110.17,214.29,106.17,218.29,102.17,214.29,106.17,223.29" style="stroke:#454645;stroke-width:1.0;"/><text fill="#000000" font-family="sans-serif" font-size="13" lengthAdjust="spacing" textLength="38" x="67.17" y="154.7669">next()</text></g><!--link Shipped to Placed--><g id="link_Shipped_Placed"><path d="M96.5,223.23 C96.5,211.17 96.5,197.7475 96.5,186.6737 C96.5,181.1369 96.5,176.1872 96.5,172.2886 C96.5,172.1668 96.5,172.046 96.5,171.9262 C96.5,171.8663 96.5,177.8067 96.5,177.7473 " fill="none" id="Shipped-to-Placed" style="stroke:#454645;stroke-width:1.0;"/><polygon fill="#454645" points="96.5,171.7473,92.5,180.7473,96.5,176.7473,100.5,180.7473,96.5,171.7473" style="stroke:#454645;stroke-width:1.0;"/><text fill="#000000" font-family="sans-serif" font-size="13" lengthAdjust="spacing" textLength="64" x="31.5" y="189.7869">previous()</text></g><!--link Shipped to Delivered--><g id="link_Shipped_Delivered"><path d="M70.33,288.16 C70.33,306.42 70.33,323.18 70.33,341.49 " fill="none" id="Shipped-to-Delivered" style="stroke:#454645;stroke-width:1.0;"/><polygon fill="#454645" points="70.33,347.49,74.33,338.49,70.33,342.49,66.33,338.49,70.33,347.49" style="stroke:#454645;stroke-width:1.0;"/><text fill="#000000" font-family="sans-serif" font-size="13" lengthAdjust="spacing" textLength="38" x="31.33" y="313.8869">next()</text></g><!--link Delivered to Shipped--><g id="link_Delivered_Shipped"><path d="M122.67,347.76 C122.67,329.49 122.67,312.73 122.67,294.43 " fill="none" id="Delivered-to-Shipped" style="stroke:#454645;stroke-width:1.0;"/><polygon fill="#454645" points="122.67,288.43,118.67,297.43,122.67,293.43,126.67,297.43,122.67,288.43" style="stroke:#454645;stroke-width:1.0;"/><text fill="#000000" font-family="sans-serif" font-size="13" lengthAdjust="spacing" textLength="64" x="57.67" y="331.1569">previous()</text></g><!--SRC=[RP2nRi9038PtFuNBr1Rn0fNAqZv0fOw8uG2hEN7SdIu64LMLO4DbO6MWCsEb3Z3mF4bUeqHDY8EwdV_F_d_xRZYY2I6x1EAnjbu5DS616exVWflQqPCpBY07PUCp8ikYosXBd7X2xqnI5Fyn5pXo0BtxFdOwNNmnQaWZW9WLKrdXEo1UDNm0bB0GNoFj_VdzW9RcV7i7bL30Pp9wHa5YgBNck0yqqsuQNrcKKGqE5x7zvugras3r13vYApt-vATDjlrELr_fVfr_7hB5iWLGRo3CBajABFp4TyaRAmSPb-qM-MbLnJMwcuPbqYy0]--></g></svg>