<?xml version="1.0" encoding="us-ascii" standalone="no"?><svg xmlns="http://www.w3.org/2000/svg" xmlns:xlink="http://www.w3.org/1999/xlink" contentStyleType="text/css" height="627px" preserveAspectRatio="none" style="width:563px;height:627px;" version="1.1" viewBox="0 0 563 627" width="563px" zoomAndPan="magnify"><defs/><g><ellipse cx="273.5" cy="16" fill="#222222" rx="10" ry="10" style="stroke:#222222;stroke-width:1.0;"/><path d="M229,87 L318,87 A3.5,3.5 0 0 1 321.5,90.5 L321.5,113.2969 L225.5,113.2969 L225.5,90.5 A3.5,3.5 0 0 1 229,87 " fill="#F1F1F1" style="stroke:#F1F1F1;stroke-width:1.0;"/><rect fill="none" height="153.2969" rx="3.5" ry="3.5" style="stroke:#181818;stroke-width:0.5;" width="96" x="225.5" y="87"/><line style="stroke:#181818;stroke-width:0.5;" x1="225.5" x2="321.5" y1="113.2969" y2="113.2969"/><text fill="#000000" font-family="sans-serif" font-size="14" lengthAdjust="spacing" textLength="30" x="258.5" y="104.9951">New</text><ellipse cx="275" cy="134.2969" fill="#222222" rx="10" ry="10" style="stroke:#222222;stroke-width:1.0;"/><g id="New.Created"><rect fill="#F1F1F1" height="50" rx="3.5" ry="3.5" style="stroke:#181818;stroke-width:0.5;" width="75" x="237.5" y="180.2969"/><line style="stroke:#181818;stroke-width:0.5;" x1="237.5" x2="312.5" y1="206.5938" y2="206.5938"/><text fill="#000000" font-family="sans-serif" font-size="14" lengthAdjust="spacing" textLength="55" x="247.5" y="198.292">Created</text></g><!--link *start*New to Created--><g id="link_*start*New_Created"><path d="M275,144.6069 C275,153.6469 275,161.7869 275,174.0269 " fill="none" id="*start*New-to-Created" style="stroke:#454645;stroke-width:1.0;"/><polygon fill="#454645" points="275,180.0269,279,171.0269,275,175.0269,271,171.0269,275,180.0269" style="stroke:#454645;stroke-width:1.0;"/></g><g id="Ready"><rect fill="#F1F1F1" height="50" rx="3.5" ry="3.5" style="stroke:#181818;stroke-width:0.5;" width="63" x="242" y="317.3"/><line style="stroke:#181818;stroke-width:0.5;" x1="242" x2="305" y1="343.5969" y2="343.5969"/><text fill="#000000" font-family="sans-serif" font-size="14" lengthAdjust="spacing" textLength="43" x="252" y="335.2951">Ready</text></g><g id="Running"><rect fill="#F1F1F1" height="50" rx="3.5" ry="3.5" style="stroke:#181818;stroke-width:0.5;" width="78" x="195.5" y="444.3"/><line style="stroke:#181818;stroke-width:0.5;" x1="195.5" x2="273.5" y1="470.5969" y2="470.5969"/><text fill="#000000" font-family="sans-serif" font-size="14" lengthAdjust="spacing" textLength="58" x="205.5" y="462.2951">Running</text></g><g id="Waiting"><rect fill="#F1F1F1" height="50" rx="3.5" ry="3.5" style="stroke:#181818;stroke-width:0.5;" width="70" x="313.5" y="571.3"/><line style="stroke:#181818;stroke-width:0.5;" x1="313.5" x2="383.5" y1="597.5969" y2="597.5969"/><text fill="#000000" font-family="sans-serif" font-size="14" lengthAdjust="spacing" textLength="50" x="323.5" y="589.2951">Waiting</text></g><g id="Terminated"><rect fill="#F1F1F1" height="50" rx="3.5" ry="3.5" style="stroke:#181818;stroke-width:0.5;" width="99" x="166" y="571.3"/><line style="stroke:#181818;stroke-width:0.5;" x1="166" x2="265" y1="597.5969" y2="597.5969"/><text fill="#000000" font-family="sans-serif" font-size="14" lengthAdjust="spacing" textLength="79" x="176" y="589.2951">Terminated</text></g><g id="elem_GMN18"><path d="M92,154.59 L92,172.7228 A3.5,3.5 0 0 0 95.5,176.2228 L187.5,176.2228 A3.5,3.5 0 0 0 191,172.7228 L191,169.09 L225.31,163.65 L191,161.09 L191,161.09 L181,151.09 L95.5,151.09 A3.5,3.5 0 0 0 92,154.59 " fill="#90EE90" style="stroke:#454645;stroke-width:1.0;"/><path d="M181,151.09 L181,159.34 A1.75,1.75 0 0 0 182.75,161.09 L191,161.09 L181,151.09 " fill="#90EE90" style="stroke:#454645;stroke-width:1.0;"/><text fill="#454645" font-family="sans-serif" font-size="13" lengthAdjust="spacing" textLength="78" x="98" y="168.1569">&#36827;&#31243;&#21018;&#34987;&#21019;&#24314;</text></g><g id="elem_GMN21"><path d="M340.5,333.23 L340.5,338.3 L305.17,342.3 L340.5,346.3 L340.5,351.3628 A3.5,3.5 0 0 0 344,354.8628 L445,354.8628 A3.5,3.5 0 0 0 448.5,351.3628 L448.5,339.73 L438.5,329.73 L344,329.73 A3.5,3.5 0 0 0 340.5,333.23 " fill="#90EE90" style="stroke:#454645;stroke-width:1.0;"/><path d="M438.5,329.73 L438.5,337.98 A1.75,1.75 0 0 0 440.25,339.73 L448.5,339.73 L438.5,329.73 " fill="#90EE90" style="stroke:#454645;stroke-width:1.0;"/><text fill="#454645" font-family="sans-serif" font-size="13" lengthAdjust="spacing" textLength="87" x="346.5" y="346.7969">&#31561;&#24453; CPU &#35843;&#24230;</text></g><g id="elem_GMN24"><path d="M88,460.23 L88,478.3628 A3.5,3.5 0 0 0 91.5,481.8628 L157.5,481.8628 A3.5,3.5 0 0 0 161,478.3628 L161,474.73 L195.12,469.3 L161,466.73 L161,466.73 L151,456.73 L91.5,456.73 A3.5,3.5 0 0 0 88,460.23 " fill="#90EE90" style="stroke:#454645;stroke-width:1.0;"/><path d="M151,456.73 L151,464.98 A1.75,1.75 0 0 0 152.75,466.73 L161,466.73 L151,456.73 " fill="#90EE90" style="stroke:#454645;stroke-width:1.0;"/><text fill="#454645" font-family="sans-serif" font-size="13" lengthAdjust="spacing" textLength="52" x="94" y="473.7969">&#27491;&#22312;&#25191;&#34892;</text></g><g id="elem_GMN27"><path d="M419,587.23 L419,592.3 L383.79,596.3 L419,600.3 L419,605.3628 A3.5,3.5 0 0 0 422.5,608.8628 L552.5,608.8628 A3.5,3.5 0 0 0 556,605.3628 L556,593.73 L546,583.73 L422.5,583.73 A3.5,3.5 0 0 0 419,587.23 " fill="#90EE90" style="stroke:#454645;stroke-width:1.0;"/><path d="M546,583.73 L546,591.98 A1.75,1.75 0 0 0 547.75,593.73 L556,593.73 L546,583.73 " fill="#90EE90" style="stroke:#454645;stroke-width:1.0;"/><text fill="#454645" font-family="sans-serif" font-size="13" lengthAdjust="spacing" textLength="116" x="425" y="600.7969">&#31561;&#24453; I/O &#25110;&#20107;&#20214;&#23436;&#25104;</text></g><g id="elem_GMN30"><path d="M6,587.23 L6,605.3628 A3.5,3.5 0 0 0 9.5,608.8628 L127.5,608.8628 A3.5,3.5 0 0 0 131,605.3628 L131,601.73 L165.55,596.3 L131,593.73 L131,593.73 L121,583.73 L9.5,583.73 A3.5,3.5 0 0 0 6,587.23 " fill="#90EE90" style="stroke:#454645;stroke-width:1.0;"/><path d="M121,583.73 L121,591.98 A1.75,1.75 0 0 0 122.75,593.73 L131,593.73 L121,583.73 " fill="#90EE90" style="stroke:#454645;stroke-width:1.0;"/><text fill="#454645" font-family="sans-serif" font-size="13" lengthAdjust="spacing" textLength="104" x="12" y="600.7969">&#25191;&#34892;&#23436;&#27605;&#25110;&#34987;&#32456;&#27490;</text></g><!--link *start* to New--><g id="link_*start*_New"><path d="M273.5,26.11 C273.5,38.63 273.5,56.36 273.5,80.58 " fill="none" id="*start*-to-New" style="stroke:#454645;stroke-width:1.0;"/><polygon fill="#454645" points="273.5,86.58,277.5,77.58,273.5,81.58,269.5,77.58,273.5,86.58" style="stroke:#454645;stroke-width:1.0;"/></g><!--link New to Ready--><g id="link_New_Ready"><path d="M273.5,240.59 C273.5,268.08 273.5,291.21 273.5,311.03 " fill="none" id="New-to-Ready" style="stroke:#454645;stroke-width:1.0;"/><polygon fill="#454645" points="273.5,317.03,277.5,308.03,273.5,312.03,269.5,308.03,273.5,317.03" style="stroke:#454645;stroke-width:1.0;"/><text fill="#000000" font-family="sans-serif" font-size="13" lengthAdjust="spacing" textLength="47" x="274.5" y="283.3669">admit()</text></g><!--link Ready to Running--><g id="link_Ready_Running"><path d="M241.71,349.04 C215.16,355.69 178.95,369.51 161.5,397.3 C148.34,418.26 166.1591,434.6088 189.7691,447.7688 " fill="none" id="Ready-to-Running" style="stroke:#454645;stroke-width:1.0;"/><polygon fill="#454645" points="195.01,450.69,189.0962,442.8143,190.6426,448.2557,185.2012,449.8021,195.01,450.69" style="stroke:#454645;stroke-width:1.0;"/><text fill="#000000" font-family="sans-serif" font-size="13" lengthAdjust="spacing" textLength="67" x="162.5" y="410.3669">schedule()</text></g><!--link Running to Ready--><g id="link_Running_Ready"><path d="M242.09,443.96 C248.96,421.96 257.233,395.4477 264.103,373.4277 " fill="none" id="Running-to-Ready" style="stroke:#454645;stroke-width:1.0;"/><polygon fill="#454645" points="265.89,367.7,259.391,375.1002,264.4008,372.4731,267.028,377.4829,265.89,367.7" style="stroke:#454645;stroke-width:1.0;"/><text fill="#000000" font-family="sans-serif" font-size="13" lengthAdjust="spacing" textLength="65" x="257.5" y="410.3669">interrupt()</text></g><!--link Running to Waiting--><g id="link_Running_Waiting"><path d="M250.77,494.6 C260.71,508.78 274.07,526.7 287.5,541.3 C296.98,551.61 303.7154,558.0909 313.9754,566.9809 " fill="none" id="Running-to-Waiting" style="stroke:#454645;stroke-width:1.0;"/><polygon fill="#454645" points="318.51,570.91,314.3275,561.9933,314.7312,567.6358,309.0888,568.0394,318.51,570.91" style="stroke:#454645;stroke-width:1.0;"/><text fill="#000000" font-family="sans-serif" font-size="13" lengthAdjust="spacing" textLength="48" x="288.5" y="537.3669">ioWait()</text></g><!--link Running to Terminated--><g id="link_Running_Terminated"><path d="M222.23,494.68 C218.3,503.74 214.47,514.27 212.5,524.3 C209.49,539.68 209.5573,551.3045 211.0473,565.1345 " fill="none" id="Running-to-Terminated" style="stroke:#454645;stroke-width:1.0;"/><polygon fill="#454645" points="211.69,571.1,214.7029,561.7233,211.1544,566.1288,206.749,562.5802,211.69,571.1" style="stroke:#454645;stroke-width:1.0;"/><text fill="#000000" font-family="sans-serif" font-size="13" lengthAdjust="spacing" textLength="33" x="213.5" y="537.3669">exit()</text></g><!--link Waiting to Ready--><g id="link_Waiting_Ready"><path d="M351.79,570.98 C355.9,532.11 359.38,454.52 331.5,397.3 C325.53,385.06 320.0441,378.1396 309.9941,369.4296 " fill="none" id="Waiting-to-Ready" style="stroke:#454645;stroke-width:1.0;"/><polygon fill="#454645" points="305.46,365.5,309.6415,374.4171,309.2384,368.7747,314.8809,368.3716,305.46,365.5" style="stroke:#454645;stroke-width:1.0;"/><text fill="#000000" font-family="sans-serif" font-size="13" lengthAdjust="spacing" textLength="108" x="354.5" y="473.8669">eventComplete()</text></g><!--SRC=[TP0nImD148Nx_HLZfqAmjx2voaP550knM7EJPCdTRjZRKuDOYN0XAMoqC3P6q814hImIq3-JlRkVuUxUXOH0kcNUVE_DspNLm111YJQ9ceotgAGXdDDgiov5p7rF14A2afH7HaAk23dTF8DAPGVsy9AGI565zWdN160cUHBDs2StX5Z9ZWwH-ctO1kg7JArl458Cd1HppdZTY56rWNuSeDFBwIBCk48fuvOrMDHFA5E50nFslIGVeGmPjnUP3RmgycVCeZzUc8QU25i1AdS45wPTW3K5ekOA0-H__MpOrSbJFlZGILzFnWIv3tQpt9Uitd20ipL8Dkhetplm3euX_xxLuxTbOfPG7csGTFIgduTfvpr_wQtqBolC4tQtzY5D7gVZxdJoepzxQNA_Ach-9pRDvLZWwy7mfbasITBHO0x_0m00]--></g></svg>