<?xml version="1.0" encoding="us-ascii" standalone="no"?><svg xmlns="http://www.w3.org/2000/svg" xmlns:xlink="http://www.w3.org/1999/xlink" contentStyleType="text/css" height="346px" preserveAspectRatio="none" style="width:677px;height:346px;" version="1.1" viewBox="0 0 677 346" width="677px" zoomAndPan="magnify"><defs/><g><!--class Client--><g id="elem_Client"><rect codeLine="6" fill="#F1F1F1" height="32" id="Client" rx="3.5" ry="3.5" style="stroke:#181818;stroke-width:0.5;" width="71" x="275" y="40.4"/><ellipse cx="290" cy="56.4" fill="#ADD1B2" rx="11" ry="11" style="stroke:#181818;stroke-width:1.0;"/><path d="M292.9688,62.0406 Q292.3906,62.3375 291.75,62.4781 Q291.1094,62.6344 290.4063,62.6344 Q287.9063,62.6344 286.5781,60.9937 Q285.2656,59.3375 285.2656,56.2125 Q285.2656,53.0875 286.5781,51.4312 Q287.9063,49.775 290.4063,49.775 Q291.1094,49.775 291.75,49.9312 Q292.4063,50.0875 292.9688,50.3844 L292.9688,53.1031 Q292.3438,52.525 291.75,52.2594 Q291.1563,51.9781 290.5313,51.9781 Q289.1875,51.9781 288.5,53.0562 Q287.8125,54.1187 287.8125,56.2125 Q287.8125,58.3062 288.5,59.3844 Q289.1875,60.4469 290.5313,60.4469 Q291.1563,60.4469 291.75,60.1812 Q292.3438,59.9 292.9688,59.3219 L292.9688,62.0406 Z " fill="#000000"/><text fill="#000000" font-family="sans-serif" font-size="14" lengthAdjust="spacing" textLength="39" x="304" y="61.2467">Client</text></g><!--class Context--><g id="elem_Context"><rect codeLine="8" fill="#F1F1F1" height="32" id="Context" rx="3.5" ry="3.5" style="stroke:#181818;stroke-width:0.5;" width="86" x="154.5" y="40.4"/><ellipse cx="169.5" cy="56.4" fill="#ADD1B2" rx="11" ry="11" style="stroke:#181818;stroke-width:1.0;"/><path d="M172.4688,62.0406 Q171.8906,62.3375 171.25,62.4781 Q170.6094,62.6344 169.9063,62.6344 Q167.4063,62.6344 166.0781,60.9937 Q164.7656,59.3375 164.7656,56.2125 Q164.7656,53.0875 166.0781,51.4312 Q167.4063,49.775 169.9063,49.775 Q170.6094,49.775 171.25,49.9312 Q171.9063,50.0875 172.4688,50.3844 L172.4688,53.1031 Q171.8438,52.525 171.25,52.2594 Q170.6563,51.9781 170.0313,51.9781 Q168.6875,51.9781 168,53.0562 Q167.3125,54.1187 167.3125,56.2125 Q167.3125,58.3062 168,59.3844 Q168.6875,60.4469 170.0313,60.4469 Q170.6563,60.4469 171.25,60.1812 Q171.8438,59.9 172.4688,59.3219 L172.4688,62.0406 Z " fill="#000000"/><text fill="#000000" font-family="sans-serif" font-size="14" lengthAdjust="spacing" textLength="54" x="183.5" y="61.2467">Context</text></g><!--class AbstractExpression--><g id="elem_AbstractExpression"><rect codeLine="10" fill="#F1F1F1" height="56.2969" id="AbstractExpression" rx="3.5" ry="3.5" style="stroke:#181818;stroke-width:0.5;" width="165" x="228" y="166.8"/><ellipse cx="243" cy="182.8" fill="#B4A7E5" rx="11" ry="11" style="stroke:#181818;stroke-width:1.0;"/><path d="M238.9219,178.5656 L238.9219,176.4094 L246.3125,176.4094 L246.3125,178.5656 L243.8438,178.5656 L243.8438,186.6437 L246.3125,186.6437 L246.3125,188.8 L238.9219,188.8 L238.9219,186.6437 L241.3906,186.6437 L241.3906,178.5656 L238.9219,178.5656 Z " fill="#000000"/><text fill="#000000" font-family="sans-serif" font-size="14" font-style="italic" lengthAdjust="spacing" textLength="133" x="257" y="187.6467">AbstractExpression</text><line style="stroke:#181818;stroke-width:0.5;" x1="229" x2="392" y1="198.8" y2="198.8"/><ellipse cx="239" cy="212.4484" fill="#84BE84" rx="3" ry="3" style="stroke:#038048;stroke-width:1.0;"/><text fill="#000000" font-family="sans-serif" font-size="14" lengthAdjust="spacing" textLength="69" x="248" y="215.7951">interpret()</text></g><!--class TerminalExpression--><g id="elem_TerminalExpression"><rect codeLine="14" fill="#F1F1F1" height="56.2969" id="TerminalExpression" rx="3.5" ry="3.5" style="stroke:#181818;stroke-width:0.5;" width="167" x="7" y="283.09"/><ellipse cx="22" cy="299.09" fill="#ADD1B2" rx="11" ry="11" style="stroke:#181818;stroke-width:1.0;"/><path d="M24.9688,304.7306 Q24.3906,305.0275 23.75,305.1681 Q23.1094,305.3244 22.4063,305.3244 Q19.9063,305.3244 18.5781,303.6838 Q17.2656,302.0275 17.2656,298.9025 Q17.2656,295.7775 18.5781,294.1213 Q19.9063,292.465 22.4063,292.465 Q23.1094,292.465 23.75,292.6213 Q24.4063,292.7775 24.9688,293.0744 L24.9688,295.7931 Q24.3438,295.215 23.75,294.9494 Q23.1563,294.6681 22.5313,294.6681 Q21.1875,294.6681 20.5,295.7463 Q19.8125,296.8088 19.8125,298.9025 Q19.8125,300.9963 20.5,302.0744 Q21.1875,303.1369 22.5313,303.1369 Q23.1563,303.1369 23.75,302.8713 Q24.3438,302.59 24.9688,302.0119 L24.9688,304.7306 Z " fill="#000000"/><text fill="#000000" font-family="sans-serif" font-size="14" lengthAdjust="spacing" textLength="135" x="36" y="303.9367">TerminalExpression</text><line style="stroke:#181818;stroke-width:0.5;" x1="8" x2="173" y1="315.09" y2="315.09"/><ellipse cx="18" cy="328.7384" fill="#84BE84" rx="3" ry="3" style="stroke:#038048;stroke-width:1.0;"/><text fill="#000000" font-family="sans-serif" font-size="14" lengthAdjust="spacing" textLength="136" x="27" y="332.0851">interpret() : Context</text></g><!--class NonterminalExpression--><g id="elem_NonterminalExpression"><rect codeLine="18" fill="#F1F1F1" height="56.2969" id="NonterminalExpression" rx="3.5" ry="3.5" style="stroke:#181818;stroke-width:0.5;" width="202" x="209.5" y="283.09"/><ellipse cx="229.45" cy="299.09" fill="#ADD1B2" rx="11" ry="11" style="stroke:#181818;stroke-width:1.0;"/><path d="M232.4188,304.7306 Q231.8406,305.0275 231.2,305.1681 Q230.5594,305.3244 229.8563,305.3244 Q227.3563,305.3244 226.0281,303.6838 Q224.7156,302.0275 224.7156,298.9025 Q224.7156,295.7775 226.0281,294.1213 Q227.3563,292.465 229.8563,292.465 Q230.5594,292.465 231.2,292.6213 Q231.8563,292.7775 232.4188,293.0744 L232.4188,295.7931 Q231.7938,295.215 231.2,294.9494 Q230.6063,294.6681 229.9813,294.6681 Q228.6375,294.6681 227.95,295.7463 Q227.2625,296.8088 227.2625,298.9025 Q227.2625,300.9963 227.95,302.0744 Q228.6375,303.1369 229.9813,303.1369 Q230.6063,303.1369 231.2,302.8713 Q231.7938,302.59 232.4188,302.0119 L232.4188,304.7306 Z " fill="#000000"/><text fill="#000000" font-family="sans-serif" font-size="14" lengthAdjust="spacing" textLength="159" x="244.55" y="303.9367">NonterminalExpression</text><line style="stroke:#181818;stroke-width:0.5;" x1="210.5" x2="410.5" y1="315.09" y2="315.09"/><ellipse cx="220.5" cy="328.7384" fill="#84BE84" rx="3" ry="3" style="stroke:#038048;stroke-width:1.0;"/><text fill="#000000" font-family="sans-serif" font-size="14" lengthAdjust="spacing" textLength="176" x="229.5" y="332.0851">factoryMethod() : Context</text></g><g id="elem_N1"><path d="M381,9.5 L381,103.2969 A3.5,3.5 0 0 0 384.5,106.7969 L666.5,106.7969 A3.5,3.5 0 0 0 670,103.2969 L670,16 L660,6 L384.5,6 A3.5,3.5 0 0 0 381,9.5 " fill="#90EE90" style="stroke:#454645;stroke-width:1.0;"/><path d="M660,6 L660,14.25 A1.75,1.75 0 0 0 661.75,16 L670,16 L660,6 " fill="#90EE90" style="stroke:#454645;stroke-width:1.0;"/><text fill="#4169E1" font-family="sans-serif" font-size="13" font-weight="bold" lengthAdjust="spacing" textLength="80" x="387" y="23.0669">Interpreter</text><text fill="#454645" font-family="sans-serif" font-size="13" font-weight="bold" lengthAdjust="spacing" textLength="40" x="387" y="38.1997">Type:</text><text fill="#454645" font-family="sans-serif" font-size="13" lengthAdjust="spacing" textLength="67" x="431" y="38.1997">Behavioral</text><text fill="#454645" font-family="sans-serif" font-size="13" lengthAdjust="spacing" textLength="268" x="387" y="53.3325">Given a language, define a representation</text><text fill="#454645" font-family="sans-serif" font-size="13" lengthAdjust="spacing" textLength="260" x="387" y="68.4653">for its grammar along with an interpreter</text><text fill="#454645" font-family="sans-serif" font-size="13" lengthAdjust="spacing" textLength="259" x="387" y="83.5981">that uses the representation to interpret</text><text fill="#454645" font-family="sans-serif" font-size="13" lengthAdjust="spacing" textLength="173" x="387" y="98.731">sentences in the language.</text></g><!--reverse link Context to Client--><g id="link_Context_Client"><path codeLine="24" d="M246.87,57.39 C258.07,57.39 264,57.39 274.77,57.39 " fill="none" id="Context-backto-Client" style="stroke:#454645;stroke-width:1.0;"/><polygon fill="#454645" points="240.87,57.39,249.87,61.39,245.87,57.39,249.87,53.39,240.87,57.39" style="stroke:#454645;stroke-width:1.0;"/></g><!--link Client to AbstractExpression--><g id="link_Client_AbstractExpression"><path codeLine="25" d="M310.5,72.84 C310.5,95.92 310.5,132.26 310.5,160.51 " fill="none" id="Client-to-AbstractExpression" style="stroke:#454645;stroke-width:1.0;"/><polygon fill="#454645" points="310.5,166.51,314.5,157.51,310.5,161.51,306.5,157.51,310.5,166.51" style="stroke:#454645;stroke-width:1.0;"/></g><!--reverse link AbstractExpression to TerminalExpression--><g id="link_AbstractExpression_TerminalExpression"><path codeLine="26" d="M209.55,195.39 C176.54,195.39 164.25,195.39 164.25,195.39 C164.25,195.39 164.25,248.3 164.25,282.6 " fill="none" id="AbstractExpression-backto-TerminalExpression" style="stroke:#454645;stroke-width:1.0;"/><polygon fill="none" points="227.55,195.39,209.55,189.39,209.55,201.39,227.55,195.39" style="stroke:#454645;stroke-width:1.0;"/></g><!--reverse link AbstractExpression to NonterminalExpression--><g id="link_AbstractExpression_NonterminalExpression"><path codeLine="27" d="M283,241.39 C283,259.42 283,264.64 283,282.68 " fill="none" id="AbstractExpression-backto-NonterminalExpression" style="stroke:#454645;stroke-width:1.0;"/><polygon fill="none" points="283,223.39,277,241.39,289,241.39,283,223.39" style="stroke:#454645;stroke-width:1.0;"/></g><!--link AbstractExpression to NonterminalExpression--><g id="link_AbstractExpression_NonterminalExpression"><path codeLine="28" d="M338,223.39 C338,241.42 338,252.64 338,270.68 " fill="none" id="AbstractExpression-to-NonterminalExpression" style="stroke:#454645;stroke-width:1.0;"/><polygon fill="#454645" points="338,282.68,342,276.68,338,270.68,334,276.68,338,282.68" style="stroke:#454645;stroke-width:1.0;"/></g><!--SRC=[VPBDJiCm3CVlUGfpuwjCNAUg4fiGuW2dlO3RUcsqDAaSRwm2tXsdK42eevVK_l_is8xFfAMEGC9Wuixw7XaxAB7QDHpslbu75nY4qKULoCilobbFClG4VN13CkQqmD86Oog7CSBQsPHYie8NEgffzUGjLWHtPTIxAha_zamnsk3XrO1-Lp12wfNp2_C-fTWGTzQZ-v-7vVTTtv7FoN4oM8kHmCCJQV7rtmIjhGcewsM0ZhgIE1hp9KEUJKr-7f1bnKnNPgRH_2tBPXewYSvsC4TdsUK9sFWW1AZJk1qRpyiYhzABBpaCw5PkJyNZD4VYV36AHRueYudVw2ClamDMrEB11aOtQW_sG1uG7FfcZmrTGqrRtGfrCQKAT3eegOf4RtNBh4HeT7awP40NV0ClLbf0__EMn2CjBGhi8qNzep_fT9L_-95E4lbAQUl7WAca6qE-XZG3ym40]--></g></svg>