<svg xmlns="http://www.w3.org/2000/svg" xmlns:xlink="http://www.w3.org/1999/xlink" contentStyleType="text/css" data-diagram-type="CLASS" height="220px" preserveAspectRatio="none" style="width:658px;height:220px;" version="1.1" viewBox="0 0 658 220" width="658px" zoomAndPan="magnify"><defs/><g><!--class Mediator--><g class="entity" data-entity="Mediator" data-source-line="6" data-uid="ent0002" id="entity_Mediator"><rect fill="#F1F1F1" height="32" rx="2.5" ry="2.5" style="stroke:#181818;stroke-width:0.5;" width="93.8584" x="69.69" y="47.97"/><ellipse cx="84.69" cy="63.97" fill="#ADD1B2" rx="11" ry="11" style="stroke:#181818;stroke-width:1;"/><path d="M87.6588,69.6106 Q87.0806,69.9075 86.44,70.0481 Q85.7994,70.2044 85.0963,70.2044 Q82.5963,70.2044 81.2681,68.5638 Q79.9556,66.9075 79.9556,63.7825 Q79.9556,60.6575 81.2681,59.0013 Q82.5963,57.345 85.0963,57.345 Q85.7994,57.345 86.44,57.5013 Q87.0963,57.6575 87.6588,57.9544 L87.6588,60.6731 Q87.0338,60.095 86.44,59.8294 Q85.8463,59.5481 85.2213,59.5481 Q83.8775,59.5481 83.19,60.6263 Q82.5025,61.6888 82.5025,63.7825 Q82.5025,65.8763 83.19,66.9544 Q83.8775,68.0169 85.2213,68.0169 Q85.8463,68.0169 86.44,67.7513 Q87.0338,67.47 87.6588,66.8919 L87.6588,69.6106 Z " fill="#000000"/><text fill="#000000" font-family="sans-serif" font-size="14" lengthAdjust="spacing" textLength="61.8584" x="98.69" y="68.8167">Mediator</text></g><!--class ConcreteMediator--><g class="entity" data-entity="ConcreteMediator" data-source-line="8" data-uid="ent0003" id="entity_ConcreteMediator"><rect fill="#F1F1F1" height="32" rx="2.5" ry="2.5" style="stroke:#181818;stroke-width:0.5;" width="157.2412" x="7" y="181.93"/><ellipse cx="22" cy="197.93" fill="#ADD1B2" rx="11" ry="11" style="stroke:#181818;stroke-width:1;"/><path d="M24.9688,203.5706 Q24.3906,203.8675 23.75,204.0081 Q23.1094,204.1644 22.4063,204.1644 Q19.9063,204.1644 18.5781,202.5238 Q17.2656,200.8675 17.2656,197.7425 Q17.2656,194.6175 18.5781,192.9613 Q19.9063,191.305 22.4063,191.305 Q23.1094,191.305 23.75,191.4613 Q24.4063,191.6175 24.9688,191.9144 L24.9688,194.6331 Q24.3438,194.055 23.75,193.7894 Q23.1563,193.5081 22.5313,193.5081 Q21.1875,193.5081 20.5,194.5863 Q19.8125,195.6488 19.8125,197.7425 Q19.8125,199.8363 20.5,200.9144 Q21.1875,201.9769 22.5313,201.9769 Q23.1563,201.9769 23.75,201.7113 Q24.3438,201.43 24.9688,200.8519 L24.9688,203.5706 Z " fill="#000000"/><text fill="#000000" font-family="sans-serif" font-size="14" lengthAdjust="spacing" textLength="125.2412" x="36" y="202.7767">ConcreteMediator</text></g><!--class Colleague--><g class="entity" data-entity="Colleague" data-source-line="10" data-uid="ent0004" id="entity_Colleague"><rect fill="#F1F1F1" height="32" rx="2.5" ry="2.5" style="stroke:#181818;stroke-width:0.5;" width="101.6855" x="214.78" y="47.97"/><ellipse cx="229.78" cy="63.97" fill="#B4A7E5" rx="11" ry="11" style="stroke:#181818;stroke-width:1;"/><path d="M225.7019,59.7356 L225.7019,57.5794 L233.0925,57.5794 L233.0925,59.7356 L230.6238,59.7356 L230.6238,67.8138 L233.0925,67.8138 L233.0925,69.97 L225.7019,69.97 L225.7019,67.8138 L228.1706,67.8138 L228.1706,59.7356 L225.7019,59.7356 Z " fill="#000000"/><text fill="#000000" font-family="sans-serif" font-size="14" font-style="italic" lengthAdjust="spacing" textLength="69.6855" x="243.78" y="68.8167">Colleague</text></g><!--class ConcreteColleague--><g class="entity" data-entity="ConcreteColleague" data-source-line="12" data-uid="ent0005" id="entity_ConcreteColleague"><rect fill="#F1F1F1" height="32" rx="2.5" ry="2.5" style="stroke:#181818;stroke-width:0.5;" width="165.0684" x="199.09" y="181.93"/><ellipse cx="214.09" cy="197.93" fill="#ADD1B2" rx="11" ry="11" style="stroke:#181818;stroke-width:1;"/><path d="M217.0588,203.5706 Q216.4806,203.8675 215.84,204.0081 Q215.1994,204.1644 214.4963,204.1644 Q211.9963,204.1644 210.6681,202.5238 Q209.3556,200.8675 209.3556,197.7425 Q209.3556,194.6175 210.6681,192.9613 Q211.9963,191.305 214.4963,191.305 Q215.1994,191.305 215.84,191.4613 Q216.4963,191.6175 217.0588,191.9144 L217.0588,194.6331 Q216.4338,194.055 215.84,193.7894 Q215.2463,193.5081 214.6213,193.5081 Q213.2775,193.5081 212.59,194.5863 Q211.9025,195.6488 211.9025,197.7425 Q211.9025,199.8363 212.59,200.9144 Q213.2775,201.9769 214.6213,201.9769 Q215.2463,201.9769 215.84,201.7113 Q216.4338,201.43 217.0588,200.8519 L217.0588,203.5706 Z " fill="#000000"/><text fill="#000000" font-family="sans-serif" font-size="14" lengthAdjust="spacing" textLength="133.0684" x="228.09" y="202.7767">ConcreteColleague</text></g><g class="entity" data-entity="N1" data-source-line="22" data-uid="ent0010" id="entity_N1"><path d="M351.29,6 L351.29,121.9297 L651.9423,121.9297 L651.9423,16 L641.9423,6 L351.29,6" fill="#FEFFDD" style="stroke:#181818;stroke-width:0.5;"/><path d="M641.9423,6 L641.9423,16 L651.9423,16 L641.9423,6" fill="#FEFFDD" style="stroke:#181818;stroke-width:1;"/><text fill="#4169E1" font-family="sans-serif" font-size="13" font-weight="bold" lengthAdjust="spacing" textLength="65.8442" x="357.29" y="23.0669">Mediator</text><text fill="#000000" font-family="sans-serif" font-size="13" font-weight="bold" lengthAdjust="spacing" textLength="40.6631" x="357.29" y="38.1997">Type:</text><text fill="#000000" font-family="sans-serif" font-size="13" lengthAdjust="spacing" textLength="69.3037" x="402.0854" y="38.1997">Behavioral</text><text fill="#000000" font-family="sans-serif" font-size="13" lengthAdjust="spacing" textLength="270.7466" x="357.29" y="53.3325">Define an object that encapsulates how a</text><text fill="#000000" font-family="sans-serif" font-size="13" lengthAdjust="spacing" textLength="250.4404" x="357.29" y="68.4653">set of objects interact. Promotes loose</text><text fill="#000000" font-family="sans-serif" font-size="13" lengthAdjust="spacing" textLength="277.875" x="357.29" y="83.5981">coupling by keeping objects from referring</text><text fill="#000000" font-family="sans-serif" font-size="13" lengthAdjust="spacing" textLength="279.6523" x="357.29" y="98.731">to each other explicitly and it lets you vary</text><text fill="#000000" font-family="sans-serif" font-size="13" lengthAdjust="spacing" textLength="213.2495" x="357.29" y="113.8638">their interactions independently.</text></g><!--reverse link Mediator to Colleague--><g class="link" data-entity-1="Mediator" data-entity-2="Colleague" data-source-line="16" data-uid="lnk6" id="link_Mediator_Colleague"><path codeLine="16" d="M169.77,64.93 C185.88,64.93 197.98,64.93 214.4,64.93" fill="none" id="Mediator-backto-Colleague" style="stroke:#181818;stroke-width:1;"/><polygon fill="#181818" points="163.77,64.93,172.77,68.93,168.77,64.93,172.77,60.93,163.77,64.93" style="stroke:#181818;stroke-width:1;"/><text fill="#000000" font-family="sans-serif" font-size="13" lengthAdjust="spacing" textLength="49.1626" x="164.58" y="77.9969">informs</text></g><!--reverse link Mediator to ConcreteMediator--><g class="link" data-entity-1="Mediator" data-entity-2="ConcreteMediator" data-source-line="17" data-uid="lnk7" id="link_Mediator_ConcreteMediator"><path codeLine="17" d="M116.62,98.39 C116.62,124.24 116.62,156.11 116.62,181.79" fill="none" id="Mediator-backto-ConcreteMediator" style="stroke:#181818;stroke-width:1;"/><polygon fill="none" points="116.62,80.39,110.62,98.39,122.62,98.39,116.62,80.39" style="stroke:#181818;stroke-width:1;"/></g><!--link ConcreteMediator to ConcreteColleague--><g class="link" data-entity-1="ConcreteMediator" data-entity-2="ConcreteColleague" data-source-line="18" data-uid="lnk8" id="link_ConcreteMediator_ConcreteColleague"><path codeLine="18" d="M164.49,198.93 C175.77,198.93 181.4,198.93 192.75,198.93" fill="none" id="ConcreteMediator-to-ConcreteColleague" style="stroke:#181818;stroke-width:1;"/><polygon fill="#181818" points="198.75,198.93,189.75,194.93,193.75,198.93,189.75,202.93,198.75,198.93" style="stroke:#181818;stroke-width:1;"/></g><!--reverse link Colleague to ConcreteColleague--><g class="link" data-entity-1="Colleague" data-entity-2="ConcreteColleague" data-source-line="19" data-uid="lnk9" id="link_Colleague_ConcreteColleague"><path codeLine="19" d="M265.62,98.39 C265.62,124.24 265.62,156.11 265.62,181.79" fill="none" id="Colleague-backto-ConcreteColleague" style="stroke:#181818;stroke-width:1;"/><polygon fill="none" points="265.62,80.39,259.62,98.39,271.62,98.39,265.62,80.39" style="stroke:#181818;stroke-width:1;"/></g><!--SRC=[RL7BJiGm3BptA_m3NSHrLVMmS0Lnu0VSTBeDcyQLuovKukD92sMNHmvHx9cnHvDqyd5avO4QTgUZoXJREmcYPCenPGZHYlJD2Zx2vX4qIfYNuZzCr7efYi85JeaUq7esqQs-a-WKXalVHuDsx92n4C372R_9Lq3lMn26qMOQC3JGL1JRBAhAompQau-Tw92kyFUo_ElWTuFA-f_Dby4_fbnPYs8WJlHuMr0-LLDNRWbphp9pE8G9zRQYkbcHkhffwetydCFRBmqweEUp5-MmOlVeShR4aQHvWJEodeqG7Ozf2cn8rCihyKfEC9BkYvbe3PUTxUX9PP256qGILgwJQSpVTgHcfXCmBizDs6KwAJgevlPADo6mwqciXnBUijPv2tDsrf8t2iYwMIOwiywVYXvUlpruYOkX5YFo5RDoL-GNBRbz0000]--></g></svg>