<svg xmlns="http://www.w3.org/2000/svg" xmlns:xlink="http://www.w3.org/1999/xlink" contentStyleType="text/css" data-diagram-type="CLASS" height="230px" preserveAspectRatio="none" style="width:750px;height:230px;" version="1.1" viewBox="0 0 750 230" width="750px" zoomAndPan="magnify"><defs/><g><!--class Client--><g class="entity" data-entity="Client" data-source-line="5" data-uid="ent0002" id="entity_Client"><rect fill="#F1F1F1" height="32" rx="2.5" ry="2.5" style="stroke:#181818;stroke-width:0.5;" width="72.5303" x="182.33" y="40.39"/><ellipse cx="197.33" cy="56.39" fill="#ADD1B2" rx="11" ry="11" style="stroke:#181818;stroke-width:1;"/><path d="M200.2988,62.0306 Q199.7206,62.3275 199.08,62.4681 Q198.4394,62.6244 197.7363,62.6244 Q195.2363,62.6244 193.9081,60.9838 Q192.5956,59.3275 192.5956,56.2025 Q192.5956,53.0775 193.9081,51.4213 Q195.2363,49.765 197.7363,49.765 Q198.4394,49.765 199.08,49.9213 Q199.7363,50.0775 200.2988,50.3744 L200.2988,53.0931 Q199.6738,52.515 199.08,52.2494 Q198.4863,51.9681 197.8613,51.9681 Q196.5175,51.9681 195.83,53.0463 Q195.1425,54.1088 195.1425,56.2025 Q195.1425,58.2963 195.83,59.3744 Q196.5175,60.4369 197.8613,60.4369 Q198.4863,60.4369 199.08,60.1713 Q199.6738,59.89 200.2988,59.3119 L200.2988,62.0306 Z " fill="#000000"/><text fill="#000000" font-family="sans-serif" font-size="14" lengthAdjust="spacing" textLength="40.5303" x="211.33" y="61.2367">Client</text></g><!--class Invoker--><g class="entity" data-entity="Invoker" data-source-line="7" data-uid="ent0003" id="entity_Invoker"><rect fill="#F1F1F1" height="32" rx="2.5" ry="2.5" style="stroke:#181818;stroke-width:0.5;" width="84.3291" x="318.43" y="40.39"/><ellipse cx="333.43" cy="56.39" fill="#ADD1B2" rx="11" ry="11" style="stroke:#181818;stroke-width:1;"/><path d="M336.3988,62.0306 Q335.8206,62.3275 335.18,62.4681 Q334.5394,62.6244 333.8363,62.6244 Q331.3363,62.6244 330.0081,60.9838 Q328.6956,59.3275 328.6956,56.2025 Q328.6956,53.0775 330.0081,51.4213 Q331.3363,49.765 333.8363,49.765 Q334.5394,49.765 335.18,49.9213 Q335.8363,50.0775 336.3988,50.3744 L336.3988,53.0931 Q335.7738,52.515 335.18,52.2494 Q334.5863,51.9681 333.9613,51.9681 Q332.6175,51.9681 331.93,53.0463 Q331.2425,54.1088 331.2425,56.2025 Q331.2425,58.2963 331.93,59.3744 Q332.6175,60.4369 333.9613,60.4369 Q334.5863,60.4369 335.18,60.1713 Q335.7738,59.89 336.3988,59.3119 L336.3988,62.0306 Z " fill="#000000"/><text fill="#000000" font-family="sans-serif" font-size="14" lengthAdjust="spacing" textLength="52.3291" x="347.43" y="61.2367">Invoker</text></g><!--class Receiver--><g class="entity" data-entity="Receiver" data-source-line="9" data-uid="ent0004" id="entity_Receiver"><rect fill="#F1F1F1" height="56.2969" rx="2.5" ry="2.5" style="stroke:#181818;stroke-width:0.5;" width="93.1953" x="7" y="166.79"/><ellipse cx="22" cy="182.79" fill="#ADD1B2" rx="11" ry="11" style="stroke:#181818;stroke-width:1;"/><path d="M24.9688,188.4306 Q24.3906,188.7275 23.75,188.8681 Q23.1094,189.0244 22.4063,189.0244 Q19.9063,189.0244 18.5781,187.3838 Q17.2656,185.7275 17.2656,182.6025 Q17.2656,179.4775 18.5781,177.8213 Q19.9063,176.165 22.4063,176.165 Q23.1094,176.165 23.75,176.3213 Q24.4063,176.4775 24.9688,176.7744 L24.9688,179.4931 Q24.3438,178.915 23.75,178.6494 Q23.1563,178.3681 22.5313,178.3681 Q21.1875,178.3681 20.5,179.4463 Q19.8125,180.5088 19.8125,182.6025 Q19.8125,184.6963 20.5,185.7744 Q21.1875,186.8369 22.5313,186.8369 Q23.1563,186.8369 23.75,186.5713 Q24.3438,186.29 24.9688,185.7119 L24.9688,188.4306 Z " fill="#000000"/><text fill="#000000" font-family="sans-serif" font-size="14" lengthAdjust="spacing" textLength="61.1953" x="36" y="187.6367">Receiver</text><line style="stroke:#181818;stroke-width:0.5;" x1="8" x2="99.1953" y1="198.79" y2="198.79"/><ellipse cx="18" cy="212.4384" fill="#84BE84" rx="3" ry="3" style="stroke:#038048;stroke-width:1;"/><text fill="#000000" font-family="sans-serif" font-size="14" lengthAdjust="spacing" textLength="54.0176" x="27" y="215.7851">action()</text></g><!--class Command--><g class="entity" data-entity="Command" data-source-line="13" data-uid="ent0005" id="entity_Command"><rect fill="#F1F1F1" height="56.2969" rx="2.5" ry="2.5" style="stroke:#181818;stroke-width:0.5;" width="103.9551" x="337.62" y="166.79"/><ellipse cx="352.62" cy="182.79" fill="#ADD1B2" rx="11" ry="11" style="stroke:#181818;stroke-width:1;"/><path d="M355.5888,188.4306 Q355.0106,188.7275 354.37,188.8681 Q353.7294,189.0244 353.0263,189.0244 Q350.5263,189.0244 349.1981,187.3838 Q347.8856,185.7275 347.8856,182.6025 Q347.8856,179.4775 349.1981,177.8213 Q350.5263,176.165 353.0263,176.165 Q353.7294,176.165 354.37,176.3213 Q355.0263,176.4775 355.5888,176.7744 L355.5888,179.4931 Q354.9638,178.915 354.37,178.6494 Q353.7763,178.3681 353.1513,178.3681 Q351.8075,178.3681 351.12,179.4463 Q350.4325,180.5088 350.4325,182.6025 Q350.4325,184.6963 351.12,185.7744 Q351.8075,186.8369 353.1513,186.8369 Q353.7763,186.8369 354.37,186.5713 Q354.9638,186.29 355.5888,185.7119 L355.5888,188.4306 Z " fill="#000000"/><text fill="#000000" font-family="sans-serif" font-size="14" lengthAdjust="spacing" textLength="71.9551" x="366.62" y="187.6367">Command</text><line style="stroke:#181818;stroke-width:0.5;" x1="338.62" x2="440.5751" y1="198.79" y2="198.79"/><ellipse cx="348.62" cy="212.4384" fill="#84BE84" rx="3" ry="3" style="stroke:#038048;stroke-width:1;"/><text fill="#000000" font-family="sans-serif" font-size="14" lengthAdjust="spacing" textLength="67.1084" x="357.62" y="215.7851">execute()</text></g><!--class ConcreteCommand--><g class="entity" data-entity="ConcreteCommand" data-source-line="17" data-uid="ent0006" id="entity_ConcreteCommand"><rect fill="#F1F1F1" height="56.2969" rx="2.5" ry="2.5" style="stroke:#181818;stroke-width:0.5;" width="167.3379" x="134.93" y="166.79"/><ellipse cx="149.93" cy="182.79" fill="#ADD1B2" rx="11" ry="11" style="stroke:#181818;stroke-width:1;"/><path d="M152.8988,188.4306 Q152.3206,188.7275 151.68,188.8681 Q151.0394,189.0244 150.3363,189.0244 Q147.8363,189.0244 146.5081,187.3838 Q145.1956,185.7275 145.1956,182.6025 Q145.1956,179.4775 146.5081,177.8213 Q147.8363,176.165 150.3363,176.165 Q151.0394,176.165 151.68,176.3213 Q152.3363,176.4775 152.8988,176.7744 L152.8988,179.4931 Q152.2738,178.915 151.68,178.6494 Q151.0863,178.3681 150.4613,178.3681 Q149.1175,178.3681 148.43,179.4463 Q147.7425,180.5088 147.7425,182.6025 Q147.7425,184.6963 148.43,185.7744 Q149.1175,186.8369 150.4613,186.8369 Q151.0863,186.8369 151.68,186.5713 Q152.2738,186.29 152.8988,185.7119 L152.8988,188.4306 Z " fill="#000000"/><text fill="#000000" font-family="sans-serif" font-size="14" lengthAdjust="spacing" textLength="135.3379" x="163.93" y="187.6367">ConcreteCommand</text><line style="stroke:#181818;stroke-width:0.5;" x1="135.93" x2="301.2679" y1="198.79" y2="198.79"/><ellipse cx="145.93" cy="212.4384" fill="#84BE84" rx="3" ry="3" style="stroke:#038048;stroke-width:1;"/><text fill="#000000" font-family="sans-serif" font-size="14" lengthAdjust="spacing" textLength="67.1084" x="154.93" y="215.7851">execute()</text></g><g class="entity" data-entity="N1" data-source-line="31" data-uid="ent0013" id="entity_N1"><path d="M437.43,6 L437.43,106.7969 L743.7698,106.7969 L743.7698,16 L733.7698,6 L437.43,6" fill="#FEFFDD" style="stroke:#181818;stroke-width:0.5;"/><path d="M733.7698,6 L733.7698,16 L743.7698,16 L733.7698,6" fill="#FEFFDD" style="stroke:#181818;stroke-width:1;"/><text fill="#4169E1" font-family="sans-serif" font-size="13" font-weight="bold" lengthAdjust="spacing" textLength="72.8965" x="443.43" y="23.0669">Command</text><text fill="#000000" font-family="sans-serif" font-size="13" font-weight="bold" lengthAdjust="spacing" textLength="40.6631" x="443.43" y="38.1997">Type:</text><text fill="#000000" font-family="sans-serif" font-size="13" lengthAdjust="spacing" textLength="69.3037" x="488.2254" y="38.1997">Behavioral</text><text fill="#000000" font-family="sans-serif" font-size="13" lengthAdjust="spacing" textLength="232.9717" x="443.43" y="53.3325">Encapsulate a request as an object,</text><text fill="#000000" font-family="sans-serif" font-size="13" lengthAdjust="spacing" textLength="262.4883" x="443.43" y="68.4653">thereby letting you parameterize clients</text><text fill="#000000" font-family="sans-serif" font-size="13" lengthAdjust="spacing" textLength="238.3862" x="443.43" y="83.5981">with different requests, queue or log</text><text fill="#000000" font-family="sans-serif" font-size="13" lengthAdjust="spacing" textLength="285.3398" x="443.43" y="98.731">requests, and support undoable operations.</text></g><!--link Client to Invoker--><g class="link" data-entity-1="Client" data-entity-2="Invoker" data-source-line="23" data-uid="lnk7" id="link_Client_Invoker"><path codeLine="23" d="M255.17,57.09 C274.4,57.09 292.07,57.09 312.11,57.09" fill="none" id="Client-to-Invoker" style="stroke:#181818;stroke-width:1;"/><polygon fill="#181818" points="318.11,57.09,309.11,53.09,313.11,57.09,309.11,61.09,318.11,57.09" style="stroke:#181818;stroke-width:1;"/></g><!--link Client to Receiver--><g class="link" data-entity-1="Client" data-entity-2="Receiver" data-source-line="24" data-uid="lnk8" id="link_Client_Receiver"><path codeLine="24" d="M181.98,57.09 C133.37,57.09 53.6,57.09 53.6,57.09 C53.6,57.09 53.6,120 53.6,160.38" fill="none" id="Client-to-Receiver" style="stroke:#181818;stroke-width:1;"/><polygon fill="#181818" points="53.6,166.38,57.6,157.38,53.6,161.38,49.6,157.38,53.6,166.38" style="stroke:#181818;stroke-width:1;"/></g><!--reverse link Invoker to Command--><g class="link" data-entity-1="Invoker" data-entity-2="Command" data-source-line="25" data-uid="lnk9" id="link_Invoker_Command"><path codeLine="25" d="M370.19,84.83 C370.19,107.91 370.19,138.26 370.19,166.51" fill="none" id="Invoker-backto-Command" style="stroke:#181818;stroke-width:1;"/><polygon fill="#181818" points="370.19,72.83,366.19,78.83,370.19,84.83,374.19,78.83,370.19,72.83" style="stroke:#181818;stroke-width:1;"/></g><!--link Client to ConcreteCommand--><g class="link" data-entity-1="Client" data-entity-2="ConcreteCommand" data-source-line="26" data-uid="lnk10" id="link_Client_ConcreteCommand"><path codeLine="26" d="M218.6,72.83 C218.6,95.91 218.6,132.26 218.6,160.51" fill="none" id="Client-to-ConcreteCommand" style="stroke:#181818;stroke-width:1;stroke-dasharray:7,7;"/><polygon fill="#181818" points="218.6,166.51,222.6,157.51,218.6,161.51,214.6,157.51,218.6,166.51" style="stroke:#181818;stroke-width:1;"/></g><!--link Receiver to ConcreteCommand--><g class="link" data-entity-1="Receiver" data-entity-2="ConcreteCommand" data-source-line="27" data-uid="lnk11" id="link_Receiver_ConcreteCommand"><path codeLine="27" d="M100.44,195.09 C111.11,195.09 116.77,195.09 128.47,195.09" fill="none" id="Receiver-to-ConcreteCommand" style="stroke:#181818;stroke-width:1;"/><polygon fill="#181818" points="134.47,195.09,125.47,191.09,129.47,195.09,125.47,199.09,134.47,195.09" style="stroke:#181818;stroke-width:1;"/></g><!--link ConcreteCommand to Command--><g class="link" data-entity-1="ConcreteCommand" data-entity-2="Command" data-source-line="28" data-uid="lnk12" id="link_ConcreteCommand_Command"><path codeLine="28" d="M302.59,195.09 C314.42,195.09 308.28,195.09 319.28,195.09" fill="none" id="ConcreteCommand-to-Command" style="stroke:#181818;stroke-width:1;"/><polygon fill="none" points="337.28,195.09,319.28,189.09,319.28,201.09,337.28,195.09" style="stroke:#181818;stroke-width:1;"/></g><!--SRC=[VPBBKiCm34Nt_WejUJJjiEraig33WWqBXXzG7BKnTIpZHo4y_XtRD64e3Dbuf7iYNrdoUsKiEXoWHRdVEOwcsx1c1y6XyKaY4uIVAQqCXT4IMDPZ3lxIs8MUXP0QlOUDLhd4CRer1zwJcy9xagGEvE1DGFek0MLGRCxEnSVyFmy3ccucw8La3FGJCT9He7_HNdK4DDWmma13IyuByUKDgcRsDMLIQl8cZXfSLDNaPkAMo-RqTZ7tLFtMJfrMxyrSKXWE1EZXxghuhzkcbdaKQySZwciTgJcozQe8JRrgcubzI2-_pWcufXuFYXtgejqOYTP7ZRawE7gAv4E-1mrm-qWoB0eNUdBKZg0f16LsC7A4CjZarwbN0bbwzWL-Lg67Jcstb1TagkeNaCwODm0qxmhvBUM6VRGshGUaDMDiTI8jESmpzqj12SYFy0a0]--></g></svg>