<svg xmlns="http://www.w3.org/2000/svg" xmlns:xlink="http://www.w3.org/1999/xlink" contentStyleType="text/css" data-diagram-type="CLASS" height="372px" preserveAspectRatio="none" style="width:577px;height:372px;" version="1.1" viewBox="0 0 577 372" width="577px" zoomAndPan="magnify"><defs/><g><!--class Client--><g class="entity" data-entity="Client" data-source-line="5" data-uid="ent0002" id="entity_Client"><rect fill="#F1F1F1" height="32" rx="2.5" ry="2.5" style="stroke:#181818;stroke-width:0.5;" width="72.5303" x="173.77" y="32.83"/><ellipse cx="188.77" cy="48.83" fill="#ADD1B2" rx="11" ry="11" style="stroke:#181818;stroke-width:1;"/><path d="M191.7388,54.4706 Q191.1606,54.7675 190.52,54.9081 Q189.8794,55.0644 189.1763,55.0644 Q186.6763,55.0644 185.3481,53.4237 Q184.0356,51.7675 184.0356,48.6425 Q184.0356,45.5175 185.3481,43.8612 Q186.6763,42.205 189.1763,42.205 Q189.8794,42.205 190.52,42.3612 Q191.1763,42.5175 191.7388,42.8144 L191.7388,45.5331 Q191.1138,44.955 190.52,44.6894 Q189.9263,44.4081 189.3013,44.4081 Q187.9575,44.4081 187.27,45.4862 Q186.5825,46.5487 186.5825,48.6425 Q186.5825,50.7362 187.27,51.8144 Q187.9575,52.8769 189.3013,52.8769 Q189.9263,52.8769 190.52,52.6112 Q191.1138,52.33 191.7388,51.7519 L191.7388,54.4706 Z " fill="#000000"/><text fill="#000000" font-family="sans-serif" font-size="14" lengthAdjust="spacing" textLength="40.5303" x="202.77" y="53.6767">Client</text></g><!--class Aggregate--><g class="entity" data-entity="Aggregate" data-source-line="7" data-uid="ent0003" id="entity_Aggregate"><rect fill="#F1F1F1" height="64.5625" rx="2.5" ry="2.5" style="stroke:#181818;stroke-width:0.5;" width="182.6182" x="15.73" y="159.82"/><ellipse cx="60.48" cy="179.9528" fill="#B4A7E5" rx="11" ry="11" style="stroke:#181818;stroke-width:1;"/><path d="M56.4019,175.7184 L56.4019,173.5622 L63.7925,173.5622 L63.7925,175.7184 L61.3238,175.7184 L61.3238,183.7966 L63.7925,183.7966 L63.7925,185.9528 L56.4019,185.9528 L56.4019,183.7966 L58.8706,183.7966 L58.8706,175.7184 L56.4019,175.7184 Z " fill="#000000"/><text fill="#000000" font-family="sans-serif" font-size="12" font-style="italic" lengthAdjust="spacing" textLength="68.2031" x="83.5225" y="175.9587">&#171;interface&#187;</text><text fill="#000000" font-family="sans-serif" font-size="14" font-style="italic" lengthAdjust="spacing" textLength="73.2881" x="80.98" y="191.7839">Aggregate</text><rect fill="#FFFFFF" height="15.9688" style="stroke:#181818;stroke-width:1;stroke-dasharray:2.0,2.0;" width="9.3301" x="192.0181" y="156.82"/><text fill="#000000" font-family="sans-serif" font-size="12" font-style="italic" lengthAdjust="spacing" textLength="7.3301" x="193.0181" y="168.9587">T</text><line style="stroke:#181818;stroke-width:0.5;" x1="16.73" x2="197.3482" y1="200.0856" y2="200.0856"/><ellipse cx="26.73" cy="213.7341" fill="#84BE84" rx="3" ry="3" style="stroke:#038048;stroke-width:1;"/><text fill="#000000" font-family="sans-serif" font-size="14" lengthAdjust="spacing" textLength="156.6182" x="35.73" y="217.0807">iterator(): Iterator&lt;T&gt;</text></g><!--class ConcreteAggregate--><g class="entity" data-entity="ConcreteAggregate" data-source-line="11" data-uid="ent0004" id="entity_ConcreteAggregate"><rect fill="#F1F1F1" height="72.5938" rx="2.5" ry="2.5" style="stroke:#181818;stroke-width:0.5;" width="194.0684" x="7" y="292.53"/><ellipse cx="28.3303" cy="308.53" fill="#ADD1B2" rx="11" ry="11" style="stroke:#181818;stroke-width:1;"/><path d="M31.2991,314.1706 Q30.7209,314.4675 30.0803,314.6081 Q29.4397,314.7644 28.7366,314.7644 Q26.2366,314.7644 24.9084,313.1238 Q23.5959,311.4675 23.5959,308.3425 Q23.5959,305.2175 24.9084,303.5613 Q26.2366,301.905 28.7366,301.905 Q29.4397,301.905 30.0803,302.0613 Q30.7366,302.2175 31.2991,302.5144 L31.2991,305.2331 Q30.6741,304.655 30.0803,304.3894 Q29.4866,304.1081 28.8616,304.1081 Q27.5178,304.1081 26.8303,305.1863 Q26.1428,306.2488 26.1428,308.3425 Q26.1428,310.4363 26.8303,311.5144 Q27.5178,312.5769 28.8616,312.5769 Q29.4866,312.5769 30.0803,312.3113 Q30.6741,312.03 31.2991,311.4519 L31.2991,314.1706 Z " fill="#000000"/><text fill="#000000" font-family="sans-serif" font-size="14" lengthAdjust="spacing" textLength="136.6709" x="43.7371" y="313.3767">ConcreteAggregate</text><rect fill="#FFFFFF" height="15.9688" style="stroke:#181818;stroke-width:1;stroke-dasharray:2.0,2.0;" width="9.3301" x="194.7383" y="289.53"/><text fill="#000000" font-family="sans-serif" font-size="12" font-style="italic" lengthAdjust="spacing" textLength="7.3301" x="195.7383" y="301.6687">T</text><line style="stroke:#181818;stroke-width:0.5;" x1="8" x2="200.0684" y1="324.53" y2="324.53"/><text fill="#000000" font-family="sans-serif" font-size="14" lengthAdjust="spacing" textLength="168.0684" x="27" y="341.5251">_ iterator(): Iterator&lt;T&gt;</text><ellipse cx="18" cy="354.4753" fill="#84BE84" rx="3" ry="3" style="stroke:#038048;stroke-width:1;"/><text fill="#000000" font-family="sans-serif" font-size="14" lengthAdjust="spacing" textLength="125.7676" x="27" y="357.822">createIterator(): T</text></g><!--class Iterator--><g class="entity" data-entity="Iterator" data-source-line="16" data-uid="ent0005" id="entity_Iterator"><rect fill="#F1F1F1" height="80.8594" rx="2.5" ry="2.5" style="stroke:#181818;stroke-width:0.5;" width="159.6699" x="234.2" y="151.67"/><ellipse cx="272.6615" cy="171.8028" fill="#B4A7E5" rx="11" ry="11" style="stroke:#181818;stroke-width:1;"/><path d="M268.5834,167.5684 L268.5834,165.4122 L275.974,165.4122 L275.974,167.5684 L273.5053,167.5684 L273.5053,175.6466 L275.974,175.6466 L275.974,177.8028 L268.5834,177.8028 L268.5834,175.6466 L271.0521,175.6466 L271.0521,167.5684 L268.5834,167.5684 Z " fill="#000000"/><text fill="#000000" font-family="sans-serif" font-size="12" font-style="italic" lengthAdjust="spacing" textLength="68.2031" x="289.8752" y="167.8087">&#171;interface&#187;</text><text fill="#000000" font-family="sans-serif" font-size="14" font-style="italic" lengthAdjust="spacing" textLength="52.377" x="297.7883" y="183.6339">Iterator</text><rect fill="#FFFFFF" height="15.9688" style="stroke:#181818;stroke-width:1;stroke-dasharray:2.0,2.0;" width="9.3301" x="387.5398" y="148.67"/><text fill="#000000" font-family="sans-serif" font-size="12" font-style="italic" lengthAdjust="spacing" textLength="7.3301" x="388.5398" y="160.8087">T</text><line style="stroke:#181818;stroke-width:0.5;" x1="235.2" x2="392.8699" y1="191.9356" y2="191.9356"/><ellipse cx="245.2" cy="205.5841" fill="#84BE84" rx="3" ry="3" style="stroke:#038048;stroke-width:1;"/><text fill="#000000" font-family="sans-serif" font-size="14" lengthAdjust="spacing" textLength="133.6699" x="254.2" y="208.9307">hasNext(): boolean</text><ellipse cx="245.2" cy="221.8809" fill="#84BE84" rx="3" ry="3" style="stroke:#038048;stroke-width:1;"/><text fill="#000000" font-family="sans-serif" font-size="14" lengthAdjust="spacing" textLength="59.9033" x="254.2" y="225.2276">next(): T</text></g><!--class ConcreteIterator--><g class="entity" data-entity="ConcreteIterator" data-source-line="21" data-uid="ent0006" id="entity_ConcreteIterator"><rect fill="#F1F1F1" height="72.5938" rx="2.5" ry="2.5" style="stroke:#181818;stroke-width:0.5;" width="159.6699" x="236.2" y="292.53"/><ellipse cx="251.461" cy="308.53" fill="#ADD1B2" rx="11" ry="11" style="stroke:#181818;stroke-width:1;"/><path d="M254.4298,314.1706 Q253.8517,314.4675 253.211,314.6081 Q252.5704,314.7644 251.8673,314.7644 Q249.3673,314.7644 248.0392,313.1238 Q246.7267,311.4675 246.7267,308.3425 Q246.7267,305.2175 248.0392,303.5613 Q249.3673,301.905 251.8673,301.905 Q252.5704,301.905 253.211,302.0613 Q253.8673,302.2175 254.4298,302.5144 L254.4298,305.2331 Q253.8048,304.655 253.211,304.3894 Q252.6173,304.1081 251.9923,304.1081 Q250.6485,304.1081 249.961,305.1863 Q249.2735,306.2488 249.2735,308.3425 Q249.2735,310.4363 249.961,311.5144 Q250.6485,312.5769 251.9923,312.5769 Q252.6173,312.5769 253.211,312.3113 Q253.8048,312.03 254.4298,311.4519 L254.4298,314.1706 Z " fill="#000000"/><text fill="#000000" font-family="sans-serif" font-size="14" lengthAdjust="spacing" textLength="115.7598" x="265.519" y="313.3767">ConcreteIterator</text><rect fill="#FFFFFF" height="15.9688" style="stroke:#181818;stroke-width:1;stroke-dasharray:2.0,2.0;" width="9.3301" x="389.5398" y="289.53"/><text fill="#000000" font-family="sans-serif" font-size="12" font-style="italic" lengthAdjust="spacing" textLength="7.3301" x="390.5398" y="301.6687">T</text><line style="stroke:#181818;stroke-width:0.5;" x1="237.2" x2="394.8699" y1="324.53" y2="324.53"/><ellipse cx="247.2" cy="338.1784" fill="#84BE84" rx="3" ry="3" style="stroke:#038048;stroke-width:1;"/><text fill="#000000" font-family="sans-serif" font-size="14" lengthAdjust="spacing" textLength="133.6699" x="256.2" y="341.5251">hasNext(): boolean</text><ellipse cx="247.2" cy="354.4753" fill="#84BE84" rx="3" ry="3" style="stroke:#038048;stroke-width:1;"/><text fill="#000000" font-family="sans-serif" font-size="14" lengthAdjust="spacing" textLength="59.6367" x="256.2" y="357.822">next()  T</text></g><g class="entity" data-entity="N1" data-source-line="34" data-uid="ent0011" id="entity_N1"><path d="M281.59,6 L281.59,91.6641 L570.4738,91.6641 L570.4738,16 L560.4738,6 L281.59,6" fill="#FEFFDD" style="stroke:#181818;stroke-width:0.5;"/><path d="M560.4738,6 L560.4738,16 L570.4738,16 L560.4738,6" fill="#FEFFDD" style="stroke:#181818;stroke-width:1;"/><text fill="#4169E1" font-family="sans-serif" font-size="13" font-weight="bold" lengthAdjust="spacing" textLength="56.6084" x="287.59" y="23.0669">Iterator</text><text fill="#000000" font-family="sans-serif" font-size="13" font-weight="bold" lengthAdjust="spacing" textLength="40.6631" x="287.59" y="38.1997">Type:</text><text fill="#000000" font-family="sans-serif" font-size="13" lengthAdjust="spacing" textLength="69.3037" x="332.3854" y="38.1997">Behavioral</text><text fill="#000000" font-family="sans-serif" font-size="13" lengthAdjust="spacing" textLength="262.9771" x="287.59" y="53.3325">Provide a way to access the elements of</text><text fill="#000000" font-family="sans-serif" font-size="13" lengthAdjust="spacing" textLength="267.8838" x="287.59" y="68.4653">an aggregate object sequentially without</text><text fill="#000000" font-family="sans-serif" font-size="13" lengthAdjust="spacing" textLength="256.1787" x="287.59" y="83.5981">exposing its underlying representation.</text></g><!--link Client to Aggregate--><g class="link" data-entity-1="Client" data-entity-2="Aggregate" data-source-line="28" data-uid="lnk7" id="link_Client_Aggregate"><path codeLine="28" d="M186.06,65.27 C186.06,88.13 186.06,124.01 186.06,153.37" fill="none" id="Client-to-Aggregate" style="stroke:#181818;stroke-width:1;"/><polygon fill="#181818" points="186.06,159.37,190.06,150.37,186.06,154.37,182.06,150.37,186.06,159.37" style="stroke:#181818;stroke-width:1;"/></g><!--link Client to Iterator--><g class="link" data-entity-1="Client" data-entity-2="Iterator" data-source-line="29" data-uid="lnk8" id="link_Client_Iterator"><path codeLine="29" d="M240.25,65.27 C240.25,86.14 240.25,116.88 240.25,145.46" fill="none" id="Client-to-Iterator" style="stroke:#181818;stroke-width:1;"/><polygon fill="#181818" points="240.25,151.46,244.25,142.46,240.25,146.46,236.25,142.46,240.25,151.46" style="stroke:#181818;stroke-width:1;"/></g><!--reverse link Aggregate to ConcreteAggregate--><g class="link" data-entity-1="Aggregate" data-entity-2="ConcreteAggregate" data-source-line="30" data-uid="lnk9" id="link_Aggregate_ConcreteAggregate"><path codeLine="30" d="M107.03,242.85 C107.03,263.23 107.03,271.47 107.03,292.49" fill="none" id="Aggregate-backto-ConcreteAggregate" style="stroke:#181818;stroke-width:1;"/><polygon fill="none" points="107.03,224.85,101.03,242.85,113.03,242.85,107.03,224.85" style="stroke:#181818;stroke-width:1;"/></g><!--reverse link Iterator to ConcreteIterator--><g class="link" data-entity-1="Iterator" data-entity-2="ConcreteIterator" data-source-line="31" data-uid="lnk10" id="link_Iterator_ConcreteIterator"><path codeLine="31" d="M315.03,250.75 C315.03,269.64 315.03,273.93 315.03,292.28" fill="none" id="Iterator-backto-ConcreteIterator" style="stroke:#181818;stroke-width:1;"/><polygon fill="none" points="315.03,232.75,309.03,250.75,321.03,250.75,315.03,232.75" style="stroke:#181818;stroke-width:1;"/></g><!--SRC=[ZL8zRy8m4DtzAsviLL7K5KMM2XCBwf2zkfWZSN5ygUq0KTl_NZj02A98tUnx7xvtFh_Lja67DHIejgNZrguNRDX1S6XzXCW6uGUMqPP2rn0qRBfq-GjZ5oeMGXdq7XP69mkXRI2tGKNmMfQEIWoKvHAo32w8bF0b09v0nme6TW-FCrYUpf4jVWPNjifHe2klf7s_gqs-KHEvon4ZJvwN3aQ2EwrLw5Tq24bRC1j2svVjgPRVzZZs_8S773qglIQWkWaTr5GNvBmGnrd2P28lGnmNpo-90ONiUpAvdPOuCw_nGIyiHorwMBt4pW2oGcOghSNCSOTcRbgIGwnfZyXiMiWpEOzhC4i5c5E5EyqEJO-zETwbO0Xxx20me58KPnMg6DPG7PDuu4tFHGiuvE3YWrG0Jvzjv6WqfeEzZdlMXfvCXuQzjcNyVWznYScPBbqTDOvyb63GR9y5sJMaSBy0]--></g></svg>