<svg xmlns="http://www.w3.org/2000/svg" xmlns:xlink="http://www.w3.org/1999/xlink" contentStyleType="text/css" height="433px" preserveAspectRatio="none" style="width:747px;height:433px;background:#FFFFFF;" version="1.1" viewBox="0 0 747 433" width="747px" zoomAndPan="magnify"><defs/><g><rect fill="#FFBBBB" height="153.0625" style="stroke:#181818;stroke-width:1.0;" width="10" x="511" y="96.5625"/><rect fill="#E9967A" height="29.1328" style="stroke:#181818;stroke-width:1.0;" width="10" x="662" y="302.8906"/><rect fill="none" height="75.3984" style="stroke:#000000;stroke-width:1.5;" width="497" x="244.5" y="264.625"/><line style="stroke:#181818;stroke-width:0.5;stroke-dasharray:5.0,5.0;" x1="70" x2="70" y1="36.2969" y2="347.0234"/><line style="stroke:#A80036;stroke-width:1.0;stroke-dasharray:1.0,4.0;" x1="70" x2="70" y1="347.0234" y2="387.8281"/><line style="stroke:#181818;stroke-width:0.5;stroke-dasharray:5.0,5.0;" x1="70" x2="70" y1="387.8281" y2="397.8281"/><line style="stroke:#181818;stroke-width:0.5;stroke-dasharray:5.0,5.0;" x1="280.5" x2="280.5" y1="36.2969" y2="347.0234"/><line style="stroke:#A80036;stroke-width:1.0;stroke-dasharray:1.0,4.0;" x1="280.5" x2="280.5" y1="347.0234" y2="387.8281"/><line style="stroke:#181818;stroke-width:0.5;stroke-dasharray:5.0,5.0;" x1="280.5" x2="280.5" y1="387.8281" y2="397.8281"/><line style="stroke:#181818;stroke-width:0.5;stroke-dasharray:5.0,5.0;" x1="515.5" x2="515.5" y1="36.2969" y2="347.0234"/><line style="stroke:#A80036;stroke-width:1.0;stroke-dasharray:1.0,4.0;" x1="515.5" x2="515.5" y1="347.0234" y2="387.8281"/><line style="stroke:#181818;stroke-width:0.5;stroke-dasharray:5.0,5.0;" x1="515.5" x2="515.5" y1="387.8281" y2="397.8281"/><line style="stroke:#181818;stroke-width:0.5;stroke-dasharray:5.0,5.0;" x1="666.5" x2="666.5" y1="36.2969" y2="347.0234"/><line style="stroke:#A80036;stroke-width:1.0;stroke-dasharray:1.0,4.0;" x1="666.5" x2="666.5" y1="347.0234" y2="387.8281"/><line style="stroke:#181818;stroke-width:0.5;stroke-dasharray:5.0,5.0;" x1="666.5" x2="666.5" y1="387.8281" y2="397.8281"/><rect fill="#E2E2F0" height="30.2969" rx="2.5" ry="2.5" style="stroke:#181818;stroke-width:0.5;" width="130" x="5" y="5"/><text fill="#000000" font-family="sans-serif" font-size="14" lengthAdjust="spacing" textLength="116" x="12" y="24.9951">Resource Owner</text><rect fill="#E2E2F0" height="30.2969" rx="2.5" ry="2.5" style="stroke:#181818;stroke-width:0.5;" width="130" x="5" y="396.8281"/><text fill="#000000" font-family="sans-serif" font-size="14" lengthAdjust="spacing" textLength="116" x="12" y="416.8232">Resource Owner</text><rect fill="#E2E2F0" height="30.2969" rx="2.5" ry="2.5" style="stroke:#181818;stroke-width:0.5;" width="53" x="254.5" y="5"/><text fill="#000000" font-family="sans-serif" font-size="14" lengthAdjust="spacing" textLength="39" x="261.5" y="24.9951">Client</text><rect fill="#E2E2F0" height="30.2969" rx="2.5" ry="2.5" style="stroke:#181818;stroke-width:0.5;" width="53" x="254.5" y="396.8281"/><text fill="#000000" font-family="sans-serif" font-size="14" lengthAdjust="spacing" textLength="39" x="261.5" y="416.8232">Client</text><rect fill="#E2E2F0" height="30.2969" rx="2.5" ry="2.5" style="stroke:#181818;stroke-width:0.5;" width="153" x="439.5" y="5"/><text fill="#000000" font-family="sans-serif" font-size="14" lengthAdjust="spacing" textLength="139" x="446.5" y="24.9951">Authorization Server</text><rect fill="#E2E2F0" height="30.2969" rx="2.5" ry="2.5" style="stroke:#181818;stroke-width:0.5;" width="153" x="439.5" y="396.8281"/><text fill="#000000" font-family="sans-serif" font-size="14" lengthAdjust="spacing" textLength="139" x="446.5" y="416.8232">Authorization Server</text><rect fill="#E2E2F0" height="30.2969" rx="2.5" ry="2.5" style="stroke:#181818;stroke-width:0.5;" width="129" x="602.5" y="5"/><text fill="#000000" font-family="sans-serif" font-size="14" lengthAdjust="spacing" textLength="115" x="609.5" y="24.9951">Resource Server</text><rect fill="#E2E2F0" height="30.2969" rx="2.5" ry="2.5" style="stroke:#181818;stroke-width:0.5;" width="129" x="602.5" y="396.8281"/><text fill="#000000" font-family="sans-serif" font-size="14" lengthAdjust="spacing" textLength="115" x="609.5" y="416.8232">Resource Server</text><rect fill="#FFBBBB" height="153.0625" style="stroke:#181818;stroke-width:1.0;" width="10" x="511" y="96.5625"/><rect fill="#E9967A" height="29.1328" style="stroke:#181818;stroke-width:1.0;" width="10" x="662" y="302.8906"/><polygon fill="#181818" points="269,63.4297,279,67.4297,269,71.4297,273,67.4297" style="stroke:#181818;stroke-width:1.0;"/><line style="stroke:#181818;stroke-width:1.0;" x1="70" x2="275" y1="67.4297" y2="67.4297"/><text fill="#000000" font-family="sans-serif" font-size="13" lengthAdjust="spacing" textLength="187" x="77" y="62.3638">Authenticate with Credentials</text><polygon fill="#181818" points="499,92.5625,509,96.5625,499,100.5625,503,96.5625" style="stroke:#181818;stroke-width:1.0;"/><line style="stroke:#181818;stroke-width:1.0;" x1="281" x2="505" y1="96.5625" y2="96.5625"/><text fill="#000000" font-family="sans-serif" font-size="13" lengthAdjust="spacing" textLength="143" x="288" y="91.4966">Access Token Request</text><rect fill="#FEFFDD" height="113" style="stroke:#181818;stroke-width:0.5;" width="197" x="417" y="109.5625"/><text fill="#000000" font-family="sans-serif" font-size="13" lengthAdjust="spacing" textLength="41" x="421" y="125.6294">Needs</text><text fill="#000000" font-family="sans-serif" font-size="13" lengthAdjust="spacing" textLength="16" x="421" y="140.7622">&#160;&#160;&#160;&#160;</text><text fill="#000000" font-family="sans-serif" font-size="13" font-style="italic" font-weight="bold" lengthAdjust="spacing" textLength="61" x="437" y="140.7622">client_id</text><text fill="#000000" font-family="sans-serif" font-size="13" lengthAdjust="spacing" textLength="16" x="421" y="155.895">&#160;&#160;&#160;&#160;</text><text fill="#000000" font-family="sans-serif" font-size="13" font-style="italic" font-weight="bold" lengthAdjust="spacing" textLength="93" x="437" y="155.895">client_secret</text><text fill="#000000" font-family="sans-serif" font-size="13" lengthAdjust="spacing" textLength="16" x="421" y="171.0278">&#160;&#160;&#160;&#160;</text><text fill="#000000" font-family="sans-serif" font-size="13" font-style="italic" font-weight="bold" lengthAdjust="spacing" textLength="84" x="437" y="171.0278">redirect_uri</text><text fill="#000000" font-family="sans-serif" font-size="13" lengthAdjust="spacing" textLength="16" x="421" y="186.1606">&#160;&#160;&#160;&#160;</text><text fill="#000000" font-family="sans-serif" font-size="13" font-style="italic" font-weight="bold" lengthAdjust="spacing" textLength="96" x="437" y="186.1606">grant_type =</text><text fill="#FF0000" font-family="sans-serif" font-size="13" font-style="italic" font-weight="bold" lengthAdjust="spacing" textLength="72" x="538" y="186.1606">password</text><text fill="#000000" font-family="sans-serif" font-size="13" lengthAdjust="spacing" textLength="16" x="421" y="201.2935">&#160;&#160;&#160;&#160;</text><text fill="#000000" font-family="sans-serif" font-size="13" font-style="italic" font-weight="bold" lengthAdjust="spacing" textLength="73" x="437" y="201.2935">username</text><text fill="#000000" font-family="sans-serif" font-size="13" lengthAdjust="spacing" textLength="16" x="421" y="216.4263">&#160;&#160;&#160;&#160;</text><text fill="#000000" font-family="sans-serif" font-size="13" font-style="italic" font-weight="bold" lengthAdjust="spacing" textLength="72" x="437" y="216.4263">password</text><polygon fill="#181818" points="292,245.625,282,249.625,292,253.625,288,249.625" style="stroke:#181818;stroke-width:1.0;"/><line style="stroke:#181818;stroke-width:1.0;stroke-dasharray:2.0,2.0;" x1="286" x2="515" y1="249.625" y2="249.625"/><text fill="#000000" font-family="sans-serif" font-size="13" lengthAdjust="spacing" textLength="206" x="298" y="244.5591">Access Token [+ Refresh Token]</text><path d="M244.5,264.625 L321.5,264.625 L321.5,271.7578 L311.5,281.7578 L244.5,281.7578 L244.5,264.625 " fill="#EEEEEE" style="stroke:#000000;stroke-width:1.5;"/><rect fill="none" height="75.3984" style="stroke:#000000;stroke-width:1.5;" width="497" x="244.5" y="264.625"/><text fill="#000000" font-family="sans-serif" font-size="13" font-weight="bold" lengthAdjust="spacing" textLength="32" x="259.5" y="277.6919">loop</text><polygon fill="#181818" points="650,298.8906,660,302.8906,650,306.8906,654,302.8906" style="stroke:#181818;stroke-width:1.0;"/><line style="stroke:#181818;stroke-width:1.0;" x1="281" x2="656" y1="302.8906" y2="302.8906"/><text fill="#000000" font-family="sans-serif" font-size="13" lengthAdjust="spacing" textLength="167" x="288" y="297.8247">Call API with Access Token</text><polygon fill="#181818" points="292,328.0234,282,332.0234,292,336.0234,288,332.0234" style="stroke:#181818;stroke-width:1.0;"/><line style="stroke:#181818;stroke-width:1.0;stroke-dasharray:2.0,2.0;" x1="286" x2="666" y1="332.0234" y2="332.0234"/><text fill="#000000" font-family="sans-serif" font-size="13" lengthAdjust="spacing" textLength="128" x="298" y="326.9575">Response With Data</text><text fill="#000000" font-family="sans-serif" font-size="11" lengthAdjust="spacing" textLength="139" x="297" y="371.2339">subsequent as you wish</text><!--SRC=[ZLB1JW913BttAngvhO6z4oH128aNDM3YmHWopbQPiCoixIm4lzxk4f1TC3gdoMjVN_lQmd1qrXN6HxoQaOIIBU73rXDVGN4Q7EUEV6o1ep8k0xil4rtmE2VUdF6EHGzHQEjWTtWityUgfFwSDP5mw-8InqnPXPXSu91NSowgQmLhIGIVmeeypkYp98bWR7IRgkHb5dQcqrjz0Eo3PWK5VnlldYWJG7rfcYIsRcZXiYH9qpOgP9bY8wB3E2OR5oMxHk23rQz5t1M4DpYm8G-C7SqU5aPa6pWRf3KuRB1A8VPcJGtmmAX1ybaz4_oOD-Xs_-VUoxKQ-Cuaoptm2XdzuIH07a81pKsrZw2FOvFdE7gysw_uLFHaLMqQTYQ6LtEJhuDlJNEke4WHl10-LmeJ4qsZ-VExLAC0eDVhIVacrTde-Hh1NIYrINL08zy0]--></g></svg>