<svg xmlns="http://www.w3.org/2000/svg" xmlns:xlink="http://www.w3.org/1999/xlink" contentStyleType="text/css" data-diagram-type="CLASS" height="269px" preserveAspectRatio="none" style="width:534px;height:269px;" version="1.1" viewBox="0 0 534 269" width="534px" zoomAndPan="magnify"><defs/><g><!--class Director--><g class="entity" data-entity="Director" data-source-line="5" data-uid="ent0002" id="entity_Director"><rect fill="#F1F1F1" height="64.2969" rx="2.5" ry="2.5" style="stroke:#181818;stroke-width:0.5;" width="102.6582" x="7" y="31.81"/><ellipse cx="28.3501" cy="47.81" fill="#ADD1B2" rx="11" ry="11" style="stroke:#181818;stroke-width:1;"/><path d="M31.3188,53.4506 Q30.7407,53.7475 30.1001,53.8881 Q29.4595,54.0444 28.7563,54.0444 Q26.2563,54.0444 24.9282,52.4037 Q23.6157,50.7475 23.6157,47.6225 Q23.6157,44.4975 24.9282,42.8412 Q26.2563,41.185 28.7563,41.185 Q29.4595,41.185 30.1001,41.3412 Q30.7563,41.4975 31.3188,41.7944 L31.3188,44.5131 Q30.6938,43.935 30.1001,43.6694 Q29.5063,43.3881 28.8813,43.3881 Q27.5376,43.3881 26.8501,44.4662 Q26.1626,45.5287 26.1626,47.6225 Q26.1626,49.7162 26.8501,50.7944 Q27.5376,51.8569 28.8813,51.8569 Q29.5063,51.8569 30.1001,51.5912 Q30.6938,51.31 31.3188,50.7319 L31.3188,53.4506 Z " fill="#000000"/><text fill="#000000" font-family="sans-serif" font-size="14" lengthAdjust="spacing" textLength="56.5469" x="43.7612" y="52.6567">Director</text><line style="stroke:#181818;stroke-width:0.5;" x1="8" x2="108.6582" y1="63.81" y2="63.81"/><line style="stroke:#181818;stroke-width:0.5;" x1="8" x2="108.6582" y1="71.81" y2="71.81"/><ellipse cx="18" cy="85.4584" fill="#84BE84" rx="3" ry="3" style="stroke:#038048;stroke-width:1;"/><text fill="#000000" font-family="sans-serif" font-size="14" lengthAdjust="spacing" textLength="76.6582" x="27" y="88.8051">construct()</text></g><!--class Builder--><g class="entity" data-entity="Builder" data-source-line="9" data-uid="ent0003" id="entity_Builder"><rect fill="#F1F1F1" height="64.2969" rx="2.5" ry="2.5" style="stroke:#181818;stroke-width:0.5;" width="85.6162" x="144.52" y="31.81"/><ellipse cx="161.3666" cy="47.81" fill="#B4A7E5" rx="11" ry="11" style="stroke:#181818;stroke-width:1;"/><path d="M157.2885,43.5756 L157.2885,41.4194 L164.6791,41.4194 L164.6791,43.5756 L162.2103,43.5756 L162.2103,51.6537 L164.6791,51.6537 L164.6791,53.81 L157.2885,53.81 L157.2885,51.6537 L159.7572,51.6537 L159.7572,43.5756 L157.2885,43.5756 Z " fill="#000000"/><text fill="#000000" font-family="sans-serif" font-size="14" font-style="italic" lengthAdjust="spacing" textLength="49.5127" x="175.7769" y="52.6567">Builder</text><line style="stroke:#181818;stroke-width:0.5;" x1="145.52" x2="229.1362" y1="63.81" y2="63.81"/><line style="stroke:#181818;stroke-width:0.5;" x1="145.52" x2="229.1362" y1="71.81" y2="71.81"/><text fill="#000000" font-family="sans-serif" font-size="14" lengthAdjust="spacing" textLength="73.6162" x="150.52" y="88.8051">buildPart()</text></g><!--class ConcreteBuilder--><g class="entity" data-entity="ConcreteBuilder" data-source-line="13" data-uid="ent0004" id="entity_ConcreteBuilder"><rect fill="#F1F1F1" height="80.5938" rx="2.5" ry="2.5" style="stroke:#181818;stroke-width:0.5;" width="144.8955" x="114.88" y="181.93"/><ellipse cx="129.88" cy="197.93" fill="#ADD1B2" rx="11" ry="11" style="stroke:#181818;stroke-width:1;"/><path d="M132.8488,203.5706 Q132.2706,203.8675 131.63,204.0081 Q130.9894,204.1644 130.2863,204.1644 Q127.7863,204.1644 126.4581,202.5237 Q125.1456,200.8675 125.1456,197.7425 Q125.1456,194.6175 126.4581,192.9612 Q127.7863,191.305 130.2863,191.305 Q130.9894,191.305 131.63,191.4612 Q132.2863,191.6175 132.8488,191.9144 L132.8488,194.6331 Q132.2238,194.055 131.63,193.7894 Q131.0363,193.5081 130.4113,193.5081 Q129.0675,193.5081 128.38,194.5862 Q127.6925,195.6487 127.6925,197.7425 Q127.6925,199.8362 128.38,200.9144 Q129.0675,201.9769 130.4113,201.9769 Q131.0363,201.9769 131.63,201.7112 Q132.2238,201.43 132.8488,200.8519 L132.8488,203.5706 Z " fill="#000000"/><text fill="#000000" font-family="sans-serif" font-size="14" lengthAdjust="spacing" textLength="112.8955" x="143.88" y="202.7767">ConcreteBuilder</text><line style="stroke:#181818;stroke-width:0.5;" x1="115.88" x2="258.7755" y1="213.93" y2="213.93"/><line style="stroke:#181818;stroke-width:0.5;" x1="115.88" x2="258.7755" y1="221.93" y2="221.93"/><ellipse cx="125.88" cy="235.5784" fill="#84BE84" rx="3" ry="3" style="stroke:#038048;stroke-width:1;"/><text fill="#000000" font-family="sans-serif" font-size="14" lengthAdjust="spacing" textLength="73.6162" x="134.88" y="238.9251">buildPart()</text><ellipse cx="125.88" cy="251.8753" fill="#84BE84" rx="3" ry="3" style="stroke:#038048;stroke-width:1;"/><text fill="#000000" font-family="sans-serif" font-size="14" lengthAdjust="spacing" textLength="77.7998" x="134.88" y="255.222">getResult()</text></g><g class="entity" data-entity="N1" data-source-line="22" data-uid="ent0007" id="entity_N1"><path d="M265.29,6 L265.29,121.9297 L527.3676,121.9297 L527.3676,16 L517.3676,6 L265.29,6" fill="#FEFFDD" style="stroke:#181818;stroke-width:0.5;"/><path d="M517.3676,6 L517.3676,16 L527.3676,16 L517.3676,6" fill="#FEFFDD" style="stroke:#181818;stroke-width:1;"/><text fill="#4169E1" font-family="sans-serif" font-size="13" font-weight="bold" lengthAdjust="spacing" textLength="52.6094" x="271.29" y="23.0669">Builder</text><text fill="#000000" font-family="sans-serif" font-size="13" font-weight="bold" lengthAdjust="spacing" textLength="40.6631" x="271.29" y="38.1997">Type:</text><text fill="#000000" font-family="sans-serif" font-size="13" lengthAdjust="spacing" textLength="66.8662" x="316.0854" y="38.1997">Creational</text><text fill="#000000" font-family="sans-serif" font-size="13" lengthAdjust="spacing" textLength="198.0786" x="271.29" y="53.3325">Separate the construction of a</text><text fill="#000000" font-family="sans-serif" font-size="13" lengthAdjust="spacing" textLength="241.0776" x="271.29" y="68.4653">complex object from its representing</text><text fill="#000000" font-family="sans-serif" font-size="13" lengthAdjust="spacing" textLength="195.2349" x="271.29" y="83.5981">so that the same construction</text><text fill="#000000" font-family="sans-serif" font-size="13" lengthAdjust="spacing" textLength="183.2378" x="271.29" y="98.731">process can create different</text><text fill="#000000" font-family="sans-serif" font-size="13" lengthAdjust="spacing" textLength="106.8184" x="271.29" y="113.8638">representations.</text></g><!--reverse link Director to Builder--><g class="link" data-entity-1="Director" data-entity-2="Builder" data-source-line="18" data-uid="lnk5" id="link_Director_Builder"><path codeLine="18" d="M122.06,64.52 C133.41,64.52 133.32,64.52 144.29,64.52" fill="none" id="Director-backto-Builder" style="stroke:#181818;stroke-width:1;"/><polygon fill="#181818" points="110.06,64.52,116.06,68.52,122.06,64.52,116.06,60.52,110.06,64.52" style="stroke:#181818;stroke-width:1;"/></g><!--reverse link Builder to ConcreteBuilder--><g class="link" data-entity-1="Builder" data-entity-2="ConcreteBuilder" data-source-line="19" data-uid="lnk6" id="link_Builder_ConcreteBuilder"><path codeLine="19" d="M187.33,114.37 C187.33,139.06 187.33,155.2 187.33,181.69" fill="none" id="Builder-backto-ConcreteBuilder" style="stroke:#181818;stroke-width:1;"/><polygon fill="none" points="187.33,96.37,181.33,114.37,193.33,114.37,187.33,96.37" style="stroke:#181818;stroke-width:1;"/></g><!--SRC=[RP51JiCm44NtFiKiWQfKRAieYxPhX80BJ9n9Q-fuel548WBkZkqsaOhmplxFBvFlU7PXGC4U6hJde_0OsZrx5b3145D4GKrSAEy2wJGG3EodlFalOz4J6sCznWW79sGr2RyCfBMo7ABAQFNktlmOuuAIT6W9TgFpBSrSatSlA5Viujfpi49Aj-Zg1hwS74bVAOx-UdqPuc4zVyVCakfxlVvhDYQm4c24vwTYh9gwihcNhV24VkT7ggzijIb1NMsQUcRVKmtRV01x8LJ70Nt9tYXtbTHw8bYgI3bm1rWGo_tWwHEu-KWpGoVSWzC8GeDGJC_Xmh60aPC5jQWYzhU-GWp2bb9l5WFOF0X1wxgEogDcO76M6UEZeT12_lLV]--></g></svg>