<svg xmlns="http://www.w3.org/2000/svg" xmlns:xlink="http://www.w3.org/1999/xlink" contentStyleType="text/css" data-diagram-type="CLASS" height="308px" preserveAspectRatio="none" style="width:484px;height:308px;" version="1.1" viewBox="0 0 484 308" width="484px" zoomAndPan="magnify"><defs/><g><!--class AttendanceComponent--><g class="entity" data-entity="AttendanceComponent" data-source-line="5" data-uid="ent0002" id="entity_AttendanceComponent"><rect fill="#F1F1F1" height="105.1563" rx="2.5" ry="2.5" style="stroke:#181818;stroke-width:0.5;" width="193.9707" x="55.59" y="7"/><ellipse cx="70.59" cy="27.1328" fill="#B4A7E5" rx="11" ry="11" style="stroke:#181818;stroke-width:1;"/><path d="M66.5119,22.8984 L66.5119,20.7422 L73.9025,20.7422 L73.9025,22.8984 L71.4338,22.8984 L71.4338,30.9766 L73.9025,30.9766 L73.9025,33.1328 L66.5119,33.1328 L66.5119,30.9766 L68.9806,30.9766 L68.9806,22.8984 L66.5119,22.8984 Z " fill="#000000"/><text fill="#000000" font-family="sans-serif" font-size="12" font-style="italic" lengthAdjust="spacing" textLength="68.2031" x="131.4738" y="23.1387">&#171;interface&#187;</text><text fill="#000000" font-family="sans-serif" font-size="14" font-style="italic" lengthAdjust="spacing" textLength="161.9707" x="84.59" y="38.9639">AttendanceComponent</text><line style="stroke:#181818;stroke-width:0.5;" x1="56.59" x2="248.5607" y1="47.2656" y2="47.2656"/><text fill="#000000" font-family="sans-serif" font-size="14" lengthAdjust="spacing" textLength="119.0752" x="61.59" y="64.2607">attendance: long</text><line style="stroke:#181818;stroke-width:0.5;" x1="56.59" x2="248.5607" y1="71.5625" y2="71.5625"/><ellipse cx="66.59" cy="85.2109" fill="#84BE84" rx="3" ry="3" style="stroke:#038048;stroke-width:1;"/><text fill="#000000" font-family="sans-serif" font-size="14" lengthAdjust="spacing" textLength="105.9229" x="75.59" y="88.5576">punchIn(): void</text><ellipse cx="66.59" cy="101.5078" fill="#84BE84" rx="3" ry="3" style="stroke:#038048;stroke-width:1;"/><text fill="#000000" font-family="sans-serif" font-size="14" lengthAdjust="spacing" textLength="118.3027" x="75.59" y="104.8545">punchOut(): void</text></g><!--class DepartmentComposite--><g class="entity" data-entity="DepartmentComposite" data-source-line="10" data-uid="ent0003" id="entity_DepartmentComposite"><rect fill="#F1F1F1" height="129.4844" rx="2.5" ry="2.5" style="stroke:#181818;stroke-width:0.5;" width="291.1592" x="7" y="172.16"/><ellipse cx="68.6123" cy="188.16" fill="#ADD1B2" rx="11" ry="11" style="stroke:#181818;stroke-width:1;"/><path d="M71.5811,193.8006 Q71.0029,194.0975 70.3623,194.2381 Q69.7217,194.3944 69.0186,194.3944 Q66.5186,194.3944 65.1904,192.7538 Q63.8779,191.0975 63.8779,187.9725 Q63.8779,184.8475 65.1904,183.1913 Q66.5186,181.535 69.0186,181.535 Q69.7217,181.535 70.3623,181.6913 Q71.0186,181.8475 71.5811,182.1444 L71.5811,184.8631 Q70.9561,184.285 70.3623,184.0194 Q69.7686,183.7381 69.1436,183.7381 Q67.7998,183.7381 67.1123,184.8163 Q66.4248,185.8788 66.4248,187.9725 Q66.4248,190.0663 67.1123,191.1444 Q67.7998,192.2069 69.1436,192.2069 Q69.7686,192.2069 70.3623,191.9413 Q70.9561,191.66 71.5811,191.0819 L71.5811,193.8006 Z " fill="#000000"/><text fill="#000000" font-family="sans-serif" font-size="14" lengthAdjust="spacing" textLength="159.4346" x="89.1123" y="193.0067">DepartmentComposite</text><line style="stroke:#181818;stroke-width:0.5;" x1="8" x2="297.1592" y1="204.16" y2="204.16"/><text fill="#000000" font-family="sans-serif" font-size="14" lengthAdjust="spacing" textLength="119.0752" x="13" y="221.1551">attendance: long</text><line style="stroke:#181818;stroke-width:0.5;" x1="8" x2="297.1592" y1="228.4569" y2="228.4569"/><ellipse cx="18" cy="242.1053" fill="#84BE84" rx="3" ry="3" style="stroke:#038048;stroke-width:1;"/><text fill="#000000" font-family="sans-serif" font-size="14" lengthAdjust="spacing" textLength="105.9229" x="27" y="245.452">punchIn(): void</text><ellipse cx="18" cy="258.4022" fill="#84BE84" rx="3" ry="3" style="stroke:#038048;stroke-width:1;"/><text fill="#000000" font-family="sans-serif" font-size="14" lengthAdjust="spacing" textLength="118.3027" x="27" y="261.7489">punchOut(): void</text><ellipse cx="18" cy="274.6991" fill="#84BE84" rx="3" ry="3" style="stroke:#038048;stroke-width:1;"/><text fill="#000000" font-family="sans-serif" font-size="14" lengthAdjust="spacing" textLength="265.1592" x="27" y="278.0457">remove(AttendanceComponent): void</text><ellipse cx="18" cy="290.9959" fill="#84BE84" rx="3" ry="3" style="stroke:#038048;stroke-width:1;"/><text fill="#000000" font-family="sans-serif" font-size="14" lengthAdjust="spacing" textLength="238.041" x="27" y="294.3426">add(AttendanceComponent): void</text></g><!--class EmployeeLeaf--><g class="entity" data-entity="EmployeeLeaf" data-source-line="17" data-uid="ent0004" id="entity_EmployeeLeaf"><rect fill="#F1F1F1" height="96.8906" rx="2.5" ry="2.5" style="stroke:#181818;stroke-width:0.5;" width="144.3027" x="333.43" y="188.45"/><ellipse cx="354.3002" cy="204.45" fill="#ADD1B2" rx="11" ry="11" style="stroke:#181818;stroke-width:1;"/><path d="M357.269,210.0906 Q356.6908,210.3875 356.0502,210.5281 Q355.4096,210.6844 354.7065,210.6844 Q352.2065,210.6844 350.8783,209.0438 Q349.5658,207.3875 349.5658,204.2625 Q349.5658,201.1375 350.8783,199.4813 Q352.2065,197.825 354.7065,197.825 Q355.4096,197.825 356.0502,197.9813 Q356.7065,198.1375 357.269,198.4344 L357.269,201.1531 Q356.644,200.575 356.0502,200.3094 Q355.4565,200.0281 354.8315,200.0281 Q353.4877,200.0281 352.8002,201.1063 Q352.1127,202.1688 352.1127,204.2625 Q352.1127,206.3563 352.8002,207.4344 Q353.4877,208.4969 354.8315,208.4969 Q355.4565,208.4969 356.0502,208.2313 Q356.644,207.95 357.269,207.3719 L357.269,210.0906 Z " fill="#000000"/><text fill="#000000" font-family="sans-serif" font-size="14" lengthAdjust="spacing" textLength="99.2578" x="369.6047" y="209.2967">EmployeeLeaf</text><line style="stroke:#181818;stroke-width:0.5;" x1="334.43" x2="476.7327" y1="220.45" y2="220.45"/><text fill="#000000" font-family="sans-serif" font-size="14" lengthAdjust="spacing" textLength="119.0752" x="339.43" y="237.4451">attendance: long</text><line style="stroke:#181818;stroke-width:0.5;" x1="334.43" x2="476.7327" y1="244.7469" y2="244.7469"/><ellipse cx="344.43" cy="258.3953" fill="#84BE84" rx="3" ry="3" style="stroke:#038048;stroke-width:1;"/><text fill="#000000" font-family="sans-serif" font-size="14" lengthAdjust="spacing" textLength="118.3027" x="353.43" y="261.742">punchOut(): void</text><ellipse cx="344.43" cy="274.6922" fill="#84BE84" rx="3" ry="3" style="stroke:#038048;stroke-width:1;"/><text fill="#000000" font-family="sans-serif" font-size="14" lengthAdjust="spacing" textLength="105.9229" x="353.43" y="278.0389">punchIn(): void</text></g><!--link DepartmentComposite to AttendanceComponent--><g class="link" data-entity-1="DepartmentComposite" data-entity-2="AttendanceComponent" data-source-line="23" data-uid="lnk5" id="link_DepartmentComposite_AttendanceComponent"><path codeLine="23" d="M184.91,171.88 C184.91,152.31 184.91,149.08 184.91,130.4" fill="none" id="DepartmentComposite-to-AttendanceComponent" style="stroke:#008200;stroke-width:1;stroke-dasharray:7,7;"/><polygon fill="none" points="184.91,112.4,178.91,130.4,190.91,130.4,184.91,112.4" style="stroke:#008200;stroke-width:1;"/></g><!--link AttendanceComponent to DepartmentComposite--><g class="link" data-entity-1="AttendanceComponent" data-entity-2="DepartmentComposite" data-source-line="24" data-uid="lnk7" id="link_AttendanceComponent_DepartmentComposite"><path codeLine="24" d="M120.25,118.3 C120.25,136.98 120.25,140.23 120.25,159.82" fill="none" id="AttendanceComponent-DepartmentComposite" style="stroke:#595959;stroke-width:1;"/><polygon fill="#595959" points="120.25,112.3,116.25,121.3,120.25,117.3,124.25,121.3,120.25,112.3" style="stroke:#595959;stroke-width:1;"/><polygon fill="#595959" points="120.25,171.82,124.25,165.82,120.25,159.82,116.25,165.82,120.25,171.82" style="stroke:#595959;stroke-width:1;"/><text fill="#000000" font-family="sans-serif" font-size="13" lengthAdjust="spacing" textLength="80.3169" x="31.9057" y="132.2126">components</text><text fill="#000000" font-family="sans-serif" font-size="13" lengthAdjust="spacing" textLength="6.5" x="68.8141" y="147.3454">*</text><text fill="#000000" font-family="sans-serif" font-size="13" lengthAdjust="spacing" textLength="8.271" x="108.2913" y="160.9555">1</text></g><!--reverse link AttendanceComponent to EmployeeLeaf--><g class="link" data-entity-1="AttendanceComponent" data-entity-2="EmployeeLeaf" data-source-line="25" data-uid="lnk9" id="link_AttendanceComponent_EmployeeLeaf"><path codeLine="25" d="M268.03,59.64 C339.31,59.64 405.58,59.64 405.58,59.64 C405.58,59.64 405.58,135.52 405.58,187.99" fill="none" id="AttendanceComponent-backto-EmployeeLeaf" style="stroke:#008200;stroke-width:1;stroke-dasharray:7,7;"/><polygon fill="none" points="250.03,59.64,268.03,65.64,268.03,53.64,250.03,59.64" style="stroke:#008200;stroke-width:1;"/></g><!--SRC=[fP51ImCn48Nl-HN3Ugcr2wiWQ2aBKZq8WZz0AwJ9j1kwcGd9RA68_zsjKBl5q8l9RVBUc-yHuG32i6GHzc1TH2EEIQMDew2Zzh3KPhEEt96TSyiH96fA_HEI35Ij8vHTGE0e3IlbI32kj45u446ocWpEsGUctWUp6Hm5TGsV2k0AGaUcUQRHvHIsxEnnzjh9O0ZwDt4ABTDQVIdJwfJW4NiOyVs6drN92VutUY-Cw7cBeqoHOPoszfpamFZaGyixn1VKgo7SAKYEEDTRvIf3-NPHLNStLJMnEZLe5-K7PFyXQo-k2nZt4RVt-pi9hNQqw49PGs4EplHEuo8VULBmSFuGzNbvfcy0]--></g></svg>