<svg xmlns="http://www.w3.org/2000/svg" xmlns:xlink="http://www.w3.org/1999/xlink" contentStyleType="text/css" data-diagram-type="CLASS" height="408px" preserveAspectRatio="none" style="width:737px;height:408px;" version="1.1" viewBox="0 0 737 408" width="737px" zoomAndPan="magnify"><defs/><g><!--class Client--><g class="entity" data-entity="Client" data-source-line="5" data-uid="ent0002" id="entity_Client"><rect fill="#F1F1F1" height="48" rx="2.5" ry="2.5" style="stroke:#181818;stroke-width:0.5;" width="72.5303" x="377.51" y="47.53"/><ellipse cx="392.51" cy="63.53" fill="#ADD1B2" rx="11" ry="11" style="stroke:#181818;stroke-width:1;"/><path d="M395.4788,69.1706 Q394.9006,69.4675 394.26,69.6081 Q393.6194,69.7644 392.9163,69.7644 Q390.4163,69.7644 389.0881,68.1237 Q387.7756,66.4675 387.7756,63.3425 Q387.7756,60.2175 389.0881,58.5612 Q390.4163,56.905 392.9163,56.905 Q393.6194,56.905 394.26,57.0612 Q394.9163,57.2175 395.4788,57.5144 L395.4788,60.2331 Q394.8538,59.655 394.26,59.3894 Q393.6663,59.1081 393.0413,59.1081 Q391.6975,59.1081 391.01,60.1862 Q390.3225,61.2487 390.3225,63.3425 Q390.3225,65.4362 391.01,66.5144 Q391.6975,67.5769 393.0413,67.5769 Q393.6663,67.5769 394.26,67.3112 Q394.8538,67.03 395.4788,66.4519 L395.4788,69.1706 Z " fill="#000000"/><text fill="#000000" font-family="sans-serif" font-size="14" lengthAdjust="spacing" textLength="40.5303" x="406.51" y="68.3767">Client</text><line style="stroke:#181818;stroke-width:0.5;" x1="378.51" x2="449.0403" y1="79.53" y2="79.53"/><line style="stroke:#181818;stroke-width:0.5;" x1="378.51" x2="449.0403" y1="87.53" y2="87.53"/></g><!--class Visitor--><g class="entity" data-entity="Visitor" data-source-line="7" data-uid="ent0003" id="entity_Visitor"><rect fill="#F1F1F1" height="80.5938" rx="2.5" ry="2.5" style="stroke:#181818;stroke-width:0.5;" width="299.5537" x="31" y="31.23"/><ellipse cx="154.2964" cy="47.23" fill="#B4A7E5" rx="11" ry="11" style="stroke:#181818;stroke-width:1;"/><path d="M150.2183,42.9956 L150.2183,40.8394 L157.6089,40.8394 L157.6089,42.9956 L155.1401,42.9956 L155.1401,51.0737 L157.6089,51.0737 L157.6089,53.23 L150.2183,53.23 L150.2183,51.0737 L152.687,51.0737 L152.687,42.9956 L150.2183,42.9956 Z " fill="#000000"/><text fill="#000000" font-family="sans-serif" font-size="14" font-style="italic" lengthAdjust="spacing" textLength="44.4609" x="174.7964" y="52.0767">Visitor</text><line style="stroke:#181818;stroke-width:0.5;" x1="32" x2="329.5537" y1="63.23" y2="63.23"/><line style="stroke:#181818;stroke-width:0.5;" x1="32" x2="329.5537" y1="71.23" y2="71.23"/><ellipse cx="42" cy="84.8784" fill="#84BE84" rx="3" ry="3" style="stroke:#038048;stroke-width:1;"/><text fill="#000000" font-family="sans-serif" font-size="14" lengthAdjust="spacing" textLength="273.1914" x="51" y="88.2251">visitElementA(in a :ConcreteElementA)</text><ellipse cx="42" cy="101.1753" fill="#84BE84" rx="3" ry="3" style="stroke:#038048;stroke-width:1;"/><text fill="#000000" font-family="sans-serif" font-size="14" lengthAdjust="spacing" textLength="273.5537" x="51" y="104.522">visitElementB(in b :ConcreteElementB)</text></g><!--class ConcreteVisitor--><g class="entity" data-entity="ConcreteVisitor" data-source-line="12" data-uid="ent0004" id="entity_ConcreteVisitor"><rect fill="#F1F1F1" height="80.5938" rx="2.5" ry="2.5" style="stroke:#181818;stroke-width:0.5;" width="299.5537" x="7" y="197.06"/><ellipse cx="98.605" cy="213.06" fill="#ADD1B2" rx="11" ry="11" style="stroke:#181818;stroke-width:1;"/><path d="M101.5737,218.7006 Q100.9956,218.9975 100.355,219.1381 Q99.7144,219.2944 99.0112,219.2944 Q96.5112,219.2944 95.1831,217.6538 Q93.8706,215.9975 93.8706,212.8725 Q93.8706,209.7475 95.1831,208.0913 Q96.5112,206.435 99.0112,206.435 Q99.7144,206.435 100.355,206.5913 Q101.0112,206.7475 101.5737,207.0444 L101.5737,209.7631 Q100.9487,209.185 100.355,208.9194 Q99.7612,208.6381 99.1362,208.6381 Q97.7925,208.6381 97.105,209.7163 Q96.4175,210.7788 96.4175,212.8725 Q96.4175,214.9663 97.105,216.0444 Q97.7925,217.1069 99.1362,217.1069 Q99.7612,217.1069 100.355,216.8413 Q100.9487,216.56 101.5737,215.9819 L101.5737,218.7006 Z " fill="#000000"/><text fill="#000000" font-family="sans-serif" font-size="14" lengthAdjust="spacing" textLength="107.8438" x="119.105" y="217.9067">ConcreteVisitor</text><line style="stroke:#181818;stroke-width:0.5;" x1="8" x2="305.5537" y1="229.06" y2="229.06"/><line style="stroke:#181818;stroke-width:0.5;" x1="8" x2="305.5537" y1="237.06" y2="237.06"/><ellipse cx="18" cy="250.7084" fill="#84BE84" rx="3" ry="3" style="stroke:#038048;stroke-width:1;"/><text fill="#000000" font-family="sans-serif" font-size="14" lengthAdjust="spacing" textLength="273.1914" x="27" y="254.0551">visitElementA(in a :ConcreteElementA)</text><ellipse cx="18" cy="267.0053" fill="#84BE84" rx="3" ry="3" style="stroke:#038048;stroke-width:1;"/><text fill="#000000" font-family="sans-serif" font-size="14" lengthAdjust="spacing" textLength="273.5537" x="27" y="270.352">visitElementB(in b :ConcreteElementB)</text></g><!--class Element--><g class="entity" data-entity="Element" data-source-line="17" data-uid="ent0005" id="entity_Element"><rect fill="#F1F1F1" height="64.2969" rx="2.5" ry="2.5" style="stroke:#181818;stroke-width:0.5;" width="167.4629" x="342.05" y="205.21"/><ellipse cx="392.5505" cy="221.21" fill="#B4A7E5" rx="11" ry="11" style="stroke:#181818;stroke-width:1;"/><path d="M388.4724,216.9756 L388.4724,214.8194 L395.863,214.8194 L395.863,216.9756 L393.3942,216.9756 L393.3942,225.0537 L395.863,225.0537 L395.863,227.21 L388.4724,227.21 L388.4724,225.0537 L390.9411,225.0537 L390.9411,216.9756 L388.4724,216.9756 Z " fill="#000000"/><text fill="#000000" font-family="sans-serif" font-size="14" font-style="italic" lengthAdjust="spacing" textLength="57.9619" x="413.0505" y="226.0567">Element</text><line style="stroke:#181818;stroke-width:0.5;" x1="343.05" x2="508.5129" y1="237.21" y2="237.21"/><line style="stroke:#181818;stroke-width:0.5;" x1="343.05" x2="508.5129" y1="245.21" y2="245.21"/><ellipse cx="353.05" cy="258.8584" fill="#84BE84" rx="3" ry="3" style="stroke:#038048;stroke-width:1;"/><text fill="#000000" font-family="sans-serif" font-size="14" lengthAdjust="spacing" textLength="141.4629" x="362.05" y="262.2051">accept(in v : Visitor)</text></g><!--class ConcreteElementA--><g class="entity" data-entity="ConcreteElementA" data-source-line="21" data-uid="ent0006" id="entity_ConcreteElementA"><rect fill="#F1F1F1" height="64.2969" rx="2.5" ry="2.5" style="stroke:#181818;stroke-width:0.5;" width="167.4629" x="241.05" y="337.65"/><ellipse cx="258.0935" cy="353.65" fill="#ADD1B2" rx="11" ry="11" style="stroke:#181818;stroke-width:1;"/><path d="M261.0622,359.2906 Q260.4841,359.5875 259.8435,359.7281 Q259.2028,359.8844 258.4997,359.8844 Q255.9997,359.8844 254.6716,358.2438 Q253.3591,356.5875 253.3591,353.4625 Q253.3591,350.3375 254.6716,348.6813 Q255.9997,347.025 258.4997,347.025 Q259.2028,347.025 259.8435,347.1813 Q260.4997,347.3375 261.0622,347.6344 L261.0622,350.3531 Q260.4372,349.775 259.8435,349.5094 Q259.2497,349.2281 258.6247,349.2281 Q257.281,349.2281 256.5935,350.3063 Q255.906,351.3688 255.906,353.4625 Q255.906,355.5563 256.5935,356.6344 Q257.281,357.6969 258.6247,357.6969 Q259.2497,357.6969 259.8435,357.4313 Q260.4372,357.15 261.0622,356.5719 L261.0622,359.2906 Z " fill="#000000"/><text fill="#000000" font-family="sans-serif" font-size="14" lengthAdjust="spacing" textLength="130.9219" x="272.5476" y="358.4967">ConcreteElementA</text><line style="stroke:#181818;stroke-width:0.5;" x1="242.05" x2="407.5129" y1="369.65" y2="369.65"/><line style="stroke:#181818;stroke-width:0.5;" x1="242.05" x2="407.5129" y1="377.65" y2="377.65"/><ellipse cx="252.05" cy="391.2984" fill="#84BE84" rx="3" ry="3" style="stroke:#038048;stroke-width:1;"/><text fill="#000000" font-family="sans-serif" font-size="14" lengthAdjust="spacing" textLength="141.4629" x="261.05" y="394.6451">accept(in v : Visitor)</text></g><!--class ConcreteElementB--><g class="entity" data-entity="ConcreteElementB" data-source-line="25" data-uid="ent0007" id="entity_ConcreteElementB"><rect fill="#F1F1F1" height="64.2969" rx="2.5" ry="2.5" style="stroke:#181818;stroke-width:0.5;" width="167.4629" x="443.05" y="337.65"/><ellipse cx="460.0812" cy="353.65" fill="#ADD1B2" rx="11" ry="11" style="stroke:#181818;stroke-width:1;"/><path d="M463.0499,359.2906 Q462.4718,359.5875 461.8312,359.7281 Q461.1905,359.8844 460.4874,359.8844 Q457.9874,359.8844 456.6593,358.2438 Q455.3468,356.5875 455.3468,353.4625 Q455.3468,350.3375 456.6593,348.6813 Q457.9874,347.025 460.4874,347.025 Q461.1905,347.025 461.8312,347.1813 Q462.4874,347.3375 463.0499,347.6344 L463.0499,350.3531 Q462.4249,349.775 461.8312,349.5094 Q461.2374,349.2281 460.6124,349.2281 Q459.2687,349.2281 458.5812,350.3063 Q457.8937,351.3688 457.8937,353.4625 Q457.8937,355.5563 458.5812,356.6344 Q459.2687,357.6969 460.6124,357.6969 Q461.2374,357.6969 461.8312,357.4313 Q462.4249,357.15 463.0499,356.5719 L463.0499,359.2906 Z " fill="#000000"/><text fill="#000000" font-family="sans-serif" font-size="14" lengthAdjust="spacing" textLength="130.9492" x="474.5325" y="358.4967">ConcreteElementB</text><line style="stroke:#181818;stroke-width:0.5;" x1="444.05" x2="609.5129" y1="369.65" y2="369.65"/><line style="stroke:#181818;stroke-width:0.5;" x1="444.05" x2="609.5129" y1="377.65" y2="377.65"/><ellipse cx="454.05" cy="391.2984" fill="#84BE84" rx="3" ry="3" style="stroke:#038048;stroke-width:1;"/><text fill="#000000" font-family="sans-serif" font-size="14" lengthAdjust="spacing" textLength="141.4629" x="463.05" y="394.6451">accept(in v : Visitor)</text></g><g class="entity" data-entity="N1" data-source-line="36" data-uid="ent0013" id="entity_N1"><path d="M485.39,6 L485.39,137.0625 L730.1639,137.0625 L730.1639,16 L720.1639,6 L485.39,6" fill="#FEFFDD" style="stroke:#181818;stroke-width:0.5;"/><path d="M720.1639,6 L720.1639,16 L730.1639,16 L720.1639,6" fill="#FEFFDD" style="stroke:#181818;stroke-width:1;"/><text fill="#4169E1" font-family="sans-serif" font-size="13" font-weight="bold" lengthAdjust="spacing" textLength="48.2676" x="491.39" y="23.0669">Visitor</text><text fill="#000000" font-family="sans-serif" font-size="13" font-weight="bold" lengthAdjust="spacing" textLength="40.6631" x="491.39" y="38.1997">Type:</text><text fill="#000000" font-family="sans-serif" font-size="13" lengthAdjust="spacing" textLength="69.3037" x="536.1854" y="38.1997">Behavioral</text><text fill="#000000" font-family="sans-serif" font-size="13" lengthAdjust="spacing" textLength="191.1851" x="491.39" y="53.3325">Represent an operation to be</text><text fill="#000000" font-family="sans-serif" font-size="13" lengthAdjust="spacing" textLength="215.687" x="491.39" y="68.4653">performed on the elements of an</text><text fill="#000000" font-family="sans-serif" font-size="13" lengthAdjust="spacing" textLength="223.7739" x="491.39" y="83.5981">object structure. Lets you define a</text><text fill="#000000" font-family="sans-serif" font-size="13" lengthAdjust="spacing" textLength="210.501" x="491.39" y="98.731">new operation without changing</text><text fill="#000000" font-family="sans-serif" font-size="13" lengthAdjust="spacing" textLength="199.4751" x="491.39" y="113.8638">the classes of the elements on</text><text fill="#000000" font-family="sans-serif" font-size="13" lengthAdjust="spacing" textLength="116.3589" x="491.39" y="128.9966">which it operates.</text></g><!--reverse link Visitor to Client--><g class="link" data-entity-1="Visitor" data-entity-2="Client" data-source-line="29" data-uid="lnk8" id="link_Visitor_Client"><path codeLine="29" d="M336.97,71.95 C354.06,71.95 364.08,71.95 377.4,71.95" fill="none" id="Visitor-backto-Client" style="stroke:#181818;stroke-width:1;"/><polygon fill="#181818" points="330.97,71.95,339.97,75.95,335.97,71.95,339.97,67.95,330.97,71.95" style="stroke:#181818;stroke-width:1;"/></g><!--reverse link Visitor to ConcreteVisitor--><g class="link" data-entity-1="Visitor" data-entity-2="ConcreteVisitor" data-source-line="30" data-uid="lnk9" id="link_Visitor_ConcreteVisitor"><path codeLine="30" d="M168.78,130.09 C168.78,155.79 168.78,170.91 168.78,196.63" fill="none" id="Visitor-backto-ConcreteVisitor" style="stroke:#181818;stroke-width:1;"/><polygon fill="none" points="168.78,112.09,162.78,130.09,174.78,130.09,168.78,112.09" style="stroke:#181818;stroke-width:1;"/></g><!--link Client to Element--><g class="link" data-entity-1="Client" data-entity-2="Element" data-source-line="31" data-uid="lnk10" id="link_Client_Element"><path codeLine="31" d="M413.78,96 C413.78,124.83 413.78,166.84 413.78,198.79" fill="none" id="Client-to-Element" style="stroke:#181818;stroke-width:1;"/><polygon fill="#181818" points="413.78,204.79,417.78,195.79,413.78,199.79,409.78,195.79,413.78,204.79" style="stroke:#181818;stroke-width:1;"/></g><!--reverse link Element to ConcreteElementA--><g class="link" data-entity-1="Element" data-entity-2="ConcreteElementA" data-source-line="32" data-uid="lnk11" id="link_Element_ConcreteElementA"><path codeLine="32" d="M375.28,287.76 C375.28,308.28 375.28,316.73 375.28,337.28" fill="none" id="Element-backto-ConcreteElementA" style="stroke:#181818;stroke-width:1;"/><polygon fill="none" points="375.28,269.76,369.28,287.76,381.28,287.76,375.28,269.76" style="stroke:#181818;stroke-width:1;"/></g><!--reverse link Element to ConcreteElementB--><g class="link" data-entity-1="Element" data-entity-2="ConcreteElementB" data-source-line="33" data-uid="lnk12" id="link_Element_ConcreteElementB"><path codeLine="33" d="M476.28,287.76 C476.28,308.28 476.28,316.73 476.28,337.28" fill="none" id="Element-backto-ConcreteElementB" style="stroke:#181818;stroke-width:1;"/><polygon fill="none" points="476.28,269.76,470.28,287.76,482.28,287.76,476.28,269.76" style="stroke:#181818;stroke-width:1;"/></g><!--SRC=[lPB1JiCm38RlUGeVcL2Pk5PL9JfnGnmGufvctXgMnLNYRgg0ToV9bi9WGeW3kUNtv_osOx_HjfTERg6LQhDsDDZbWWmvO2Uj3o6qBFn46MsHnnwX9pF6oxaOEUv826Mazx0mEZuXj6LqAwaGdhJN71nU18Hp2RjulpMu3TpDXROWeLoGLGuPipmxmpQHRR-npKoyJUR7qBzOVdHub2SxgHJs77DtKER-pvIPhV-QsFmYCO-YAlBNJCfhKNoTc3WmK1HrxahaxaxuNFgFqKO8IumWFTnVfqghjgvKtBVIqIXDOmQiZzRLF0NgQjxMcNqCwrL60Hhiv4wJaoR57h1twAElj40zEicQB311Yma8qehS5fSGvGu13oLve5N8IGorpwWOFBj1yU3m2kum02CDiCHLs6wGYREu_-Inrs7R1mRLIRlMTfsGw92-29F1gU71RTzfrO7curFehw8gq2uX3kaT]--></g></svg>