<svg xmlns="http://www.w3.org/2000/svg" xmlns:xlink="http://www.w3.org/1999/xlink" contentStyleType="text/css" data-diagram-type="CLASS" height="346px" preserveAspectRatio="none" style="width:690px;height:346px;" version="1.1" viewBox="0 0 690 346" width="690px" zoomAndPan="magnify"><defs/><g><!--class Client--><g class="entity" data-entity="Client" data-source-line="5" data-uid="ent0002" id="entity_Client"><rect fill="#F1F1F1" height="32" rx="2.5" ry="2.5" style="stroke:#181818;stroke-width:0.5;" width="72.5303" x="279.78" y="40.4"/><ellipse cx="294.78" cy="56.4" fill="#ADD1B2" rx="11" ry="11" style="stroke:#181818;stroke-width:1;"/><path d="M297.7488,62.0406 Q297.1706,62.3375 296.53,62.4781 Q295.8894,62.6344 295.1863,62.6344 Q292.6863,62.6344 291.3581,60.9937 Q290.0456,59.3375 290.0456,56.2125 Q290.0456,53.0875 291.3581,51.4312 Q292.6863,49.775 295.1863,49.775 Q295.8894,49.775 296.53,49.9312 Q297.1863,50.0875 297.7488,50.3844 L297.7488,53.1031 Q297.1238,52.525 296.53,52.2594 Q295.9363,51.9781 295.3113,51.9781 Q293.9675,51.9781 293.28,53.0562 Q292.5925,54.1187 292.5925,56.2125 Q292.5925,58.3062 293.28,59.3844 Q293.9675,60.4469 295.3113,60.4469 Q295.9363,60.4469 296.53,60.1812 Q297.1238,59.9 297.7488,59.3219 L297.7488,62.0406 Z " fill="#000000"/><text fill="#000000" font-family="sans-serif" font-size="14" lengthAdjust="spacing" textLength="40.5303" x="308.78" y="61.2467">Client</text></g><!--class Context--><g class="entity" data-entity="Context" data-source-line="7" data-uid="ent0003" id="entity_Context"><rect fill="#F1F1F1" height="32" rx="2.5" ry="2.5" style="stroke:#181818;stroke-width:0.5;" width="87.0908" x="157.5" y="40.4"/><ellipse cx="172.5" cy="56.4" fill="#ADD1B2" rx="11" ry="11" style="stroke:#181818;stroke-width:1;"/><path d="M175.4688,62.0406 Q174.8906,62.3375 174.25,62.4781 Q173.6094,62.6344 172.9063,62.6344 Q170.4063,62.6344 169.0781,60.9937 Q167.7656,59.3375 167.7656,56.2125 Q167.7656,53.0875 169.0781,51.4312 Q170.4063,49.775 172.9063,49.775 Q173.6094,49.775 174.25,49.9312 Q174.9063,50.0875 175.4688,50.3844 L175.4688,53.1031 Q174.8438,52.525 174.25,52.2594 Q173.6563,51.9781 173.0313,51.9781 Q171.6875,51.9781 171,53.0562 Q170.3125,54.1187 170.3125,56.2125 Q170.3125,58.3062 171,59.3844 Q171.6875,60.4469 173.0313,60.4469 Q173.6563,60.4469 174.25,60.1812 Q174.8438,59.9 175.4688,59.3219 L175.4688,62.0406 Z " fill="#000000"/><text fill="#000000" font-family="sans-serif" font-size="14" lengthAdjust="spacing" textLength="55.0908" x="186.5" y="61.2467">Context</text></g><!--class AbstractExpression--><g class="entity" data-entity="AbstractExpression" data-source-line="9" data-uid="ent0004" id="entity_AbstractExpression"><rect fill="#F1F1F1" height="56.2969" rx="2.5" ry="2.5" style="stroke:#181818;stroke-width:0.5;" width="167.0713" x="232.51" y="166.8"/><ellipse cx="247.51" cy="182.8" fill="#B4A7E5" rx="11" ry="11" style="stroke:#181818;stroke-width:1;"/><path d="M243.4319,178.5656 L243.4319,176.4094 L250.8225,176.4094 L250.8225,178.5656 L248.3538,178.5656 L248.3538,186.6437 L250.8225,186.6437 L250.8225,188.8 L243.4319,188.8 L243.4319,186.6437 L245.9006,186.6437 L245.9006,178.5656 L243.4319,178.5656 Z " fill="#000000"/><text fill="#000000" font-family="sans-serif" font-size="14" font-style="italic" lengthAdjust="spacing" textLength="135.0713" x="261.51" y="187.6467">AbstractExpression</text><line style="stroke:#181818;stroke-width:0.5;" x1="233.51" x2="398.5813" y1="198.8" y2="198.8"/><ellipse cx="243.51" cy="212.4484" fill="#84BE84" rx="3" ry="3" style="stroke:#038048;stroke-width:1;"/><text fill="#000000" font-family="sans-serif" font-size="14" lengthAdjust="spacing" textLength="72.29" x="252.51" y="215.7951">interpret()</text></g><!--class TerminalExpression--><g class="entity" data-entity="TerminalExpression" data-source-line="13" data-uid="ent0005" id="entity_TerminalExpression"><rect fill="#F1F1F1" height="56.2969" rx="2.5" ry="2.5" style="stroke:#181818;stroke-width:0.5;" width="170.0928" x="7" y="283.09"/><ellipse cx="22" cy="299.09" fill="#ADD1B2" rx="11" ry="11" style="stroke:#181818;stroke-width:1;"/><path d="M24.9688,304.7306 Q24.3906,305.0275 23.75,305.1681 Q23.1094,305.3244 22.4063,305.3244 Q19.9063,305.3244 18.5781,303.6838 Q17.2656,302.0275 17.2656,298.9025 Q17.2656,295.7775 18.5781,294.1213 Q19.9063,292.465 22.4063,292.465 Q23.1094,292.465 23.75,292.6213 Q24.4063,292.7775 24.9688,293.0744 L24.9688,295.7931 Q24.3438,295.215 23.75,294.9494 Q23.1563,294.6681 22.5313,294.6681 Q21.1875,294.6681 20.5,295.7463 Q19.8125,296.8088 19.8125,298.9025 Q19.8125,300.9963 20.5,302.0744 Q21.1875,303.1369 22.5313,303.1369 Q23.1563,303.1369 23.75,302.8713 Q24.3438,302.59 24.9688,302.0119 L24.9688,304.7306 Z " fill="#000000"/><text fill="#000000" font-family="sans-serif" font-size="14" lengthAdjust="spacing" textLength="138.0928" x="36" y="303.9367">TerminalExpression</text><line style="stroke:#181818;stroke-width:0.5;" x1="8" x2="176.0928" y1="315.09" y2="315.09"/><ellipse cx="18" cy="328.7384" fill="#84BE84" rx="3" ry="3" style="stroke:#038048;stroke-width:1;"/><text fill="#000000" font-family="sans-serif" font-size="14" lengthAdjust="spacing" textLength="140.998" x="27" y="332.0851">interpret() : Context</text></g><!--class NonterminalExpression--><g class="entity" data-entity="NonterminalExpression" data-source-line="17" data-uid="ent0006" id="entity_NonterminalExpression"><rect fill="#F1F1F1" height="56.2969" rx="2.5" ry="2.5" style="stroke:#181818;stroke-width:0.5;" width="207.4395" x="212.33" y="283.09"/><ellipse cx="232.9541" cy="299.09" fill="#ADD1B2" rx="11" ry="11" style="stroke:#181818;stroke-width:1;"/><path d="M235.9229,304.7306 Q235.3447,305.0275 234.7041,305.1681 Q234.0635,305.3244 233.3604,305.3244 Q230.8604,305.3244 229.5322,303.6838 Q228.2197,302.0275 228.2197,298.9025 Q228.2197,295.7775 229.5322,294.1213 Q230.8604,292.465 233.3604,292.465 Q234.0635,292.465 234.7041,292.6213 Q235.3604,292.7775 235.9229,293.0744 L235.9229,295.7931 Q235.2979,295.215 234.7041,294.9494 Q234.1104,294.6681 233.4854,294.6681 Q232.1416,294.6681 231.4541,295.7463 Q230.7666,296.8088 230.7666,298.9025 Q230.7666,300.9963 231.4541,302.0744 Q232.1416,303.1369 233.4854,303.1369 Q234.1104,303.1369 234.7041,302.8713 Q235.2979,302.59 235.9229,302.0119 L235.9229,304.7306 Z " fill="#000000"/><text fill="#000000" font-family="sans-serif" font-size="14" lengthAdjust="spacing" textLength="162.9414" x="248.2039" y="303.9367">NonterminalExpression</text><line style="stroke:#181818;stroke-width:0.5;" x1="213.33" x2="418.7695" y1="315.09" y2="315.09"/><ellipse cx="223.33" cy="328.7384" fill="#84BE84" rx="3" ry="3" style="stroke:#038048;stroke-width:1;"/><text fill="#000000" font-family="sans-serif" font-size="14" lengthAdjust="spacing" textLength="181.4395" x="232.33" y="332.0851">factoryMethod() : Context</text></g><g class="entity" data-entity="N1" data-source-line="30" data-uid="ent0012" id="entity_N1"><path d="M386.82,6 L386.82,106.7969 L683.2765,106.7969 L683.2765,16 L673.2765,6 L386.82,6" fill="#FEFFDD" style="stroke:#181818;stroke-width:0.5;"/><path d="M673.2765,6 L673.2765,16 L683.2765,16 L673.2765,6" fill="#FEFFDD" style="stroke:#181818;stroke-width:1;"/><text fill="#4169E1" font-family="sans-serif" font-size="13" font-weight="bold" lengthAdjust="spacing" textLength="81.5103" x="392.82" y="23.0669">Interpreter</text><text fill="#000000" font-family="sans-serif" font-size="13" font-weight="bold" lengthAdjust="spacing" textLength="40.6631" x="392.82" y="38.1997">Type:</text><text fill="#000000" font-family="sans-serif" font-size="13" lengthAdjust="spacing" textLength="69.3037" x="437.6154" y="38.1997">Behavioral</text><text fill="#000000" font-family="sans-serif" font-size="13" lengthAdjust="spacing" textLength="275.4565" x="392.82" y="53.3325">Given a language, define a representation</text><text fill="#000000" font-family="sans-serif" font-size="13" lengthAdjust="spacing" textLength="268.4868" x="392.82" y="68.4653">for its grammar along with an interpreter</text><text fill="#000000" font-family="sans-serif" font-size="13" lengthAdjust="spacing" textLength="264.126" x="392.82" y="83.5981">that uses the representation to interpret</text><text fill="#000000" font-family="sans-serif" font-size="13" lengthAdjust="spacing" textLength="176.5029" x="392.82" y="98.731">sentences in the language.</text></g><!--reverse link Context to Client--><g class="link" data-entity-1="Context" data-entity-2="Client" data-source-line="23" data-uid="lnk7" id="link_Context_Client"><path codeLine="23" d="M250.85,57.39 C262.28,57.39 268.47,57.39 279.47,57.39" fill="none" id="Context-backto-Client" style="stroke:#181818;stroke-width:1;"/><polygon fill="#181818" points="244.85,57.39,253.85,61.39,249.85,57.39,253.85,53.39,244.85,57.39" style="stroke:#181818;stroke-width:1;"/></g><!--link Client to AbstractExpression--><g class="link" data-entity-1="Client" data-entity-2="AbstractExpression" data-source-line="24" data-uid="lnk8" id="link_Client_AbstractExpression"><path codeLine="24" d="M316.05,72.84 C316.05,95.92 316.05,132.26 316.05,160.51" fill="none" id="Client-to-AbstractExpression" style="stroke:#181818;stroke-width:1;"/><polygon fill="#181818" points="316.05,166.51,320.05,157.51,316.05,161.51,312.05,157.51,316.05,166.51" style="stroke:#181818;stroke-width:1;"/></g><!--reverse link AbstractExpression to TerminalExpression--><g class="link" data-entity-1="AbstractExpression" data-entity-2="TerminalExpression" data-source-line="25" data-uid="lnk9" id="link_AbstractExpression_TerminalExpression"><path codeLine="25" d="M214.11,195.39 C180.37,195.39 167.3,195.39 167.3,195.39 C167.3,195.39 167.3,248.3 167.3,282.6" fill="none" id="AbstractExpression-backto-TerminalExpression" style="stroke:#181818;stroke-width:1;"/><polygon fill="none" points="232.11,195.39,214.11,189.39,214.11,201.39,232.11,195.39" style="stroke:#181818;stroke-width:1;"/></g><!--reverse link AbstractExpression to NonterminalExpression--><g class="link" data-entity-1="AbstractExpression" data-entity-2="NonterminalExpression" data-source-line="26" data-uid="lnk10" id="link_AbstractExpression_NonterminalExpression"><path codeLine="26" d="M288.2,241.39 C288.2,259.42 288.2,264.64 288.2,282.68" fill="none" id="AbstractExpression-backto-NonterminalExpression" style="stroke:#181818;stroke-width:1;"/><polygon fill="none" points="288.2,223.39,282.2,241.39,294.2,241.39,288.2,223.39" style="stroke:#181818;stroke-width:1;"/></g><!--link AbstractExpression to NonterminalExpression--><g class="link" data-entity-1="AbstractExpression" data-entity-2="NonterminalExpression" data-source-line="27" data-uid="lnk11" id="link_AbstractExpression_NonterminalExpression"><path codeLine="27" d="M343.89,223.39 C343.89,241.42 343.89,252.64 343.89,270.68" fill="none" id="AbstractExpression-to-NonterminalExpression" style="stroke:#181818;stroke-width:1;"/><polygon fill="#181818" points="343.89,282.68,347.89,276.68,343.89,270.68,339.89,276.68,343.89,282.68" style="stroke:#181818;stroke-width:1;"/></g><!--SRC=[VPBDJiCm3CVlUGeV-IeJrwcgn2Q4EC1fB-2sNXijTQh46wk0TySfT9DGHo-fxPyT_-t4dUKU0tPGOhLhWjzplVRE1v2073L4B2QUA6UPPEW9Uk-6PCp5V93M6rCvZ17MpgOIa-LPwAYcrJDiiI9uBAFULSdJiGyKe_KC7mRqkuKHKgzSNPklgSI6GcSPtVyyB4ztdJBVakDYiZOZFWolfCtNVmkqjYQWhfS1EkfA2j6Otp3asIJovu0iAsPKcHcX-MUMpGYwYCugcAEpxEO2RDWB0Ueq7aRXULdaLThuClW1tShjgNYPvaWXNup18b-KnSHlTCdBv80LjNYmFg0ROy_sG0m83hdPOqDtKDDMNuMw0gKET3eegOj4R_MLMOdGwEFfC00wpmsyMsa1-RnB2YCjBGhi8qNzep_bGFoP7-aK8gwKjZmcJ2tT6-8QqWo-0G00]--></g></svg>