<?xml version="1.0" encoding="us-ascii" standalone="no"?><svg xmlns="http://www.w3.org/2000/svg" xmlns:xlink="http://www.w3.org/1999/xlink" contentStyleType="text/css" height="272px" preserveAspectRatio="none" style="width:1167px;height:272px;" version="1.1" viewBox="0 0 1167 272" width="1167px" zoomAndPan="magnify"><defs/><g><ellipse cx="55.5" cy="74.56" fill="#222222" rx="10" ry="10" style="stroke:#222222;stroke-width:1.0;"/><path d="M169.5,54.42 L313.5,54.42 A3.5,3.5 0 0 1 317,57.92 L317,80.7169 L166,80.7169 L166,57.92 A3.5,3.5 0 0 1 169.5,54.42 " fill="#F1F1F1" style="stroke:#F1F1F1;stroke-width:1.0;"/><rect fill="none" height="98.2969" rx="3.5" ry="3.5" style="stroke:#181818;stroke-width:0.5;" width="151" x="166" y="54.42"/><line style="stroke:#181818;stroke-width:0.5;" x1="166" x2="317" y1="80.7169" y2="80.7169"/><text fill="#000000" font-family="sans-serif" font-size="14" lengthAdjust="spacing" textLength="30" x="226.5" y="72.4151">New</text><ellipse cx="187" cy="117.7169" fill="#222222" rx="10" ry="10" style="stroke:#222222;stroke-width:1.0;"/><g id="New.Created"><rect fill="#F1F1F1" height="50" rx="3.5" ry="3.5" style="stroke:#181818;stroke-width:0.5;" width="75" x="233" y="92.7169"/><line style="stroke:#181818;stroke-width:0.5;" x1="233" x2="308" y1="119.0137" y2="119.0137"/><text fill="#000000" font-family="sans-serif" font-size="14" lengthAdjust="spacing" textLength="55" x="243" y="110.712">Created</text></g><!--link *start*New to Created--><g id="link_*start*New_Created"><path d="M197.35,117.7169 C206.05,117.7169 213.58,117.7169 226.6,117.7169 " fill="none" id="*start*New-to-Created" style="stroke:#454645;stroke-width:1.0;"/><polygon fill="#454645" points="232.6,117.7169,223.6,113.7169,227.6,117.7169,223.6,121.7169,232.6,117.7169" style="stroke:#454645;stroke-width:1.0;"/></g><g id="Ready"><rect fill="#F1F1F1" height="50" rx="3.5" ry="3.5" style="stroke:#181818;stroke-width:0.5;" width="63" x="431" y="78.56"/><line style="stroke:#181818;stroke-width:0.5;" x1="431" x2="494" y1="104.8569" y2="104.8569"/><text fill="#000000" font-family="sans-serif" font-size="14" lengthAdjust="spacing" textLength="43" x="441" y="96.5551">Ready</text></g><g id="Running"><rect fill="#F1F1F1" height="50" rx="3.5" ry="3.5" style="stroke:#181818;stroke-width:0.5;" width="78" x="651.5" y="154.56"/><line style="stroke:#181818;stroke-width:0.5;" x1="651.5" x2="729.5" y1="180.8569" y2="180.8569"/><text fill="#000000" font-family="sans-serif" font-size="14" lengthAdjust="spacing" textLength="58" x="661.5" y="172.5551">Running</text></g><g id="Waiting"><rect fill="#F1F1F1" height="50" rx="3.5" ry="3.5" style="stroke:#181818;stroke-width:0.5;" width="70" x="877.5" y="82.56"/><line style="stroke:#181818;stroke-width:0.5;" x1="877.5" x2="947.5" y1="108.8569" y2="108.8569"/><text fill="#000000" font-family="sans-serif" font-size="14" lengthAdjust="spacing" textLength="50" x="887.5" y="100.5551">Waiting</text></g><g id="Terminated"><rect fill="#F1F1F1" height="50" rx="3.5" ry="3.5" style="stroke:#181818;stroke-width:0.5;" width="99" x="863" y="182.56"/><line style="stroke:#181818;stroke-width:0.5;" x1="863" x2="962" y1="208.8569" y2="208.8569"/><text fill="#000000" font-family="sans-serif" font-size="14" lengthAdjust="spacing" textLength="79" x="873" y="200.5551">Terminated</text></g><g id="elem_GMN18"><path d="M6,123.5 L6,141.6328 A3.5,3.5 0 0 0 9.5,145.1328 L101.5,145.1328 A3.5,3.5 0 0 0 105,141.6328 L105,138 L165.77,115.34 L105,130 L105,130 L95,120 L9.5,120 A3.5,3.5 0 0 0 6,123.5 " fill="#90EE90" style="stroke:#454645;stroke-width:1.0;"/><path d="M95,120 L95,128.25 A1.75,1.75 0 0 0 96.75,130 L105,130 L95,120 " fill="#90EE90" style="stroke:#454645;stroke-width:1.0;"/><text fill="#454645" font-family="sans-serif" font-size="13" lengthAdjust="spacing" textLength="78" x="12" y="137.0669">&#36827;&#31243;&#21018;&#34987;&#21019;&#24314;</text></g><g id="elem_GMN21"><path d="M636.5,9.5 L636.5,27.6328 A3.5,3.5 0 0 0 640,31.1328 L741,31.1328 A3.5,3.5 0 0 0 744.5,27.6328 L744.5,16 L734.5,6 L640,6 A3.5,3.5 0 0 0 636.5,9.5 " fill="#90EE90" style="stroke:#454645;stroke-width:1.0;"/><path d="M734.5,6 L734.5,14.25 A1.75,1.75 0 0 0 736.25,16 L744.5,16 L734.5,6 " fill="#90EE90" style="stroke:#454645;stroke-width:1.0;"/><text fill="#454645" font-family="sans-serif" font-size="13" lengthAdjust="spacing" textLength="87" x="642.5" y="23.0669">&#31561;&#24453; CPU &#35843;&#24230;</text></g><g id="elem_GMN24"><path d="M426,229.5 L426,247.6328 A3.5,3.5 0 0 0 429.5,251.1328 L495.5,251.1328 A3.5,3.5 0 0 0 499,247.6328 L499,236 L489,226 L429.5,226 A3.5,3.5 0 0 0 426,229.5 " fill="#90EE90" style="stroke:#454645;stroke-width:1.0;"/><path d="M489,226 L489,234.25 A1.75,1.75 0 0 0 490.75,236 L499,236 L489,226 " fill="#90EE90" style="stroke:#454645;stroke-width:1.0;"/><text fill="#454645" font-family="sans-serif" font-size="13" lengthAdjust="spacing" textLength="52" x="432" y="243.0669">&#27491;&#22312;&#25191;&#34892;</text></g><g id="elem_GMN27"><path d="M1023,98.5 L1023,103.56 L947.63,107.56 L1023,111.56 L1023,116.6328 A3.5,3.5 0 0 0 1026.5,120.1328 L1156.5,120.1328 A3.5,3.5 0 0 0 1160,116.6328 L1160,105 L1150,95 L1026.5,95 A3.5,3.5 0 0 0 1023,98.5 " fill="#90EE90" style="stroke:#454645;stroke-width:1.0;"/><path d="M1150,95 L1150,103.25 A1.75,1.75 0 0 0 1151.75,105 L1160,105 L1150,95 " fill="#90EE90" style="stroke:#454645;stroke-width:1.0;"/><text fill="#454645" font-family="sans-serif" font-size="13" lengthAdjust="spacing" textLength="116" x="1029" y="112.0669">&#31561;&#24453; I/O &#25110;&#20107;&#20214;&#23436;&#25104;</text></g><g id="elem_GMN30"><path d="M628,243.5 L628,261.6328 A3.5,3.5 0 0 0 631.5,265.1328 L749.5,265.1328 A3.5,3.5 0 0 0 753,261.6328 L753,250 L743,240 L751,240 L862.62,217.56 L743,240 L631.5,240 A3.5,3.5 0 0 0 628,243.5 " fill="#90EE90" style="stroke:#454645;stroke-width:1.0;"/><path d="M743,240 L743,248.25 A1.75,1.75 0 0 0 744.75,250 L753,250 L743,240 " fill="#90EE90" style="stroke:#454645;stroke-width:1.0;"/><text fill="#454645" font-family="sans-serif" font-size="13" lengthAdjust="spacing" textLength="104" x="634" y="257.0669">&#25191;&#34892;&#23436;&#27605;&#25110;&#34987;&#32456;&#27490;</text></g><!--link *start* to New--><g id="link_*start*_New"><path d="M65.88,76.04 C84.41,78.96 121.333,84.7869 159.953,90.8669 " fill="none" id="*start*-to-New" style="stroke:#454645;stroke-width:1.0;"/><polygon fill="#454645" points="165.88,91.8,157.6116,86.449,160.9408,91.0224,156.3674,94.3517,165.88,91.8" style="stroke:#454645;stroke-width:1.0;"/></g><!--link New to Ready--><g id="link_New_Ready"><path d="M317.25,103.56 C356.04,103.56 395.31,103.56 424.64,103.56 " fill="none" id="New-to-Ready" style="stroke:#454645;stroke-width:1.0;"/><polygon fill="#454645" points="430.64,103.56,421.64,99.56,425.64,103.56,421.64,107.56,430.64,103.56" style="stroke:#454645;stroke-width:1.0;"/><text fill="#000000" font-family="sans-serif" font-size="13" lengthAdjust="spacing" textLength="47" x="348" y="99.6269">admit()</text></g><!--link Ready to Running--><g id="link_Ready_Running"><path d="M494.45,114.56 C505.35,118.4 517.71,122.72 529,126.56 C570.67,140.76 612.9058,154.6495 645.4658,165.2695 " fill="none" id="Ready-to-Running" style="stroke:#454645;stroke-width:1.0;"/><polygon fill="#454645" points="651.17,167.13,643.854,160.5364,646.4165,165.5796,641.3733,168.142,651.17,167.13" style="stroke:#454645;stroke-width:1.0;"/><text fill="#000000" font-family="sans-serif" font-size="13" lengthAdjust="spacing" textLength="67" x="530" y="122.6269">schedule()</text></g><!--link Running to Ready--><g id="link_Running_Ready"><path d="M651.31,186.03 C617.56,189.95 567.81,191.27 529,173.56 C508.26,164.1 494.4867,149.5741 482.8767,133.5941 " fill="none" id="Running-to-Ready" style="stroke:#454645;stroke-width:1.0;"/><polygon fill="#454645" points="479.35,128.74,481.4039,138.3723,482.2889,132.7851,487.8761,133.6701,479.35,128.74" style="stroke:#454645;stroke-width:1.0;"/><text fill="#000000" font-family="sans-serif" font-size="13" lengthAdjust="spacing" textLength="65" x="531" y="169.6269">interrupt()</text></g><!--link Running to Waiting--><g id="link_Running_Waiting"><path d="M729.82,167.02 C771.43,153.4 831.5774,133.7156 871.5274,120.6456 " fill="none" id="Running-to-Waiting" style="stroke:#454645;stroke-width:1.0;"/><polygon fill="#454645" points="877.23,118.78,867.4324,117.7768,872.4779,120.3347,869.9199,125.3802,877.23,118.78" style="stroke:#454645;stroke-width:1.0;"/><text fill="#000000" font-family="sans-serif" font-size="13" lengthAdjust="spacing" textLength="48" x="784" y="130.6269">ioWait()</text></g><!--link Running to Terminated--><g id="link_Running_Terminated"><path d="M729.82,184.44 C766.75,189.14 816.828,195.5124 856.898,200.6124 " fill="none" id="Running-to-Terminated" style="stroke:#454645;stroke-width:1.0;"/><polygon fill="#454645" points="862.85,201.37,854.4271,196.2657,857.89,200.7387,853.417,204.2017,862.85,201.37" style="stroke:#454645;stroke-width:1.0;"/><text fill="#000000" font-family="sans-serif" font-size="13" lengthAdjust="spacing" textLength="33" x="791.5" y="187.6269">exit()</text></g><!--link Waiting to Ready--><g id="link_Waiting_Ready"><path d="M877.15,107.26 C792.52,106.5 581.0498,104.6135 500.2898,103.8935 " fill="none" id="Waiting-to-Ready" style="stroke:#454645;stroke-width:1.0;"/><polygon fill="#454645" points="494.29,103.84,503.254,107.9201,499.2898,103.8846,503.3253,99.9204,494.29,103.84" style="stroke:#454645;stroke-width:1.0;"/><text fill="#000000" font-family="sans-serif" font-size="13" lengthAdjust="spacing" textLength="108" x="636.5" y="100.6269">eventComplete()</text></g><!--link Ready to GMN21--><g id="link_Ready_GMN21"><path d="M494.37,78.33 C504.86,70.75 516.98,63.01 529,57.56 C563.09,42.12 604.13,32.29 636.18,26.36 " fill="none" id="Ready-GMN21" style="stroke:#454645;stroke-width:1.0;stroke-dasharray:7.0,7.0;"/></g><!--link GMN24 to Running--><g id="link_GMN24_Running"><path d="M499.37,234.89 C526.74,231.57 565.19,225.76 598,216.56 C615.98,211.52 635.24,204.07 651.43,197.17 " fill="none" id="GMN24-Running" style="stroke:#454645;stroke-width:1.0;stroke-dasharray:7.0,7.0;"/></g><!--SRC=[TL2nIWD15EptAvwT2i7UmkOg6nLHBCHYpRuaI-vsmzwU6iHAX0j9OQE5iJ621kJKoY81_PdivJx3tRiB2O5qZvatCs_UccvWWA1bc_XOqtO0nUiD3Omhh6ek1GcRNBIeeW6SqsgphcGac2TzgK0hAa9BeT24d6wUGQMo0tjuIKYegKOtmZK1c56UGWipSaE8ennqY9IrOHie2xXUto2a078g4eABkYN3QWDPv6FEb-YYc0kDIaKjPx38dr2k2mSktRn47w4Ak70NsGsyAl9dcaL_lB0DFHcqVDJv4KBQTlc_P2ql393zzQV3hecVii67YVjcF28e6BZDSh_ugnNajbOoJJhczmwyWsF8lc_Dw6rPCKieZxQID7arpyEqyvwzz5RwbnNc2RjR-v36ZvDHTpB-CP-zDBvV5JN_YKlBSvpWwy7gRRFfE4wJmLpy3m00]--></g></svg>