<svg xmlns="http://www.w3.org/2000/svg" xmlns:xlink="http://www.w3.org/1999/xlink" contentStyleType="text/css" data-diagram-type="CLASS" height="335px" preserveAspectRatio="none" style="width:455px;height:335px;" version="1.1" viewBox="0 0 455 335" width="455px" zoomAndPan="magnify"><defs/><g><!--class BlackPiece--><g class="entity" data-entity="BlackPiece" data-source-line="5" data-uid="ent0002" id="entity_BlackPiece"><rect fill="#F1F1F1" height="64.2969" rx="2.5" ry="2.5" style="stroke:#181818;stroke-width:0.5;" width="167.6201" x="7" y="131.3"/><ellipse cx="49.2188" cy="147.3" fill="#ADD1B2" rx="11" ry="11" style="stroke:#181818;stroke-width:1;"/><path d="M52.1876,152.9406 Q51.6095,153.2375 50.9688,153.3781 Q50.3282,153.5344 49.6251,153.5344 Q47.1251,153.5344 45.797,151.8938 Q44.4845,150.2375 44.4845,147.1125 Q44.4845,143.9875 45.797,142.3313 Q47.1251,140.675 49.6251,140.675 Q50.3282,140.675 50.9688,140.8313 Q51.6251,140.9875 52.1876,141.2844 L52.1876,144.0031 Q51.5626,143.425 50.9688,143.1594 Q50.3751,142.8781 49.7501,142.8781 Q48.4063,142.8781 47.7188,143.9563 Q47.0313,145.0188 47.0313,147.1125 Q47.0313,149.2063 47.7188,150.2844 Q48.4063,151.3469 49.7501,151.3469 Q50.3751,151.3469 50.9688,151.0813 Q51.5626,150.8 52.1876,150.2219 L52.1876,152.9406 Z " fill="#000000"/><text fill="#000000" font-family="sans-serif" font-size="14" lengthAdjust="spacing" textLength="75.1338" x="69.2675" y="152.1467">BlackPiece</text><line style="stroke:#181818;stroke-width:0.5;" x1="8" x2="173.6201" y1="163.3" y2="163.3"/><line style="stroke:#181818;stroke-width:0.5;" x1="8" x2="173.6201" y1="171.3" y2="171.3"/><ellipse cx="18" cy="184.9484" fill="#84BE84" rx="3" ry="3" style="stroke:#038048;stroke-width:1;"/><text fill="#000000" font-family="sans-serif" font-size="14" lengthAdjust="spacing" textLength="141.6201" x="27" y="188.2951">render(int, int): void</text></g><!--class Piece--><g class="entity" data-entity="Piece" data-source-line="8" data-uid="ent0003" id="entity_Piece"><rect fill="#F1F1F1" height="72.5625" rx="2.5" ry="2.5" style="stroke:#181818;stroke-width:0.5;" width="167.6201" x="144" y="255.6"/><ellipse cx="191.4585" cy="275.7328" fill="#B4A7E5" rx="11" ry="11" style="stroke:#181818;stroke-width:1;"/><path d="M187.3804,271.4984 L187.3804,269.3422 L194.771,269.3422 L194.771,271.4984 L192.3022,271.4984 L192.3022,279.5766 L194.771,279.5766 L194.771,281.7328 L187.3804,281.7328 L187.3804,279.5766 L189.8491,279.5766 L189.8491,271.4984 L187.3804,271.4984 Z " fill="#000000"/><text fill="#000000" font-family="sans-serif" font-size="12" font-style="italic" lengthAdjust="spacing" textLength="68.2031" x="209.9585" y="271.7387">&#171;interface&#187;</text><text fill="#000000" font-family="sans-serif" font-size="14" font-style="italic" lengthAdjust="spacing" textLength="37.2559" x="225.4321" y="287.5639">Piece</text><line style="stroke:#181818;stroke-width:0.5;" x1="145" x2="310.6201" y1="295.8656" y2="295.8656"/><line style="stroke:#181818;stroke-width:0.5;" x1="145" x2="310.6201" y1="303.8656" y2="303.8656"/><ellipse cx="155" cy="317.5141" fill="#84BE84" rx="3" ry="3" style="stroke:#038048;stroke-width:1;"/><text fill="#000000" font-family="sans-serif" font-size="14" lengthAdjust="spacing" textLength="141.6201" x="164" y="320.8607">render(int, int): void</text></g><!--class PieceFactory--><g class="entity" data-entity="PieceFactory" data-source-line="11" data-uid="ent0004" id="entity_PieceFactory"><rect fill="#F1F1F1" height="64.2969" rx="2.5" ry="2.5" style="stroke:#181818;stroke-width:0.5;" width="185.373" x="135.12" y="7"/><ellipse cx="178.7816" cy="23" fill="#ADD1B2" rx="11" ry="11" style="stroke:#181818;stroke-width:1;"/><path d="M181.7503,28.6406 Q181.1722,28.9375 180.5316,29.0781 Q179.8909,29.2344 179.1878,29.2344 Q176.6878,29.2344 175.3597,27.5938 Q174.0472,25.9375 174.0472,22.8125 Q174.0472,19.6875 175.3597,18.0313 Q176.6878,16.375 179.1878,16.375 Q179.8909,16.375 180.5316,16.5313 Q181.1878,16.6875 181.7503,16.9844 L181.7503,19.7031 Q181.1253,19.125 180.5316,18.8594 Q179.9378,18.5781 179.3128,18.5781 Q177.9691,18.5781 177.2816,19.6563 Q176.5941,20.7188 176.5941,22.8125 Q176.5941,24.9063 177.2816,25.9844 Q177.9691,27.0469 179.3128,27.0469 Q179.9378,27.0469 180.5316,26.7813 Q181.1253,26.5 181.7503,25.9219 L181.7503,28.6406 Z " fill="#000000"/><text fill="#000000" font-family="sans-serif" font-size="14" lengthAdjust="spacing" textLength="89.6807" x="199.1508" y="27.8467">PieceFactory</text><line style="stroke:#181818;stroke-width:0.5;" x1="136.12" x2="319.493" y1="39" y2="39"/><line style="stroke:#181818;stroke-width:0.5;" x1="136.12" x2="319.493" y1="47" y2="47"/><ellipse cx="146.12" cy="60.6484" fill="#84BE84" rx="3" ry="3" style="stroke:#038048;stroke-width:1;"/><text fill="#000000" font-family="sans-serif" font-size="14" lengthAdjust="spacing" textLength="159.373" x="155.12" y="63.9951">getPiece(String): Piece</text></g><!--class WhitePiece--><g class="entity" data-entity="WhitePiece" data-source-line="14" data-uid="ent0005" id="entity_WhitePiece"><rect fill="#F1F1F1" height="64.2969" rx="2.5" ry="2.5" style="stroke:#181818;stroke-width:0.5;" width="167.6201" x="281" y="131.3"/><ellipse cx="321.9453" cy="147.3" fill="#ADD1B2" rx="11" ry="11" style="stroke:#181818;stroke-width:1;"/><path d="M324.9141,152.9406 Q324.3359,153.2375 323.6953,153.3781 Q323.0547,153.5344 322.3516,153.5344 Q319.8516,153.5344 318.5234,151.8938 Q317.2109,150.2375 317.2109,147.1125 Q317.2109,143.9875 318.5234,142.3313 Q319.8516,140.675 322.3516,140.675 Q323.0547,140.675 323.6953,140.8313 Q324.3516,140.9875 324.9141,141.2844 L324.9141,144.0031 Q324.2891,143.425 323.6953,143.1594 Q323.1016,142.8781 322.4766,142.8781 Q321.1328,142.8781 320.4453,143.9563 Q319.7578,145.0188 319.7578,147.1125 Q319.7578,149.2063 320.4453,150.2844 Q321.1328,151.3469 322.4766,151.3469 Q323.1016,151.3469 323.6953,151.0813 Q324.2891,150.8 324.9141,150.2219 L324.9141,152.9406 Z " fill="#000000"/><text fill="#000000" font-family="sans-serif" font-size="14" lengthAdjust="spacing" textLength="77.9639" x="341.7109" y="152.1467">WhitePiece</text><line style="stroke:#181818;stroke-width:0.5;" x1="282" x2="447.6201" y1="163.3" y2="163.3"/><line style="stroke:#181818;stroke-width:0.5;" x1="282" x2="447.6201" y1="171.3" y2="171.3"/><ellipse cx="292" cy="184.9484" fill="#84BE84" rx="3" ry="3" style="stroke:#038048;stroke-width:1;"/><text fill="#000000" font-family="sans-serif" font-size="14" lengthAdjust="spacing" textLength="141.6201" x="301" y="188.2951">render(int, int): void</text></g><!--link BlackPiece to Piece--><g class="link" data-entity-1="BlackPiece" data-entity-2="Piece" data-source-line="18" data-uid="lnk6" id="link_BlackPiece_Piece"><path codeLine="18" d="M159.31,195.86 C159.31,213.99 159.31,218.65 159.31,237.4" fill="none" id="BlackPiece-to-Piece" style="stroke:#008200;stroke-width:1;stroke-dasharray:7,7;"/><polygon fill="none" points="159.31,255.4,165.31,237.4,153.31,237.4,159.31,255.4" style="stroke:#008200;stroke-width:1;"/></g><!--link PieceFactory to BlackPiece--><g class="link" data-entity-1="PieceFactory" data-entity-2="BlackPiece" data-source-line="19" data-uid="lnk7" id="link_PieceFactory_BlackPiece"><path codeLine="19" d="M154.87,71.49 C154.87,89.76 154.87,106.53 154.87,124.85" fill="none" id="PieceFactory-to-BlackPiece" style="stroke:#595959;stroke-width:1;stroke-dasharray:7,7;"/><polygon fill="#595959" points="154.87,130.85,158.87,121.85,154.87,125.85,150.87,121.85,154.87,130.85" style="stroke:#595959;stroke-width:1;"/><text fill="#000000" font-family="sans-serif" font-size="13" lengthAdjust="spacing" textLength="41.5518" x="112.87" y="97.2369">create</text></g><!--link PieceFactory to Piece--><g class="link" data-entity-1="PieceFactory" data-entity-2="Piece" data-source-line="20" data-uid="lnk8" id="link_PieceFactory_Piece"><path codeLine="20" d="M227.81,83.67 C227.81,130.87 227.81,200.07 227.81,249.39" fill="none" id="PieceFactory-Piece" style="stroke:#595959;stroke-width:1;"/><polygon fill="#595959" points="227.81,71.67,223.81,77.67,227.81,83.67,231.81,77.67,227.81,71.67" style="stroke:#595959;stroke-width:1;"/><polygon fill="#595959" points="227.81,255.39,231.81,246.39,227.81,250.39,223.81,246.39,227.81,255.39" style="stroke:#595959;stroke-width:1;"/><text fill="#000000" font-family="sans-serif" font-size="13" lengthAdjust="spacing" textLength="8.271" x="219.074" y="91.3787">1</text><text fill="#000000" font-family="sans-serif" font-size="13" lengthAdjust="spacing" textLength="41.7803" x="183.605" y="229.2716">pieces</text><text fill="#000000" font-family="sans-serif" font-size="13" lengthAdjust="spacing" textLength="6.5" x="201.2451" y="244.4045">*</text></g><!--link PieceFactory to WhitePiece--><g class="link" data-entity-1="PieceFactory" data-entity-2="WhitePiece" data-source-line="21" data-uid="lnk9" id="link_PieceFactory_WhitePiece"><path codeLine="21" d="M300.75,71.49 C300.75,89.76 300.75,106.53 300.75,124.85" fill="none" id="PieceFactory-to-WhitePiece" style="stroke:#595959;stroke-width:1;stroke-dasharray:7,7;"/><polygon fill="#595959" points="300.75,130.85,304.75,121.85,300.75,125.85,296.75,121.85,300.75,130.85" style="stroke:#595959;stroke-width:1;"/><text fill="#000000" font-family="sans-serif" font-size="13" lengthAdjust="spacing" textLength="41.5518" x="258.75" y="97.2369">create</text></g><!--link WhitePiece to Piece--><g class="link" data-entity-1="WhitePiece" data-entity-2="Piece" data-source-line="22" data-uid="lnk10" id="link_WhitePiece_Piece"><path codeLine="22" d="M296.31,195.86 C296.31,213.99 296.31,218.65 296.31,237.4" fill="none" id="WhitePiece-to-Piece" style="stroke:#008200;stroke-width:1;stroke-dasharray:7,7;"/><polygon fill="none" points="296.31,255.4,302.31,237.4,290.31,237.4,296.31,255.4" style="stroke:#008200;stroke-width:1;"/></g><!--SRC=[bO_DIWCn4CVlUOeXNcfjOHM4MieU53mB7Zpu0TDat0sDoPACmY8-aO_WhKzcifLj5uiV4mZC_EVtdvcuCgx1W4-mHBMgWdzs-i9R7u03kfWaSYnYtsMD8suRWiRRDYVxD1-uza8eYp72kKt6LuOKmQi0E8Bag2cCZEC9fEzm3Y_UQF4cKaBX4LFZfdsnW6sfB7_3D-Cwz18L-z1-4HLnLnrTSp2kIaINziXDRPZ-jA7OEIR5zFQWA6OdHJ7H66lIzzC7W5xD8GRhPE3qBByUA046ddEGwtSL29dM7tA8osC9uwr5Oz6ux22Rt1Nlt5Z-V_hEyT-c3xGVhlq4]--></g></svg>