<svg xmlns="http://www.w3.org/2000/svg" xmlns:xlink="http://www.w3.org/1999/xlink" contentStyleType="text/css" data-diagram-type="CLASS" height="216px" preserveAspectRatio="none" style="width:708px;height:216px;" version="1.1" viewBox="0 0 708 216" width="708px" zoomAndPan="magnify"><defs/><g><!--cluster Complex system--><g class="cluster" data-entity="Complex system" data-source-line="4" data-uid="ent0003" id="cluster_Complex system"><polygon fill="none" points="16,121.66,26,111.66,537,111.66,537,189.66,527,199.66,16,199.66,16,121.66" style="stroke:#181818;stroke-width:1;"/><line style="stroke:#181818;stroke-width:1;" x1="527" x2="537" y1="121.66" y2="111.66"/><line style="stroke:#181818;stroke-width:1;" x1="16" x2="527" y1="121.66" y2="121.66"/><line style="stroke:#181818;stroke-width:1;" x1="527" x2="527" y1="121.66" y2="199.66"/><text fill="#000000" font-family="sans-serif" font-size="14" font-weight="bold" lengthAdjust="spacing" textLength="129.2676" x="207.8662" y="137.6551">Complex system</text></g><!--class Dummy1--><g class="entity" data-entity="Dummy1" data-source-line="5" data-uid="ent0004" id="entity_Dummy1"><rect fill="#F1F1F1" height="32" rx="2.5" ry="2.5" style="stroke:#181818;stroke-width:0.5;" width="96.1211" x="31.94" y="151.66"/><ellipse cx="46.94" cy="167.66" fill="#ADD1B2" rx="11" ry="11" style="stroke:#181818;stroke-width:1;"/><path d="M49.9088,173.3006 Q49.3306,173.5975 48.69,173.7381 Q48.0494,173.8944 47.3463,173.8944 Q44.8463,173.8944 43.5181,172.2538 Q42.2056,170.5975 42.2056,167.4725 Q42.2056,164.3475 43.5181,162.6913 Q44.8463,161.035 47.3463,161.035 Q48.0494,161.035 48.69,161.1913 Q49.3463,161.3475 49.9088,161.6444 L49.9088,164.3631 Q49.2838,163.785 48.69,163.5194 Q48.0963,163.2381 47.4713,163.2381 Q46.1275,163.2381 45.44,164.3163 Q44.7525,165.3788 44.7525,167.4725 Q44.7525,169.5663 45.44,170.6444 Q46.1275,171.7069 47.4713,171.7069 Q48.0963,171.7069 48.69,171.4413 Q49.2838,171.16 49.9088,170.5819 L49.9088,173.3006 Z " fill="#000000"/><text fill="#000000" font-family="sans-serif" font-size="14" lengthAdjust="spacing" textLength="64.1211" x="60.94" y="172.5067">Dummy1</text></g><!--class Dummy2--><g class="entity" data-entity="Dummy2" data-source-line="6" data-uid="ent0005" id="entity_Dummy2"><rect fill="#F1F1F1" height="32" rx="2.5" ry="2.5" style="stroke:#181818;stroke-width:0.5;" width="96.1211" x="162.94" y="151.66"/><ellipse cx="177.94" cy="167.66" fill="#ADD1B2" rx="11" ry="11" style="stroke:#181818;stroke-width:1;"/><path d="M180.9088,173.3006 Q180.3306,173.5975 179.69,173.7381 Q179.0494,173.8944 178.3463,173.8944 Q175.8463,173.8944 174.5181,172.2538 Q173.2056,170.5975 173.2056,167.4725 Q173.2056,164.3475 174.5181,162.6913 Q175.8463,161.035 178.3463,161.035 Q179.0494,161.035 179.69,161.1913 Q180.3463,161.3475 180.9088,161.6444 L180.9088,164.3631 Q180.2838,163.785 179.69,163.5194 Q179.0963,163.2381 178.4713,163.2381 Q177.1275,163.2381 176.44,164.3163 Q175.7525,165.3788 175.7525,167.4725 Q175.7525,169.5663 176.44,170.6444 Q177.1275,171.7069 178.4713,171.7069 Q179.0963,171.7069 179.69,171.4413 Q180.2838,171.16 180.9088,170.5819 L180.9088,173.3006 Z " fill="#000000"/><text fill="#000000" font-family="sans-serif" font-size="14" lengthAdjust="spacing" textLength="64.1211" x="191.94" y="172.5067">Dummy2</text></g><!--class Dummy3--><g class="entity" data-entity="Dummy3" data-source-line="7" data-uid="ent0006" id="entity_Dummy3"><rect fill="#F1F1F1" height="32" rx="2.5" ry="2.5" style="stroke:#181818;stroke-width:0.5;" width="96.1211" x="293.94" y="151.66"/><ellipse cx="308.94" cy="167.66" fill="#ADD1B2" rx="11" ry="11" style="stroke:#181818;stroke-width:1;"/><path d="M311.9088,173.3006 Q311.3306,173.5975 310.69,173.7381 Q310.0494,173.8944 309.3463,173.8944 Q306.8463,173.8944 305.5181,172.2538 Q304.2056,170.5975 304.2056,167.4725 Q304.2056,164.3475 305.5181,162.6913 Q306.8463,161.035 309.3463,161.035 Q310.0494,161.035 310.69,161.1913 Q311.3463,161.3475 311.9088,161.6444 L311.9088,164.3631 Q311.2838,163.785 310.69,163.5194 Q310.0963,163.2381 309.4713,163.2381 Q308.1275,163.2381 307.44,164.3163 Q306.7525,165.3788 306.7525,167.4725 Q306.7525,169.5663 307.44,170.6444 Q308.1275,171.7069 309.4713,171.7069 Q310.0963,171.7069 310.69,171.4413 Q311.2838,171.16 311.9088,170.5819 L311.9088,173.3006 Z " fill="#000000"/><text fill="#000000" font-family="sans-serif" font-size="14" lengthAdjust="spacing" textLength="64.1211" x="322.94" y="172.5067">Dummy3</text></g><!--class Dummy4--><g class="entity" data-entity="Dummy4" data-source-line="8" data-uid="ent0007" id="entity_Dummy4"><rect fill="#F1F1F1" height="32" rx="2.5" ry="2.5" style="stroke:#181818;stroke-width:0.5;" width="96.1211" x="424.94" y="151.66"/><ellipse cx="439.94" cy="167.66" fill="#ADD1B2" rx="11" ry="11" style="stroke:#181818;stroke-width:1;"/><path d="M442.9088,173.3006 Q442.3306,173.5975 441.69,173.7381 Q441.0494,173.8944 440.3463,173.8944 Q437.8463,173.8944 436.5181,172.2538 Q435.2056,170.5975 435.2056,167.4725 Q435.2056,164.3475 436.5181,162.6913 Q437.8463,161.035 440.3463,161.035 Q441.0494,161.035 441.69,161.1913 Q442.3463,161.3475 442.9088,161.6444 L442.9088,164.3631 Q442.2838,163.785 441.69,163.5194 Q441.0963,163.2381 440.4713,163.2381 Q439.1275,163.2381 438.44,164.3163 Q437.7525,165.3788 437.7525,167.4725 Q437.7525,169.5663 438.44,170.6444 Q439.1275,171.7069 440.4713,171.7069 Q441.0963,171.7069 441.69,171.4413 Q442.2838,171.16 442.9088,170.5819 L442.9088,173.3006 Z " fill="#000000"/><text fill="#000000" font-family="sans-serif" font-size="14" lengthAdjust="spacing" textLength="64.1211" x="453.94" y="172.5067">Dummy4</text></g><!--class Facade--><g class="entity" data-entity="Facade" data-source-line="2" data-uid="ent0002" id="entity_Facade"><rect fill="#F1F1F1" height="32" rx="2.5" ry="2.5" style="stroke:#181818;stroke-width:0.5;" width="82.4082" x="234.8" y="32.83"/><ellipse cx="249.8" cy="48.83" fill="#ADD1B2" rx="11" ry="11" style="stroke:#181818;stroke-width:1;"/><path d="M252.7688,54.4706 Q252.1906,54.7675 251.55,54.9081 Q250.9094,55.0644 250.2063,55.0644 Q247.7063,55.0644 246.3781,53.4237 Q245.0656,51.7675 245.0656,48.6425 Q245.0656,45.5175 246.3781,43.8612 Q247.7063,42.205 250.2063,42.205 Q250.9094,42.205 251.55,42.3612 Q252.2063,42.5175 252.7688,42.8144 L252.7688,45.5331 Q252.1438,44.955 251.55,44.6894 Q250.9563,44.4081 250.3313,44.4081 Q248.9875,44.4081 248.3,45.4862 Q247.6125,46.5487 247.6125,48.6425 Q247.6125,50.7362 248.3,51.8144 Q248.9875,52.8769 250.3313,52.8769 Q250.9563,52.8769 251.55,52.6112 Q252.1438,52.33 252.7688,51.7519 L252.7688,54.4706 Z " fill="#000000"/><text fill="#000000" font-family="sans-serif" font-size="14" lengthAdjust="spacing" textLength="50.4082" x="263.8" y="53.6767">Facade</text></g><g class="entity" data-entity="N1" data-source-line="19" data-uid="ent0012" id="entity_N1"><path d="M352.64,6 L352.64,91.6641 L701.3568,91.6641 L701.3568,16 L691.3568,6 L352.64,6" fill="#FEFFDD" style="stroke:#181818;stroke-width:0.5;"/><path d="M691.3568,6 L691.3568,16 L701.3568,16 L691.3568,6" fill="#FEFFDD" style="stroke:#181818;stroke-width:1;"/><text fill="#4169E1" font-family="sans-serif" font-size="13" font-weight="bold" lengthAdjust="spacing" textLength="52.2539" x="358.64" y="23.0669">Facade</text><text fill="#000000" font-family="sans-serif" font-size="13" font-weight="bold" lengthAdjust="spacing" textLength="40.6631" x="358.64" y="38.1997">Type:</text><text fill="#000000" font-family="sans-serif" font-size="13" lengthAdjust="spacing" textLength="64.3398" x="403.4354" y="38.1997">Structural</text><text fill="#000000" font-family="sans-serif" font-size="13" lengthAdjust="spacing" textLength="241.5093" x="358.64" y="53.3325">Provide a unified interface to a set of</text><text fill="#000000" font-family="sans-serif" font-size="13" lengthAdjust="spacing" textLength="304.8779" x="358.64" y="68.4653">interfaces in a subsystem. Defines a high-level</text><text fill="#000000" font-family="sans-serif" font-size="13" lengthAdjust="spacing" textLength="327.7168" x="358.64" y="83.5981">interface that makes the subsystem easier to use.</text></g><!--link Facade to Dummy1--><g class="link" data-entity-1="Facade" data-entity-2="Dummy1" data-source-line="13" data-uid="lnk8" id="link_Facade_Dummy1"><path codeLine="13" d="M234.48,62.35 C207.68,71.5 172.77,85.47 145,103.66 C124.62,117.01 109.052,132.7842 96.812,146.7042" fill="none" id="Facade-to-Dummy1" style="stroke:#181818;stroke-width:1;"/><polygon fill="#181818" points="92.85,151.21,101.7969,147.0926,96.1517,147.4551,95.7891,141.8099,92.85,151.21" style="stroke:#181818;stroke-width:1;"/></g><!--link Facade to Dummy2--><g class="link" data-entity-1="Facade" data-entity-2="Dummy2" data-source-line="14" data-uid="lnk9" id="link_Facade_Dummy2"><path codeLine="14" d="M267.5,65.1 C255.05,87.49 234.8776,123.7472 222.4176,146.1372" fill="none" id="Facade-to-Dummy2" style="stroke:#181818;stroke-width:1;"/><polygon fill="#181818" points="219.5,151.38,227.3717,145.4608,221.9314,147.011,220.3812,141.5706,219.5,151.38" style="stroke:#181818;stroke-width:1;"/></g><!--link Facade to Dummy3--><g class="link" data-entity-1="Facade" data-entity-2="Dummy3" data-source-line="15" data-uid="lnk10" id="link_Facade_Dummy3"><path codeLine="15" d="M284.63,65.1 C297.28,87.49 317.7686,123.7661 330.4186,146.1561" fill="none" id="Facade-to-Dummy3" style="stroke:#181818;stroke-width:1;"/><polygon fill="#181818" points="333.37,151.38,332.4255,141.5765,330.9105,147.0268,325.4603,145.5118,333.37,151.38" style="stroke:#181818;stroke-width:1;"/></g><!--link Facade to Dummy4--><g class="link" data-entity-1="Facade" data-entity-2="Dummy4" data-source-line="16" data-uid="lnk11" id="link_Facade_Dummy4"><path codeLine="16" d="M293.07,65.12 C304.23,74.27 319.55,85.31 335,91.66 C365.41,104.16 378.63,88.88 408,103.66 C430.32,114.9 446.2597,131.7805 457.9597,146.5205" fill="none" id="Facade-to-Dummy4" style="stroke:#181818;stroke-width:1;"/><polygon fill="#181818" points="461.69,151.22,459.2276,141.6839,458.5815,147.3038,452.9616,146.6576,461.69,151.22" style="stroke:#181818;stroke-width:1;"/></g><!--SRC=[PP3DQiCm48JlUeebToSqoIaO7PgGOoYqBx2srhQmVeoq2ZMbxrxP9YrrT1BVp6Xd5Nlj1WneeSAwRuDFJfszyG4ue8jP8iUYDXWZNB56HK8CsOajmURixM3e4-8OcUm6olBc5Ka9NmBoMLANPEtuiWRxDJYimH74jn2TLWHa1nx1agqeH26M7b0Kyl7uckoVoE6978LmdWammcsfLrQohAVTJy6FQ5vD8hcaojtCPRchvCFwCGvqcW2ySqWrfu1crjw2lq-j4PBJZIO5sZ651ci2zXb7Ol3DxFrLOhvEKggMpzp2XHhjCaVeTDiLXkva_cU0EsIms6SNT_GN1iAeAKpJKgIj8ATWslK7]--></g></svg>